<svg width="58" height="30" viewBox="0 0 58 30" fill="none" xmlns="http://www.w3.org/2000/svg">
<path d="M44.3124 11.8423L44.336 17.4714C44.336 18.4467 44.838 18.8862 45.6766 18.8862C46.155 18.8862 47.0823 18.5491 47.4839 18.2962C47.5075 18.2842 47.5311 18.2962 47.5311 18.3263L47.5429 21.3064C47.5429 21.3064 47.537 21.3305 47.5252 21.3365C47.0704 21.5894 45.8597 21.9205 45.0034 21.9205C42.6173 21.9326 41.1231 20.6863 41.1113 17.935V7.05599C41.1113 6.60445 41.4657 6.23721 41.9086 6.23721H44.2769C44.2769 6.23721 44.3064 6.25527 44.3064 6.27333V9.09091H47.0586C47.0586 9.09091 47.0882 9.10295 47.0882 9.12101V11.0235C47.0882 11.475 46.7279 11.8423 46.2849 11.8423H44.3064H44.3124Z" fill="#101820"/>
<path d="M3.76208 12.1553C3.76208 11.8122 4.03376 11.5352 4.3704 11.5352H5.07911C6.4493 11.5292 7.71317 10.7947 7.70726 9.37387C7.70726 8.1758 6.69144 7.1463 5.37441 7.15232C5.29173 7.15232 5.21495 7.15232 5.13817 7.16436C5.13817 7.16436 4.87831 7.15232 4.48261 7.28477C4.35859 7.32089 4.24637 7.36906 4.14007 7.41722C4.14007 7.41722 3.64396 7.59783 3.09471 8.11559C2.71673 8.4708 2.12613 8.45876 1.75996 8.09151L0.413405 6.73089C0.413405 6.73089 0.401594 6.70078 0.413405 6.68874C1.45285 5.20169 3.15968 4.23841 5.22676 4.22637C8.51638 4.21433 10.9851 6.26731 10.9969 9.19928C11.0028 10.8489 10.1937 12.3299 9.04201 12.9199C10.5421 13.6123 11.2863 15.0873 11.2922 16.6526C11.304 19.6388 8.74671 21.9145 5.30354 21.9265C3.00022 21.9386 1.08668 20.9512 0.00589431 19.3197C-1.16458e-05 19.3076 -1.16458e-05 19.2896 0.00589431 19.2775L1.38198 17.8627C1.73634 17.5015 2.30331 17.4714 2.6872 17.8025C3.28961 18.3323 3.90973 18.5972 4.3763 18.7357C4.3763 18.7357 4.38812 18.7357 4.39402 18.7357C4.4708 18.7598 4.54167 18.7778 4.60664 18.7899C4.61845 18.7899 4.63026 18.7959 4.64798 18.8019C4.97871 18.8742 5.19133 18.8742 5.19133 18.8742C5.2681 18.8742 5.34488 18.8802 5.42756 18.8802C6.79775 18.8802 7.98484 17.9771 7.97894 16.6105C7.97303 15.1595 6.69735 14.2986 5.19723 14.3046H4.3763C4.03966 14.3046 3.76208 14.0277 3.76208 13.6845V12.1674V12.1553Z" fill="#101820"/>
<path d="M23.376 7.13426C23.376 7.13426 23.3878 7.10416 23.3819 7.09212C22.4369 5.49067 20.7183 4.41301 18.2201 4.2324C14.8419 3.9976 12.2846 5.99639 12.0779 9.07887C11.8889 11.8844 13.5839 13.3173 15.8518 14.0337L18.6867 14.9308C20.0509 15.3642 20.5943 15.9603 20.5234 16.9898C20.4289 18.3504 19.3068 19.0548 17.6827 18.9404C17.5645 18.9344 17.4464 18.9163 17.3283 18.9043C17.3283 18.9043 16.9326 18.8862 16.3656 18.6454C16.3538 18.6454 16.3479 18.6394 16.3361 18.6334C15.8931 18.4467 15.3439 18.1276 14.8064 17.5858C14.4462 17.2246 13.8733 17.2005 13.4894 17.5376L12.0129 18.8441C12.0129 18.8441 12.0011 18.8742 12.007 18.8862C13.0583 20.6442 14.9954 21.7098 17.5055 21.8844C20.9132 22.1252 23.6122 20.301 23.8367 16.9898C24.0138 14.407 22.5196 12.7092 19.9446 11.8844L17.0566 10.9573C15.8695 10.5659 15.3085 9.9398 15.3734 8.97051C15.4561 7.74835 16.531 7.03794 18.0488 7.1463C18.2437 7.15834 18.4327 7.18845 18.604 7.22457C18.604 7.22457 19.6139 7.34498 20.612 8.37448C20.9664 8.74173 21.5451 8.75377 21.9231 8.41662L23.376 7.12824V7.13426Z" fill="#101820"/>
<path d="M28.0649 21.5713H24.8816C24.8816 21.5713 24.8521 21.5593 24.8521 21.5412V9.12101C24.8521 9.12101 24.8639 9.09091 24.8816 9.09091H27.2971C27.7401 9.09091 28.1003 9.45816 28.1003 9.90969V21.5412C28.1003 21.5412 28.0885 21.5713 28.0708 21.5713H28.0649Z" fill="#101820"/>
<path d="M40.5919 9.08489H36.9774C36.9361 9.08489 36.8947 9.10897 36.8711 9.1451L34.7331 12.4443L32.8905 9.60265C32.6838 9.28357 32.3294 9.09091 31.9514 9.09091H28.8744C28.8744 9.09091 28.8331 9.12102 28.8449 9.13908L32.8609 15.3281L28.8449 21.5172C28.8449 21.5172 28.8449 21.5653 28.8744 21.5653H32.4889C32.5302 21.5653 32.5716 21.5412 32.5952 21.5051L34.7331 18.2059L36.5758 21.0476C36.7825 21.3666 37.1369 21.5593 37.5148 21.5593H40.5919C40.5919 21.5593 40.6332 21.5292 40.6214 21.5111L36.6053 15.3221L40.6214 9.13306C40.6214 9.13306 40.6214 9.08489 40.5919 9.08489Z" fill="#101820"/>
<path d="M50.5375 26.0084L52.203 21.5111L47.7026 9.12704C47.7026 9.12704 47.7085 9.08489 47.7322 9.08489H50.4312C50.8446 9.08489 51.2108 9.35581 51.3466 9.75316L51.3821 9.86755L53.8389 17.2788L56.1895 9.88561L56.2249 9.7652C56.3549 9.36183 56.7269 9.08489 57.1404 9.08489H59.8217C59.8217 9.08489 59.8571 9.10897 59.8512 9.12704L59.7862 9.30765L54.1342 25.2739L54.0929 25.4004C53.957 25.7917 53.5909 26.0506 53.1834 26.0506H50.5611C50.5611 26.0506 50.5257 26.0265 50.5316 26.0084H50.5375Z" fill="#101820"/>
<path d="M3.74414 24.9187H4.95486C5.37419 24.9187 5.74626 25.003 6.06518 25.1656C6.3841 25.3281 6.62625 25.5629 6.80343 25.8579C6.9747 26.1529 7.06329 26.4961 7.06329 26.8814C7.06329 27.2667 6.9747 27.6039 6.80343 27.9049C6.63215 28.2059 6.3841 28.4347 6.06518 28.6093C5.74626 28.7778 5.38009 28.8621 4.96077 28.8621H3.75005V24.9187H3.74414ZM4.94896 28.2902C5.24425 28.2902 5.50412 28.23 5.72854 28.1096C5.95297 27.9892 6.12424 27.8206 6.24236 27.6039C6.36048 27.3871 6.41954 27.1463 6.41954 26.8754C6.41954 26.6045 6.36048 26.3516 6.24236 26.1409C6.12424 25.9302 5.95297 25.7676 5.73445 25.6532C5.51593 25.5388 5.25016 25.4786 4.95486 25.4786H4.37017V28.2842H4.95486L4.94896 28.2902Z" fill="#101820"/>
<path d="M8.15572 28.7658C7.96673 28.6574 7.81318 28.5069 7.70687 28.3143C7.59466 28.1156 7.5415 27.8868 7.5415 27.6279V25.9241H8.14982V27.6821C8.14982 27.8868 8.20888 28.0494 8.3329 28.1698C8.45693 28.2902 8.61048 28.3504 8.79947 28.3504C8.98846 28.3504 9.13021 28.2902 9.24833 28.1698C9.36644 28.0494 9.43141 27.8868 9.43141 27.6821V25.9241H10.0456V27.6279C10.0456 27.8868 9.99248 28.1156 9.88026 28.3143C9.76805 28.5129 9.6204 28.6635 9.43141 28.7658C9.24242 28.8742 9.02981 28.9223 8.79357 28.9223C8.55733 28.9223 8.33881 28.8682 8.14982 28.7658H8.15572Z" fill="#101820"/>
<path d="M12.5263 28.3263V28.8561C12.3373 28.8983 12.1661 28.9223 12.0184 28.9223C11.6877 28.9223 11.4278 28.8381 11.2388 28.6695C11.0498 28.5009 10.9553 28.248 10.9553 27.9109V26.4901H10.4888V25.9241H10.9553V25.1535H11.5755V25.9241H12.4318V26.4901H11.5755V27.8507C11.5755 28.0373 11.6227 28.1638 11.7172 28.242C11.8117 28.3143 11.9534 28.3564 12.1424 28.3564C12.231 28.3564 12.3551 28.3444 12.5204 28.3263H12.5263Z" fill="#101820"/>
<path d="M15.7686 25.9241L14.3689 29.1933C14.2449 29.4702 14.1031 29.6749 13.9377 29.8073C13.7724 29.9398 13.5657 30 13.3176 30C13.1582 30 12.9987 29.9819 12.8451 29.9398V29.41C13.0223 29.4281 13.1404 29.4341 13.1877 29.4341C13.3294 29.4341 13.4535 29.404 13.5598 29.3438C13.6602 29.2836 13.7488 29.1692 13.8196 29.0066L13.9377 28.7297L12.792 25.9302H13.4535L14.2803 28.0614L15.1308 25.9302H15.7863L15.7686 25.9241Z" fill="#101820"/>
<path d="M17.4048 24.9187H19.8912V25.4846H18.0308V26.6647H19.5664V27.2306H18.0308V28.8561H17.4107V24.9127L17.4048 24.9187Z" fill="#101820"/>
<path d="M21.8753 25.9543V26.4901H21.6863C21.4442 26.4901 21.2434 26.5623 21.0839 26.7008C20.9244 26.8393 20.8418 27.0379 20.8418 27.2968V28.8561H20.2275V25.9241H20.8004V26.3335C20.9008 26.2011 21.0248 26.1048 21.1725 26.0325C21.3201 25.9603 21.4737 25.9241 21.6391 25.9241C21.7277 25.9241 21.8044 25.9362 21.8753 25.9543Z" fill="#101820"/>
<path d="M24.8992 27.5978H22.7554C22.7967 27.8326 22.8971 28.0193 23.0684 28.1517C23.2397 28.2842 23.4464 28.3564 23.6944 28.3564C23.9956 28.3564 24.2732 28.242 24.5331 28.0132L24.8284 28.4467C24.4976 28.7658 24.1197 28.9223 23.6826 28.9223C23.3873 28.9223 23.1275 28.8561 22.8912 28.7237C22.655 28.5912 22.4719 28.4046 22.3361 28.1758C22.2002 27.941 22.1353 27.6821 22.1353 27.3992C22.1353 27.1162 22.2002 26.8573 22.3302 26.6225C22.4601 26.3877 22.6432 26.2011 22.8676 26.0686C23.0979 25.9362 23.346 25.8639 23.6177 25.8639C23.8716 25.8639 24.1019 25.9241 24.3027 26.0385C24.5035 26.1589 24.663 26.3155 24.7752 26.5202C24.8874 26.7249 24.9465 26.9536 24.9465 27.2065C24.9465 27.3329 24.9288 27.4594 24.8992 27.5978ZM23.0625 26.6225C22.9148 26.7489 22.8144 26.9235 22.7672 27.1463H24.3323C24.3323 26.9235 24.2555 26.7489 24.1138 26.6225C23.972 26.4961 23.8007 26.4299 23.594 26.4299C23.3873 26.4299 23.216 26.4961 23.0625 26.6225Z" fill="#101820"/>
<path d="M28.2069 27.5978H26.063C26.1043 27.8326 26.2047 28.0193 26.376 28.1517C26.5473 28.2842 26.754 28.3564 27.002 28.3564C27.3032 28.3564 27.5808 28.242 27.8407 28.0132L28.136 28.4467C27.8053 28.7658 27.4273 28.9223 26.9902 28.9223C26.6949 28.9223 26.4351 28.8561 26.1988 28.7237C25.9626 28.5912 25.7795 28.4046 25.6437 28.1758C25.5078 27.941 25.4429 27.6821 25.4429 27.3992C25.4429 27.1162 25.5078 26.8573 25.6378 26.6225C25.7677 26.3877 25.9508 26.2011 26.1752 26.0686C26.4055 25.9362 26.6536 25.8639 26.9253 25.8639C27.1792 25.8639 27.4096 25.9241 27.6104 26.0385C27.8112 26.1589 27.9706 26.3155 28.0828 26.5202C28.195 26.7249 28.2541 26.9536 28.2541 27.2065C28.2541 27.3329 28.2364 27.4594 28.2069 27.5978ZM26.3701 26.6225C26.2225 26.7489 26.1221 26.9235 26.0748 27.1463H27.6399C27.6399 26.9235 27.5631 26.7489 27.4214 26.6225C27.2796 26.4961 27.1084 26.4299 26.9016 26.4299C26.6949 26.4299 26.5237 26.4961 26.3701 26.6225Z" fill="#101820"/>
<path d="M33.1028 27.357C32.8784 27.6942 32.7189 27.929 32.6126 28.0614L33.2563 28.8561H32.524L32.2228 28.4828C32.0633 28.6273 31.8921 28.7357 31.7208 28.8079C31.5495 28.8802 31.3487 28.9163 31.1361 28.9163C30.8999 28.9163 30.6932 28.8742 30.5042 28.7839C30.3152 28.6936 30.1734 28.5671 30.0671 28.4106C29.9608 28.248 29.9136 28.0674 29.9136 27.8627C29.9136 27.658 29.9726 27.4594 30.0967 27.2788C30.2207 27.0981 30.4333 26.8934 30.7404 26.6526C30.6105 26.484 30.516 26.3275 30.4569 26.189C30.3979 26.0446 30.3683 25.9001 30.3683 25.7556C30.3683 25.4847 30.451 25.2679 30.6223 25.0993C30.7936 24.9368 31.018 24.8525 31.2956 24.8525C31.5731 24.8525 31.7799 24.9308 31.9511 25.0873C32.1224 25.2438 32.2051 25.4425 32.2051 25.6893C32.2051 25.87 32.1519 26.0506 32.0456 26.2131C31.9393 26.3817 31.774 26.5563 31.5436 26.7369L32.2405 27.5918C32.2937 27.5196 32.4118 27.339 32.6067 27.05C32.648 26.9837 32.7071 26.8934 32.7957 26.761L33.2859 27.1102L33.1146 27.363L33.1028 27.357ZM31.8507 28.0373L31.077 27.0801C30.8585 27.2547 30.7109 27.3931 30.6459 27.4834C30.575 27.5798 30.5396 27.6881 30.5396 27.8086C30.5396 27.9651 30.5987 28.0975 30.7109 28.1999C30.829 28.3022 30.9766 28.3564 31.1597 28.3564C31.396 28.3564 31.6263 28.248 31.8507 28.0313V28.0373ZM31.0239 25.5087C30.9648 25.5689 30.9353 25.6532 30.9353 25.7676C30.9353 25.8519 30.9589 25.9362 31.0003 26.0205C31.0416 26.1048 31.1125 26.2071 31.2129 26.3335C31.3605 26.2191 31.4668 26.1168 31.5318 26.0265C31.5968 25.9362 31.6263 25.8459 31.6263 25.7435C31.6263 25.6412 31.5968 25.5629 31.5377 25.5027C31.4787 25.4425 31.396 25.4124 31.2897 25.4124C31.1834 25.4124 31.0948 25.4425 31.0357 25.5027L31.0239 25.5087Z" fill="#101820"/>
<path d="M38.6247 24.8525V28.8621H38.0046V26.3877L36.8942 27.8688H36.6816L35.5713 26.3817V28.8621H34.9512V24.8525H35.1697L36.7938 27.056L38.418 24.8525H38.6306H38.6247Z" fill="#101820"/>
<path d="M39.9537 28.7176C39.7233 28.5792 39.5403 28.3925 39.4044 28.1577C39.2686 27.9229 39.2036 27.6641 39.2036 27.3871C39.2036 27.1102 39.2686 26.8453 39.4044 26.6165C39.5403 26.3817 39.7233 26.2011 39.9537 26.0626C40.184 25.9302 40.438 25.8579 40.7155 25.8579C40.9931 25.8579 41.253 25.9241 41.4892 26.0626C41.7255 26.1951 41.9085 26.3817 42.0444 26.6165C42.1802 26.8513 42.2452 27.1102 42.2452 27.3871C42.2452 27.6641 42.1802 27.9229 42.0444 28.1577C41.9085 28.3925 41.7255 28.5792 41.4892 28.7176C41.253 28.8561 40.999 28.9223 40.7155 28.9223C40.4321 28.9223 40.184 28.8561 39.9537 28.7176ZM41.1762 28.23C41.312 28.1457 41.4183 28.0313 41.501 27.8808C41.5778 27.7363 41.6192 27.5738 41.6192 27.3931C41.6192 27.2125 41.5778 27.05 41.501 26.8995C41.4243 26.7489 41.3179 26.6346 41.1762 26.5503C41.0345 26.466 40.8868 26.4238 40.7274 26.4238C40.5679 26.4238 40.4084 26.466 40.2726 26.5503C40.1368 26.6346 40.0304 26.7489 39.9478 26.8995C39.8651 27.05 39.8296 27.2125 39.8296 27.3931C39.8296 27.5738 39.871 27.7363 39.9478 27.8868C40.0245 28.0313 40.1309 28.1457 40.2667 28.23C40.4025 28.3143 40.5502 28.3564 40.7214 28.3564C40.8927 28.3564 41.0404 28.3143 41.1762 28.23Z" fill="#101820"/>
<path d="M44.4774 25.9543V26.4901H44.2884C44.0462 26.4901 43.8454 26.5623 43.686 26.7008C43.5265 26.8393 43.4438 27.0379 43.4438 27.2968V28.8561H42.8296V25.9241H43.4025V26.3335C43.5029 26.2011 43.6269 26.1048 43.7745 26.0325C43.9222 25.9603 44.0758 25.9241 44.2411 25.9241C44.3297 25.9241 44.4065 25.9362 44.4774 25.9543Z" fill="#101820"/>
<path d="M47.5013 27.5978H45.3574C45.3988 27.8326 45.4992 28.0193 45.6704 28.1517C45.8417 28.2842 46.0484 28.3564 46.2965 28.3564C46.5977 28.3564 46.8753 28.242 47.1351 28.0132L47.4304 28.4467C47.0997 28.7658 46.7217 28.9223 46.2847 28.9223C45.9894 28.9223 45.7295 28.8561 45.4933 28.7237C45.257 28.5912 45.0739 28.4046 44.9381 28.1758C44.8023 27.941 44.7373 27.6821 44.7373 27.3992C44.7373 27.1162 44.8023 26.8573 44.9322 26.6225C45.0621 26.3877 45.2452 26.2011 45.4696 26.0686C45.7 25.9362 45.948 25.8639 46.2197 25.8639C46.4737 25.8639 46.704 25.9241 46.9048 26.0385C47.1056 26.1589 47.2651 26.3155 47.3773 26.5202C47.4895 26.7249 47.5485 26.9536 47.5485 27.2065C47.5485 27.3329 47.5308 27.4594 47.5013 27.5978ZM45.6645 26.6225C45.5169 26.7489 45.4165 26.9235 45.3692 27.1463H46.9343C46.9343 26.9235 46.8575 26.7489 46.7158 26.6225C46.5741 26.4961 46.4028 26.4299 46.1961 26.4299C45.9894 26.4299 45.8181 26.4961 45.6645 26.6225Z" fill="#101820"/>
</svg>
