<svg width="94" height="15" viewBox="0 0 94 15" fill="none" xmlns="http://www.w3.org/2000/svg">
<g clip-path="url(#clip0_229_1005)">
<path d="M93.6875 14.5182C93.6875 13.6068 93.1122 13.2878 92.1534 13.2878H84.9587C81.5779 13.2878 80.3918 11.3672 80.2356 10.0521H90.2286C93.1406 10.0521 94 8.125 94 6.88802C94 5.56641 93.0625 3.72396 90.2286 3.72396H84.8308C79.916 3.72396 78.3037 6.79036 78.3037 9.27734C78.3037 12.0117 80.1433 14.8307 84.8237 14.8307H93.6946V14.5182H93.6875ZM84.9729 5.27344H89.98C91.7059 5.27344 92.125 6.25651 92.125 6.89453C92.125 7.46094 91.7485 8.51562 89.98 8.51562H80.2356C80.3563 7.41536 81.3649 5.27995 84.9729 5.27995V5.27344ZM64.5961 14.1341C64.0777 14.7786 63.7297 15.0065 63.2751 15.0065C62.6501 15.0065 62.4086 14.694 61.9612 14.1341C60.8745 12.7799 53.6514 3.73047 53.6514 3.73047H54.7665C55.9739 3.73047 56.3148 4.12109 56.819 4.75911C57.0392 5.03906 63.3248 13.1576 63.3248 13.1576C63.3248 13.1576 69.6033 5.04557 69.859 4.71354C70.3207 4.11458 70.6758 3.72396 71.8903 3.72396H72.8704C72.8704 3.72396 65.4768 13.0273 64.5961 14.1276V14.1341ZM17.2091 14.8372C16.4491 14.8372 15.9733 14.4922 15.8312 13.7565L15.5826 12.5521C15.1778 13.2487 13.6579 14.8438 10.3695 14.8438H6.59101C1.44889 14.8372 0 11.6406 0 9.28385C0 6.62109 1.74008 3.72396 6.59101 3.72396H10.3695C14.0485 3.72396 16.094 5.6901 16.5841 8.07943C16.996 10.0781 17.9619 14.8307 17.9619 14.8307H17.2091V14.8372ZM9.95043 5.27344H6.71885C3.08954 5.27344 1.86082 7.38932 1.86082 9.28385C1.86082 11.1784 3.09664 13.2943 6.71885 13.2943H9.95043C13.736 13.2943 14.844 11.0872 14.844 9.28385C14.844 7.67578 13.8567 5.27344 9.95043 5.27344ZM75.2923 2.45443C75.8321 2.45443 76.244 2.14844 76.244 1.56901V1.20443C76.244 0.61849 75.825 0.31901 75.2923 0.31901C74.7597 0.31901 74.3406 0.611979 74.3406 1.20443V1.56901C74.3406 2.15495 74.7597 2.45443 75.2923 2.45443ZM74.3619 3.72396H74.8023C75.6688 3.72396 76.2227 4.08203 76.2227 5.15625V14.8307H75.7611C74.8094 14.8307 74.3619 14.362 74.3619 13.4245V3.72396ZM20.8029 5.16927C21.6054 4.47266 23.0259 3.72396 25.2774 3.72396H29.0558C34.198 3.72396 35.6468 6.91406 35.6468 9.27734C35.6468 11.9336 33.9068 14.8307 29.0558 14.8307H25.2774C21.5983 14.8307 18.942 12.6497 18.942 9.27734V0H19.5173C20.3412 0 20.8029 0.384115 20.8029 1.09375V5.16927ZM25.6964 13.2943H28.9209C32.5502 13.2943 33.786 11.1784 33.786 9.28385C33.786 7.38932 32.5502 5.27344 28.9209 5.27344H25.6964C21.9037 5.27344 20.8029 7.47396 20.8029 9.28385C20.8029 10.8919 21.7901 13.2943 25.6964 13.2943ZM39.3898 5.16927C40.1924 4.47266 41.6128 3.72396 43.8643 3.72396H47.6428C52.7849 3.72396 54.2338 6.91406 54.2338 9.27734C54.2338 11.9336 52.4866 14.8307 47.6428 14.8307H43.8643C40.1853 14.8307 37.529 12.6497 37.529 9.27734V0H38.1043C38.9281 0 39.3898 0.384115 39.3898 1.09375V5.16927ZM44.2833 13.2943H47.5149C51.1371 13.2943 52.3729 11.1784 52.3729 9.28385C52.3729 7.38932 51.1371 5.27344 47.5149 5.27344H44.2833C40.4978 5.27344 39.3898 7.47396 39.3898 9.28385C39.3898 10.8919 40.377 13.2943 44.2833 13.2943Z" fill="#101820"/>
</g>
<defs>
<clipPath id="clip0_229_1005">
<rect width="94" height="15" fill="white"/>
</clipPath>
</defs>
</svg>
