<svg width="76" height="18" viewBox="0 0 76 18" fill="none" xmlns="http://www.w3.org/2000/svg">
<g clip-path="url(#clip0_229_964)">
<path d="M0 17.2241L4.10474 17.2587L5.23492 13.0894H10.4698V17.2587H14.5399V0.58155C3.45297 -0.713564 0 17.2241 0 17.2241ZM10.5114 9.28721L6.98221 9.27336C6.98221 9.27336 9.07618 6.22603 10.5114 5.50575V9.28721Z" fill="#101820"/>
<path d="M49.1459 7.09205H39.9726V11.2406H44.7569C43.9595 12.7573 42.3717 13.7754 40.5273 13.7754C37.8925 13.7754 35.7431 11.6284 35.7431 8.99663C35.7431 6.36485 37.8856 4.21787 40.5273 4.21787C42.025 4.21787 43.3701 4.89659 44.327 6.1363L48.6189 6.12245C48.6189 6.12245 48.7021 4.90351 47.6621 3.56685C47.6274 3.51837 47.5789 3.47681 47.5442 3.42833C47.4887 3.35907 47.4402 3.28982 47.3778 3.22056C47.3639 3.20671 47.357 3.20671 47.3431 3.19286C45.6028 1.16361 43.1482 -0.00683594 40.5134 -0.00683594C36.901 -0.00683594 33.7878 2.13322 32.3525 5.20132L32.3317 0.498743C25.9389 0.84503 23.8518 8.69882 23.8518 8.69882C21.2378 0.221714 15.4413 0.51952 15.4413 0.51952V17.169L19.5738 17.1829V7.65996C21.7995 9.33599 21.8341 17.1205 21.8341 17.1205H25.8834C26.0221 9.89697 28.2339 7.65996 28.2339 7.65996V17.1829H32.3456L32.3872 12.8335C33.8294 15.8808 36.9357 18.0001 40.5273 18.0001C44.5974 18.0001 48.0088 15.3475 49.1389 11.6492V17.2521H57.286V13.2975H53.0287V11.0882H57.2652V7.06435H53.0426V4.86196H57.2791V0.838105H49.1181L49.1389 7.09897L49.1459 7.09205Z" fill="#101820"/>
<path d="M66.0779 7.72922C62.3615 1.66227 58.2914 0.858887 58.2914 0.858887V17.2175L62.5903 17.259V9.52991C65.6133 12.4387 66.0987 17.259 66.0987 17.259H70.3144V0.858887H66.0779V7.72922Z" fill="#101820"/>
<path d="M75.0223 1.47541C75.0223 1.35767 74.9946 1.26763 74.946 1.19145C74.8906 1.11527 74.8212 1.05294 74.7242 1.00446C74.641 0.955976 74.5439 0.928273 74.4399 0.914422C74.3359 0.90057 74.2041 0.886719 74.0447 0.886719H73.3097V3.07525H73.6564V2.20261H74.1487L74.5716 3.07525H75.0292L74.4953 2.1195C74.6618 2.06409 74.7935 1.98791 74.8906 1.88403C74.9876 1.77321 75.0292 1.64162 75.0292 1.48233L75.0223 1.47541ZM74.6202 1.70396C74.5924 1.75244 74.5577 1.80092 74.5023 1.84247C74.4468 1.88403 74.3775 1.91865 74.2943 1.93251C74.218 1.94636 74.1209 1.95328 74.0031 1.95328H73.6494V1.12912H74.0585C74.1556 1.12912 74.2319 1.12912 74.3081 1.1499C74.3775 1.15682 74.4329 1.1776 74.4884 1.2053C74.5508 1.23993 74.5924 1.28149 74.6202 1.32304C74.6479 1.37152 74.6618 1.42693 74.6618 1.48926C74.6618 1.57237 74.6479 1.64162 74.6202 1.69703V1.70396Z" fill="#101820"/>
<path d="M74.0586 0.0136719C72.9908 0.0136719 72.1172 0.886315 72.1172 1.95288C72.1172 3.01944 72.9908 3.89209 74.0586 3.89209C75.1264 3.89209 76 3.01944 76 1.95288C76 0.886315 75.1264 0.0136719 74.0586 0.0136719ZM74.0586 3.60121C73.1503 3.60121 72.4153 2.86708 72.4153 1.95981C72.4153 1.05253 73.1503 0.318404 74.0586 0.318404C74.9669 0.318404 75.7088 1.05253 75.7088 1.95981C75.7088 2.86708 74.9669 3.60121 74.0586 3.60121Z" fill="#101820"/>
</g>
<defs>
<clipPath id="clip0_229_964">
<rect width="76" height="18" fill="white"/>
</clipPath>
</defs>
</svg>
