<svg width="76" height="18" viewBox="0 0 76 18" fill="none" xmlns="http://www.w3.org/2000/svg">
<g clip-path="url(#clip0_440_112)">
<path d="M0 17.2243L4.10474 17.259L5.23492 13.0897H10.4698V17.259H14.5399V0.581794C3.45297 -0.71332 0 17.2243 0 17.2243ZM10.5114 9.28745L6.98221 9.2736C6.98221 9.2736 9.07618 6.22627 10.5114 5.506V9.28745Z" fill="#101820"/>
<path d="M49.1459 7.09205H39.9726V11.2406H44.7569C43.9595 12.7573 42.3717 13.7754 40.5273 13.7754C37.8925 13.7754 35.7431 11.6284 35.7431 8.99663C35.7431 6.36485 37.8856 4.21787 40.5273 4.21787C42.025 4.21787 43.3701 4.89659 44.327 6.1363L48.6189 6.12245C48.6189 6.12245 48.7021 4.90351 47.6621 3.56685C47.6274 3.51837 47.5789 3.47681 47.5442 3.42833C47.4887 3.35907 47.4402 3.28982 47.3778 3.22056C47.3639 3.20671 47.357 3.20671 47.3431 3.19286C45.6028 1.16361 43.1482 -0.00683594 40.5134 -0.00683594C36.901 -0.00683594 33.7878 2.13322 32.3525 5.20132L32.3317 0.498743C25.9389 0.84503 23.8518 8.69882 23.8518 8.69882C21.2378 0.221714 15.4413 0.51952 15.4413 0.51952V17.169L19.5738 17.1829V7.65996C21.7995 9.33599 21.8341 17.1205 21.8341 17.1205H25.8834C26.0221 9.89697 28.2339 7.65996 28.2339 7.65996V17.1829H32.3456L32.3872 12.8335C33.8294 15.8808 36.9357 18.0001 40.5273 18.0001C44.5974 18.0001 48.0088 15.3475 49.1389 11.6492V17.2521H57.286V13.2975H53.0287V11.0882H57.2652V7.06435H53.0426V4.86196H57.2791V0.838105H49.1181L49.1389 7.09897L49.1459 7.09205Z" fill="#101820"/>
<path d="M66.078 7.72922C62.3616 1.66227 58.2915 0.858887 58.2915 0.858887V17.2175L62.5904 17.259V9.52991C65.6135 12.4387 66.0988 17.259 66.0988 17.259H70.3145V0.858887H66.078V7.72922Z" fill="#101820"/>
<path d="M75.0224 1.47516C75.0224 1.35743 74.9947 1.26739 74.9462 1.19121C74.8907 1.11502 74.8214 1.05269 74.7243 1.00421C74.6411 0.955732 74.544 0.928029 74.44 0.914178C74.336 0.900326 74.2043 0.886475 74.0448 0.886475H73.3098V3.07501H73.6565V2.20237H74.1488L74.5717 3.07501H75.0294L74.4955 2.11926C74.6619 2.06385 74.7936 1.98767 74.8907 1.88378C74.9878 1.77297 75.0294 1.64138 75.0294 1.48209L75.0224 1.47516ZM74.6203 1.70371C74.5925 1.75219 74.5579 1.80067 74.5024 1.84223C74.4469 1.88378 74.3776 1.91841 74.2944 1.93226C74.2181 1.94611 74.1211 1.95304 74.0032 1.95304H73.6496V1.12888H74.0586C74.1557 1.12888 74.232 1.12888 74.3083 1.14965C74.3776 1.15658 74.4331 1.17736 74.4885 1.20506C74.5509 1.23969 74.5925 1.28124 74.6203 1.3228C74.648 1.37128 74.6619 1.42668 74.6619 1.48901C74.6619 1.57212 74.648 1.64138 74.6203 1.69679V1.70371Z" fill="#101820"/>
<path d="M74.0586 0.013916C72.9908 0.013916 72.1172 0.886559 72.1172 1.95312C72.1172 3.01969 72.9908 3.89233 74.0586 3.89233C75.1264 3.89233 76 3.01969 76 1.95312C76 0.886559 75.1264 0.013916 74.0586 0.013916ZM74.0586 3.60145C73.1503 3.60145 72.4153 2.86732 72.4153 1.96005C72.4153 1.05278 73.1503 0.318649 74.0586 0.318649C74.9669 0.318649 75.7088 1.05278 75.7088 1.96005C75.7088 2.86732 74.9669 3.60145 74.0586 3.60145Z" fill="#101820"/>
</g>
<defs>
<clipPath id="clip0_440_112">
<rect width="76" height="18" fill="white"/>
</clipPath>
</defs>
</svg>
