<svg width="82" height="18" viewBox="0 0 82 18" fill="none" xmlns="http://www.w3.org/2000/svg">
<g clip-path="url(#clip0_229_943)">
<path d="M80.135 0.000194053C80.5 0.000194053 80.8584 0.109754 81.1704 0.315984C81.4757 0.522213 81.7146 0.825113 81.854 1.17313C81.9934 1.52114 82.0332 1.90782 81.9602 2.28161C81.8872 2.6554 81.7146 2.99697 81.4558 3.2612C81.1969 3.53188 80.8651 3.71233 80.5067 3.78322C80.1483 3.85411 79.7766 3.82189 79.4315 3.67366C79.093 3.52544 78.801 3.28054 78.6019 2.96475C78.3961 2.64896 78.2899 2.28161 78.2899 1.90138C78.2899 1.65003 78.3297 1.39869 78.4227 1.16668C78.5156 0.934673 78.6483 0.721999 78.8209 0.541547C78.9934 0.361096 79.1992 0.225758 79.4248 0.129088C79.6505 0.0324175 79.8894 -0.0126953 80.135 -0.0126953V0.000194053ZM80.135 0.290205C79.8231 0.277315 79.5111 0.354652 79.2456 0.522213C78.9802 0.689775 78.7678 0.934673 78.635 1.23113C78.5023 1.52758 78.4625 1.84982 78.5156 2.17205C78.5687 2.48784 78.708 2.7843 78.9271 3.02275C79.1461 3.25476 79.4182 3.41588 79.7301 3.48677C80.0354 3.55766 80.354 3.52544 80.646 3.40943C80.9381 3.29343 81.1836 3.08075 81.3628 2.81652C81.5354 2.55229 81.635 2.2365 81.635 1.90782C81.635 1.70159 81.6084 1.49536 81.5354 1.30202C81.4624 1.10868 81.3562 0.928228 81.2168 0.780001C81.0775 0.631773 80.9115 0.509324 80.7257 0.425543C80.5399 0.341762 80.3407 0.296649 80.1416 0.290205H80.135ZM79.7899 3.00986H79.458V0.88956C79.6505 0.857337 79.8496 0.838003 80.0421 0.838003C80.2677 0.818669 80.4934 0.876671 80.6859 0.99912C80.7522 1.05068 80.7987 1.11512 80.8319 1.19246C80.8651 1.2698 80.8783 1.35358 80.8717 1.43736C80.8717 1.55981 80.8319 1.67581 80.7589 1.76604C80.6859 1.86271 80.5863 1.92715 80.4668 1.95293V1.97227C80.646 2.00449 80.7722 2.1785 80.812 2.48784C80.8319 2.66829 80.8717 2.84874 80.9447 3.01631H80.5996C80.5266 2.8423 80.4735 2.66185 80.4602 2.47495C80.4602 2.41695 80.4469 2.36539 80.4204 2.31384C80.3938 2.26228 80.3607 2.21716 80.3208 2.18494C80.281 2.15272 80.2279 2.12694 80.1815 2.10761C80.1284 2.09472 80.0753 2.08827 80.0222 2.10116H79.7899V3.00986ZM79.7899 1.83048H80.0288C80.3076 1.83048 80.5332 1.72737 80.5332 1.46314C80.5332 1.27624 80.4005 1.08935 80.0288 1.08935C79.9492 1.08935 79.8695 1.08935 79.7899 1.10868V1.83048Z" fill="#101820"/>
<path d="M9.25196 8.23652C9.74974 7.83051 10.148 7.31493 10.4201 6.72847C10.6988 6.142 10.8382 5.49753 10.8382 4.84662C10.8448 1.8434 8.80728 0.245117 4.95119 0.245117C3.36495 0.245117 1.78535 0.3869 0.219021 0.664022L0 0.715579V17.5749L4.91137 17.6522C9.39798 17.6522 11.6745 15.8864 11.6745 12.4062C11.6745 10.4793 10.8117 9.06144 9.2586 8.22363V8.23652H9.25196ZM3.07293 3.113C3.61716 3.04855 4.16139 3.00989 4.71226 3.00344C6.81619 3.00344 7.75864 3.67369 7.75864 5.16886C7.752 5.62643 7.6259 6.07111 7.40024 6.45779C7.17458 6.85092 6.85601 7.17315 6.4777 7.39872L5.28968 7.30849H3.06629V3.10656L3.07293 3.113ZM4.74545 14.9197L3.07956 14.881V9.99592H5.16358C7.38697 9.99592 8.44889 10.7886 8.44889 12.4191C8.43561 14.2043 7.36706 14.9261 4.72554 14.9261L4.74545 14.9132V14.9197ZM13.5395 3.85414H16.4796V0.341787H13.5395V3.85414ZM13.5395 17.5813H16.4796V5.54909H13.5395V17.5813ZM25.5657 11.2655C25.0281 10.8982 24.4573 10.5953 23.86 10.3439L22.9972 9.94437C21.8822 9.42879 21.7361 9.02922 21.7361 8.73921C21.7361 8.06896 22.2671 7.66939 23.1498 7.66939C23.8202 7.65006 24.4905 7.77251 25.1144 8.0174L25.4462 8.15274L25.7449 5.82621L25.5458 5.74243C24.6697 5.34286 23.7206 5.14952 22.7649 5.16886C20.4884 5.16886 18.8358 6.71558 18.8358 8.85521C18.8159 9.4159 18.9353 9.97659 19.1809 10.4793C19.4265 10.982 19.7915 11.4138 20.2428 11.7295C20.7804 12.0776 21.3446 12.374 21.9352 12.606C22.3733 12.7865 22.7981 13.0056 23.2095 13.2505C23.7671 13.6307 23.8202 13.8821 23.8202 14.0883C23.8202 15.3192 22.3667 15.461 21.7361 15.461C20.7738 15.4868 19.818 15.2677 18.9552 14.823L18.6101 14.6425L18.2849 17.1946L18.4907 17.2784C19.5592 17.7424 20.7074 17.968 21.8622 17.9422C24.1719 17.9422 26.8665 16.8788 26.8665 13.8885C26.8732 13.3729 26.7537 12.8638 26.5214 12.4062C26.2891 11.9487 25.9506 11.562 25.5325 11.2784H25.5524L25.5657 11.2655ZM45.7421 15.287C45.2178 15.287 44.7068 15.171 44.7068 13.7596V0.316009L41.7666 0.792915V13.8756C41.7666 17.4202 43.897 17.9551 45.1713 17.9551C45.762 17.9551 46.3527 17.8778 46.9235 17.7102L47.1824 17.6329L46.5386 15.2548L45.7488 15.2935L45.7421 15.287ZM52.0406 13.5147L49.2265 5.54909H45.9678L50.6203 17.6973H53.2021L57.9675 5.54909H54.8215C54.8215 5.54909 52.4588 12.2902 52.0207 13.5276L52.0406 13.5147ZM76.9492 5.16241C75.1904 5.18819 73.4383 5.41375 71.7326 5.8391L71.5202 5.8971V17.5878H74.4604V8.24941C75.1971 8.11408 75.9404 8.04318 76.6838 8.03674C78.3165 8.03674 78.9072 8.87455 78.9072 11.2333V17.5813H81.8473V10.3375C81.8075 6.96048 80.1151 5.1753 76.9227 5.1753L76.9426 5.16241H76.9492Z" fill="#101820"/>
<path d="M34.1274 5.09766C32.893 5.09766 31.685 5.47789 30.6563 6.19325C29.6276 6.90217 28.8311 7.91398 28.3599 9.09336C27.8887 10.2727 27.7692 11.5681 28.0081 12.8248C28.2537 14.0751 28.8444 15.2223 29.7205 16.1245C30.5966 17.0268 31.7116 17.639 32.9195 17.8839C34.1274 18.1288 35.3885 17.9999 36.53 17.5166C37.6716 17.0268 38.6472 16.2018 39.3308 15.1385C40.0145 14.0751 40.3795 12.8313 40.3795 11.5552C40.3795 10.7045 40.2136 9.86672 39.9016 9.08692C39.5897 8.30066 39.1251 7.59175 38.541 6.99239C37.957 6.39304 37.2667 5.91613 36.5101 5.5939C35.7535 5.27166 34.9372 5.1041 34.1142 5.1041L34.1274 5.09766ZM34.1274 15.2287C33.4239 15.2287 32.7337 15.0096 32.1496 14.61C31.5656 14.204 31.1076 13.6304 30.8355 12.9602C30.5634 12.2899 30.497 11.5488 30.6364 10.8334C30.7758 10.1181 31.1143 9.46071 31.612 8.95158C32.1098 8.436 32.747 8.08799 33.4372 7.94621C34.1274 7.80442 34.8442 7.87531 35.4947 8.15244C36.1451 8.42956 36.7026 8.90002 37.0942 9.50582C37.4858 10.1116 37.6981 10.8205 37.6981 11.5488C37.6981 12.5284 37.3198 13.4629 36.6495 14.1524C35.9792 14.842 35.0699 15.2287 34.1274 15.2287Z" fill="#101820"/>
<path d="M63.8877 5.09766C62.6532 5.09766 61.4453 5.47789 60.4166 6.19325C59.3878 6.90217 58.5914 7.91398 58.1202 9.09336C57.6489 10.2727 57.5295 11.5681 57.7684 12.8248C58.014 14.0751 58.6047 15.2223 59.4807 16.1245C60.3568 17.0268 61.4718 17.639 62.6798 17.8839C63.8943 18.1288 65.1487 17.9999 66.2903 17.5166C67.4318 17.0268 68.4075 16.2018 69.0911 15.1385C69.7747 14.0751 70.1397 12.8313 70.1397 11.5552C70.1397 10.7045 69.9738 9.86672 69.6619 9.08692C69.3499 8.30066 68.8854 7.59175 68.3013 6.99239C67.7172 6.39304 67.027 5.91613 66.2704 5.5939C65.5138 5.27166 64.6974 5.1041 63.8744 5.1041L63.8877 5.09766ZM63.8877 15.2287C63.1842 15.2287 62.4939 15.0096 61.9099 14.61C61.3258 14.2104 60.8679 13.6304 60.5958 12.9602C60.3236 12.2899 60.2573 11.5488 60.3966 10.8334C60.536 10.1181 60.8745 9.46071 61.3723 8.95158C61.8701 8.436 62.5072 8.08799 63.1975 7.94621C63.8877 7.80442 64.6045 7.87531 65.2549 8.15244C65.9053 8.42956 66.4629 8.90002 66.8544 9.50582C67.246 10.1116 67.4584 10.8205 67.4584 11.5488C67.4584 12.5284 67.0801 13.4629 66.4098 14.1524C65.7394 14.842 64.8302 15.2287 63.8877 15.2287Z" fill="#101820"/>
</g>
<defs>
<clipPath id="clip0_229_943">
<rect width="82" height="18" fill="white"/>
</clipPath>
</defs>
</svg>
