<svg width="82" height="18" viewBox="0 0 82 18" fill="none" xmlns="http://www.w3.org/2000/svg">
<g clip-path="url(#clip0_418_241)">
<path d="M80.1351 3.3183e-06C80.5002 3.3183e-06 80.8586 0.109563 81.1705 0.315793C81.4758 0.522023 81.7147 0.824923 81.8541 1.17294C81.9935 1.52095 82.0333 1.90763 81.9603 2.28142C81.8873 2.65521 81.7147 2.99678 81.4559 3.26101C81.197 3.53169 80.8652 3.71214 80.5068 3.78303C80.1484 3.85392 79.7767 3.8217 79.4316 3.67347C79.0931 3.52524 78.8011 3.28035 78.602 2.96456C78.3962 2.64877 78.29 2.28142 78.29 1.90118C78.29 1.64984 78.3299 1.3985 78.4228 1.16649C78.5157 0.934482 78.6484 0.721808 78.821 0.541357C78.9936 0.360906 79.1993 0.225567 79.425 0.128897C79.6506 0.0322267 79.8896 -0.012886 80.1351 -0.012886V3.3183e-06ZM80.1351 0.290014C79.8232 0.277125 79.5112 0.354461 79.2458 0.522023C78.9803 0.689584 78.7679 0.934482 78.6352 1.23094C78.5024 1.52739 78.4626 1.84963 78.5157 2.17186C78.5688 2.48765 78.7082 2.78411 78.9272 3.02256C79.1462 3.25457 79.4183 3.41569 79.7303 3.48658C80.0356 3.55747 80.3541 3.52524 80.6462 3.40924C80.9382 3.29324 81.1838 3.08056 81.363 2.81633C81.5355 2.5521 81.6351 2.23631 81.6351 1.90763C81.6351 1.7014 81.6085 1.49517 81.5355 1.30183C81.4625 1.10849 81.3563 0.928038 81.217 0.77981C81.0776 0.631582 80.9116 0.509133 80.7258 0.425352C80.54 0.341572 80.3409 0.296459 80.1418 0.290014H80.1351ZM79.79 3.00967H79.4582V0.88937C79.6506 0.857146 79.8497 0.837812 80.0422 0.837812C80.2679 0.818478 80.4935 0.87648 80.686 0.998929C80.7524 1.05049 80.7988 1.11493 80.832 1.19227C80.8652 1.26961 80.8785 1.35339 80.8718 1.43717C80.8718 1.55962 80.832 1.67562 80.759 1.76585C80.686 1.86252 80.5864 1.92696 80.467 1.95274V1.97208C80.6462 2.0043 80.7723 2.17831 80.8121 2.48765C80.832 2.6681 80.8718 2.84855 80.9448 3.01611H80.5997C80.5267 2.84211 80.4736 2.66166 80.4603 2.47476C80.4603 2.41676 80.4471 2.3652 80.4205 2.31364C80.394 2.26209 80.3608 2.21697 80.321 2.18475C80.2811 2.15253 80.228 2.12675 80.1816 2.10741C80.1285 2.09453 80.0754 2.08808 80.0223 2.10097H79.79V3.00967ZM79.79 1.83029H80.0289C80.3077 1.83029 80.5333 1.72718 80.5333 1.46295C80.5333 1.27605 80.4006 1.08915 80.0289 1.08915C79.9493 1.08915 79.8696 1.08915 79.79 1.10849V1.83029Z" fill="#101820"/>
<path d="M9.25196 8.2363C9.74974 7.83029 10.148 7.31471 10.4201 6.72825C10.6988 6.14178 10.8382 5.49731 10.8382 4.8464C10.8448 1.84318 8.80728 0.244896 4.95119 0.244896C3.36495 0.244896 1.78535 0.386679 0.219021 0.6638L0 0.715358V17.5746L4.91137 17.652C9.39798 17.652 11.6745 15.8861 11.6745 12.406C11.6745 10.4791 10.8117 9.06122 9.2586 8.22341V8.2363H9.25196ZM3.07293 3.11278C3.61716 3.04833 4.16139 3.00966 4.71226 3.00322C6.81619 3.00322 7.75864 3.67347 7.75864 5.16863C7.752 5.62621 7.6259 6.07089 7.40024 6.45757C7.17458 6.8507 6.85601 7.17293 6.4777 7.39849L5.28968 7.30827H3.06629V3.10634L3.07293 3.11278ZM4.74545 14.9194L3.07956 14.8808V9.9957H5.16358C7.38697 9.9957 8.44889 10.7884 8.44889 12.4189C8.43561 14.2041 7.36706 14.9259 4.72554 14.9259L4.74545 14.913V14.9194ZM13.5395 3.85392H16.4796V0.341566H13.5395V3.85392ZM13.5395 17.5811H16.4796V5.54887H13.5395V17.5811ZM25.5657 11.2653C25.0281 10.898 24.4573 10.5951 23.86 10.3437L22.9972 9.94414C21.8822 9.42857 21.7361 9.029 21.7361 8.73899C21.7361 8.06874 22.2671 7.66917 23.1498 7.66917C23.8202 7.64984 24.4905 7.77229 25.1144 8.01718L25.4462 8.15252L25.7449 5.82599L25.5458 5.74221C24.6697 5.34264 23.7206 5.1493 22.7649 5.16863C20.4884 5.16863 18.8358 6.71536 18.8358 8.85499C18.8159 9.41568 18.9353 9.97637 19.1809 10.4791C19.4265 10.9817 19.7915 11.4135 20.2428 11.7293C20.7804 12.0773 21.3446 12.3738 21.9352 12.6058C22.3733 12.7862 22.7981 13.0054 23.2095 13.2503C23.7671 13.6305 23.8202 13.8818 23.8202 14.0881C23.8202 15.319 22.3667 15.4608 21.7361 15.4608C20.7738 15.4866 19.818 15.2675 18.9552 14.8228L18.6101 14.6423L18.2849 17.1944L18.4907 17.2782C19.5592 17.7422 20.7074 17.9678 21.8622 17.942C24.1719 17.942 26.8665 16.8786 26.8665 13.8883C26.8732 13.3727 26.7537 12.8636 26.5214 12.406C26.2891 11.9484 25.9506 11.5618 25.5325 11.2782H25.5524L25.5657 11.2653ZM45.7421 15.2868C45.2178 15.2868 44.7068 15.1708 44.7068 13.7594V0.315787L41.7666 0.792694V13.8754C41.7666 17.42 43.897 17.9549 45.1713 17.9549C45.762 17.9549 46.3527 17.8775 46.9235 17.71L47.1824 17.6327L46.5386 15.2546L45.7488 15.2932L45.7421 15.2868ZM52.0406 13.5145L49.2265 5.54887H45.9678L50.6203 17.6971H53.2021L57.9675 5.54887H54.8215C54.8215 5.54887 52.4588 12.29 52.0207 13.5274L52.0406 13.5145ZM76.9492 5.16219C75.1904 5.18797 73.4383 5.41353 71.7326 5.83888L71.5202 5.89688V17.5875H74.4604V8.24919C75.1971 8.11385 75.9404 8.04296 76.6838 8.03652C78.3165 8.03652 78.9072 8.87433 78.9072 11.2331V17.5811H81.8473V10.3373C81.8075 6.96026 80.1151 5.17508 76.9227 5.17508L76.9426 5.16219H76.9492Z" fill="#101820"/>
<path d="M34.1272 5.09775C32.8927 5.09775 31.6848 5.47798 30.6561 6.19334C29.6273 6.90226 28.8309 7.91407 28.3597 9.09345C27.8884 10.2728 27.769 11.5682 28.0079 12.8249C28.2535 14.0752 28.8442 15.2223 29.7202 16.1246C30.5963 17.0269 31.7113 17.6391 32.9193 17.884C34.1272 18.1289 35.3882 18 36.5298 17.5167C37.6714 17.0269 38.647 16.2019 39.3306 15.1386C40.0142 14.0752 40.3792 12.8314 40.3792 11.5553C40.3792 10.7046 40.2133 9.86681 39.9014 9.08701C39.5894 8.30076 39.1249 7.59184 38.5408 6.99249C37.9567 6.39313 37.2665 5.91622 36.5099 5.59399C35.7533 5.27175 34.9369 5.10419 34.1139 5.10419L34.1272 5.09775ZM34.1272 15.2288C33.4237 15.2288 32.7334 15.0097 32.1494 14.6101C31.5653 14.2041 31.1074 13.6305 30.8353 12.9603C30.5631 12.29 30.4968 11.5489 30.6361 10.8335C30.7755 10.1182 31.114 9.4608 31.6118 8.95167C32.1096 8.43609 32.7467 8.08808 33.437 7.9463C34.1272 7.80451 34.844 7.87541 35.4944 8.15253C36.1448 8.42965 36.7024 8.90011 37.0939 9.50591C37.4855 10.1117 37.6979 10.8206 37.6979 11.5489C37.6979 12.5285 37.3196 13.4629 36.6493 14.1525C35.9789 14.8421 35.0697 15.2288 34.1272 15.2288Z" fill="#101820"/>
<path d="M63.8875 5.09775C62.653 5.09775 61.445 5.47798 60.4163 6.19334C59.3876 6.90226 58.5911 7.91407 58.1199 9.09345C57.6487 10.2728 57.5292 11.5682 57.7682 12.8249C58.0137 14.0752 58.6044 15.2223 59.4805 16.1246C60.3566 17.0269 61.4716 17.6391 62.6795 17.884C63.8941 18.1289 65.1485 18 66.29 17.5167C67.4316 17.0269 68.4072 16.2019 69.0909 15.1386C69.7745 14.0752 70.1395 12.8314 70.1395 11.5553C70.1395 10.7046 69.9736 9.86681 69.6616 9.08701C69.3497 8.30076 68.8851 7.59184 68.3011 6.99249C67.717 6.39313 67.0267 5.91622 66.2701 5.59399C65.5135 5.27175 64.6972 5.10419 63.8742 5.10419L63.8875 5.09775ZM63.8875 15.2288C63.1839 15.2288 62.4937 15.0097 61.9096 14.6101C61.3256 14.2105 60.8676 13.6305 60.5955 12.9603C60.3234 12.29 60.257 11.5489 60.3964 10.8335C60.5358 10.1182 60.8743 9.4608 61.372 8.95167C61.8698 8.43609 62.507 8.08808 63.1972 7.9463C63.8875 7.80451 64.6042 7.87541 65.2547 8.15253C65.9051 8.42965 66.4626 8.90011 66.8542 9.50591C67.2458 10.1117 67.4582 10.8206 67.4582 11.5489C67.4582 12.5285 67.0798 13.4629 66.4095 14.1525C65.7392 14.8421 64.8299 15.2288 63.8875 15.2288Z" fill="#101820"/>
</g>
<defs>
<clipPath id="clip0_418_241">
<rect width="82" height="18" fill="white"/>
</clipPath>
</defs>
</svg>
