<svg width="49" height="29" viewBox="0 0 49 29" fill="none" xmlns="http://www.w3.org/2000/svg">
<g clip-path="url(#clip0_229_1079)">
<path d="M17.3276 10.8821C15.7475 11.1086 15.6295 11.2786 15.6295 12.9636V15.2717C15.6295 16.2488 15.6558 17.1763 15.7803 17.9268C14.2331 18.2949 12.004 18.918 9.8602 18.918C3.97286 18.918 0.426025 14.9814 0.426025 9.40234C0.426025 3.448 4.91693 0 10.1356 0C12.6727 0 14.6658 0.559326 15.4722 0.686768C15.5246 1.74878 15.6689 3.52588 15.8721 5.23926L15.0592 5.41626C14.4429 3.05151 13.6496 2.01074 12.0368 1.4231C11.4402 1.20361 10.4109 1.06909 9.67663 1.06909C5.87411 1.06909 3.36314 3.99316 3.36314 9.04126C3.36314 13.5583 5.38241 17.863 10.2536 17.863C11.0665 17.863 11.8401 17.686 12.3515 17.4028C12.8694 17.0842 13.1776 16.7444 13.1776 15.6541V13.3389C13.1776 11.321 12.9415 11.1016 10.5224 10.8892V10.0396H17.3472V10.8892H17.3407L17.3276 10.8821Z" fill="#101820"/>
<path d="M27.3125 18.8257C26.8733 18.8257 26.3029 18.5991 26.0341 18.2876C25.6932 17.9336 25.5358 17.5371 25.4047 17.0769C24.3754 17.8203 23.1232 18.8257 22.3758 18.8257C20.4745 18.8257 19.1633 17.1406 19.1633 15.3706C19.1633 13.99 19.8452 13.1333 21.2613 12.5952C22.8216 12.0076 24.7819 11.2925 25.3523 10.7827V10.103C25.3523 8.22681 24.5065 7.13647 23.2084 7.13647C22.638 7.13647 22.284 7.42676 22.0283 7.75952C21.7399 8.16309 21.5694 8.75781 21.3465 9.57202C21.2088 10.0747 20.9466 10.2659 20.5335 10.2659C20.0091 10.2659 19.3272 9.6853 19.3272 8.99854C19.3272 8.58789 19.655 8.24805 20.1861 7.85156C21.0121 7.22144 22.5135 6.23022 23.9755 5.89746C24.8015 5.89746 25.6145 6.14526 26.2308 6.65503C27.1748 7.49048 27.5616 8.48169 27.5616 9.91895V15.1936C27.5616 16.4822 27.9943 16.8645 28.4533 16.8645C28.7483 16.8645 29.0695 16.7371 29.358 16.5742L29.6202 17.3813L27.3125 18.8186V18.8257ZM25.3457 11.781C24.795 12.0854 23.7001 12.6165 23.1232 12.8997C22.1726 13.3669 21.6022 13.8909 21.6022 14.9033C21.6022 16.3972 22.6315 17.0486 23.4117 17.0486C24.0214 17.0486 24.854 16.6804 25.3457 16.1494C25.3457 14.8325 25.3457 13.0908 25.3457 11.781Z" fill="#101820"/>
<path d="M30.5249 18.4934V17.6863C32.1115 17.5093 32.2819 17.3818 32.2819 15.4702V9.79199C32.2819 8.04321 32.1967 7.92993 30.7019 7.66797V6.95288C32.0918 6.71216 33.3833 6.35107 34.5438 5.86255V15.4773C34.5438 17.3748 34.7142 17.5234 36.3532 17.6934V18.5005H30.5249V18.4934ZM33.2653 3.31372C32.4917 3.31372 31.8033 2.57739 31.8033 1.74902C31.8033 0.814453 32.4917 0.134766 33.285 0.134766C34.0783 0.134766 34.7011 0.814453 34.7011 1.74902C34.7011 2.59155 34.0652 3.31372 33.2588 3.31372H33.2653Z" fill="#101820"/>
<path d="M45.8071 18.8257C45.3679 18.8257 44.7975 18.5991 44.5287 18.2876C44.1878 17.9336 44.0305 17.5371 43.8993 17.0769C42.87 17.8203 41.6178 18.8257 40.8704 18.8257C38.9692 18.8257 37.658 17.1406 37.658 15.3706C37.658 13.99 38.3398 13.1333 39.7559 12.5952C41.3162 12.0076 43.2765 11.2925 43.8469 10.7827V10.103C43.8469 8.22681 43.0012 7.13647 41.7031 7.13647C41.1327 7.13647 40.7786 7.42676 40.523 7.75952C40.2345 8.16309 40.064 8.75781 39.8411 9.57202C39.7035 10.0747 39.4412 10.2659 39.0282 10.2659C38.5037 10.2659 37.8219 9.6853 37.8219 8.99854C37.8219 8.58789 38.1497 8.24805 38.6807 7.85156C39.5068 7.22144 41.0081 6.23022 42.4701 5.89746C43.2962 5.89746 44.1091 6.14526 44.7254 6.65503C45.6695 7.49048 46.0563 8.48169 46.0563 9.91895V15.1936C46.0563 16.4822 46.489 16.8645 46.9479 16.8645C47.2429 16.8645 47.5642 16.7371 47.8526 16.5742L48.1149 17.3813L45.8071 18.8186V18.8257ZM43.8403 11.781C43.2896 12.0854 42.1948 12.6165 41.6178 12.8997C40.6672 13.3669 40.0968 13.8909 40.0968 14.9033C40.0968 16.3972 41.1261 17.0486 41.9063 17.0486C42.516 17.0486 43.3486 16.6804 43.8403 16.1494V11.781Z" fill="#101820"/>
<path d="M4.75314 28.8442V28.469C5.50709 28.3699 5.58576 28.2424 5.41531 27.7539C5.27107 27.2866 5.04817 26.6707 4.81215 25.9272H2.34051C2.1635 26.4583 1.99304 26.9468 1.84225 27.4424C1.58657 28.2566 1.77669 28.3557 2.71421 28.469V28.8442H0V28.469C0.727723 28.3699 0.917849 28.2778 1.32432 27.1592L3.73695 20.5889L4.14343 20.5039C4.88427 22.6562 5.67755 24.9998 6.41838 27.1663C6.79864 28.2778 6.90353 28.3699 7.71648 28.469V28.8442H4.75314ZM3.61895 22.281C3.25181 23.3289 2.87155 24.4192 2.53064 25.3962H4.64169L3.61239 22.281H3.61895Z" fill="#101820"/>
<path d="M14.5151 28.8445V28.4763C15.1576 28.4055 15.2428 28.3489 15.2428 27.4993V25.3894C15.2428 24.4761 14.9281 23.9805 14.2725 23.9805C13.866 23.9805 13.4858 24.207 13.0596 24.5823C13.0662 24.731 13.0924 24.8938 13.0924 25.1204V27.5701C13.0924 28.3489 13.1842 28.4055 13.807 28.4834V28.8516H11.296V28.4834C11.9779 28.4126 12.0762 28.363 12.0762 27.5488V25.3682C12.0762 24.4407 11.7943 23.9734 11.1452 23.9734C10.7125 23.9734 10.2864 24.2778 9.93238 24.5752V27.5559C9.93238 28.363 10.011 28.4197 10.6273 28.4905V28.8586H8.09668V28.4905C8.84407 28.4197 8.90307 28.363 8.90307 27.5488V24.9363C8.90307 24.1504 8.86374 24.0938 8.23436 23.9734V23.6265C8.80473 23.5415 9.362 23.3787 9.93238 23.1309V24.1292C10.1815 23.9309 10.4175 23.7256 10.765 23.499C11.0731 23.2866 11.3223 23.1592 11.696 23.1592C12.2729 23.1592 12.7384 23.5344 12.9678 24.1787C13.2825 23.9097 13.5775 23.7043 13.866 23.4919C14.1217 23.3149 14.4429 23.1592 14.7839 23.1592C15.7083 23.1592 16.259 23.8672 16.259 25.1133V27.5418C16.259 28.356 16.3245 28.3914 16.9736 28.4763V28.8445H14.5151Z" fill="#101820"/>
<path d="M21.3728 29C21.1696 29 20.9139 28.9009 20.7959 28.7522C20.6451 28.5894 20.5664 28.4124 20.514 28.2C20.055 28.5327 19.4847 28.9858 19.1503 28.9858C18.2915 28.9858 17.7014 28.2283 17.7014 27.4282C17.7014 26.8052 18.0096 26.4229 18.6455 26.1821C19.347 25.9131 20.2321 25.5945 20.4877 25.3679V25.0635C20.4877 24.2139 20.1075 23.7253 19.5174 23.7253C19.2618 23.7253 19.1044 23.8528 18.9798 24.0085C18.8553 24.1926 18.7766 24.4546 18.6717 24.8228C18.6127 25.0493 18.4947 25.1343 18.3046 25.1343C18.0686 25.1343 17.7604 24.8794 17.7604 24.5679C17.7604 24.3838 17.9112 24.228 18.1538 24.0439C18.5275 23.7607 19.1962 23.3076 19.8584 23.166C20.2321 23.166 20.5992 23.2793 20.8745 23.5059C21.3007 23.8811 21.4777 24.3271 21.4777 24.9785V27.3503C21.4777 27.938 21.6744 28.1008 21.8776 28.1008C22.0153 28.1008 22.1595 28.0442 22.2841 27.9734L22.4021 28.3416L21.3663 28.9929L21.3728 29ZM20.4812 25.821C20.2321 25.9556 19.7338 26.1963 19.4781 26.3237C19.052 26.5361 18.7897 26.7698 18.7897 27.23C18.7897 27.8955 19.2552 28.1929 19.6027 28.1929C19.8846 28.1929 20.2583 28.03 20.4746 27.7893V25.821H20.4812Z" fill="#101820"/>
<path d="M27.3454 27.2158C27.1749 27.7468 26.952 28.469 26.8471 28.8584H22.8938L22.8086 28.6602C23.8117 27.0671 24.7623 25.4316 25.6998 23.8032H24.664C23.8379 23.8032 23.6805 23.9236 23.2151 25.021L22.8742 24.9006C23.0118 24.405 23.1626 23.6333 23.2478 23.0669H23.5101C23.5757 23.2581 23.7396 23.3359 24.1723 23.3359H26.9455L27.0241 23.52C26.1063 25.0493 25.1229 26.7202 24.1723 28.3911H25.3327C26.2046 28.3911 26.4931 28.1504 27.0307 27.0742L27.3454 27.2229V27.2158Z" fill="#101820"/>
<path d="M30.4923 23.1167C31.974 23.1167 33.0557 24.3345 33.0557 25.9275C33.0557 27.9595 31.6724 28.9294 30.4857 28.9294C28.8598 28.9294 27.8699 27.5276 27.8699 26.1187C27.8699 24.0937 29.345 23.1167 30.4923 23.1167ZM30.3481 23.5557C29.6793 23.5557 29.0696 24.2637 29.0696 25.7363C29.0696 27.3223 29.6859 28.4834 30.6038 28.4834C31.2725 28.4834 31.8625 27.9595 31.8625 26.2178C31.856 24.7026 31.3184 23.5486 30.3546 23.5486L30.3481 23.5557Z" fill="#101820"/>
<path d="M37.1138 28.8513V28.4832C37.7563 28.4124 37.8153 28.3274 37.8153 27.4778V25.3892C37.8153 24.5112 37.5006 23.9802 36.8057 23.9802C36.3664 23.9802 35.9403 24.2493 35.5928 24.582V27.5415C35.5928 28.3911 35.6584 28.4194 36.3074 28.4973V28.8655H33.7637V28.4973C34.5045 28.4053 34.5701 28.3628 34.5701 27.5344V24.9431C34.5701 24.136 34.4848 24.1006 33.8817 23.9873V23.6475C34.4652 23.5483 35.0749 23.3784 35.5928 23.1519V24.1289C35.8223 23.9519 36.078 23.7607 36.373 23.5625C36.7008 23.3359 36.9893 23.1943 37.3236 23.1943C38.2546 23.1943 38.8446 23.9377 38.8446 25.1626V27.5415C38.8446 28.384 38.9102 28.4194 39.5658 28.4973V28.8655H37.1138V28.8442V28.8513Z" fill="#101820"/>
<path d="M43.9912 28.9292C43.788 28.9292 43.5323 28.8301 43.4143 28.6814C43.2635 28.5186 43.1848 28.3416 43.1324 28.1292C42.6735 28.4619 42.1031 28.915 41.7687 28.915C40.9099 28.915 40.3198 28.1575 40.3198 27.3574C40.3198 26.7344 40.628 26.3521 41.2639 26.1113C41.9654 25.8423 42.8505 25.5237 43.1062 25.2971V24.9927C43.1062 24.1431 42.7259 23.6545 42.1359 23.6545C41.8802 23.6545 41.7228 23.782 41.5983 23.9377C41.4737 24.1218 41.395 24.3838 41.2901 24.752C41.2311 24.9785 41.1131 25.0635 40.923 25.0635C40.687 25.0635 40.3788 24.8086 40.3788 24.4971C40.3788 24.313 40.5296 24.1572 40.7722 23.9731C41.1459 23.6899 41.8146 23.2368 42.4768 23.0952C42.8505 23.0952 43.2176 23.2085 43.493 23.4351C43.9191 23.8103 44.0961 24.2563 44.0961 24.9077V27.2866C44.0961 27.8743 44.2928 28.0371 44.496 28.0371C44.6337 28.0371 44.7779 27.9805 44.9025 27.9097L45.0205 28.2778L43.9847 28.9221L43.9912 28.9292ZM43.0996 25.7573C42.8505 25.8918 42.3522 26.1326 42.0965 26.26C41.6704 26.4724 41.4081 26.7061 41.4081 27.1663C41.4081 27.8318 41.8736 28.1292 42.2211 28.1292C42.503 28.1292 42.8767 27.9663 43.093 27.7256V25.7573H43.0996Z" fill="#101820"/>
<path d="M48.4493 24.7732C48.2199 24.0227 47.9052 23.5342 47.2299 23.5342C46.8365 23.5342 46.5284 23.8386 46.5284 24.3201C46.5284 24.844 46.8562 25.0918 47.4987 25.4104C48.4887 25.9131 49.0066 26.3025 49.0066 27.1592C49.0066 28.3345 48.0035 28.9292 47.0725 28.9292C46.4694 28.9292 45.9187 28.7168 45.6695 28.5752C45.6105 28.2283 45.5056 27.5061 45.4663 27.0813L45.8138 27.0176C46.0236 27.8176 46.4497 28.4832 47.2496 28.4832C47.6888 28.4832 48.0363 28.1646 48.0363 27.6689C48.0363 27.1379 47.7478 26.8477 47.1119 26.5149C46.3055 26.0901 45.6302 25.6794 45.6302 24.759C45.6302 23.8386 46.3579 23.1094 47.4725 23.1094C47.9707 23.1094 48.3706 23.2368 48.6067 23.2722C48.6394 23.5837 48.7247 24.3696 48.7837 24.6812L48.4559 24.7732H48.4493Z" fill="#101820"/>
</g>
<defs>
<clipPath id="clip0_229_1079">
<rect width="49" height="29" fill="white"/>
</clipPath>
</defs>
</svg>
