<svg width="71" height="27" viewBox="0 0 71 27" fill="none" xmlns="http://www.w3.org/2000/svg">
<g clip-path="url(#clip0_418_212)">
<path d="M27.2428 11.6617H21.2878V6.43697H17.5098V20.6199H21.2878V14.9342H27.2428V20.6199H31.0097V6.43697H27.2428V11.6617Z" fill="#101820"/>
<path d="M39.4741 6.06703C35.325 6.06703 32.5386 9.00949 32.5386 13.426C32.5386 18.0247 35.3084 20.9444 39.596 20.9444C43.0305 20.9444 45.3904 19.328 46.2767 16.2603H42.1996C41.834 17.3986 40.9698 17.9393 39.6791 17.9393C37.7292 17.9393 36.5603 16.7555 36.4606 14.6952H46.2767C46.2767 14.2 46.2767 14.0236 46.2767 13.7846C46.2767 9.00949 43.6399 6.06703 39.4464 6.06703M36.4384 11.8666C36.7542 9.95426 37.7846 8.95257 39.452 8.95257C39.832 8.93447 40.2115 8.99698 40.5669 9.13619C40.9223 9.27541 41.2461 9.48834 41.5179 9.76173C41.7897 10.0351 42.0038 10.3631 42.1468 10.7252C42.2898 11.0874 42.3587 11.4759 42.3492 11.8666H36.4384Z" fill="#101820"/>
<path d="M52.7194 6.31745C51.3844 6.59063 47.9609 7.64924 47.9609 13.0162V20.6199H51.7777V14.3594C51.7777 12.0373 52.0879 10.9446 53.0352 10.2445C53.7251 9.72859 54.5647 9.46781 55.4172 9.50463C55.7655 9.50318 56.113 9.54136 56.4531 9.61846V6.38005C55.2302 6.06129 53.9518 6.03986 52.7194 6.31745Z" fill="#101820"/>
<path d="M64.0035 6.06134C59.7214 6.06134 56.9683 8.98103 56.9683 13.5171C56.9683 18.0531 59.7381 20.9159 64.0035 20.9159C68.269 20.9159 71 17.9962 71 13.5171C71 9.03795 68.2302 6.06134 64.0035 6.06134ZM64.0035 18.0133C61.9871 18.0133 60.8183 16.3059 60.8183 13.5342C60.8183 10.7624 61.965 9.05502 64.0035 9.05502C66.0421 9.05502 67.1611 10.6771 67.1611 13.5057C67.1611 16.3343 66.0089 17.9962 64.0035 17.9962V18.0133Z" fill="#101820"/>
<path d="M8.44142 23.0502V14.1602L2.45312 18.5824L8.44142 23.0502Z" fill="#101820"/>
<path d="M2.45312 0V12.9422L8.44142 8.67938V4.54174L2.45312 0Z" fill="#101820"/>
</g>
<defs>
<clipPath id="clip0_418_212">
<rect width="79" height="27" fill="white" transform="translate(-8)"/>
</clipPath>
</defs>
</svg>
