<svg width="79" height="27" viewBox="0 0 79 27" fill="none" xmlns="http://www.w3.org/2000/svg">
<g clip-path="url(#clip0_229_914)">
<path d="M35.2428 11.6617H29.2878V6.43701H25.5098V20.62H29.2878V14.9343H35.2428V20.62H39.0097V6.43701H35.2428V11.6617Z" fill="#101820"/>
<path d="M47.4742 6.06689C43.3251 6.06689 40.5387 9.00935 40.5387 13.4259C40.5387 18.0245 43.3085 20.9442 47.5961 20.9442C51.0306 20.9442 53.3905 19.3279 54.2768 16.2602H50.1997C49.8341 17.3985 48.9699 17.9392 47.6792 17.9392C45.7293 17.9392 44.5604 16.7553 44.4607 14.6951H54.2768C54.2768 14.1999 54.2768 14.0235 54.2768 13.7844C54.2768 9.00935 51.64 6.06689 47.4465 6.06689M44.4385 11.8664C44.7543 9.95412 45.7847 8.95244 47.4521 8.95244C47.832 8.93434 48.2116 8.99684 48.567 9.13605C48.9224 9.27527 49.2461 9.48821 49.518 9.7616C49.7898 10.035 50.0039 10.363 50.1469 10.7251C50.2899 11.0872 50.3588 11.4757 50.3493 11.8664H44.4385Z" fill="#101820"/>
<path d="M60.7194 6.31746C59.3843 6.59065 55.9609 7.64925 55.9609 13.0162V20.62H59.7776V14.3594C59.7776 12.0373 60.0879 10.9446 61.0351 10.2445C61.725 9.7286 62.5646 9.46782 63.4172 9.50465C63.7655 9.5032 64.1129 9.54137 64.4531 9.61847V6.38007C63.2302 6.06131 61.9518 6.03987 60.7194 6.31746Z" fill="#101820"/>
<path d="M72.0035 6.06152C67.7214 6.06152 64.9682 8.98121 64.9682 13.5173C64.9682 18.0533 67.738 20.9161 72.0035 20.9161C76.269 20.9161 79 17.9964 79 13.5173C79 9.03813 76.2302 6.06152 72.0035 6.06152ZM72.0035 18.0135C69.9871 18.0135 68.8182 16.306 68.8182 13.5343C68.8182 10.7626 69.9649 9.0552 72.0035 9.0552C74.0421 9.0552 75.1611 10.6773 75.1611 13.5059C75.1611 16.3345 74.0088 17.9964 72.0035 17.9964V18.0135Z" fill="#101820"/>
<path d="M16.4415 23.0501V14.1602L10.4532 18.5824L16.4415 23.0501Z" fill="#101820"/>
<path d="M0 22.5321L5.98829 27.0056V8.49714L0 3.94971V22.5321Z" fill="#101820"/>
<path d="M10.4532 0V12.9422L16.4415 8.67938V4.54174L10.4532 0Z" fill="#101820"/>
</g>
<defs>
<clipPath id="clip0_229_914">
<rect width="79" height="27" fill="white"/>
</clipPath>
</defs>
</svg>
