<svg width="114" height="17" viewBox="0 0 114 17" fill="none" xmlns="http://www.w3.org/2000/svg">
<g clip-path="url(#clip0_418_229)">
<path d="M111.962 1.4614H112.314C112.674 1.4614 112.786 1.36447 112.786 1.16316C112.786 0.991667 112.696 0.894737 112.359 0.894737H111.962V1.4614ZM111.962 2.48289H111.67V0.663597H112.404C112.861 0.663597 113.086 0.827632 113.086 1.17807C113.086 1.50614 112.868 1.64781 112.584 1.67763L113.131 2.47544H112.808L112.299 1.68509H111.962V2.47544V2.48289ZM112.314 0.253509C111.542 0.253509 110.943 0.820175 110.943 1.56579C110.943 2.3114 111.542 2.88553 112.314 2.88553C113.086 2.88553 113.678 2.33377 113.678 1.56579C113.678 0.797807 113.078 0.253509 112.314 0.253509ZM112.314 0C113.221 0 114 0.663596 114 1.56579C114 2.46798 113.221 3.13904 112.314 3.13904C111.407 3.13904 110.621 2.47544 110.621 1.56579C110.621 0.65614 111.4 0 112.314 0Z" fill="#101820"/>
<path d="M23.939 1.93114C23.939 1.93114 22.0734 11.6912 22.0434 11.8329C20.7472 13.093 19.5409 13.764 18.5444 13.764C18.1772 13.764 17.9075 13.6671 17.7052 13.4658C17.413 13.1825 17.2781 12.6531 17.3231 11.9522C17.353 11.4004 17.4804 10.4759 17.6602 9.5364L19.1213 1.93114H16.3415L14.9929 8.96973C14.7456 10.282 14.5133 11.6316 14.4609 12.6531C14.3785 14.1592 14.7156 15.3 15.4574 16.0307C16.0643 16.6346 16.9334 16.9403 18.0349 16.9403C19.1962 16.9403 20.5449 16.3066 22.0284 15.0838C22.0959 15.6206 22.2682 17 22.2682 17L24.5759 16.3662L24.6059 13.0408L26.7413 1.93114H23.939Z" fill="#101820"/>
<path d="M12.1905 1.93114C12.1905 1.93114 7.82228 9.67807 7.23786 10.707C7.05054 9.56622 5.79928 1.93114 5.79928 1.93114H3.3492L0 16.6868H2.61492C2.61492 16.6868 4.00105 10.5728 4.40565 8.77587C4.66789 10.4535 5.37969 14.8974 5.37969 14.8974H7.59001C7.59001 14.8974 10.0925 10.4535 11.0141 8.81315C10.6994 10.7219 9.70293 16.6943 9.70293 16.6943H12.2204L14.6555 1.93859H12.198L12.1905 1.93114Z" fill="#101820"/>
<path d="M36.7512 2.60965C35.6423 1.95351 34.6458 1.67764 33.402 1.67764C31.6787 1.67764 29.9929 2.53509 28.6667 4.07106C27.6702 5.24167 26.4414 7.31448 26.2765 10.4908C26.1492 12.8246 26.6737 14.6364 27.7751 15.7325C28.5693 16.5154 29.6557 16.9254 30.9295 16.9254C32.2032 16.9254 33.6268 16.5825 34.6533 15.9934L34.7882 15.9114L34.2262 13.1825L33.9565 13.2868C32.9899 13.6746 32.1807 13.8535 31.4165 13.8535C30.7946 13.8535 30.2851 13.6597 29.903 13.2794C29.3036 12.6829 29.0263 11.6241 29.1013 10.2075C29.1837 8.70878 29.7157 7.2772 30.5698 6.28553C31.5214 5.18948 32.6752 4.80176 33.4245 4.80176C34.2861 4.80176 34.8406 4.93597 35.6198 5.33114L35.8596 5.45044L36.9161 2.68421L36.7587 2.58728L36.7512 2.60965Z" fill="#101820"/>
<path d="M41.0971 13.7566C40.3628 13.7566 39.7859 13.5478 39.3738 13.1377C38.7819 12.5561 38.5271 11.557 38.6095 10.1851C38.8043 6.89693 40.2729 4.85395 42.4308 4.85395C43.15 4.85395 43.7345 5.06272 44.1391 5.48026C44.7235 6.0693 44.9782 7.06842 44.8883 8.44781C44.7385 11.0053 43.6595 13.7491 41.0821 13.7491M46.192 2.98991C45.3379 2.13991 44.1615 1.68509 42.7979 1.68509C38.3398 1.68509 36.077 6.05439 35.8073 10.3864C35.6649 12.6904 36.1969 14.5097 37.3358 15.643C38.1824 16.4855 39.3588 16.9404 40.7449 16.9404C44.5961 16.9404 47.3909 13.4509 47.713 8.2614C47.8554 5.91272 47.3459 4.13816 46.1995 2.99737" fill="#101820"/>
<path d="M57.1238 2.77369C55.9924 2.08026 54.6363 1.68509 53.415 1.68509C50.6727 1.68509 49.0243 3.2807 48.8745 6.06184C48.7995 7.47851 49.2041 8.57456 50.1557 9.49912C50.5603 9.8943 51.0099 10.2298 51.4145 10.5206L52.1113 11.0575C52.6208 11.4825 52.8381 11.8776 52.8156 12.3325C52.7556 13.436 51.7666 13.8237 50.8675 13.8237C49.7286 13.8237 48.9044 13.6075 47.9229 13.0333L47.6756 12.8917L46.5518 15.7474L46.7016 15.8443C47.7731 16.575 49.1517 16.9404 50.7926 16.9404C53.9844 16.9404 55.5429 14.6066 55.6628 12.2952C55.7602 10.461 54.966 9.43202 54.3516 8.81316C53.9769 8.4329 53.5648 8.13465 53.1602 7.8364L52.5908 7.4114C51.9165 6.87456 51.6617 6.44956 51.6842 5.93509C51.7441 4.90614 52.6432 4.75702 53.1827 4.75702C54.1268 4.75702 55.0484 4.97325 55.9924 5.42807L56.2322 5.53991L57.2812 2.87807L57.1238 2.78114V2.77369Z" fill="#101820"/>
<path d="M61.9787 13.7566C61.2444 13.7566 60.6674 13.5478 60.2553 13.1377C59.6709 12.5561 59.4087 11.557 59.4911 10.1851C59.6859 6.89693 61.147 4.85395 63.3198 4.85395C64.0466 4.85395 64.616 5.06272 65.0281 5.48026C65.6201 6.0693 65.8673 7.06842 65.7774 8.44781C65.6276 11.0053 64.5486 13.7491 61.9787 13.7491M67.0736 2.98991C66.2195 2.13991 65.0431 1.68509 63.672 1.68509C59.2139 1.68509 56.9511 6.05439 56.6889 10.3864C56.5465 12.6904 57.071 14.5097 58.2099 15.643C59.0565 16.4855 60.2329 16.9404 61.619 16.9404C65.4702 16.9404 68.2724 13.4509 68.5871 8.2614C68.7295 5.91272 68.2275 4.13816 67.0736 2.99737" fill="#101820"/>
<path d="M71.3748 13.7044L73.645 1.93114H70.8578L68.0181 16.6868H76.8069L77.3688 13.7044H71.3748Z" fill="#101820"/>
<path d="M86.0677 1.93114C86.0677 1.93114 81.5946 10.7443 80.9128 12.0789C80.8228 10.625 80.2609 1.93114 80.2609 1.93114H77.4512L78.5601 16.7763H81.1225L89.1471 1.93114H86.0602H86.0677Z" fill="#101820"/>
<path d="M91.5974 6.3079L91.9795 10.3491H89.6867L91.5974 6.3079ZM93.6428 1.88641H91.1403L83.5503 16.6868H86.5773C86.5773 16.6868 88.1208 13.4583 88.2407 13.2197H92.3466C92.3841 13.5776 92.7063 16.6868 92.7063 16.6868H95.5609L93.6503 1.88641H93.6428Z" fill="#101820"/>
<path d="M107.347 1.93114C107.347 1.93114 105.833 9.87193 105.578 11.2066C105.061 9.93158 101.81 1.93114 101.81 1.93114H99.0897L96.25 16.6868H98.9998C98.9998 16.6868 100.506 8.72368 100.761 7.38903C101.278 8.66403 104.529 16.6868 104.529 16.6868H107.242L110.074 1.93114H107.324H107.347Z" fill="#101820"/>
</g>
<defs>
<clipPath id="clip0_418_229">
<rect width="114" height="17" fill="white"/>
</clipPath>
</defs>
</svg>
