<svg width="114" height="17" viewBox="0 0 114 17" fill="none" xmlns="http://www.w3.org/2000/svg">
<g clip-path="url(#clip0_229_931)">
<path d="M111.962 1.4614H112.314C112.674 1.4614 112.786 1.36447 112.786 1.16316C112.786 0.991667 112.696 0.894737 112.359 0.894737H111.962V1.4614ZM111.962 2.48289H111.67V0.663597H112.404C112.861 0.663597 113.086 0.827632 113.086 1.17807C113.086 1.50614 112.869 1.64781 112.584 1.67763L113.131 2.47544H112.809L112.299 1.68509H111.962V2.47544V2.48289ZM112.314 0.253509C111.542 0.253509 110.943 0.820175 110.943 1.56579C110.943 2.3114 111.542 2.88553 112.314 2.88553C113.086 2.88553 113.678 2.33377 113.678 1.56579C113.678 0.797807 113.078 0.253509 112.314 0.253509ZM112.314 0C113.221 0 114 0.663596 114 1.56579C114 2.46798 113.221 3.13904 112.314 3.13904C111.408 3.13904 110.621 2.47544 110.621 1.56579C110.621 0.65614 111.4 0 112.314 0Z" fill="#101820"/>
<path d="M23.9389 1.93115C23.9389 1.93115 22.0732 11.6912 22.0432 11.8329C20.747 13.093 19.5407 13.764 18.5442 13.764C18.177 13.764 17.9073 13.6671 17.705 13.4658C17.4128 13.1825 17.2779 12.6531 17.3229 11.9522C17.3529 11.4005 17.4802 10.4759 17.66 9.53642L19.1211 1.93115H16.3413L14.9927 8.96975C14.7454 10.282 14.5132 11.6316 14.4607 12.6531C14.3783 14.1592 14.7155 15.3 15.4572 16.0307C16.0641 16.6347 16.9333 16.9404 18.0347 16.9404C19.196 16.9404 20.5447 16.3066 22.0282 15.0838C22.0957 15.6206 22.268 17 22.268 17L24.5757 16.3662L24.6057 13.0408L26.7411 1.93115H23.9389Z" fill="#101820"/>
<path d="M12.1905 1.93115C12.1905 1.93115 7.82228 9.67808 7.23786 10.707C7.05054 9.56624 5.79928 1.93115 5.79928 1.93115H3.3492L0 16.6869H2.61492C2.61492 16.6869 4.00105 10.5728 4.40565 8.77589C4.66789 10.4535 5.37969 14.8974 5.37969 14.8974H7.59001C7.59001 14.8974 10.0925 10.4535 11.0141 8.81317C10.6994 10.7219 9.70293 16.6943 9.70293 16.6943H12.2204L14.6555 1.93861H12.198L12.1905 1.93115Z" fill="#101820"/>
<path d="M36.7512 2.60975C35.6423 1.95361 34.6458 1.67773 33.402 1.67773C31.6787 1.67773 29.9929 2.53519 28.6667 4.07116C27.6702 5.24177 26.4414 7.31458 26.2765 10.4909C26.1492 12.8247 26.6737 14.6365 27.7751 15.7326C28.5693 16.5155 29.6557 16.9255 30.9295 16.9255C32.2032 16.9255 33.6268 16.5826 34.6533 15.9935L34.7882 15.9115L34.2262 13.1826L33.9565 13.2869C32.9899 13.6747 32.1807 13.8536 31.4165 13.8536C30.7946 13.8536 30.2851 13.6598 29.903 13.2795C29.3036 12.683 29.0263 11.6242 29.1013 10.2076C29.1837 8.70887 29.7157 7.2773 30.5698 6.28563C31.5214 5.18958 32.6752 4.80186 33.4245 4.80186C34.2861 4.80186 34.8406 4.93607 35.6198 5.33124L35.8596 5.45054L36.9161 2.68431L36.7587 2.58738L36.7512 2.60975Z" fill="#101820"/>
<path d="M41.0969 13.7566C40.3627 13.7566 39.7857 13.5478 39.3736 13.1377C38.7817 12.5561 38.527 11.557 38.6094 10.1851C38.8042 6.8969 40.2728 4.85392 42.4306 4.85392C43.1499 4.85392 43.7343 5.06269 44.1389 5.48023C44.7234 6.06927 44.9781 7.06839 44.8882 8.44778C44.7384 11.0052 43.6594 13.7491 41.082 13.7491M46.1919 2.98988C45.3378 2.13988 44.1614 1.68506 42.7978 1.68506C38.3397 1.68506 36.0769 6.05436 35.8072 10.3864C35.6648 12.6903 36.1968 14.5096 37.3357 15.643C38.1823 16.4855 39.3587 16.9403 40.7448 16.9403C44.596 16.9403 47.3907 13.4508 47.7129 8.26137C47.8553 5.91269 47.3458 4.13813 46.1994 2.99734" fill="#101820"/>
<path d="M57.1236 2.77366C55.9923 2.08023 54.6361 1.68506 53.4148 1.68506C50.6725 1.68506 49.0241 3.28067 48.8743 6.06181C48.7994 7.47848 49.204 8.57453 50.1555 9.49909C50.5601 9.89427 51.0097 10.2298 51.4143 10.5206L52.1111 11.0574C52.6206 11.4824 52.8379 11.8776 52.8154 12.3324C52.7555 13.4359 51.7664 13.8237 50.8673 13.8237C49.7284 13.8237 48.9043 13.6074 47.9227 13.0333L47.6755 12.8916L46.5516 15.7473L46.7014 15.8443C47.7729 16.575 49.1515 16.9403 50.7924 16.9403C53.9842 16.9403 55.5427 14.6065 55.6626 12.2951C55.76 10.4609 54.9658 9.43199 54.3514 8.81313C53.9767 8.43287 53.5647 8.13462 53.1601 7.83637L52.5906 7.41137C51.9163 6.87453 51.6615 6.44953 51.684 5.93506C51.744 4.90611 52.6431 4.75699 53.1825 4.75699C54.1266 4.75699 55.0482 4.97322 55.9923 5.42804L56.232 5.53988L57.281 2.87804L57.1236 2.78111V2.77366Z" fill="#101820"/>
<path d="M61.9788 13.7566C61.2446 13.7566 60.6676 13.5478 60.2555 13.1377C59.6711 12.5561 59.4089 11.557 59.4913 10.1851C59.6861 6.8969 61.1472 4.85392 63.32 4.85392C64.0468 4.85392 64.6162 5.06269 65.0283 5.48023C65.6202 6.06927 65.8675 7.06839 65.7776 8.44778C65.6277 11.0052 64.5488 13.7491 61.9788 13.7491M67.0738 2.98988C66.2196 2.13988 65.0433 1.68506 63.6722 1.68506C59.2141 1.68506 56.9513 6.05436 56.6891 10.3864C56.5467 12.6903 57.0712 14.5096 58.2101 15.643C59.0567 16.4855 60.2331 16.9403 61.6192 16.9403C65.4704 16.9403 68.2726 13.4508 68.5873 8.26137C68.7297 5.91269 68.2277 4.13813 67.0738 2.99734" fill="#101820"/>
<path d="M71.3746 13.7044L73.6448 1.93115H70.8576L68.0179 16.6869H76.8067L77.3687 13.7044H71.3746Z" fill="#101820"/>
<path d="M86.0675 1.93115C86.0675 1.93115 81.5945 10.7443 80.9126 12.079C80.8227 10.625 80.2608 1.93115 80.2608 1.93115H77.451L78.56 16.7763H81.1224L89.147 1.93115H86.0601H86.0675Z" fill="#101820"/>
<path d="M91.5971 6.30772L91.9792 10.349H89.6865L91.5971 6.30772ZM93.6426 1.88623H91.1401L83.55 16.6867H86.5771C86.5771 16.6867 88.1205 13.4582 88.2404 13.2196H92.3464C92.3838 13.5775 92.706 16.6867 92.706 16.6867H95.5607L93.6501 1.88623H93.6426Z" fill="#101820"/>
<path d="M107.347 1.93115C107.347 1.93115 105.833 9.87194 105.578 11.2066C105.061 9.93159 101.81 1.93115 101.81 1.93115H99.0897L96.25 16.6869H98.9998C98.9998 16.6869 100.506 8.7237 100.761 7.38905C101.278 8.66405 104.529 16.6869 104.529 16.6869H107.242L110.074 1.93115H107.324H107.347Z" fill="#101820"/>
</g>
<defs>
<clipPath id="clip0_229_931">
<rect width="114" height="17" fill="white"/>
</clipPath>
</defs>
</svg>
