<svg width="99" height="27" viewBox="0 0 99 27" fill="none" xmlns="http://www.w3.org/2000/svg">
<g clip-path="url(#clip0_440_175)">
<path d="M9.69067 12.099C9.69067 12.099 9.6803 12.0607 9.6803 12.0389C9.44193 10.7935 9.188 9.50439 8.61796 8.46109C8.53505 8.30815 8.33294 8.05688 7.87691 8.05688C7.0374 8.05688 5.6434 8.9527 5.2081 9.76111C4.99563 10.1544 5.063 10.4384 5.15628 10.6132C5.2962 10.8973 5.49312 11.2523 5.72632 11.6674C6.27562 12.6452 6.95967 13.8687 7.33278 14.9612C7.82509 16.4032 7.81473 19.0852 7.51416 19.7352C6.96485 19.9974 3.56535 20.1558 2.43046 20.205C2.18172 20.2159 1.97961 20.2268 1.83451 20.2323C1.65314 20.2432 1.40439 20.3525 1.23338 20.7949C0.937998 21.5542 0.94318 23.2475 1.54431 23.9466C1.79824 24.2416 2.14026 24.3454 2.50819 24.2307C2.8243 24.1433 3.31661 23.9903 3.88665 23.8155C5.17701 23.4222 7.56598 22.6848 7.98574 22.7231C8.8978 23.0945 11.038 25.2903 12.1781 26.5958L12.2092 26.6286C12.4268 26.8198 12.6911 26.9181 12.9813 26.9181C13.1679 26.9181 13.37 26.8799 13.5721 26.7979C14.4583 26.4538 15.3755 25.4051 15.4947 24.5912C15.5465 24.2361 15.4532 23.9357 15.2252 23.7445C15.0905 23.6298 14.8573 23.4441 14.5878 23.2256C14.3132 23.0071 14.0074 22.7613 13.7224 22.5264C13.6343 21.7508 13.5462 20.9041 13.4788 20.2705C13.3959 19.4785 13.3337 18.9869 13.3026 18.7302C13.2664 18.468 13.2301 18.2386 13.1731 18.0091C13.1109 17.7797 12.9969 17.594 12.8673 17.452C13.4166 17.381 13.9452 17.168 14.4168 16.8238C15.163 16.2776 15.6657 15.4637 15.8367 14.5406C16.0077 13.612 15.8263 12.678 15.3185 11.9132C14.8106 11.1485 14.0437 10.6405 13.1575 10.4876C12.2766 10.3347 11.3801 10.5531 10.6338 11.0994C10.2659 11.3725 9.94978 11.7111 9.7114 12.1044L9.69067 12.099ZM14.7847 24.2962C14.7847 24.2962 14.8366 24.3399 14.8158 24.4765C14.7381 24.979 14.023 25.853 13.3234 26.1261C13.0332 26.2408 12.8051 26.2299 12.6445 26.0933C12.5771 26.0168 12.3128 25.7164 11.9345 25.3122C12.3698 25.3614 12.7689 25.3122 13.0746 25.2139C13.256 25.1538 13.4063 25.0719 13.5099 24.9954C13.6084 24.9189 13.6602 24.8588 13.6602 24.8588C13.6602 24.8588 13.6706 24.8479 13.6913 24.8206C13.712 24.7987 13.7431 24.7605 13.7742 24.7059C13.8105 24.6567 13.8416 24.5803 13.8727 24.4929C13.883 24.4492 13.8986 24.4 13.9038 24.3454C13.9038 24.3181 13.9038 24.2908 13.9089 24.2634C13.9089 24.2307 13.9141 24.1979 13.9089 24.1597C13.8986 24.0832 13.883 23.9958 13.8727 23.9084C13.8623 23.8265 13.8519 23.7336 13.8364 23.6407C13.8312 23.597 13.826 23.5533 13.8209 23.5096C13.94 23.6025 14.054 23.6954 14.1629 23.7828C14.4272 23.9958 14.6552 24.176 14.7847 24.2853V24.2962ZM13.199 23.7445C13.2145 23.8428 13.2249 23.9357 13.2353 24.0176C13.2456 24.0941 13.256 24.1706 13.2664 24.2361C13.2664 24.2416 13.2664 24.2525 13.2664 24.258C13.2664 24.2689 13.2612 24.2798 13.2612 24.2908C13.2508 24.3126 13.2508 24.329 13.2353 24.3399C13.2301 24.3563 13.2197 24.3672 13.2094 24.3727C13.2042 24.3781 13.199 24.3836 13.199 24.3836C13.199 24.3836 13.199 24.3836 13.1834 24.4C13.1731 24.4109 13.1627 24.4218 13.1368 24.4382C13.0902 24.471 13.0073 24.5202 12.8829 24.5639C12.6341 24.6458 12.2196 24.6895 11.7998 24.6021C11.6962 24.5803 11.5925 24.5529 11.4992 24.5147C11.406 24.4765 11.3179 24.4273 11.2557 24.3781C11.2298 24.3508 11.2039 24.329 11.1935 24.3071C11.1935 24.3071 11.1883 24.2962 11.1831 24.2962C11.1831 24.2962 11.1831 24.2908 11.1831 24.2853C11.1779 24.2853 11.1831 24.2689 11.1779 24.258C11.1728 24.2088 11.1624 24.1378 11.1572 24.0832C11.1572 24.0231 11.1469 23.9685 11.1469 23.9084C11.1417 23.6735 11.1469 23.4277 11.1572 23.1983C11.1676 22.9689 11.1728 22.7613 11.1779 22.5811C11.1935 21.9802 11.1935 21.6852 11.1935 21.5105C11.1831 20.4562 11.0432 19.8663 10.7997 19.0087C10.639 19.8882 10.5509 20.4781 10.5509 21.5105C10.5509 21.6852 10.5509 21.9693 10.5354 22.5592C10.5302 22.734 10.5198 22.9416 10.5146 23.171C10.5094 23.3731 10.4991 23.597 10.4991 23.8374C9.66994 23.0344 8.78379 22.2752 8.19821 22.0458C7.85618 21.9092 6.90267 22.1386 3.68454 23.1218C3.11451 23.2966 2.62738 23.4441 2.31645 23.5315H2.30609C2.22317 23.5588 2.08844 23.6025 1.93816 23.3075C1.58059 22.6138 1.69459 21.1882 1.90706 20.9315C2.04698 20.926 2.23354 20.9151 2.45119 20.9041C7.38979 20.6747 7.87691 20.4508 8.05829 20.1449C8.55059 19.3146 8.49359 16.2612 7.95983 14.7099C7.5608 13.5519 6.86121 12.3011 6.30153 11.296C6.07352 10.8863 5.8766 10.5368 5.74704 10.2691V10.2582C5.70559 10.0233 6.50364 9.19304 7.43125 8.85984C7.82509 8.71782 8.00647 8.76152 8.03238 8.80522C8.55059 9.75019 8.78897 10.9792 9.01699 12.17C9.08954 12.5305 9.15172 12.8746 9.22946 13.2133C9.00662 14.1801 9.18282 15.1906 9.71658 15.999C10.2296 16.7747 11.0018 17.2772 11.9035 17.4247C12.0226 17.4465 12.147 17.452 12.2662 17.4629C12.3284 17.5394 12.3854 17.6159 12.432 17.6978C12.5098 17.8398 12.5668 17.9818 12.5823 18.1293C12.603 18.3369 12.629 18.5608 12.6549 18.8066C12.686 19.0579 12.743 19.544 12.8259 20.3361C12.9088 21.1117 13.0228 22.2042 13.1316 23.1054C13.1575 23.3294 13.1834 23.5424 13.2094 23.7391L13.199 23.7445ZM11.0018 11.6784C11.6029 11.2359 12.3232 11.0611 13.0332 11.1813C13.7379 11.3015 14.3442 11.7002 14.7485 12.3065C15.1527 12.9128 15.2926 13.6557 15.1578 14.3931C15.0179 15.136 14.6137 15.786 14.0126 16.2284C13.4218 16.6654 12.7067 16.8402 12.0019 16.7255C11.2868 16.6108 10.6753 16.2066 10.2659 15.5948C9.83059 14.9393 9.69585 14.1036 9.90314 13.3116C10.0741 12.6507 10.4628 12.0717 11.0018 11.6729V11.6784Z" fill="#101820"/>
<path d="M4.0991 7.87657C4.0991 7.87657 4.13537 7.85472 4.14574 7.83834C4.1561 7.82195 4.17683 7.80556 4.19238 7.79464C4.44112 7.5543 4.77278 7.23202 5.10444 6.90975C5.43609 6.58748 5.76775 6.2652 6.0165 6.02486C6.03204 6.00848 6.04759 5.99209 6.06314 5.98117C6.07868 5.97024 6.09423 5.95932 6.10459 5.93747C6.12014 5.89923 6.14087 5.861 6.15641 5.82276C6.18751 5.75175 6.21342 5.6862 6.23415 5.63158C6.2756 5.52233 6.29633 5.45679 6.29633 5.45679C6.29633 5.45679 6.23415 5.47317 6.1305 5.50595C6.07868 5.52233 6.0165 5.54418 5.94395 5.57149C5.90767 5.58242 5.8714 5.59881 5.83512 5.61519C5.81439 5.62066 5.80403 5.63704 5.78848 5.65343C5.77812 5.66982 5.75739 5.6862 5.74702 5.69713C5.49828 5.93747 5.16662 6.25974 4.83496 6.58201C4.5033 6.90429 4.17165 7.22656 3.9229 7.4669C3.90736 7.48329 3.89181 7.49968 3.87626 7.5106C3.85553 7.52153 3.84517 7.53791 3.83481 7.55976C3.81926 7.598 3.79853 7.63623 3.78298 7.67447C3.75189 7.74548 3.72598 7.81103 3.70525 7.86019C3.66379 7.96397 3.64307 8.02952 3.64307 8.02952C3.64307 8.02952 3.70525 8.01313 3.8089 7.98036C3.86072 7.96397 3.9229 7.94212 3.99027 7.91481C4.02655 7.90388 4.06282 7.8875 4.0991 7.87111V7.87657Z" fill="#101820"/>
<path d="M7.70598 3.73629C7.70598 3.73629 7.66452 3.76906 7.65416 3.79638C7.62825 3.84554 7.60234 3.88923 7.58161 3.93293C7.53497 4.02033 7.49869 4.0968 7.46242 4.16235C7.40023 4.28798 7.36914 4.36991 7.36914 4.36991C7.36914 4.36991 7.44687 4.3426 7.57124 4.28252C7.63343 4.25521 7.71116 4.21697 7.79408 4.17873C7.83553 4.15689 7.88217 4.13504 7.92881 4.11319C7.95472 4.10226 7.97545 4.08588 7.991 4.06403C8.00655 4.04218 8.02727 4.02579 8.048 4.00394C8.3693 3.68713 8.8046 3.26107 9.23472 2.84048C9.66484 2.41988 10.1001 1.99383 10.4214 1.67702C10.4422 1.65517 10.4629 1.63878 10.4836 1.62239C10.5043 1.60601 10.5251 1.58962 10.5406 1.56231C10.5665 1.51315 10.5924 1.46945 10.6132 1.42575C10.6598 1.33835 10.6961 1.26188 10.7272 1.19634C10.7894 1.06524 10.8205 0.98877 10.8205 0.98877C10.8205 0.98877 10.7427 1.01608 10.6184 1.0707C10.5562 1.09801 10.4784 1.13079 10.3955 1.17449C10.3541 1.19634 10.3074 1.21818 10.2608 1.24003C10.2349 1.25096 10.2193 1.27281 10.2038 1.29466C10.1882 1.31651 10.1675 1.33289 10.1468 1.35474C9.82548 1.67155 9.39018 2.09761 8.96006 2.51821C8.52995 2.9388 8.09464 3.36486 7.77335 3.68167C7.75262 3.70352 7.73189 3.7199 7.71116 3.73629H7.70598Z" fill="#101820"/>
<path d="M3.83995 0.661009C3.85549 0.710169 3.87104 0.759329 3.88659 0.80849C3.89695 0.835801 3.9125 0.85765 3.92804 0.874037C3.94877 0.895886 3.95914 0.917735 3.97987 0.939584C4.23897 1.31102 4.59136 1.80809 4.93857 2.30515C5.28577 2.80222 5.63816 3.29928 5.89727 3.67072C5.91281 3.69257 5.92836 3.71442 5.94391 3.74173C5.95427 3.76904 5.96982 3.79089 5.99573 3.80181C6.03718 3.83459 6.07864 3.86736 6.11492 3.89467C6.18747 3.95476 6.26002 3.99846 6.31702 4.04215C6.43103 4.12409 6.4984 4.16232 6.4984 4.16232C6.4984 4.16232 6.48285 4.08039 6.44139 3.94383C6.42066 3.87282 6.39994 3.79089 6.36884 3.69803C6.3533 3.64887 6.33775 3.59971 6.3222 3.55055C6.31702 3.52324 6.30147 3.50139 6.28075 3.47954C6.26002 3.45769 6.24965 3.43584 6.22892 3.41399C5.96982 3.04256 5.61743 2.54549 5.27022 2.04843C4.92302 1.55136 4.57063 1.05429 4.31152 0.682858C4.29598 0.661009 4.28043 0.639159 4.26489 0.611848C4.25452 0.584537 4.23897 0.562688 4.21825 0.546301C4.17679 0.513527 4.13533 0.480754 4.09906 0.453442C4.02651 0.393357 3.95396 0.349659 3.89695 0.305961C3.78294 0.224027 3.71558 0.185791 3.71558 0.185791C3.71558 0.185791 3.73112 0.267725 3.77258 0.404282C3.79331 0.475291 3.81404 0.557225 3.84513 0.650084L3.83995 0.661009Z" fill="#101820"/>
<path d="M6.46732 7.06809C6.42587 7.37944 6.37923 7.69079 6.34814 7.92021C6.34814 7.93659 6.34814 7.94752 6.33777 7.9639C6.33259 7.97483 6.32741 7.99122 6.33777 8.0076C6.34814 8.03491 6.36368 8.06223 6.37405 8.08954C6.39478 8.1387 6.4155 8.18786 6.43623 8.22609C6.45178 8.26433 6.47251 8.29164 6.48287 8.31349C6.49324 8.33534 6.49842 8.34626 6.49842 8.34626C6.49842 8.34626 6.50878 8.33534 6.52433 8.31895C6.53988 8.30257 6.56579 8.28072 6.5917 8.24794C6.61761 8.21517 6.65388 8.1824 6.68498 8.1387C6.70052 8.11685 6.72125 8.095 6.74198 8.06769C6.75234 8.05676 6.75753 8.04038 6.75234 8.02945C6.75234 8.01307 6.75234 8.00214 6.75234 7.98575C6.78344 7.75088 6.83008 7.44499 6.87153 7.13364C6.91299 6.82229 6.95963 6.51094 6.99072 6.28153C6.99072 6.26514 6.99072 6.25421 7.00109 6.23783C7.00627 6.2269 7.01145 6.21052 7.00109 6.19413C6.99072 6.16682 6.97518 6.13951 6.96481 6.1122C6.94408 6.06303 6.92336 6.01387 6.90263 5.97564C6.88708 5.9374 6.86635 5.91009 6.85599 5.88824C6.84562 5.86639 6.84044 5.85547 6.84044 5.85547C6.84044 5.85547 6.83008 5.86639 6.81453 5.88278C6.79898 5.89917 6.77307 5.92102 6.74716 5.95379C6.72125 5.98656 6.68498 6.01934 6.65388 6.06304C6.63834 6.08488 6.61761 6.10673 6.59688 6.13404C6.58651 6.14497 6.58651 6.16136 6.58651 6.17228C6.58651 6.18867 6.58651 6.19959 6.58651 6.21598C6.55542 6.45086 6.50878 6.75674 6.46732 7.06809Z" fill="#101820"/>
<path d="M7.03214 3.35383C7.04768 3.43031 7.06841 3.49585 7.08396 3.55048C7.11505 3.65972 7.14096 3.71981 7.14096 3.71981C7.14096 3.71981 7.18242 3.66518 7.23943 3.57232C7.27052 3.52316 7.30679 3.46854 7.34307 3.40299C7.3638 3.37022 7.38453 3.33198 7.40525 3.29921C7.41562 3.28282 7.4208 3.26097 7.4208 3.23913C7.4208 3.21728 7.4208 3.19543 7.42598 3.17358C7.47262 2.82399 7.53999 2.3597 7.60218 1.89541C7.66436 1.43111 7.73173 0.966822 7.77837 0.617236C7.77837 0.595387 7.77837 0.573538 7.78873 0.551689C7.79392 0.52984 7.7991 0.513453 7.79392 0.491604C7.78355 0.447906 7.77319 0.40967 7.76282 0.371434C7.74728 0.294963 7.72655 0.229415 7.711 0.174793C7.67991 0.0655472 7.654 0 7.654 0C7.654 0 7.61254 0.0546227 7.55035 0.147481C7.51926 0.196642 7.48299 0.251264 7.44671 0.316812C7.42598 0.349585 7.40525 0.387821 7.38453 0.420595C7.37416 0.436982 7.37416 0.458831 7.37416 0.48068C7.37416 0.502529 7.37416 0.524378 7.36898 0.546227C7.32234 0.895812 7.25497 1.36011 7.19279 1.8244C7.1306 2.28869 7.06323 2.75298 7.01659 3.10257C7.01659 3.12442 7.01659 3.14627 7.00623 3.16812C7.00105 3.18997 6.99586 3.20635 7.00623 3.2282C7.01659 3.2719 7.02696 3.31014 7.03732 3.34837L7.03214 3.35383Z" fill="#101820"/>
<path d="M7.97524 5.17831C7.97524 5.17831 8.00633 5.18923 8.02188 5.18377C8.03742 5.18377 8.05297 5.18377 8.06852 5.18377C8.32244 5.21108 8.66446 5.24385 9.0013 5.28209C9.34333 5.31486 9.68017 5.3531 9.93409 5.38041C9.94964 5.38041 9.96519 5.38041 9.98073 5.38587C9.99628 5.39133 10.0118 5.39133 10.0274 5.38587C10.0585 5.36948 10.0896 5.35856 10.1155 5.34764C10.1725 5.32579 10.2191 5.29848 10.2554 5.27663C10.3331 5.23839 10.3798 5.20562 10.3798 5.20562C10.3798 5.20562 10.3383 5.16738 10.2709 5.11276C10.2347 5.08545 10.1932 5.05267 10.1466 5.01444C10.1207 4.99805 10.0947 4.9762 10.0688 4.95981C10.0533 4.94889 10.0429 4.94343 10.0222 4.94889C10.0066 4.94889 9.9911 4.94889 9.97555 4.94889C9.72162 4.92158 9.3796 4.88881 9.04276 4.85057C8.70074 4.8178 8.3639 4.77956 8.10997 4.75225C8.09443 4.75225 8.07888 4.75225 8.06333 4.74679C8.04779 4.74132 8.03224 4.73586 8.01669 4.74679C7.9856 4.76317 7.95451 4.7741 7.9286 4.78502C7.87159 4.80687 7.82495 4.83418 7.78868 4.85603C7.71095 4.89973 7.66431 4.92704 7.66431 4.92704C7.66431 4.92704 7.70576 4.96528 7.77313 5.02536C7.80941 5.05267 7.85086 5.09091 7.8975 5.12368C7.92341 5.14007 7.94933 5.16192 7.97524 5.17831Z" fill="#101820"/>
<path d="M1.74131 4.48449C1.78277 4.50634 1.82941 4.52273 1.87605 4.54458C1.90196 4.5555 1.92269 4.5555 1.9486 4.5555C1.97451 4.5555 2.00042 4.5555 2.02633 4.56096C2.45127 4.60466 3.02131 4.66475 3.58616 4.72483C4.1562 4.78492 4.72105 4.845 5.14599 4.8887C5.1719 4.8887 5.19781 4.8887 5.22372 4.89963C5.24963 4.90509 5.27555 4.91055 5.30146 4.89963C5.35328 4.8887 5.39992 4.87778 5.44137 4.86685C5.52947 4.845 5.6072 4.82315 5.67457 4.80677C5.80413 4.77399 5.87668 4.74668 5.87668 4.74668C5.87668 4.74668 5.80931 4.70845 5.69012 4.6429C5.62793 4.61012 5.55538 4.57735 5.47247 4.53912C5.43101 4.51727 5.38437 4.50088 5.33773 4.47903C5.31182 4.46811 5.29109 4.46264 5.26518 4.46811C5.23927 4.46811 5.21336 4.46811 5.18745 4.46264C4.76251 4.41895 4.19247 4.35886 3.62762 4.29878C3.05758 4.23869 2.49273 4.17861 2.06779 4.13491C2.04188 4.13491 2.01597 4.13491 1.99006 4.12398C1.96414 4.11852 1.93823 4.11306 1.91751 4.12398C1.86568 4.13491 1.81904 4.14583 1.77759 4.15676C1.68949 4.17861 1.61176 4.20045 1.54439 4.21684C1.41484 4.25508 1.34229 4.28239 1.34229 4.28239C1.34229 4.28239 1.40965 4.32609 1.52884 4.38617C1.59103 4.41895 1.66358 4.45718 1.74649 4.48996L1.74131 4.48449Z" fill="#101820"/>
<path d="M1.10886 8.00771C1.1555 7.99679 1.20214 7.98586 1.25396 7.97494C1.27987 7.97494 1.30578 7.95855 1.32651 7.94216C1.34724 7.92578 1.37315 7.91485 1.39388 7.89847C1.77736 7.66905 2.29039 7.36863 2.80343 7.06274L4.21298 6.22701C4.21298 6.22701 4.25962 6.1997 4.28553 6.18878C4.31144 6.17785 4.33217 6.16693 4.3529 6.14508C4.38917 6.10684 4.42545 6.06314 4.45654 6.03037C4.52391 5.95936 4.57573 5.89381 4.62237 5.83919C4.71046 5.72995 4.7571 5.65894 4.7571 5.65894C4.7571 5.65894 4.67937 5.6644 4.53945 5.69171C4.47208 5.70263 4.38917 5.71902 4.29589 5.74087C4.24925 5.75179 4.20261 5.76272 4.15079 5.77364C4.12488 5.77364 4.10415 5.79549 4.08342 5.81188C4.06269 5.82827 4.03678 5.83919 4.01605 5.85558C3.63257 6.08499 3.11954 6.38542 2.60651 6.6913C2.09347 6.99719 1.58044 7.29762 1.19696 7.52703C1.17105 7.54342 1.15032 7.55434 1.12441 7.56527C1.0985 7.57619 1.07777 7.58712 1.06222 7.60897C1.02595 7.6472 0.989673 7.6909 0.95858 7.72367C0.896394 7.79468 0.83939 7.86023 0.79275 7.91485C0.704654 8.0241 0.652832 8.08965 0.652832 8.08965C0.652832 8.08965 0.730564 8.07872 0.865301 8.05687C0.932669 8.04595 1.01558 8.02956 1.10368 8.00771H1.10886Z" fill="#101820"/>
<path d="M7.42603 5.41846C7.42603 5.41846 7.45712 5.47854 7.5193 5.58233C7.5504 5.63149 7.58667 5.69157 7.62813 5.75712C7.64886 5.78989 7.67477 5.82266 7.70068 5.8609C7.71104 5.87729 7.73177 5.88821 7.7525 5.89914C7.77323 5.91006 7.78878 5.92099 7.80951 5.93191C8.09971 6.12855 8.49355 6.3962 8.88221 6.66385C9.27087 6.93151 9.66472 7.19369 9.95492 7.3958C9.97047 7.40672 9.99119 7.41765 10.0067 7.43403C10.0223 7.45042 10.0378 7.46135 10.0586 7.46681C10.1 7.47773 10.1415 7.4832 10.1778 7.48866C10.2503 7.50504 10.3177 7.51597 10.3747 7.52143C10.4835 7.53782 10.5509 7.54328 10.5509 7.54328C10.5509 7.54328 10.5198 7.4832 10.4576 7.38487C10.4265 7.33571 10.3902 7.27563 10.3488 7.21008C10.328 7.17731 10.3021 7.14453 10.2762 7.1063C10.2658 7.08445 10.2503 7.07352 10.2296 7.06806C10.2088 7.05714 10.1933 7.04621 10.1726 7.03529C9.88237 6.83865 9.48853 6.571 9.09986 6.30334C8.7112 6.03569 8.31736 5.7735 8.02716 5.5714C8.01161 5.56048 7.99088 5.54955 7.97533 5.53316C7.95979 5.51678 7.94424 5.50585 7.92351 5.50039C7.88206 5.48947 7.8406 5.484 7.80432 5.47854C7.73177 5.46216 7.6644 5.45123 7.6074 5.44577C7.49858 5.42938 7.43121 5.42392 7.43121 5.42392L7.42603 5.41846Z" fill="#101820"/>
<path d="M9.25537 8.31908C9.23982 8.28085 9.21909 8.24807 9.19318 8.20437C9.18282 8.18253 9.16727 8.16614 9.16209 8.14975L9.12581 8.10059C9.00662 7.94765 8.85634 7.86025 8.71642 7.80563C8.64387 7.77832 8.5765 7.76193 8.50914 7.75101C8.44177 7.74008 8.37958 7.73462 8.32258 7.73462C8.26557 7.73462 8.21375 7.73462 8.16711 7.74554C8.12047 7.75101 8.07902 7.76193 8.04792 7.77285C8.01683 7.78378 7.99092 7.7947 7.97537 7.80017C7.95983 7.81109 7.94946 7.81109 7.94946 7.81109C7.94946 7.81109 7.95983 7.81109 7.97537 7.82202C7.99092 7.82202 8.01683 7.8384 8.04792 7.84933C8.07902 7.86025 8.11529 7.87664 8.15157 7.89302C8.19302 7.90941 8.23448 7.93126 8.28112 7.95311C8.3744 7.99681 8.47804 8.05143 8.5765 8.11698C8.67496 8.18253 8.76824 8.259 8.82525 8.34093L8.85116 8.37917C8.85116 8.37917 8.8667 8.40648 8.87707 8.4174C8.89262 8.43925 8.90816 8.47203 8.92371 8.49387C8.9548 8.5485 8.98589 8.60312 9.01181 8.6632C9.03772 8.71783 9.06363 8.77245 9.08954 8.82707C9.11545 8.8817 9.13618 8.93086 9.15172 8.98002C9.17245 9.02918 9.188 9.07288 9.20355 9.11657C9.21909 9.16027 9.22946 9.19851 9.23982 9.22582C9.25019 9.25859 9.25537 9.2859 9.26055 9.30229C9.26055 9.31868 9.26573 9.3296 9.26573 9.3296C9.26573 9.3296 9.27091 9.32414 9.28128 9.30775C9.29164 9.29137 9.30719 9.26952 9.31755 9.23128C9.34865 9.16573 9.37456 9.06195 9.37974 8.94178C9.37974 8.8817 9.37974 8.81069 9.37974 8.74514C9.37456 8.67413 9.35901 8.60312 9.33828 8.52665C9.31755 8.45018 9.29164 8.37917 9.25537 8.3027V8.31908Z" fill="#101820"/>
<path d="M15.7383 11.356C15.7383 11.356 15.7746 11.3888 15.7902 11.4051C15.8264 11.4379 15.8679 11.4762 15.9145 11.5198C15.9353 11.5417 15.9612 11.5635 15.9819 11.5854C16.0026 11.6072 16.0233 11.6346 16.0493 11.6619C16.0752 11.6837 16.0959 11.711 16.1166 11.7438C16.1374 11.7711 16.1633 11.7984 16.184 11.8312C16.2047 11.864 16.2255 11.8913 16.2462 11.9241C16.2669 11.9568 16.2825 11.9896 16.3032 12.0224C16.3239 12.0552 16.3395 12.0879 16.355 12.1207C16.3706 12.1535 16.3913 12.1862 16.4016 12.2245L16.4431 12.3337C16.4535 12.372 16.4638 12.4047 16.4742 12.443C16.4897 12.514 16.5105 12.5905 16.5208 12.6615C16.526 12.6997 16.5312 12.7325 16.5364 12.7707C16.5364 12.8089 16.5416 12.8417 16.5467 12.8745C16.5571 12.9455 16.5467 13.011 16.5571 13.0766C16.5571 13.1421 16.5571 13.1968 16.5571 13.2514C16.5571 13.306 16.5571 13.3497 16.5519 13.3934C16.5467 13.4699 16.5467 13.519 16.5467 13.519C16.5467 13.519 16.5778 13.4863 16.6245 13.4207C16.6452 13.3879 16.6763 13.3497 16.7022 13.2951C16.7281 13.2459 16.7592 13.1858 16.7799 13.1203C16.8007 13.0547 16.8318 12.9783 16.8421 12.8963C16.8473 12.8581 16.8577 12.8144 16.8629 12.7707C16.8629 12.727 16.8629 12.6833 16.868 12.6342C16.868 12.5905 16.868 12.5413 16.8629 12.4921C16.8577 12.443 16.8577 12.3938 16.8421 12.3501C16.8318 12.301 16.8214 12.2518 16.811 12.2081C16.7955 12.1589 16.7799 12.1152 16.7592 12.0661C16.7437 12.0169 16.7178 11.9787 16.697 11.9295C16.6763 11.8858 16.6504 11.8421 16.6245 11.8039C16.5727 11.722 16.5105 11.6509 16.4483 11.5854C16.4172 11.5526 16.3809 11.5253 16.3498 11.498C16.3187 11.4707 16.2825 11.4434 16.2514 11.427C16.2151 11.4051 16.184 11.3888 16.1529 11.3669C16.1218 11.3505 16.0855 11.3341 16.0544 11.3232C16.0233 11.3123 15.9923 11.2959 15.9612 11.2904C15.9301 11.285 15.899 11.274 15.8731 11.2686C15.8472 11.2631 15.8212 11.2577 15.8005 11.2522C15.7798 11.2522 15.7591 11.2522 15.7383 11.2522C15.6606 11.2522 15.6191 11.2522 15.6191 11.2522C15.6191 11.2522 15.6554 11.285 15.7124 11.3287C15.728 11.3396 15.7435 11.356 15.7642 11.3669L15.7383 11.356Z" fill="#101820"/>
<path d="M16.2617 23.5805C16.2617 23.5805 16.2773 23.6242 16.2824 23.6515C16.298 23.7007 16.3135 23.7553 16.3291 23.8154C16.3343 23.8482 16.3498 23.8755 16.355 23.9083C16.3602 23.941 16.3705 23.9738 16.3757 24.0066C16.3861 24.0394 16.3913 24.0776 16.3913 24.1104C16.3913 24.1486 16.4016 24.1814 16.4068 24.2196C16.4068 24.2578 16.4068 24.2961 16.412 24.3289C16.412 24.3671 16.412 24.4053 16.412 24.4436C16.412 24.4818 16.412 24.52 16.4068 24.5583C16.4068 24.5965 16.4068 24.6347 16.3964 24.673L16.3809 24.7877C16.3705 24.8259 16.3654 24.8642 16.355 24.8969C16.3343 24.9679 16.3135 25.0444 16.2876 25.11C16.2721 25.1427 16.2617 25.1755 16.2462 25.2137C16.2306 25.2465 16.2151 25.2793 16.1995 25.3066C16.1736 25.3721 16.1373 25.4268 16.1062 25.4814C16.0803 25.536 16.0441 25.5852 16.0181 25.6289C15.9922 25.6726 15.9663 25.7108 15.9404 25.7436C15.899 25.8091 15.873 25.8474 15.873 25.8474C15.873 25.8474 15.9145 25.8364 15.9871 25.8037C16.0233 25.7873 16.07 25.7709 16.1114 25.7381C16.1581 25.7053 16.2151 25.678 16.2669 25.6343C16.3187 25.5906 16.3809 25.5415 16.4275 25.4759C16.4534 25.4432 16.4794 25.4104 16.5053 25.3776C16.5312 25.3394 16.5519 25.3011 16.5778 25.2629C16.6037 25.2247 16.6245 25.181 16.64 25.1373C16.6607 25.0936 16.6815 25.0499 16.697 25.0062C16.7126 24.957 16.7281 24.9133 16.7385 24.8642C16.7488 24.815 16.754 24.7658 16.7644 24.7167C16.7747 24.6675 16.7747 24.6184 16.7747 24.5692C16.7747 24.52 16.7747 24.4709 16.7747 24.4217C16.7747 24.3234 16.7488 24.2305 16.7281 24.1377C16.7177 24.094 16.7022 24.0503 16.6866 24.0066C16.6711 23.9629 16.6556 23.9246 16.6348 23.8864C16.6141 23.8482 16.5985 23.8154 16.5778 23.7826C16.5571 23.7499 16.5364 23.7171 16.5156 23.6898C16.4949 23.6625 16.4742 23.6351 16.4534 23.6078C16.4327 23.586 16.412 23.5641 16.3913 23.5423C16.3705 23.5204 16.355 23.5041 16.3343 23.4877C16.3135 23.4713 16.298 23.4604 16.2824 23.4494C16.2203 23.4057 16.1788 23.3784 16.1788 23.3784C16.1788 23.3784 16.1943 23.4221 16.2203 23.4986C16.2254 23.515 16.2358 23.5368 16.2462 23.5587L16.2617 23.5805Z" fill="#101820"/>
<path d="M0.197056 21.21C0.197056 21.21 0.202238 21.1608 0.20742 21.1335C0.212602 21.0844 0.222967 21.0243 0.238513 20.9642C0.243695 20.9314 0.248877 20.9041 0.259242 20.8713C0.269606 20.8386 0.274788 20.8058 0.285153 20.773C0.290335 20.7402 0.305881 20.7075 0.316246 20.6692C0.331792 20.6365 0.336974 20.5982 0.352521 20.5654C0.368067 20.5327 0.383614 20.4999 0.393978 20.4617C0.409524 20.4289 0.430253 20.3961 0.4458 20.3633C0.461346 20.3306 0.482075 20.2978 0.502803 20.265C0.523532 20.2322 0.539078 20.1995 0.564989 20.1722L0.632357 20.0793C0.658268 20.052 0.678997 20.0247 0.704908 19.9919C0.756729 19.9373 0.803369 19.8827 0.860372 19.8335C0.886283 19.8116 0.912194 19.7843 0.938105 19.7625C0.964016 19.7406 0.995109 19.7188 1.02102 19.7024C1.07284 19.6587 1.12984 19.6259 1.18167 19.5932C1.23349 19.5549 1.28013 19.5331 1.32677 19.5058C1.36822 19.4784 1.40968 19.4566 1.44596 19.4402C1.51332 19.4074 1.55478 19.3801 1.55478 19.3801C1.55478 19.3801 1.51332 19.3692 1.43559 19.3637C1.39932 19.3637 1.3475 19.3528 1.29567 19.3637C1.24385 19.3637 1.17648 19.3637 1.1143 19.3801C1.04693 19.3965 0.97438 19.4074 0.90183 19.4402C0.865555 19.4566 0.829279 19.473 0.787822 19.4894C0.751547 19.5112 0.715272 19.5331 0.673815 19.5549C0.632357 19.5768 0.596082 19.6041 0.559807 19.6314C0.523532 19.6587 0.482075 19.686 0.450982 19.7243C0.419889 19.757 0.383614 19.7898 0.352521 19.828C0.321428 19.8663 0.295517 19.9045 0.264424 19.9427C0.233331 19.981 0.212602 20.0247 0.186692 20.0684C0.160781 20.1121 0.140052 20.1558 0.124506 20.1995C0.0830483 20.2869 0.0623197 20.3797 0.041591 20.4726C0.0312267 20.5163 0.0260445 20.5654 0.0208624 20.6091C0.0208624 20.6528 0.010498 20.6965 0.010498 20.7402C0.010498 20.7839 0.010498 20.8222 0.010498 20.8604C0.010498 20.8986 0.0208624 20.9369 0.0260445 20.9696C0.0312267 21.0079 0.0364089 21.0407 0.0467732 21.0734C0.0571375 21.1062 0.0675018 21.1335 0.072684 21.1663C0.0830483 21.1936 0.0882305 21.2209 0.0985948 21.2428C0.108959 21.2646 0.119323 21.2865 0.124506 21.3028C0.160781 21.3739 0.181509 21.4121 0.181509 21.4121C0.181509 21.4121 0.191874 21.3629 0.197056 21.2865C0.197056 21.2646 0.197056 21.2428 0.202238 21.2209L0.197056 21.21Z" fill="#101820"/>
<path d="M15.4427 21.5105V21.4995C15.5464 21.4722 15.6137 21.3958 15.6137 21.3193C15.6137 21.2374 15.5826 21.1718 15.536 21.139C15.479 21.1008 15.4064 21.0735 15.2458 21.0735C15.0852 21.0735 14.9763 21.0953 14.9297 21.1063V21.9201H15.1473V21.6252H15.2251C15.2976 21.6252 15.3391 21.6634 15.3494 21.7453C15.365 21.8164 15.3805 21.8819 15.4064 21.9147H15.6448C15.6345 21.8874 15.6189 21.8382 15.5982 21.7235C15.5723 21.6088 15.5256 21.5432 15.4427 21.5159V21.5105ZM15.2251 21.4504H15.1577V21.2592C15.1577 21.2592 15.2043 21.2537 15.2354 21.2537C15.3183 21.2537 15.365 21.2865 15.365 21.3521C15.365 21.4121 15.308 21.4504 15.2251 21.4504Z" fill="#101820"/>
<path d="M16.0906 21.494C16.0906 21.0079 15.7227 20.6091 15.2511 20.6091C14.7796 20.6091 14.4116 21.0079 14.4116 21.494C14.4116 21.9802 14.7847 22.3844 15.2511 22.3844C15.7175 22.3844 16.0906 21.9856 16.0906 21.494ZM15.2511 22.1713C14.9091 22.1713 14.6604 21.8709 14.6604 21.5049C14.6604 21.139 14.9143 20.8385 15.2511 20.8385C15.588 20.8385 15.8419 21.1335 15.8419 21.4995C15.8419 21.8655 15.588 22.1768 15.2511 22.1768V22.1713Z" fill="#101820"/>
<path d="M31.5386 23.3184C31.5023 23.373 31.4609 23.4058 31.4091 23.4112C31.3572 23.4112 31.3158 23.4058 31.2847 23.373C31.2536 23.3457 31.2329 23.302 31.2173 23.2528C31.2018 23.1982 31.2121 23.1436 31.2381 23.089C31.3106 23.0016 31.3676 22.9142 31.4142 22.8268C31.4609 22.7339 31.4764 22.6356 31.4661 22.5209C31.4661 22.4717 31.4453 22.439 31.3987 22.4116C31.3521 22.3898 31.3002 22.3734 31.2381 22.3734C31.0774 22.3843 30.9219 22.428 30.7768 22.51C30.6317 22.5919 30.5074 22.7011 30.4037 22.8377C30.3001 22.9743 30.2223 23.1381 30.1653 23.3238C30.1135 23.5096 30.0928 23.7062 30.1135 23.9192C30.1239 24.0121 30.1498 24.1049 30.1964 24.1814C30.2431 24.2634 30.2949 24.3508 30.3571 24.4436C30.4763 24.3562 30.6058 24.2634 30.7561 24.165C30.9064 24.0667 31.0619 23.9739 31.2225 23.8974C31.3832 23.8209 31.549 23.7554 31.72 23.7062C31.8858 23.6516 32.0465 23.6297 32.2019 23.6407C32.3108 23.6516 32.3678 23.7007 32.3781 23.7991C32.3885 23.8974 32.3367 23.9575 32.2278 23.9848C32.0206 23.9848 31.7666 24.0667 31.4713 24.2306C31.1759 24.3944 30.8857 24.5911 30.5955 24.8314C30.6939 25.0226 30.7457 25.2302 30.7457 25.4596C30.725 25.7054 30.6525 25.9512 30.5126 26.1915C30.3778 26.3936 30.2016 26.5739 29.984 26.7432C29.7663 26.9126 29.5331 26.9945 29.2896 26.9945C29.1082 26.9945 28.9683 26.9344 28.875 26.8088C28.7817 26.6831 28.7817 26.4865 28.8802 26.2079C28.9268 26.1041 29.0149 25.9567 29.1496 25.7655C29.2844 25.5743 29.5124 25.2903 29.8285 24.9188C29.7197 24.6348 29.616 24.389 29.5176 24.1978C29.4191 24.0012 29.3673 23.7936 29.3673 23.5751C29.3673 23.4604 29.3828 23.3402 29.4139 23.2146C29.445 23.089 29.4968 22.9469 29.5694 22.7831C29.6316 22.652 29.73 22.5264 29.8544 22.4116C29.9788 22.2969 30.1187 22.1986 30.269 22.1167C30.4193 22.0347 30.5747 21.9692 30.7457 21.9255C30.9116 21.8763 31.067 21.8545 31.2121 21.8545C31.3935 21.8545 31.5438 21.9091 31.6682 22.0184C31.7925 22.1276 31.8599 22.2642 31.8806 22.428C31.8962 22.581 31.8651 22.7339 31.7874 22.8923C31.7096 23.0507 31.6215 23.1927 31.5283 23.3129L31.5386 23.3184ZM30.0202 25.6672V25.5361C30.0202 25.4978 30.0099 25.4541 29.9943 25.405C29.9114 25.4814 29.8389 25.5634 29.7715 25.6562C29.7041 25.7491 29.6368 25.831 29.5746 25.9075C29.5487 25.9457 29.5176 26.0004 29.4813 26.0659C29.445 26.1315 29.4139 26.197 29.3932 26.268C29.3725 26.3336 29.3569 26.3936 29.3569 26.4483C29.3569 26.5029 29.3777 26.5302 29.4243 26.5411C29.4865 26.5575 29.5539 26.5411 29.6212 26.4701C29.6886 26.4046 29.7508 26.3226 29.813 26.2243C29.8751 26.126 29.9218 26.0277 29.9632 25.9239C30.0047 25.8201 30.0254 25.7327 30.0254 25.6672H30.0202Z" fill="#101820"/>
<path d="M33.2799 25.121C33.2177 25.1428 33.1451 25.1592 33.0674 25.1865C32.9897 25.2084 32.9171 25.2248 32.8446 25.2357C32.8187 25.3504 32.8187 25.4706 32.8498 25.6016C32.8808 25.7327 32.9638 25.8092 33.1037 25.8365C33.3317 25.8365 33.5597 25.7928 33.7877 25.7054C34.0209 25.618 34.2438 25.4979 34.4614 25.3449C34.6791 25.192 34.8863 25.0172 35.0884 24.8151C35.2854 24.613 35.4667 24.4 35.617 24.1705C35.7259 24.0941 35.8139 24.0941 35.8865 24.1651C35.959 24.2361 35.959 24.3289 35.8865 24.4436C35.7414 24.6512 35.56 24.8752 35.3424 25.11C35.1247 25.3449 34.8915 25.558 34.6376 25.7546C34.3837 25.9512 34.1194 26.1096 33.8447 26.2353C33.5701 26.3609 33.3058 26.4101 33.0519 26.3937C32.8187 26.3937 32.6217 26.3117 32.4663 26.1424C32.3108 25.9731 32.2331 25.7546 32.2227 25.476C32.2123 25.2685 32.2383 25.0336 32.2901 24.7823C32.3419 24.531 32.4248 24.2743 32.5285 24.0231C32.6321 23.7718 32.7513 23.526 32.886 23.2911C33.0208 23.0562 33.1659 22.8541 33.3161 22.6739C33.4664 22.4991 33.6167 22.3571 33.7722 22.2587C33.9276 22.1604 34.0779 22.1167 34.223 22.1386C34.3578 22.1604 34.4718 22.2041 34.5547 22.2751C34.6376 22.3461 34.7101 22.4335 34.7568 22.5373C34.8086 22.6411 34.8397 22.7558 34.8501 22.876C34.8656 22.9961 34.8656 23.1054 34.8553 23.1983C34.7827 23.6735 34.6169 24.0886 34.3578 24.4273C34.0987 24.7714 33.7411 25.0008 33.2799 25.1155V25.121ZM34.2956 23.0781C34.2956 23.0781 34.2956 23.0016 34.2904 22.9142C34.2904 22.8214 34.2541 22.7777 34.2023 22.7777C34.1557 22.7777 34.0883 22.8214 33.9898 22.9088C33.8965 22.9961 33.7929 23.1382 33.6841 23.3403C33.5131 23.6243 33.368 23.8865 33.254 24.1214C33.14 24.3563 33.0519 24.5693 32.9897 24.7605C33.114 24.7332 33.2281 24.6949 33.3317 24.6458C33.4302 24.5966 33.5493 24.5201 33.6893 24.4163C33.8292 24.3126 33.9484 24.1651 34.0468 23.9739C34.1194 23.8428 34.1764 23.6953 34.223 23.5424C34.2697 23.3894 34.2904 23.2365 34.2904 23.0835L34.2956 23.0781Z" fill="#101820"/>
<path d="M41.5349 19.3691C41.5867 19.3527 41.6541 19.3473 41.7266 19.3637C41.7992 19.38 41.8665 19.4019 41.9287 19.4401C41.9909 19.4784 42.0427 19.5221 42.0842 19.5712C42.1257 19.6204 42.1412 19.6641 42.1308 19.7023C42.1308 19.7296 42.1101 19.7788 42.0687 19.8389C42.0272 19.899 41.9961 19.9536 41.9806 20.0027C41.9339 20.0792 41.8873 20.1666 41.8355 20.2595C41.7836 20.3523 41.737 20.4561 41.6955 20.5599C42.0324 20.5107 42.3692 20.478 42.7061 20.4506C43.0481 20.4288 43.3797 20.4124 43.7062 20.4124H43.9187C43.9861 20.4124 44.0534 20.4124 44.1156 20.4288C44.297 20.4506 44.4732 20.4943 44.639 20.5654C44.8048 20.6364 44.9033 20.7238 44.9292 20.8275C44.9448 20.904 44.9396 20.9586 44.9033 20.9969C44.867 21.0351 44.8256 21.0624 44.7789 21.0843C44.7323 21.1061 44.6805 21.1061 44.6183 21.0897C44.5561 21.0733 44.468 21.057 44.3592 21.0406C44.2503 21.0242 44.1208 21.0023 43.9705 20.9859C43.8202 20.9696 43.644 20.9641 43.4471 20.9696C43.0688 20.9914 42.7061 21.0078 42.3589 21.0351C42.0168 21.057 41.7059 21.0897 41.4364 21.128L41.2447 21.6032C41.0996 21.9965 40.9493 22.3734 40.7938 22.7339C40.6384 23.0944 40.4985 23.4549 40.3741 23.8099C40.2497 24.165 40.1409 24.52 40.0528 24.886C39.9647 25.2465 39.9181 25.6234 39.9077 26.0003C39.8973 26.2407 39.9492 26.4701 40.058 26.6886C40.1046 26.8142 40.0787 26.9016 39.9854 26.9617C39.8921 27.0163 39.804 26.9999 39.7211 26.907C39.5657 26.6503 39.4776 26.3772 39.4517 26.0932C39.4154 25.7217 39.4309 25.3339 39.4931 24.9352C39.5553 24.5364 39.6486 24.1268 39.773 23.7116C39.8973 23.2965 40.0269 22.8868 40.172 22.4826C40.3171 22.0784 40.4518 21.6797 40.5814 21.2864C40.3482 21.3355 40.1253 21.3847 39.9181 21.4448C39.7108 21.4994 39.462 21.5486 39.1718 21.5868C39.1459 21.5704 39.1096 21.5376 39.0682 21.4994C39.0267 21.4612 38.9956 21.4229 38.9801 21.3847C38.9645 21.3465 38.9542 21.3082 38.9594 21.2754C38.9594 21.2427 39.0008 21.2154 39.0734 21.199C39.3428 21.1061 39.6227 21.0133 39.9077 20.9368C40.1927 20.8549 40.4829 20.7838 40.7835 20.7292C40.8301 20.6036 40.8819 20.467 40.9389 20.3196C40.9959 20.1721 41.0633 20.0355 41.1307 19.9044C41.1981 19.7733 41.2654 19.6641 41.3328 19.5658C41.4002 19.4729 41.4675 19.4074 41.5297 19.38L41.5349 19.3691Z" fill="#101820"/>
<path d="M44.582 22.0895C44.6286 22.0403 44.6856 22.0294 44.7582 22.0513C44.8307 22.0731 44.8981 22.1168 44.9603 22.1714C45.0225 22.2261 45.0691 22.2971 45.1002 22.3735C45.1313 22.45 45.1313 22.5156 45.095 22.5756C45.0225 22.6685 44.9292 22.8597 44.8152 23.1437C44.7012 23.4277 44.5924 23.7282 44.4887 24.045C44.3851 24.3673 44.3073 24.6731 44.2503 24.9681C44.1985 25.2631 44.1933 25.4816 44.2348 25.6127C44.354 25.6345 44.4835 25.5963 44.6338 25.498C44.7841 25.4051 44.9292 25.2849 45.0743 25.1374C45.2194 24.9954 45.3541 24.837 45.4837 24.6731C45.6081 24.5038 45.7117 24.3618 45.7843 24.2362C45.8568 24.1215 45.9294 23.9958 45.9967 23.8593C46.0641 23.7227 46.1418 23.5916 46.2351 23.4824C46.3336 23.4059 46.4217 23.4059 46.4942 23.4824C46.5668 23.5588 46.5668 23.6517 46.4942 23.7555C46.4942 23.7773 46.4787 23.8265 46.4424 23.9084C46.4061 23.9904 46.3647 24.0778 46.3128 24.1815C46.261 24.2799 46.2144 24.3836 46.1729 24.482C46.1263 24.5803 46.09 24.6513 46.0641 24.6895C45.9915 24.8316 45.8775 25.0118 45.7221 25.2194C45.5666 25.4269 45.3956 25.6181 45.2039 25.7874C45.0121 25.9568 44.81 26.0715 44.5975 26.137C44.3851 26.2026 44.1778 26.1589 43.9809 26.0059C43.8617 25.9185 43.7788 25.7984 43.7218 25.6454C43.6699 25.4925 43.6285 25.3232 43.6129 25.132C43.4678 25.3395 43.2968 25.5416 43.1051 25.7328C42.9082 25.924 42.7112 26.0551 42.4988 26.1316C42.4003 26.1807 42.3122 26.208 42.2345 26.219C42.1568 26.2299 42.0842 26.2299 42.0117 26.219C41.8406 26.2026 41.7111 26.1152 41.6334 25.9622C41.5504 25.8093 41.5038 25.6181 41.4883 25.3832C41.4727 25.1484 41.4883 24.8971 41.5349 24.624C41.5815 24.3509 41.6437 24.0887 41.7318 23.832C41.8199 23.5752 41.9132 23.3458 42.022 23.1437C42.1308 22.9416 42.25 22.7996 42.3744 22.7122C42.4262 22.674 42.4936 22.6521 42.5661 22.6466C42.6387 22.6466 42.7061 22.6466 42.7631 22.6685C42.8201 22.6903 42.8667 22.7177 42.8926 22.7614C42.9185 22.8051 42.9133 22.8542 42.8771 22.9143C42.7942 23.0072 42.6957 23.1983 42.5765 23.4824C42.4573 23.7664 42.3589 24.0559 42.2708 24.3618C42.1827 24.6677 42.1308 24.9463 42.1153 25.1921C42.0997 25.4379 42.1516 25.5744 42.2759 25.5908C42.3744 25.6127 42.4884 25.5744 42.618 25.4925C42.7423 25.4051 42.8771 25.2849 43.0118 25.1265C43.1465 24.9681 43.2813 24.7824 43.4108 24.5584C43.5404 24.3399 43.6596 24.0996 43.7684 23.8429C43.8669 23.4223 43.9912 23.0618 44.1415 22.7614C44.2918 22.4609 44.4317 22.237 44.5716 22.095L44.582 22.0895Z" fill="#101820"/>
<path d="M50.9094 22.0183C50.9613 22.0019 51.0286 22.0019 51.1064 22.0347C51.1841 22.0675 51.2567 22.1057 51.324 22.1658C51.3914 22.2204 51.4484 22.2805 51.4847 22.3461C51.5261 22.4062 51.5469 22.4608 51.5469 22.499C51.5572 22.5263 51.5469 22.5755 51.5054 22.641C51.4691 22.7066 51.4432 22.7667 51.4225 22.8104L51.1375 23.4713C51.3448 23.2036 51.5676 22.9633 51.7956 22.7503C52.0288 22.5372 52.2464 22.428 52.4537 22.428C52.6144 22.4553 52.7284 22.5482 52.7854 22.7066C52.8424 22.865 52.8683 23.0616 52.8579 23.291C52.8476 23.5259 52.8165 23.7772 52.7647 24.0503C52.7128 24.3234 52.6558 24.5801 52.604 24.8314C52.5522 25.0772 52.5107 25.2957 52.4796 25.4814C52.4537 25.6671 52.4589 25.7873 52.4952 25.8474C52.6299 25.8474 52.8061 25.7545 53.0238 25.5743C53.2414 25.394 53.4643 25.181 53.6871 24.9352C53.9151 24.6894 54.1172 24.449 54.3038 24.2032C54.4903 23.9574 54.6199 23.7826 54.6924 23.6679C54.7753 23.6133 54.8531 23.6079 54.936 23.6515C55.0189 23.7007 55.0293 23.7826 54.9774 23.8974C54.9049 24.0667 54.7961 24.2579 54.651 24.4654C54.5059 24.673 54.3452 24.8751 54.1742 25.0717C54.0032 25.2738 53.827 25.465 53.6456 25.6453C53.4643 25.8255 53.3036 25.9785 53.1585 26.1041C53.06 26.2024 52.946 26.2734 52.8165 26.3281C52.6869 26.3827 52.5626 26.4045 52.4382 26.4045C52.2827 26.4045 52.148 26.3608 52.0236 26.2734C51.8992 26.186 51.8163 26.0495 51.7697 25.8583C51.7334 25.6944 51.7386 25.4705 51.7852 25.1864C51.8319 24.9024 51.8837 24.6184 51.9407 24.3343C51.9977 24.0503 52.0495 23.8045 52.0962 23.5969C52.1428 23.3894 52.148 23.2747 52.1117 23.2528C52.0288 23.2146 51.9252 23.2419 51.8008 23.3293C51.6712 23.4221 51.5365 23.5478 51.3914 23.7062C51.2463 23.87 51.1012 24.0503 50.9613 24.2579C50.8214 24.4654 50.697 24.6621 50.5882 24.8532C50.5415 25.0171 50.5001 25.1755 50.4586 25.3394C50.4171 25.5033 50.3809 25.6671 50.3446 25.8419C50.3083 26.044 50.3239 26.2625 50.3861 26.5029C50.3964 26.5575 50.3861 26.6012 50.3498 26.6339C50.3187 26.6613 50.2772 26.6776 50.2254 26.6776C50.1736 26.6776 50.1218 26.6613 50.0648 26.6339C50.0078 26.6066 49.9559 26.5684 49.9197 26.5192C49.8937 26.4428 49.8678 26.3827 49.8523 26.3335C49.8367 26.2844 49.8212 26.2407 49.8108 26.2024C49.8005 26.1642 49.8005 26.126 49.8056 26.0823C49.8056 26.0386 49.8108 25.9839 49.8108 25.9184C49.8471 25.2192 49.9715 24.5474 50.1839 23.8919C50.3964 23.2364 50.6348 22.6137 50.8991 22.0238L50.9094 22.0183Z" fill="#101820"/>
<path d="M56.9985 22.3625C57.0969 22.4499 57.1539 22.5482 57.1591 22.6574C57.1695 22.7667 57.1073 22.8049 56.9829 22.7667C56.9104 22.7503 56.8378 22.7339 56.7704 22.723C56.7031 22.7121 56.6305 22.723 56.558 22.7503C56.4751 22.7885 56.3662 22.9032 56.2263 23.0999C56.0864 23.2965 55.9465 23.5205 55.8117 23.7827C55.677 24.0394 55.5578 24.3071 55.4542 24.5747C55.3505 24.8478 55.2935 25.0772 55.2832 25.2684C55.2832 25.3558 55.2935 25.4323 55.3091 25.5033C55.3298 25.5743 55.3609 25.6125 55.4179 25.6125C55.5267 25.6125 55.6511 25.5415 55.7962 25.405C55.9413 25.2684 56.0812 25.1045 56.216 24.9134C56.3507 24.7222 56.4751 24.531 56.5891 24.3344C56.7031 24.1377 56.786 23.9793 56.8378 23.8537C56.8534 23.8045 56.8689 23.7663 56.8793 23.7335C56.8896 23.7007 56.9052 23.668 56.9311 23.6407L56.9466 23.6243C57.0088 23.5205 57.071 23.4495 57.1384 23.4167C57.2006 23.3839 57.2627 23.3785 57.3146 23.3949C57.3664 23.4167 57.413 23.4659 57.4493 23.5478C57.4856 23.6297 57.5011 23.7335 57.4908 23.8537C57.4441 24.0339 57.413 24.2197 57.3871 24.4108C57.3664 24.602 57.3457 24.8424 57.3249 25.1264C57.3042 25.4978 57.3353 25.6945 57.4078 25.7109C57.4959 25.7382 57.5892 25.7327 57.6773 25.6835C57.9105 25.5579 58.1282 25.3831 58.3251 25.1482C58.522 24.9134 58.6878 24.6785 58.8329 24.4381C58.9055 24.3125 58.978 24.176 59.0558 24.0176C59.1335 23.8591 59.2216 23.728 59.3201 23.6243C59.3719 23.5751 59.4185 23.5642 59.4548 23.5806C59.4911 23.6024 59.517 23.6352 59.5377 23.6898C59.5533 23.7444 59.5688 23.8045 59.574 23.8755C59.574 23.9465 59.574 24.0121 59.5688 24.0667C59.5688 24.0776 59.5533 24.1049 59.5274 24.1596C59.5014 24.2142 59.4704 24.2743 59.4341 24.3398C59.3978 24.4054 59.3615 24.4709 59.3253 24.531C59.289 24.5911 59.2682 24.6402 59.2579 24.6676C59.1853 24.7932 59.1076 24.9243 59.0195 25.0608C58.9314 25.1974 58.8381 25.3394 58.7397 25.476C58.6412 25.6125 58.5376 25.7436 58.4287 25.8638C58.3199 25.984 58.2059 26.0877 58.0867 26.1697C57.9883 26.2462 57.8691 26.3008 57.7343 26.3336C57.5996 26.3663 57.4649 26.3718 57.3405 26.3554C57.2057 26.3445 57.1021 26.2899 57.0347 26.1915C56.9674 26.0932 56.9207 25.9676 56.8948 25.8201C56.8689 25.6726 56.8585 25.4978 56.8689 25.3066C56.8793 25.11 56.8948 24.9079 56.9207 24.7003C56.8482 24.8806 56.7497 25.0718 56.6202 25.2684C56.4906 25.4651 56.3507 25.6398 56.2004 25.7982C56.0449 25.9567 55.8791 26.0823 55.6977 26.1751C55.5164 26.2735 55.335 26.3062 55.1536 26.2899C54.9981 26.2735 54.8738 26.1806 54.7753 26.0167C54.6768 25.8529 54.6302 25.5961 54.6406 25.2411C54.6406 25.039 54.682 24.8041 54.7701 24.531C54.8582 24.2579 54.9671 23.9848 55.1018 23.7171C55.2365 23.444 55.392 23.1927 55.563 22.9579C55.734 22.723 55.9102 22.5427 56.0916 22.4226C56.1745 22.3679 56.2626 22.3242 56.3559 22.3024C56.4492 22.2805 56.5424 22.2642 56.6357 22.2642C56.7964 22.2642 56.9155 22.2969 56.9881 22.3625H56.9985Z" fill="#101820"/>
<path d="M61.4397 19.3691C61.4915 19.3527 61.5589 19.3473 61.6314 19.3637C61.704 19.38 61.7713 19.4019 61.8335 19.4401C61.8957 19.4784 61.9475 19.5221 61.989 19.5712C62.0304 19.6204 62.046 19.6641 62.0356 19.7023C62.0356 19.7296 62.0149 19.7788 61.9734 19.8389C61.932 19.899 61.9009 19.9536 61.8853 20.0027C61.8387 20.0792 61.7921 20.1666 61.7402 20.2595C61.6884 20.3523 61.6418 20.4561 61.6003 20.5599C61.9372 20.5107 62.274 20.478 62.6108 20.4506C62.9529 20.4288 63.2845 20.4124 63.611 20.4124H63.8235C63.8908 20.4124 63.9582 20.4124 64.0204 20.4288C64.2018 20.4506 64.378 20.4943 64.5438 20.5654C64.7096 20.6364 64.8081 20.7238 64.834 20.8275C64.8495 20.904 64.8444 20.9586 64.8081 20.9969C64.7718 21.0351 64.7303 21.0624 64.6837 21.0843C64.6371 21.1061 64.5852 21.1061 64.5231 21.0897C64.4609 21.0733 64.3728 21.057 64.264 21.0406C64.1551 21.0242 64.0256 21.0023 63.8753 20.9859C63.725 20.9696 63.5488 20.9641 63.3519 20.9696C62.9736 20.9914 62.6108 21.0078 62.2636 21.0351C61.9216 21.057 61.6107 21.0897 61.3412 21.128L61.1495 21.6032C61.0044 21.9965 60.8541 22.3734 60.6986 22.7339C60.5432 23.0944 60.4032 23.4549 60.2789 23.8099C60.1545 24.165 60.0457 24.52 59.9576 24.886C59.8695 25.2465 59.8228 25.6234 59.8125 26.0003C59.8021 26.2407 59.8539 26.4701 59.9628 26.6886C60.0094 26.8142 59.9835 26.9016 59.8902 26.9617C59.7969 27.0163 59.7088 26.9999 59.6259 26.907C59.4705 26.6503 59.3824 26.3772 59.3564 26.0932C59.3202 25.7217 59.3357 25.3339 59.3979 24.9352C59.4601 24.5364 59.5534 24.1268 59.6777 23.7116C59.8021 23.2965 59.9317 22.8868 60.0768 22.4826C60.2219 22.0784 60.3566 21.6797 60.4862 21.2864C60.253 21.3355 60.0301 21.3847 59.8228 21.4448C59.6156 21.4994 59.3668 21.5486 59.0766 21.5868C59.0507 21.5704 59.0144 21.5376 58.973 21.4994C58.9315 21.4612 58.9004 21.4229 58.8849 21.3847C58.8693 21.3465 58.859 21.3082 58.8641 21.2754C58.8641 21.2427 58.9056 21.2154 58.9781 21.199C59.2476 21.1061 59.5275 21.0133 59.8125 20.9368C60.0975 20.8549 60.3877 20.7838 60.6883 20.7292C60.7349 20.6036 60.7867 20.467 60.8437 20.3196C60.9007 20.1721 60.9681 20.0355 61.0355 19.9044C61.1028 19.7733 61.1702 19.6641 61.2376 19.5658C61.3049 19.4729 61.3723 19.4074 61.4345 19.38L61.4397 19.3691Z" fill="#101820"/>
<path d="M64.4817 22.0895C64.5283 22.0403 64.5853 22.0294 64.6579 22.0513C64.7304 22.0731 64.7978 22.1168 64.86 22.1714C64.9221 22.2261 64.9688 22.2971 64.9999 22.3735C65.031 22.45 65.031 22.5156 64.9947 22.5756C64.9221 22.6685 64.8289 22.8597 64.7149 23.1437C64.6008 23.4277 64.492 23.7282 64.3884 24.045C64.2847 24.3673 64.207 24.6731 64.15 24.9681C64.0982 25.2631 64.093 25.4816 64.1345 25.6127C64.2536 25.6345 64.3832 25.5963 64.5335 25.498C64.6838 25.4051 64.8289 25.2849 64.974 25.1374C65.1191 24.9954 65.2538 24.837 65.3834 24.6731C65.5077 24.5038 65.6114 24.3618 65.6839 24.2362C65.7565 24.1215 65.829 23.9958 65.8964 23.8593C65.9638 23.7227 66.0415 23.5916 66.1348 23.4824C66.2332 23.4059 66.3213 23.4059 66.3939 23.4824C66.4664 23.5588 66.4664 23.6517 66.3939 23.7555C66.3939 23.7773 66.3783 23.8265 66.3421 23.9084C66.3058 23.9904 66.2643 24.0778 66.2125 24.1815C66.1607 24.2799 66.114 24.3836 66.0726 24.482C66.0259 24.5803 65.9897 24.6513 65.9638 24.6895C65.8912 24.8316 65.7772 25.0118 65.6217 25.2194C65.4663 25.4269 65.2953 25.6181 65.1035 25.7874C64.9118 25.9568 64.7097 26.0715 64.4972 26.137C64.2847 26.2026 64.0775 26.1589 63.8805 26.0059C63.7613 25.9185 63.6784 25.7984 63.6214 25.6454C63.5696 25.4925 63.5281 25.3232 63.5126 25.132C63.3675 25.3395 63.1965 25.5416 63.0047 25.7328C62.8078 25.924 62.6109 26.0551 62.3984 26.1316C62.3 26.1807 62.2119 26.208 62.1341 26.219C62.0564 26.2299 61.9839 26.2299 61.9113 26.219C61.7403 26.2026 61.6107 26.1152 61.533 25.9622C61.4501 25.8093 61.4035 25.6181 61.3879 25.3832C61.3724 25.1484 61.3879 24.8971 61.4346 24.624C61.4812 24.3509 61.5434 24.0887 61.6315 23.832C61.7196 23.5752 61.8128 23.3458 61.9217 23.1437C62.0305 22.9416 62.1497 22.7996 62.2741 22.7122C62.3259 22.674 62.3932 22.6521 62.4658 22.6466C62.5384 22.6466 62.6057 22.6466 62.6627 22.6685C62.7197 22.6903 62.7664 22.7177 62.7923 22.7614C62.8182 22.8051 62.813 22.8542 62.7767 22.9143C62.6938 23.0072 62.5954 23.1983 62.4762 23.4824C62.357 23.7664 62.2585 24.0559 62.1704 24.3618C62.0823 24.6677 62.0305 24.9463 62.015 25.1921C61.9994 25.4379 62.0512 25.5744 62.1756 25.5908C62.2741 25.6127 62.3881 25.5744 62.5176 25.4925C62.642 25.4051 62.7767 25.2849 62.9115 25.1265C63.0462 24.9681 63.1809 24.7824 63.3105 24.5584C63.44 24.3399 63.5592 24.0996 63.6681 23.8429C63.7665 23.4223 63.8909 23.0618 64.0412 22.7614C64.1915 22.4609 64.3314 22.237 64.4713 22.095L64.4817 22.0895Z" fill="#101820"/>
<path d="M67.2282 21.8437C67.28 21.8273 67.3422 21.8327 67.4096 21.8655C67.477 21.8983 67.5391 21.942 67.591 21.9966C67.6428 22.0512 67.6894 22.1113 67.7257 22.1769C67.762 22.2424 67.7775 22.297 67.7775 22.3353C67.7879 22.3626 67.7775 22.4117 67.7413 22.4718C67.7102 22.5319 67.6791 22.5865 67.6532 22.6357C67.591 22.7668 67.5288 22.8979 67.477 23.0235C67.4251 23.1491 67.3733 23.2693 67.3267 23.395C67.3992 23.2912 67.4873 23.171 67.5858 23.0454C67.6842 22.9143 67.7983 22.7996 67.9174 22.6958C68.0418 22.592 68.1662 22.5046 68.2957 22.4336C68.4253 22.3626 68.5652 22.3298 68.7103 22.3407C68.871 22.3517 69.0057 22.4008 69.1042 22.4991C69.2026 22.592 69.2544 22.7559 69.2544 22.9853C69.2544 23.2912 69.1923 23.5643 69.0627 23.7992C68.9383 24.0395 68.6844 24.2361 68.3009 24.4C68.1092 24.4929 67.876 24.5693 67.5962 24.613C67.477 24.5639 67.4251 24.5147 67.4407 24.4546C67.4562 24.4 67.4718 24.3618 67.4873 24.3399L67.7879 24.1706C67.9952 24.0559 68.1455 23.9303 68.2284 23.7937C68.3165 23.6571 68.3735 23.5315 68.4097 23.4277C68.446 23.313 68.4616 23.2038 68.4512 23.1C68.4305 23.0454 68.4046 23.0071 68.3631 23.0017C68.3217 22.9907 68.2906 22.9907 68.275 23.0017C68.2232 23.029 68.1506 23.0727 68.0729 23.1328C67.99 23.1874 67.8915 23.2857 67.7827 23.4168C67.6687 23.5479 67.534 23.7281 67.3837 23.9521C67.2282 24.1761 67.0572 24.4656 66.8655 24.8206C66.8188 24.9899 66.7774 25.1647 66.7411 25.3341C66.7048 25.5034 66.6737 25.6782 66.6478 25.8475C66.6115 26.0496 66.6271 26.2681 66.6893 26.5084C66.6996 26.5631 66.6893 26.6068 66.653 26.6395C66.6219 26.6668 66.5805 26.6832 66.5286 26.6832C66.4768 26.6832 66.425 26.6668 66.368 26.6395C66.311 26.6122 66.2592 26.574 66.2229 26.5248C66.197 26.4484 66.1711 26.3883 66.1555 26.3391C66.14 26.29 66.1244 26.2463 66.1141 26.208C66.1037 26.1698 66.1037 26.1315 66.1089 26.0878C66.1089 26.0441 66.1141 25.9895 66.1141 25.924C66.1503 25.2248 66.2747 24.5256 66.4924 23.8101C66.71 23.1 66.9484 22.45 67.2127 21.8546L67.2282 21.8437Z" fill="#101820"/>
<path d="M71.3635 22.3625C71.4619 22.4499 71.5189 22.5482 71.5241 22.6574C71.5345 22.7667 71.4723 22.8049 71.3479 22.7667C71.2753 22.7503 71.2028 22.7339 71.1354 22.723C71.0681 22.7121 70.9955 22.723 70.923 22.7503C70.8401 22.7885 70.7312 22.9032 70.5913 23.0999C70.4514 23.2965 70.3115 23.5205 70.1767 23.7827C70.042 24.0394 69.9228 24.3071 69.8192 24.5747C69.7155 24.8478 69.6585 25.0772 69.6482 25.2684C69.6482 25.3558 69.6585 25.4323 69.6741 25.5033C69.6948 25.5743 69.7259 25.6125 69.7829 25.6125C69.8917 25.6125 70.0161 25.5415 70.1612 25.405C70.3063 25.2684 70.4462 25.1045 70.5809 24.9134C70.7157 24.7222 70.84 24.531 70.9541 24.3344C71.0681 24.1377 71.151 23.9793 71.2028 23.8537C71.2183 23.8045 71.2339 23.7663 71.2443 23.7335C71.2546 23.7007 71.2702 23.668 71.2961 23.6407L71.3116 23.6243C71.3738 23.5205 71.436 23.4495 71.5034 23.4167C71.5656 23.3839 71.6277 23.3785 71.6796 23.3949C71.7314 23.4167 71.778 23.4659 71.8143 23.5478C71.8506 23.6297 71.8661 23.7335 71.8558 23.8537C71.8091 24.0339 71.778 24.2197 71.7521 24.4108C71.7314 24.602 71.7107 24.8424 71.6899 25.1264C71.6692 25.4978 71.7003 25.6945 71.7728 25.7109C71.8609 25.7382 71.9542 25.7327 72.0423 25.6835C72.2755 25.5579 72.4932 25.3831 72.6901 25.1482C72.887 24.9134 73.0528 24.6785 73.1979 24.4381C73.2705 24.3125 73.343 24.176 73.4208 24.0176C73.4985 23.8591 73.5866 23.728 73.6851 23.6243C73.7369 23.5751 73.7835 23.5642 73.8198 23.5806C73.8561 23.6024 73.882 23.6352 73.9027 23.6898C73.9183 23.7444 73.9338 23.8045 73.939 23.8755C73.939 23.9465 73.939 24.0121 73.9338 24.0667C73.9338 24.0776 73.9183 24.1049 73.8923 24.1596C73.8664 24.2142 73.8353 24.2743 73.7991 24.3398C73.7628 24.4054 73.7265 24.4709 73.6902 24.531C73.654 24.5911 73.6332 24.6402 73.6229 24.6676C73.5503 24.7932 73.4726 24.9243 73.3845 25.0608C73.2964 25.1974 73.2031 25.3394 73.1047 25.476C73.0062 25.6125 72.9026 25.7436 72.7937 25.8638C72.6849 25.984 72.5709 26.0877 72.4517 26.1697C72.3532 26.2462 72.2341 26.3008 72.0993 26.3336C71.9646 26.3663 71.8298 26.3718 71.7055 26.3554C71.5707 26.3445 71.4671 26.2899 71.3997 26.1915C71.3324 26.0932 71.2857 25.9676 71.2598 25.8201C71.2339 25.6726 71.2235 25.4978 71.2339 25.3066C71.2443 25.11 71.2598 24.9079 71.2857 24.7003C71.2132 24.8806 71.1147 25.0718 70.9851 25.2684C70.8556 25.4651 70.7157 25.6398 70.5654 25.7982C70.4099 25.9567 70.2441 26.0823 70.0627 26.1751C69.8813 26.2735 69.7 26.3062 69.5186 26.2899C69.3631 26.2735 69.2388 26.1806 69.1403 26.0167C69.0418 25.8529 68.9952 25.5961 69.0056 25.2411C69.0056 25.039 69.047 24.8041 69.1351 24.531C69.2232 24.2579 69.332 23.9848 69.4668 23.7171C69.6015 23.444 69.757 23.1927 69.928 22.9579C70.099 22.723 70.2752 22.5427 70.4566 22.4226C70.5395 22.3679 70.6276 22.3242 70.7209 22.3024C70.8141 22.2805 70.9074 22.2642 71.0007 22.2642C71.1613 22.2642 71.2805 22.2969 71.3531 22.3625H71.3635Z" fill="#101820"/>
<path d="M74.6127 22.286C74.6853 22.0948 74.7423 21.9364 74.7838 21.8053C74.8252 21.6742 74.8511 21.6032 74.8563 21.5814C75.0377 21.0352 75.2139 20.5873 75.3849 20.2377C75.5559 19.8826 75.7217 19.604 75.872 19.4019C76.0275 19.1944 76.1674 19.0524 76.2918 18.9704C76.4161 18.8885 76.525 18.8557 76.6182 18.8612C76.81 18.8612 76.924 18.9322 76.9706 19.0742C77.0173 19.2162 77.0017 19.3692 76.9292 19.533L76.8877 19.6477C76.8411 19.7734 76.7685 19.9263 76.6701 20.112C76.5716 20.2978 76.4524 20.4999 76.3177 20.7183C76.1829 20.9368 76.0327 21.1717 75.872 21.4121C75.7114 21.6579 75.5455 21.8982 75.3849 22.1331L74.9392 23.6079C74.8926 23.7772 74.8459 23.952 74.7941 24.1159C74.7423 24.2852 74.7112 24.4491 74.6905 24.6075C74.6801 24.6566 74.6697 24.755 74.6542 24.9024C74.6387 25.0499 74.6335 25.2029 74.6335 25.3613C74.6335 25.5197 74.649 25.6617 74.6801 25.7928C74.7112 25.9239 74.7734 25.984 74.8615 25.984C74.9496 25.984 75.0791 25.8911 75.2502 25.6999C75.416 25.5088 75.5922 25.2848 75.7735 25.0281C75.9549 24.7714 76.1259 24.5146 76.2814 24.2524C76.4369 23.9903 76.5561 23.7991 76.6286 23.668L76.696 23.597C76.696 23.597 76.7271 23.5697 76.7374 23.5697C76.753 23.5697 76.7633 23.5697 76.7633 23.586C76.7633 23.6024 76.7737 23.6079 76.7892 23.6297C76.8255 23.7062 76.8411 23.7827 76.8359 23.8646C76.8359 23.9466 76.8203 24.023 76.7996 24.0995C76.7737 24.176 76.7374 24.247 76.6908 24.3125C76.6286 24.4272 76.5457 24.5638 76.4472 24.7222C76.3488 24.8806 76.2399 25.039 76.1259 25.2029C76.0119 25.3667 75.8979 25.5197 75.7839 25.6672C75.6699 25.8146 75.5663 25.9348 75.4782 26.0331C75.3797 26.1369 75.2761 26.2079 75.1724 26.2462C75.0688 26.2844 74.9703 26.3008 74.8822 26.3008C74.7941 26.3008 74.6905 26.2844 74.5816 26.2571L74.364 26.126C74.3018 26.0768 74.2344 26.0277 74.1671 25.9731C74.0997 25.9184 74.0323 25.8474 73.9702 25.7491C73.9235 25.6836 73.8976 25.5852 73.8821 25.4541C73.8665 25.323 73.8613 25.1919 73.8613 25.0609C73.8613 25.0226 73.8613 24.9571 73.8665 24.8697C73.8665 24.7768 73.8976 24.6348 73.9391 24.4327C73.9857 24.2306 74.0583 23.9575 74.1567 23.6188C74.2552 23.2747 74.4003 22.8268 74.592 22.2751L74.6127 22.286ZM76.4731 19.3528C76.385 19.4293 76.271 19.6423 76.1311 19.9973C75.9964 20.3524 75.8513 20.7566 75.6958 21.2154C75.8668 20.9587 76.0223 20.7183 76.157 20.4999C76.2918 20.2814 76.4058 20.0847 76.4887 19.9209C76.5768 19.7515 76.6286 19.6204 76.6441 19.5112C76.6597 19.4074 76.6442 19.3419 76.5768 19.3091C76.5301 19.3091 76.4939 19.3255 76.468 19.3528H76.4731Z" fill="#101820"/>
<path d="M77.7479 25.121C77.6857 25.1428 77.6131 25.1592 77.5354 25.1865C77.4577 25.2084 77.3851 25.2248 77.3126 25.2357C77.2867 25.3504 77.2867 25.4706 77.3178 25.6016C77.3489 25.7327 77.4318 25.8092 77.5717 25.8365C77.7997 25.8365 78.0277 25.7928 78.2557 25.7054C78.4889 25.618 78.7118 25.4979 78.9294 25.3449C79.1471 25.192 79.3544 25.0172 79.5565 24.8151C79.7534 24.613 79.9348 24.4 80.085 24.1705C80.1939 24.0941 80.282 24.0941 80.3545 24.1651C80.4271 24.2361 80.4271 24.3289 80.3545 24.4436C80.2094 24.6512 80.028 24.8752 79.8104 25.11C79.5927 25.3449 79.3595 25.558 79.1056 25.7546C78.8517 25.9512 78.5874 26.1096 78.3127 26.2353C78.0381 26.3609 77.7738 26.4101 77.5199 26.3937C77.2867 26.3937 77.0898 26.3117 76.9343 26.1424C76.7788 25.9731 76.7011 25.7546 76.6907 25.476C76.6804 25.2685 76.7063 25.0336 76.7581 24.7823C76.8099 24.531 76.8928 24.2743 76.9965 24.0231C77.1001 23.7718 77.2193 23.526 77.354 23.2911C77.4888 23.0562 77.6339 22.8541 77.7842 22.6739C77.9344 22.4991 78.0847 22.3571 78.2402 22.2587C78.3957 22.1604 78.5459 22.1167 78.691 22.1386C78.8258 22.1604 78.9398 22.2041 79.0227 22.2751C79.1056 22.3461 79.1782 22.4335 79.2248 22.5373C79.2766 22.6411 79.3077 22.7558 79.3181 22.876C79.3336 22.9961 79.3336 23.1054 79.3233 23.1983C79.2507 23.6735 79.0849 24.0886 78.8258 24.4273C78.5667 24.7714 78.2091 25.0008 77.7479 25.1155V25.121ZM78.7688 23.0781C78.7688 23.0781 78.7688 23.0016 78.7636 22.9142C78.7636 22.8214 78.7273 22.7777 78.6755 22.7777C78.6289 22.7777 78.5615 22.8214 78.463 22.9088C78.3697 22.9961 78.2661 23.1382 78.1573 23.3403C77.9863 23.6243 77.8412 23.8865 77.7272 24.1214C77.6132 24.3563 77.5251 24.5693 77.4629 24.7605C77.5872 24.7332 77.7012 24.6949 77.8049 24.6458C77.9034 24.5966 78.0225 24.5201 78.1625 24.4163C78.3024 24.3126 78.4216 24.1651 78.52 23.9739C78.5926 23.8428 78.6496 23.6953 78.6962 23.5424C78.7429 23.3894 78.7636 23.2365 78.7636 23.0835L78.7688 23.0781Z" fill="#101820"/>
<path d="M81.023 22.1439C81.0956 22.0128 81.1733 21.9473 81.2562 21.9582C81.3391 21.9691 81.3702 22.0183 81.3495 22.1166V22.2313C81.3495 22.2805 81.3858 22.3133 81.4583 22.3296C81.6293 22.357 81.7848 22.3733 81.9195 22.3788C82.0543 22.3788 82.1994 22.3788 82.3548 22.357C82.5155 22.346 82.671 22.3242 82.8109 22.2859C82.9508 22.2477 83.1114 22.204 83.2928 22.1548C83.3394 22.1439 83.3757 22.1548 83.4068 22.1985C83.4379 22.2368 83.4638 22.2805 83.4794 22.3351C83.4949 22.3897 83.5053 22.4443 83.5001 22.499C83.5001 22.5536 83.4794 22.6028 83.4535 22.641L83.3705 22.7284C83.127 23.1271 82.8679 23.5204 82.6036 23.8973C82.3341 24.2742 82.0543 24.6675 81.7537 25.0772C81.6915 25.17 81.6397 25.252 81.5982 25.323C81.5568 25.3885 81.5205 25.4541 81.4894 25.5141C81.4583 25.5742 81.422 25.6452 81.3806 25.7162C81.3391 25.7873 81.2873 25.8692 81.2251 25.9675L81.6604 25.9839C81.7796 25.9839 81.9247 25.9839 82.0957 25.9894C82.2667 25.9894 82.4429 25.9894 82.6191 25.9894C82.7953 25.9894 82.9663 25.9784 83.1373 25.9675C83.3032 25.9566 83.4483 25.9457 83.5675 25.9238C83.6037 25.9238 83.6245 25.9402 83.6297 25.973C83.6297 26.0057 83.6297 26.0494 83.6141 26.0931C83.5986 26.1423 83.5778 26.186 83.5519 26.2297C83.526 26.2734 83.4949 26.3007 83.4586 26.3062C83.3498 26.3335 83.1529 26.3608 82.8679 26.3826C82.5829 26.4045 82.2771 26.4263 81.9506 26.4482C81.6242 26.4646 81.3132 26.481 81.0178 26.4919C80.7225 26.5028 80.5152 26.4919 80.4012 26.4755C80.3545 26.4263 80.3286 26.3663 80.3286 26.2898C80.3286 26.2133 80.3338 26.1532 80.3649 26.1041C80.4374 25.962 80.5048 25.831 80.567 25.7162C80.6292 25.6015 80.6966 25.4923 80.7639 25.3885C80.8313 25.2847 80.9038 25.1809 80.9764 25.0826C81.0489 24.9843 81.1267 24.8696 81.2096 24.744C81.3288 24.5637 81.4428 24.3998 81.5516 24.2578C81.6604 24.1158 81.7693 23.9738 81.8729 23.8372C81.9765 23.7007 82.0854 23.5532 82.1942 23.4057C82.303 23.2582 82.4222 23.0834 82.5466 22.8813C82.4274 22.9032 82.3289 22.9141 82.2408 22.925C82.1527 22.936 82.075 22.9414 81.9973 22.9469C81.9195 22.9469 81.8418 22.9469 81.7589 22.9469C81.676 22.9469 81.5827 22.936 81.4739 22.925C81.4272 22.9141 81.365 22.9086 81.2925 22.8977C81.2148 22.8868 81.1474 22.8431 81.0956 22.7666C81.0489 22.7011 81.023 22.6028 81.0127 22.4717C81.0023 22.3406 81.0127 22.2313 81.0386 22.133L81.023 22.1439Z" fill="#101820"/>
<path d="M86.0912 22.3625C86.1897 22.4499 86.2467 22.5482 86.2519 22.6574C86.2622 22.7667 86.2001 22.8049 86.0757 22.7667C86.0031 22.7503 85.9306 22.7339 85.8632 22.723C85.7959 22.7121 85.7233 22.723 85.6507 22.7503C85.5678 22.7885 85.459 22.9032 85.3191 23.0999C85.1792 23.2965 85.0393 23.5205 84.9045 23.7827C84.7698 24.0394 84.6506 24.3071 84.5469 24.5747C84.4433 24.8478 84.3863 25.0772 84.3759 25.2684C84.3759 25.3558 84.3863 25.4323 84.4018 25.5033C84.4226 25.5743 84.4537 25.6125 84.5107 25.6125C84.6195 25.6125 84.7439 25.5415 84.889 25.405C85.0341 25.2684 85.174 25.1045 85.3087 24.9134C85.4435 24.7222 85.5678 24.531 85.6818 24.3344C85.7958 24.1377 85.8788 23.9793 85.9306 23.8537C85.9461 23.8045 85.9617 23.7663 85.972 23.7335C85.9824 23.7007 85.998 23.668 86.0239 23.6407L86.0394 23.6243C86.1016 23.5205 86.1638 23.4495 86.2311 23.4167C86.2933 23.3839 86.3555 23.3785 86.4073 23.3949C86.4592 23.4167 86.5058 23.4659 86.5421 23.5478C86.5784 23.6297 86.5939 23.7335 86.5835 23.8537C86.5369 24.0339 86.5058 24.2197 86.4799 24.4108C86.4592 24.602 86.4384 24.8424 86.4177 25.1264C86.397 25.4978 86.4281 25.6945 86.5006 25.7109C86.5887 25.7382 86.682 25.7327 86.7701 25.6835C87.0033 25.5579 87.2209 25.3831 87.4179 25.1482C87.6148 24.9134 87.7806 24.6785 87.9257 24.4381C87.9983 24.3125 88.0708 24.176 88.1486 24.0176C88.2263 23.8591 88.3144 23.728 88.4128 23.6243C88.4647 23.5751 88.5113 23.5642 88.5476 23.5806C88.5838 23.6024 88.6098 23.6352 88.6305 23.6898C88.646 23.7444 88.6616 23.8045 88.6668 23.8755C88.6668 23.9465 88.6668 24.0121 88.6616 24.0667C88.6616 24.0776 88.646 24.1049 88.6201 24.1596C88.5942 24.2142 88.5631 24.2743 88.5268 24.3398C88.4906 24.4054 88.4543 24.4709 88.418 24.531C88.3817 24.5911 88.361 24.6402 88.3507 24.6676C88.2781 24.7932 88.2004 24.9243 88.1123 25.0608C88.0242 25.1974 87.9309 25.3394 87.8324 25.476C87.734 25.6125 87.6303 25.7436 87.5215 25.8638C87.4127 25.984 87.2987 26.0877 87.1795 26.1697C87.081 26.2462 86.9618 26.3008 86.8271 26.3336C86.6924 26.3663 86.5576 26.3718 86.4333 26.3554C86.2985 26.3445 86.1949 26.2899 86.1275 26.1915C86.0601 26.0932 86.0135 25.9676 85.9876 25.8201C85.9617 25.6726 85.9513 25.4978 85.9617 25.3066C85.972 25.11 85.9876 24.9079 86.0135 24.7003C85.9409 24.8806 85.8425 25.0718 85.7129 25.2684C85.5834 25.4651 85.4435 25.6398 85.2932 25.7982C85.1377 25.9567 84.9719 26.0823 84.7905 26.1751C84.6091 26.2735 84.4278 26.3062 84.2464 26.2899C84.0909 26.2735 83.9665 26.1806 83.8681 26.0167C83.7696 25.8529 83.723 25.5961 83.7334 25.2411C83.7334 25.039 83.7748 24.8041 83.8629 24.531C83.951 24.2579 84.0598 23.9848 84.1946 23.7171C84.3293 23.444 84.4848 23.1927 84.6558 22.9579C84.8268 22.723 85.003 22.5427 85.1844 22.4226C85.2673 22.3679 85.3554 22.3242 85.4486 22.3024C85.5419 22.2805 85.6352 22.2642 85.7285 22.2642C85.8891 22.2642 86.0083 22.2969 86.0809 22.3625H86.0912Z" fill="#101820"/>
<path d="M36.0626 21.6251C35.5547 22.0675 35.0417 21.86 34.9536 21.7507C34.8655 21.6415 34.7774 21.057 35.2749 20.6255C35.7672 20.194 36.7052 20.2213 36.7052 20.2213C36.7052 20.2213 36.5704 21.1827 36.0626 21.6306V21.6251Z" fill="#101820"/>
<path d="M19.2361 16.8894V6.05222C19.2361 5.70263 19.3553 5.40221 19.5885 5.15641C19.8217 4.9106 20.1067 4.77405 20.4383 4.7522H21.708L26.3823 13.0876V4.7522H27.2062C28.0406 4.7522 28.7194 5.46775 28.7194 6.34718V15.2889C28.7194 16.1683 28.0406 16.8839 27.2062 16.8839H26.2838L21.5784 8.54847V15.2889C21.5784 16.1683 20.8996 16.8839 20.0652 16.8839H19.2413L19.2361 16.8894Z" fill="#101820"/>
<path d="M37.436 7.35767V12.8472C37.436 14.5132 37.0267 15.6057 36.2027 16.1191C35.3787 16.6381 34.477 16.8948 33.4976 16.8948C32.5389 16.8456 31.6683 16.5671 30.8754 16.0481C30.0877 15.5347 29.6887 14.4641 29.6887 12.8472V8.95811C29.6887 8.07869 30.3676 7.36313 31.2019 7.36313H32.0259V13.3443C32.0259 13.9069 32.1813 14.3166 32.4923 14.5733C32.8032 14.8301 33.1608 14.9611 33.5598 14.9611C33.9588 14.9611 34.3216 14.8301 34.6429 14.5733C34.9642 14.3166 35.1248 13.9069 35.1248 13.3443V8.55937C35.1248 8.23163 35.2284 7.94759 35.4409 7.71271C35.6534 7.47784 35.9229 7.36313 36.2597 7.36313H37.4257L37.436 7.35767Z" fill="#101820"/>
<path d="M42.0843 16.0863C42.0843 16.5233 41.7526 16.8838 41.3381 16.8838C40.8199 16.8893 40.2706 16.8674 39.6953 16.8237C38.8403 16.7527 38.4102 16.1792 38.4102 15.0976V4.75757H39.6124C39.9026 4.75757 40.1565 4.87774 40.3794 5.10715C40.6022 5.34203 40.711 5.62607 40.711 5.95381V7.53786H42.0791V8.02947C42.0791 8.37905 41.9651 8.66855 41.7475 8.89251C41.5246 9.11646 41.2603 9.2257 40.9442 9.2257H40.711V14.4312C40.711 14.83 40.9339 15.0266 41.3795 15.0266H42.0791V16.0809L42.0843 16.0863Z" fill="#101820"/>
<path d="M42.7996 16.8894V12.3503C42.7996 11.4381 42.9291 10.6679 43.183 10.0452C43.437 9.42251 43.7894 8.92544 44.235 8.54854C44.6548 8.19896 45.1523 7.93677 45.7223 7.7729C46.2872 7.60903 46.8727 7.5271 47.4739 7.5271H47.8055V9.21494C47.8055 9.66285 47.4635 10.0234 47.0386 10.0234C46.3908 10.0234 45.914 10.1872 45.6031 10.515C45.2922 10.8427 45.1367 11.3616 45.1367 12.0608V16.0701C45.1367 16.518 44.7947 16.8785 44.3698 16.8785H42.7996V16.8894Z" fill="#101820"/>
<path d="M64.8599 4.78491H66.0621C66.3731 4.78491 66.6425 4.90508 66.8654 5.1345C67.0882 5.36937 67.197 5.65341 67.197 5.98115V6.71856H65.6165C65.1967 6.71856 64.8599 6.36351 64.8599 5.92106V4.78491ZM64.8599 7.53243H66.0621C66.3731 7.53243 66.6425 7.6526 66.8654 7.88202C67.0882 8.1169 67.197 8.39547 67.197 8.72867V16.8893H66.3731C65.5387 16.8893 64.8599 16.1737 64.8599 15.2943V7.53243Z" fill="#101820"/>
<path d="M69.5861 15.8734C69.1197 15.4528 68.7829 14.8847 68.586 14.1692C68.3839 13.4536 68.2854 12.7107 68.2854 11.9351C68.2854 11.3015 68.3683 10.6678 68.5341 10.0342C68.7 9.4006 68.9643 8.87076 69.3166 8.45016C69.897 7.74553 70.6381 7.3304 71.5502 7.1993C72.4622 7.06821 73.2862 7.14468 74.022 7.42872C74.8667 7.77831 75.4886 8.39008 75.8928 9.25858C76.2711 10.0342 76.4577 10.9355 76.4577 11.9679C76.4577 12.7162 76.3799 13.3607 76.2245 13.9015C76.069 14.4423 75.8669 14.9011 75.6233 15.2725C75.0896 16.0482 74.4107 16.5289 73.5867 16.7146C72.8509 16.9276 72.115 16.944 71.3688 16.7692C70.6226 16.5944 70.0266 16.294 69.5809 15.8734H69.5861ZM71.1874 9.67917C70.721 10.2199 70.5085 11.0229 70.5552 12.088C70.6018 13.1532 70.7884 13.9015 71.12 14.3221C71.2548 14.5078 71.488 14.6662 71.8196 14.7973C72.1513 14.9284 72.4933 14.9393 72.8353 14.8301C73.1825 14.7263 73.4883 14.4587 73.7526 14.0381C74.0169 13.6175 74.162 12.9347 74.1879 11.9952C74.1879 11.1485 74.0583 10.5149 73.8044 10.0943C73.5505 9.67371 73.2551 9.4006 72.9183 9.28589C72.5866 9.17118 72.2498 9.16026 71.9181 9.2695C71.5864 9.37329 71.3377 9.50984 71.1822 9.67371L71.1874 9.67917Z" fill="#101820"/>
<path d="M80.5775 15.2888C80.5775 16.1955 79.8623 16.922 79.0021 16.8838C78.7378 16.8729 78.4683 16.8565 78.1885 16.8346C77.3334 16.7636 76.9033 16.1901 76.9033 15.1085V4.77393H78.1056C78.3958 4.77393 78.6497 4.8941 78.8725 5.12351C79.0954 5.35839 79.2042 5.64243 79.2042 5.97016V7.55422H80.5723V8.04583C80.5723 8.39541 80.4583 8.68491 80.2406 8.90886C80.0178 9.13282 79.7535 9.24206 79.4374 9.24206H79.2042V14.4476C79.2042 14.8464 79.427 15.043 79.8727 15.043H80.5723V15.2888H80.5775Z" fill="#101820"/>
<path d="M81.6553 4.78491H82.8575C83.1685 4.78491 83.4379 4.90508 83.6608 5.1345C83.8836 5.36937 83.9924 5.65341 83.9924 5.98115V6.71856H82.4119C81.9921 6.71856 81.6553 6.36351 81.6553 5.92106V4.78491ZM81.6553 7.53243H82.8575C83.1685 7.53243 83.4379 7.6526 83.6608 7.88202C83.8836 8.1169 83.9924 8.39547 83.9924 8.72867V16.8893H83.1685C82.3341 16.8893 81.6553 16.1737 81.6553 15.2943V7.53243Z" fill="#101820"/>
<path d="M98.3625 11.8148C97.9168 11.4161 97.1292 11.0665 95.9943 10.7606C95.7351 10.7169 95.673 10.6732 95.362 10.6186C94.2064 10.3619 93.626 10.0451 93.626 9.66818C93.626 9.3896 93.7245 9.17657 93.9266 9.03455C94.1494 8.89253 94.4811 8.82152 94.9267 8.82152C95.1444 8.82152 95.3361 8.84884 95.5071 8.89253C95.5071 8.89253 95.5123 8.89253 95.5175 8.89253C96.3985 8.94716 97.0566 8.38454 97.5645 7.66899C96.8856 7.17738 95.9994 6.92065 94.8956 6.92065C93.7918 6.92065 92.9627 7.18831 92.2942 7.72907C91.6516 8.31353 91.3251 9.05094 91.3251 9.94129C91.3251 10.6459 91.548 11.2085 91.9936 11.6291C92.3927 12.0497 93.1803 12.4157 94.3619 12.7161C94.564 12.7871 94.8594 12.8581 95.2636 12.9292C96.1964 13.1422 96.6628 13.459 96.6628 13.8796C96.6628 14.0325 96.6161 14.1691 96.5332 14.2838C96.243 14.6552 95.8129 14.8409 95.2377 14.8409C94.8594 14.8409 94.5381 14.759 94.2738 14.5951C94.2064 14.5733 94.1442 14.5296 94.0924 14.4695L93.911 14.2783C93.8644 14.2073 93.7763 14.1145 93.6467 13.9943C93.5172 13.8741 93.3151 13.8195 93.0456 13.8195H91.2837C91.0142 13.8195 90.8173 13.8796 90.6825 13.9943C90.5478 14.109 90.4597 14.2073 90.4182 14.2783L90.2369 14.4695C90.1799 14.5296 90.1177 14.5678 90.0555 14.5951C89.7912 14.759 89.4647 14.8409 89.0864 14.8409C88.5112 14.8409 88.0759 14.6552 87.7857 14.2783C87.3867 13.8304 87.1846 13.0712 87.1846 11.9951C87.1846 10.919 87.3815 10.1434 87.7857 9.67364C88.0241 9.42237 88.3143 9.26943 88.6563 9.20935C88.7133 9.19296 88.7755 9.17657 88.8377 9.17657C89.4906 9.16565 90.0451 9.22573 90.6463 9.477C90.7655 8.86522 91.0194 8.32446 91.351 7.84378C90.6981 7.38495 89.8897 7.14461 88.9102 7.14461C87.6458 7.14461 86.656 7.57613 85.946 8.44463C85.2568 9.28582 84.9148 10.4602 84.9148 11.9569C84.9148 13.4535 85.2724 14.7317 85.9823 15.5784C86.6923 16.4469 87.6821 16.8784 88.9517 16.8784C89.9985 16.8784 90.8639 16.6107 91.5531 16.07C91.7863 15.8952 91.9833 15.6821 92.1698 15.4527C92.3512 15.6821 92.5533 15.8952 92.7865 16.07C93.4757 16.6107 94.3411 16.8784 95.3879 16.8784C96.6576 16.8784 97.3883 16.6053 98.1604 15.8023C98.5024 15.4473 98.6061 15.1414 98.7253 14.8956C98.7304 14.8792 98.7408 14.8628 98.746 14.8519C98.746 14.8519 98.746 14.8409 98.7512 14.8409C98.9222 14.4477 99.0103 13.9998 99.0103 13.4918C99.0103 12.7871 98.7978 12.2245 98.378 11.8039L98.3625 11.8148Z" fill="#101820"/>
<path d="M97.6836 9.86482H97.7925C97.8909 9.86482 97.9531 9.91944 97.9635 10.0341C97.9842 10.1325 98.0049 10.2253 98.0412 10.269H98.3625C98.3469 10.2308 98.3262 10.1652 98.2951 10.0014C98.2588 9.84297 98.1967 9.75011 98.0775 9.71187V9.69549C98.2226 9.65725 98.3158 9.55347 98.3158 9.44422C98.3158 9.32951 98.2744 9.23665 98.207 9.19296C98.1293 9.13833 98.0256 9.1001 97.8132 9.1001C97.6007 9.1001 97.4452 9.13287 97.3831 9.1438V10.2581H97.6784V9.85389L97.6836 9.86482ZM97.6992 9.36229C97.6992 9.36229 97.7665 9.35682 97.808 9.35682C97.922 9.35682 97.9894 9.40052 97.9894 9.49338C97.9894 9.57531 97.9116 9.62994 97.7976 9.62994H97.7043V9.36229H97.6992Z" fill="#101820"/>
<path d="M97.8287 10.9081C98.4764 10.9081 98.9791 10.3619 98.9791 9.68455C98.9791 9.00723 98.4764 8.47192 97.8287 8.47192C97.1809 8.47192 96.6782 9.01815 96.6782 9.68455C96.6782 10.3509 97.1913 10.9081 97.8287 10.9081ZM97.8287 8.77781C98.2951 8.77781 98.6423 9.18202 98.6423 9.69001C98.6423 10.198 98.2951 10.6131 97.8287 10.6131C97.3623 10.6131 97.0151 10.2035 97.0151 9.69547C97.0151 9.18748 97.3623 8.77781 97.8287 8.77781Z" fill="#101820"/>
<path d="M60.1133 14.8629C59.5173 14.8629 59.0561 14.6171 58.7244 14.131C58.5741 13.9125 58.455 13.6284 58.3772 13.2789C57.6569 13.6612 56.9314 13.989 56.1852 14.2457C56.3925 15.0541 56.7863 15.644 57.3615 16.0155C58.2684 16.5945 59.2478 16.8894 60.3102 16.8894C60.8647 16.8894 61.4192 16.7911 61.984 16.5945C62.5489 16.3978 62.9945 16.0755 63.3262 15.6331C63.9895 14.7264 64.3212 13.552 64.3212 12.1045C64.3212 10.657 63.9895 9.48804 63.3262 8.5813C62.6629 7.67457 61.813 7.2212 60.7766 7.2212C60.2013 7.2212 59.7142 7.33591 59.3204 7.57078C58.8592 7.84936 58.5016 8.20987 58.2632 8.65231V5.86109C58.2632 5.53336 58.1544 5.25478 57.9316 5.02537C57.7087 4.79049 57.4444 4.67578 57.1387 4.67578H56.0142V12.4158C56.7915 12.1154 57.5533 11.733 58.3202 11.2851C58.3928 10.7826 58.5327 10.3565 58.7659 10.0179C59.0975 9.55359 59.5743 9.31871 60.191 9.31871C60.7662 9.31871 61.2171 9.56451 61.5487 10.0507C61.8804 10.5149 62.0462 11.1704 62.0462 12.0061C62.0462 12.9347 61.8804 13.6448 61.5487 14.1364C61.2171 14.6226 60.7455 14.8684 60.1236 14.8684L60.1133 14.8629Z" fill="#101820"/>
<path d="M53.2468 13.0604C53.3193 13.0495 53.3919 13.0441 53.4644 13.0277C53.6199 12.9894 53.7754 12.9512 53.936 12.9239C53.9723 12.9239 54.0034 12.9184 54.0397 12.913C54.5112 12.8092 54.9673 12.6836 55.4129 12.5251V9.83225C55.4129 8.99652 55.0916 8.34105 54.4542 7.87675C53.8376 7.43431 52.91 7.21582 51.6714 7.21582C50.5676 7.21582 49.7177 7.48347 49.1218 8.01877C48.5932 8.48307 48.2823 9.07845 48.1942 9.79947H50.4122C50.521 9.54275 50.6972 9.36795 50.9407 9.2751C51.1843 9.18224 51.459 9.13308 51.7699 9.13308C52.0549 9.13308 52.371 9.18224 52.713 9.29148C53.0551 9.39527 53.2261 9.62468 53.2261 9.97427C53.2261 10.4386 52.7389 10.7444 51.7699 10.881C51.573 10.9029 51.3968 10.9356 51.2413 10.9684C51.0858 11.0012 50.9563 11.0176 50.8423 11.0176C50.0028 11.1596 49.3135 11.4382 48.7694 11.8533C48.2305 12.2739 47.9558 12.9731 47.9558 13.9453C47.9558 14.9941 48.2564 15.7424 48.8523 16.1958C49.4483 16.6492 50.1427 16.8786 50.9407 16.8786C51.3398 16.8786 51.7958 16.8513 52.314 16.7912C52.8322 16.7366 53.3245 16.5781 53.7909 16.3214C54.2314 16.0865 54.6149 15.7096 54.931 15.1853C55.0606 14.9722 55.159 14.7264 55.2367 14.4479C54.0811 14.7811 52.8737 14.9722 51.5367 14.9832C51.5108 14.9832 51.4849 14.9832 51.459 14.9777C51.3968 14.9777 51.3398 14.9941 51.2724 14.9941C50.8993 14.9941 50.6091 14.9012 50.4122 14.7155C50.2152 14.508 50.1168 14.2294 50.1168 13.8798C50.1168 13.6231 50.1945 13.3663 50.35 13.1096C50.5262 12.9239 50.8112 12.7709 51.2102 12.6562L51.972 12.4814C52.5265 12.3394 52.9566 12.1919 53.2623 12.0281V12.902C53.2623 12.9567 53.2572 13.0058 53.252 13.055L53.2468 13.0604Z" fill="#101820"/>
</g>
<defs>
<clipPath id="clip0_440_175">
<rect width="99" height="27" fill="white"/>
</clipPath>
</defs>
</svg>
