<svg width="81" height="24" viewBox="0 0 81 24" fill="none" xmlns="http://www.w3.org/2000/svg">
<g clip-path="url(#clip0_418_246)">
<path d="M74.0241 8.21938C75.8701 8.21938 76.6145 9.56274 76.6145 10.486H71.4329C71.4329 9.55173 72.1862 8.21938 74.0233 8.21938M76.1965 14.6312C75.8514 15.3317 75.0617 15.806 74.0419 15.806C72.1157 15.806 71.3543 14.3695 71.3341 13.0905H80.9026C80.9293 12.9101 80.9998 12.3985 80.9998 11.9996C80.9998 7.48163 78.0271 4.93044 74.0087 4.93044C69.7732 4.93044 66.811 7.48163 66.811 11.9996C66.811 16.5175 69.7732 19.0687 74.0338 19.0687C78.2944 19.0687 80.1914 16.6564 80.7171 14.6304H76.1973L76.1965 14.6312Z" fill="#101820"/>
<path d="M7.35804 15.009C5.64003 15.009 4.41936 13.7207 4.41936 12.0114C4.41936 10.3022 5.56551 9.01387 7.35804 9.01387C9.15057 9.01387 10.2959 10.3894 10.2959 12.0114C10.2959 13.6335 9.13518 15.009 7.35804 15.009ZM8.64351 5.06681C6.75864 5.06681 5.14107 5.93669 4.30677 6.95818L4.30434 5.33277H0V23.9992H4.43718V17.3154C5.47803 18.4868 6.92712 18.9323 8.39322 18.9323C12.7891 18.9323 14.8279 15.4588 14.8279 11.9987C14.8279 7.72981 12.2091 5.06596 8.64351 5.06596" fill="#101820"/>
<path d="M20.7441 0H16.2891V18.6664H20.7441V0Z" fill="#101820"/>
<path d="M31.4945 5.33277V12.2664C31.4945 13.3175 31.356 13.8283 30.9445 14.3373C30.5468 14.8294 29.9223 15.0615 29.2306 15.0615C28.5388 15.0615 27.9143 14.8294 27.5158 14.3373C27.1043 13.8283 26.9666 13.3175 26.9666 12.2664V5.33277H22.5278V12.678C22.5278 14.743 22.8308 16.0906 23.7785 17.2366C24.7813 18.4479 26.313 18.9298 27.8123 18.9298C29.5684 18.9298 30.785 18.2395 31.6258 17.2239L31.629 18.6664H35.9333V5.33277H31.4945Z" fill="#101820"/>
<path d="M50.4029 5.33362H47.3702L44.0274 8.89106L40.6853 5.33362H37.6519V8.50482L41.0547 11.9996L37.6527 15.4952V18.6664H40.6853L44.0274 15.1089L47.3702 18.6664H50.4029V15.4952L47.0009 11.9996L50.4029 8.50482V5.33362Z" fill="#101820"/>
<path d="M58.6003 8.21938C60.4462 8.21938 61.1906 9.56274 61.1906 10.486H56.0091C56.0091 9.55173 56.7624 8.21938 58.5994 8.21938M60.7727 14.6312C60.4276 15.3317 59.6379 15.806 58.6181 15.806C56.6919 15.806 55.9305 14.3695 55.9102 13.0905H65.4788C65.5055 12.9101 65.576 12.3985 65.576 11.9996C65.576 7.48163 62.6033 4.93044 58.5849 4.93044C54.3494 4.93044 51.3872 7.48163 51.3872 11.9996C51.3872 16.5175 54.3494 19.0687 58.61 19.0687C62.8706 19.0687 64.7676 16.6564 65.2933 14.6304H60.7735L60.7727 14.6312Z" fill="#101820"/>
</g>
<defs>
<clipPath id="clip0_418_246">
<rect width="81" height="24" fill="white"/>
</clipPath>
</defs>
</svg>
