<svg width="81" height="24" viewBox="0 0 81 24" fill="none" xmlns="http://www.w3.org/2000/svg">
<g clip-path="url(#clip0_229_948)">
<path d="M74.0242 8.2196C75.8702 8.2196 76.6146 9.56296 76.6146 10.4862H71.433C71.433 9.55195 72.1863 8.2196 74.0234 8.2196M76.1966 14.6315C75.8516 15.3319 75.0618 15.8063 74.042 15.8063C72.1158 15.8063 71.3544 14.3697 71.3342 13.0908H80.9027C80.9295 12.9103 80.9999 12.3987 80.9999 11.9998C80.9999 7.48186 78.0272 4.93066 74.0088 4.93066C69.7733 4.93066 66.8112 7.48186 66.8112 11.9998C66.8112 16.5178 69.7733 19.0689 74.0339 19.0689C78.2945 19.0689 80.1915 16.6567 80.7172 14.6306H76.1974L76.1966 14.6315Z" fill="#101820"/>
<path d="M7.35804 15.009C5.64003 15.009 4.41936 13.7207 4.41936 12.0114C4.41936 10.3021 5.56551 9.01383 7.35804 9.01383C9.15057 9.01383 10.2959 10.3894 10.2959 12.0114C10.2959 13.6334 9.13518 15.009 7.35804 15.009ZM8.64351 5.06676C6.75864 5.06676 5.14107 5.93664 4.30677 6.95814L4.30434 5.33273H0V23.9991H4.43718V17.3154C5.47803 18.4868 6.92712 18.9323 8.39322 18.9323C12.7891 18.9323 14.8279 15.4587 14.8279 11.9987C14.8279 7.72976 12.2091 5.06592 8.64351 5.06592" fill="#101820"/>
<path d="M20.7441 0H16.2891V18.6664H20.7441V0Z" fill="#101820"/>
<path d="M31.4944 5.33301V12.2666C31.4944 13.3178 31.3559 13.8285 30.9444 14.3376C30.5467 14.8297 29.9222 15.0618 29.2305 15.0618C28.5387 15.0618 27.9142 14.8297 27.5157 14.3376C27.1042 13.8285 26.9665 13.3178 26.9665 12.2666V5.33301H22.5277V12.6783C22.5277 14.7433 22.8307 16.0909 23.7784 17.2369C24.7811 18.4481 26.3128 18.93 27.8121 18.93C29.5682 18.93 30.7849 18.2397 31.6256 17.2242L31.6289 18.6666H35.9332V5.33301H31.4944Z" fill="#101820"/>
<path d="M50.403 5.3335H47.3704L44.0275 8.89093L40.6854 5.3335H37.652V8.5047L41.0548 11.9995L37.6528 15.4951V18.6663H40.6854L44.0275 15.1088L47.3704 18.6663H50.403V15.4951L47.001 11.9995L50.403 8.5047V5.3335Z" fill="#101820"/>
<path d="M58.6003 8.2196C60.4462 8.2196 61.1906 9.56296 61.1906 10.4862H56.0091C56.0091 9.55195 56.7624 8.2196 58.5994 8.2196M60.7727 14.6315C60.4276 15.3319 59.6379 15.8063 58.6181 15.8063C56.6919 15.8063 55.9305 14.3697 55.9102 13.0908H65.4788C65.5055 12.9103 65.576 12.3987 65.576 11.9998C65.576 7.48186 62.6033 4.93066 58.5849 4.93066C54.3494 4.93066 51.3872 7.48186 51.3872 11.9998C51.3872 16.5178 54.3494 19.0689 58.61 19.0689C62.8706 19.0689 64.7676 16.6567 65.2933 14.6306H60.7735L60.7727 14.6315Z" fill="#101820"/>
</g>
<defs>
<clipPath id="clip0_229_948">
<rect width="81" height="24" fill="white"/>
</clipPath>
</defs>
</svg>
