<svg width="85" height="20" viewBox="0 0 85 20" fill="none" xmlns="http://www.w3.org/2000/svg">
<path d="M0.379883 0H8.05574C11.9197 0 14.6793 2.05815 14.6793 5.97032C14.6793 8.52956 13.4248 10.3353 11.4427 11.2391L15.7075 18.6904H11.3425L7.55466 11.9165H4.26792V18.6904H0.379883V0ZM8.08173 8.52956C9.71303 8.52956 10.7913 7.50141 10.7913 5.97032C10.7913 4.4151 9.71303 3.38695 8.08173 3.38695H4.26792V8.52956H8.08173Z" fill="#101820"/>
<path d="M29.6302 12.5939H19.9964C20.2229 14.3254 21.4514 15.4297 23.3073 15.4297C24.6361 15.4297 25.616 14.8525 26.1412 13.9246L29.1514 15.3554C28.3237 17.3616 26.0651 18.6923 23.2553 18.6923C18.9145 18.6923 16.0806 15.4816 16.0806 11.5175C16.0806 7.42903 19.0908 4.39283 23.0048 4.39283C26.8427 4.39283 29.8028 7.35294 29.8028 11.1408C29.8065 11.6901 29.7564 12.2172 29.6302 12.5939ZM25.8183 9.83423C25.668 8.37923 24.5637 7.40119 23.0085 7.40119C21.5275 7.40119 20.4493 8.25489 20.0725 9.83423H25.8183Z" fill="#101820"/>
<path d="M51.5311 9.88409V18.6902H47.7674V10.6877C47.7674 9.00627 46.8636 8.07834 45.5348 8.07834C44.206 8.07834 43.3022 9.00627 43.3022 10.6877V18.6902H39.5385V10.6877C39.5385 9.00627 38.6347 8.07834 37.3059 8.07834C35.9771 8.07834 35.0733 9.00627 35.0733 10.6877V18.6902H31.3096V4.99203H34.8209V6.64747C35.4723 5.34279 36.7528 4.69138 38.4083 4.69138C40.1639 4.69138 41.6189 5.41888 42.4967 6.79779C43.2743 5.54323 44.8054 4.69138 46.6613 4.69138C49.523 4.69138 51.5311 6.72356 51.5311 9.88409Z" fill="#101820"/>
<path d="M65.324 6.23952L63.4032 9.48171C64.3683 10.92 64.2161 12.8872 62.9448 14.1585C61.4991 15.6042 59.1551 15.6042 57.7094 14.1585C56.2637 12.7128 56.2637 10.3688 57.7094 8.9231C57.9098 8.72266 58.1288 8.55378 58.359 8.40902L58.3571 8.41459C58.9213 8.07126 59.5857 7.87268 60.2946 7.87268C60.6046 7.87268 60.9052 7.91165 61.1929 7.98217L65.2795 0.553146H61.822L60.1295 4.39479C56.1598 4.49129 53.0029 7.4681 53.0029 11.5399C53.0029 15.6784 56.2637 18.6905 60.328 18.6905C64.3924 18.6905 67.6531 15.6803 67.6531 11.5399C67.6531 9.37407 66.7586 7.51821 65.324 6.23952Z" fill="#101820"/>
<path d="M70.1157 12.1225H71.4983V18.9892H70.1157V12.1225Z" fill="#101820"/>
<path d="M76.7136 15.6709V18.9892H75.4237V18.5289C75.0452 18.9261 74.5849 19.1006 74.004 19.1006C72.8608 19.1006 72.1426 18.4547 72.1426 17.6159C72.1426 16.8698 72.7327 16.3817 73.7553 16.1683L75.331 15.8361V15.6709C75.331 15.2923 75.0173 15.0436 74.5571 15.0436C74.069 15.0436 73.6625 15.3294 73.5159 15.7804L72.3263 15.2088C72.6214 14.3792 73.4881 13.8447 74.5571 13.8447C75.8395 13.8466 76.7136 14.5927 76.7136 15.6709ZM75.331 17.0721V16.8327L74.004 17.1278C73.7182 17.1927 73.5716 17.3672 73.5716 17.5973C73.5716 17.9017 73.8203 18.0854 74.2174 18.0854C74.8429 18.0854 75.331 17.6344 75.331 17.0721Z" fill="#101820"/>
<path d="M82.8342 16.4726C82.8342 17.9387 81.7373 19.0986 80.2712 19.0986C79.6532 19.0986 79.1002 18.8963 78.742 18.5084V18.9872H77.4521V12.1205H78.8348V14.3791C79.1762 14.0377 79.6829 13.8446 80.2823 13.8446C81.7095 13.8465 82.8342 14.999 82.8342 16.4726ZM81.4051 16.4726C81.4051 15.6708 80.8614 15.0899 80.106 15.0899C79.36 15.0899 78.8348 15.6615 78.8348 16.4726C78.8348 17.2928 79.36 17.8552 80.106 17.8552C80.8614 17.8552 81.4051 17.2836 81.4051 16.4726Z" fill="#101820"/>
<path d="M83.6172 17.6065H84.9998V18.9891H83.6172V17.6065Z" fill="#101820"/>
</svg>
