<svg width="85" height="20" viewBox="0 0 85 20" fill="none" xmlns="http://www.w3.org/2000/svg">
<path d="M0.379944 0H8.0558C11.9197 0 14.6794 2.05815 14.6794 5.97032C14.6794 8.52956 13.4248 10.3353 11.4428 11.2391L15.7075 18.6904H11.3425L7.55472 11.9165H4.26798V18.6904H0.379944V0ZM8.08179 8.52956C9.71309 8.52956 10.7914 7.50141 10.7914 5.97032C10.7914 4.4151 9.71309 3.38695 8.08179 3.38695H4.26798V8.52956H8.08179Z" fill="#101820"/>
<path d="M29.6302 12.5941H19.9964C20.2228 14.3257 21.4514 15.4299 23.3072 15.4299C24.636 15.4299 25.6159 14.8527 26.1412 13.9248L29.1514 15.3557C28.3237 17.3619 26.0651 18.6925 23.2553 18.6925C18.9144 18.6925 16.0805 15.4819 16.0805 11.5177C16.0805 7.42926 19.0907 4.39307 23.0047 4.39307C26.8427 4.39307 29.8028 7.35317 29.8028 11.141C29.8065 11.6903 29.7564 12.2174 29.6302 12.5941ZM25.8182 9.83446C25.6679 8.37947 24.5637 7.40142 23.0085 7.40142C21.5275 7.40142 20.4492 8.25512 20.0725 9.83446H25.8182Z" fill="#101820"/>
<path d="M51.5313 9.88412V18.6902H47.7676V10.6877C47.7676 9.00629 46.8638 8.07836 45.535 8.07836C44.2062 8.07836 43.3024 9.00629 43.3024 10.6877V18.6902H39.5387V10.6877C39.5387 9.00629 38.6349 8.07836 37.3061 8.07836C35.9773 8.07836 35.0735 9.00629 35.0735 10.6877V18.6902H31.3098V4.99206H34.8211V6.64749C35.4725 5.34281 36.7531 4.69141 38.4085 4.69141C40.1642 4.69141 41.6192 5.41891 42.497 6.79781C43.2746 5.54325 44.8057 4.69141 46.6615 4.69141C49.5233 4.69141 51.5313 6.72358 51.5313 9.88412Z" fill="#101820"/>
<path d="M65.3241 6.23959L63.4033 9.48179C64.3683 10.9201 64.2161 12.8873 62.9449 14.1586C61.4991 15.6043 59.1552 15.6043 57.7095 14.1586C56.2637 12.7128 56.2637 10.3689 57.7095 8.92317C57.9099 8.72274 58.1289 8.55386 58.359 8.4091L58.3572 8.41467C58.9213 8.07133 59.5857 7.87275 60.2947 7.87275C60.6046 7.87275 60.9053 7.91173 61.1929 7.98225L65.2795 0.553223H61.8221L60.1295 4.39486C56.1598 4.49137 53.003 7.46818 53.003 11.5399C53.003 15.6785 56.2637 18.6906 60.3281 18.6906C64.3924 18.6906 67.6532 15.6804 67.6532 11.5399C67.6532 9.37415 66.7587 7.51828 65.3241 6.23959Z" fill="#101820"/>
<path d="M70.116 12.1226H71.4986V18.9893H70.116V12.1226Z" fill="#101820"/>
<path d="M76.7136 15.6709V18.9892H75.4237V18.5289C75.0452 18.9261 74.5849 19.1005 74.004 19.1005C72.8608 19.1005 72.1426 18.4547 72.1426 17.6158C72.1426 16.8698 72.7327 16.3817 73.7553 16.1683L75.331 15.8361V15.6709C75.331 15.2923 75.0173 15.0436 74.5571 15.0436C74.069 15.0436 73.6625 15.3294 73.5159 15.7804L72.3263 15.2088C72.6214 14.3792 73.4881 13.8447 74.5571 13.8447C75.8395 13.8466 76.7136 14.5926 76.7136 15.6709ZM75.331 17.0721V16.8327L74.004 17.1278C73.7182 17.1927 73.5716 17.3672 73.5716 17.5973C73.5716 17.9016 73.8203 18.0854 74.2174 18.0854C74.8429 18.0854 75.331 17.6344 75.331 17.0721Z" fill="#101820"/>
<path d="M82.8342 16.4726C82.8342 17.9387 81.7374 19.0987 80.2713 19.0987C79.6533 19.0987 79.1002 18.8964 78.742 18.5085V18.9873H77.4522V12.1206H78.8348V14.3792C79.1763 14.0377 79.683 13.8447 80.2824 13.8447C81.7096 13.8466 82.8342 14.9991 82.8342 16.4726ZM81.4052 16.4726C81.4052 15.6709 80.8614 15.09 80.1061 15.09C79.36 15.09 78.8348 15.6616 78.8348 16.4726C78.8348 17.2929 79.36 17.8552 80.1061 17.8552C80.8614 17.8552 81.4052 17.2836 81.4052 16.4726Z" fill="#101820"/>
<path d="M83.6174 17.6064H85V18.9891H83.6174V17.6064Z" fill="#101820"/>
</svg>
