<svg width="74" height="19" viewBox="0 0 74 19" fill="none" xmlns="http://www.w3.org/2000/svg">
<g clip-path="url(#clip0_229_955)">
<path d="M26.2781 6.07735C24.5125 5.40759 22.8536 5.09033 21.0026 5.09033C16.9587 5.09033 14.1251 7.79052 14.1251 12.0488C14.1251 16.307 16.5885 19.0072 20.9527 19.0072C22.7824 19.0213 24.5979 18.6547 26.2781 17.9356C26.7053 17.7452 26.9473 17.4562 26.9473 16.864V7.14896C26.9473 6.5356 26.7053 6.2395 26.2781 6.07735ZM23.4659 14.8265C23.4659 15.2284 23.2523 15.4117 22.7967 15.5456C22.2057 15.7148 21.5935 15.7924 20.9741 15.7853C19.2583 15.7853 17.6564 14.7701 17.6564 12.0417C17.6564 9.31334 19.2654 8.29812 20.9741 8.29812C21.5863 8.29107 22.2057 8.36862 22.7967 8.53783C23.2523 8.67178 23.4659 8.86213 23.4659 9.25694V14.8195V14.8265Z" fill="#101820"/>
<path d="M3.73773 9.55307C3.73773 8.73526 4.57071 8.21355 5.98749 8.21355C7.40427 8.21355 8.66442 8.67181 10.0314 9.41912C10.1524 9.48962 10.2948 9.53192 10.43 9.52487C10.5511 9.52487 10.6721 9.48257 10.7789 9.41912C10.8857 9.35567 10.964 9.26401 11.021 9.15121L11.8539 7.38164C11.9251 7.24064 11.9607 7.08554 11.9607 6.93043C11.9607 6.81763 11.9323 6.71188 11.8753 6.62023C11.8184 6.52858 11.74 6.45103 11.6404 6.39463C9.98152 5.42876 8.0023 4.97756 6.1014 4.97756C2.50606 4.97051 0.199341 6.90223 0.199341 9.79277C0.199341 15.4681 8.82105 13.2685 8.82105 17.2024C8.82105 17.5408 8.77121 17.8722 8.66442 18.1894C8.65018 18.2388 8.63594 18.2952 8.63594 18.3445C8.63594 18.556 8.77121 18.7182 9.03463 18.7182H11.441C11.8397 18.7182 12.0035 18.5842 12.1387 18.1824C12.2954 17.7241 12.3523 17.1108 12.3523 16.6596C12.3523 10.5894 3.73061 12.0559 3.73061 9.54602L3.73773 9.55307Z" fill="#101820"/>
<path d="M36.2596 5.08301C34.4227 5.09711 32.6073 5.42141 30.8772 6.04887C30.4999 6.18282 30.208 6.50713 30.208 7.12048V18.1962C30.208 18.2667 30.208 18.3372 30.2436 18.4077C30.2721 18.4711 30.3077 18.5346 30.3575 18.5839C30.4074 18.6333 30.4714 18.6756 30.5355 18.6967C30.5996 18.7249 30.6708 18.732 30.742 18.732H33.1484C33.2196 18.732 33.2907 18.732 33.3548 18.6967C33.4189 18.6615 33.483 18.6333 33.5328 18.5839C33.5826 18.5346 33.6254 18.4711 33.6467 18.4077C33.6752 18.3442 33.6823 18.2667 33.6752 18.1962V9.20731C33.6752 8.80546 33.8888 8.6151 34.316 8.50935C34.9638 8.35425 35.6331 8.2767 36.2952 8.29785C37.7404 8.29785 38.8938 8.96761 38.8938 10.575V18.2032C38.8938 18.2737 38.8938 18.3442 38.9294 18.4147C38.9579 18.4782 38.9935 18.5416 39.0433 18.591C39.0931 18.6403 39.1572 18.6826 39.2213 18.7038C39.2854 18.732 39.3566 18.739 39.4277 18.739H41.8413C41.9125 18.739 41.9836 18.739 42.0477 18.7038C42.1118 18.6756 42.1759 18.6403 42.2257 18.591C42.2755 18.5416 42.3183 18.4782 42.3396 18.4147C42.3681 18.3513 42.3752 18.2737 42.3752 18.2032V10.1238C42.3752 6.85963 40.3604 5.09006 36.2382 5.09006L36.2596 5.08301Z" fill="#101820"/>
<path d="M51.6021 5.08301C47.5867 5.08301 44.9596 8.00175 44.9596 12.0414C44.9596 16.0812 47.5867 18.9999 51.7872 18.9999C55.9877 18.9999 58.4297 16.0812 58.4297 12.0414C58.4297 8.00175 55.8026 5.08301 51.6021 5.08301ZM51.7943 15.785C49.8151 15.785 48.498 14.5019 48.498 12.0414C48.498 9.58097 49.808 8.29785 51.6021 8.29785C53.5813 8.29785 54.8913 9.58097 54.8913 12.0414C54.8913 14.5019 53.5813 15.785 51.7872 15.785H51.7943Z" fill="#101820"/>
<path d="M73.345 5.35107H70.9386C70.6396 5.35107 70.4047 5.59078 70.4047 5.88688V18.1963C70.4047 18.4924 70.6467 18.7321 70.9386 18.7321H73.345C73.644 18.7321 73.879 18.4924 73.879 18.1963V5.88688C73.879 5.59078 73.6369 5.35107 73.345 5.35107Z" fill="#101820"/>
<path d="M68.2048 0.190353C67.6494 0.0634508 67.087 0 66.5174 0C63.1998 0 61.0283 1.76252 61.0283 5.61892V18.1963C61.0283 18.2668 61.0283 18.3373 61.0639 18.4078C61.0924 18.4712 61.128 18.5347 61.1778 18.584C61.2277 18.6334 61.2917 18.6757 61.3558 18.6968C61.4199 18.725 61.4911 18.7321 61.5623 18.7321H63.9473C64.0185 18.7321 64.0897 18.7321 64.1538 18.6968C64.2179 18.6686 64.2819 18.6334 64.3318 18.584C64.3816 18.5347 64.4243 18.4712 64.4457 18.4078C64.4742 18.3443 64.4813 18.2668 64.4813 18.1963V8.29796H67.8844C68.2332 8.29796 68.4184 8.08646 68.4184 7.76215V5.91503C68.4184 5.56957 68.2332 5.35102 67.8844 5.35102H64.4813V5.05492C64.4813 3.58145 65.122 2.83414 66.5958 2.83414C67.1297 2.83414 67.7064 2.96809 67.9057 2.96809C68.2261 2.96809 68.3614 2.77774 68.4112 2.46048L68.6818 1.07161C68.7103 0.958813 68.7316 0.838961 68.7387 0.72616C68.7387 0.430056 68.575 0.267904 68.2048 0.190353Z" fill="#101820"/>
<path d="M1.82259 15.3057C0.726188 15.3057 0 16.0036 0 17.1528C0 18.302 0.726188 18.9999 1.9009 18.9999C2.99731 18.9999 3.72349 18.2738 3.72349 17.1528C3.72349 16.0318 2.99731 15.3057 1.82259 15.3057Z" fill="#101820"/>
<path d="M72.0991 0C71.0027 0 70.2765 0.697959 70.2765 1.84712C70.2765 2.99629 71.0027 3.69425 72.1774 3.69425C73.2738 3.69425 74 2.97514 74 1.84712C74 0.719109 73.2809 0 72.0991 0Z" fill="#101820"/>
</g>
<defs>
<clipPath id="clip0_229_955">
<rect width="74" height="19" fill="white"/>
</clipPath>
</defs>
</svg>
