<svg width="74" height="19" viewBox="0 0 74 19" fill="none" xmlns="http://www.w3.org/2000/svg">
<g clip-path="url(#clip0_418_253)">
<path d="M26.278 6.07718C24.5123 5.40742 22.8535 5.09016 21.0024 5.09016C16.9586 5.09016 14.125 7.79035 14.125 12.0486C14.125 16.3069 16.5883 19.007 20.9526 19.007C22.7823 19.0211 24.5978 18.6545 26.278 17.9354C26.7051 17.7451 26.9472 17.456 26.9472 16.8638V7.14879C26.9472 6.53543 26.7051 6.23933 26.278 6.07718ZM23.4658 14.8263C23.4658 15.2282 23.2522 15.4115 22.7965 15.5455C22.2056 15.7147 21.5933 15.7922 20.974 15.7852C19.2582 15.7852 17.6563 14.7699 17.6563 12.0416C17.6563 9.31317 19.2653 8.29796 20.974 8.29796C21.5862 8.29091 22.2056 8.36846 22.7965 8.53766C23.2522 8.67161 23.4658 8.86196 23.4658 9.25677V14.8193V14.8263Z" fill="#101820"/>
<path d="M3.73761 9.55288C3.73761 8.73507 4.57059 8.21336 5.98737 8.21336C7.40414 8.21336 8.66429 8.67162 10.0312 9.41893C10.1523 9.48943 10.2947 9.53173 10.4299 9.52468C10.551 9.52468 10.672 9.48238 10.7788 9.41893C10.8856 9.35547 10.9639 9.26382 11.0208 9.15102L11.8538 7.38145C11.925 7.24045 11.9606 7.08535 11.9606 6.93024C11.9606 6.81744 11.9321 6.71169 11.8752 6.62004C11.8182 6.52839 11.7399 6.45084 11.6402 6.39444C9.9814 5.42857 8.00218 4.97737 6.10128 4.97737C2.50593 4.97032 0.199219 6.90204 0.199219 9.79258C0.199219 15.4679 8.82092 13.2683 8.82092 17.2022C8.82092 17.5406 8.77109 17.872 8.66429 18.1892C8.65006 18.2386 8.63582 18.295 8.63582 18.3443C8.63582 18.5558 8.77109 18.718 9.03451 18.718H11.4409C11.8396 18.718 12.0033 18.584 12.1386 18.1822C12.2952 17.7239 12.3522 17.1106 12.3522 16.6594C12.3522 10.5892 3.73049 12.0557 3.73049 9.54583L3.73761 9.55288Z" fill="#101820"/>
<path d="M36.2596 5.08311C34.4227 5.09721 32.6073 5.42152 30.8772 6.04898C30.4999 6.18293 30.208 6.50723 30.208 7.12059V18.1963C30.208 18.2668 30.208 18.3373 30.2436 18.4078C30.2721 18.4712 30.3077 18.5347 30.3575 18.584C30.4074 18.6334 30.4714 18.6757 30.5355 18.6968C30.5996 18.725 30.6708 18.7321 30.742 18.7321H33.1484C33.2196 18.7321 33.2907 18.7321 33.3548 18.6968C33.4189 18.6616 33.483 18.6334 33.5328 18.584C33.5826 18.5347 33.6254 18.4712 33.6467 18.4078C33.6752 18.3443 33.6823 18.2668 33.6752 18.1963V9.20742C33.6752 8.80556 33.8888 8.61521 34.316 8.50946C34.9638 8.35436 35.6331 8.27681 36.2952 8.29796C37.7404 8.29796 38.8938 8.96772 38.8938 10.5751V18.2033C38.8938 18.2738 38.8938 18.3443 38.9294 18.4148C38.9579 18.4783 38.9935 18.5417 39.0433 18.5911C39.0931 18.6404 39.1572 18.6827 39.2213 18.7039C39.2854 18.7321 39.3566 18.7391 39.4277 18.7391H41.8413C41.9125 18.7391 41.9836 18.7391 42.0477 18.7039C42.1118 18.6757 42.1759 18.6404 42.2257 18.5911C42.2755 18.5417 42.3183 18.4783 42.3396 18.4148C42.3681 18.3514 42.3752 18.2738 42.3752 18.2033V10.1239C42.3752 6.85974 40.3604 5.09016 36.2382 5.09016L36.2596 5.08311Z" fill="#101820"/>
<path d="M51.602 5.08311C47.5866 5.08311 44.9595 8.00185 44.9595 12.0416C44.9595 16.0813 47.5866 19 51.7871 19C55.9876 19 58.4295 16.0813 58.4295 12.0416C58.4295 8.00185 55.8025 5.08311 51.602 5.08311ZM51.7942 15.7852C49.815 15.7852 48.4979 14.502 48.4979 12.0416C48.4979 9.58107 49.8078 8.29796 51.602 8.29796C53.5812 8.29796 54.8912 9.58107 54.8912 12.0416C54.8912 14.502 53.5812 15.7852 51.7871 15.7852H51.7942Z" fill="#101820"/>
<path d="M73.3451 5.35102H70.9387C70.6397 5.35102 70.4048 5.59072 70.4048 5.88683V18.1963C70.4048 18.4924 70.6468 18.7321 70.9387 18.7321H73.3451C73.6442 18.7321 73.8791 18.4924 73.8791 18.1963V5.88683C73.8791 5.59072 73.637 5.35102 73.3451 5.35102Z" fill="#101820"/>
<path d="M68.2048 0.190353C67.6494 0.0634508 67.087 0 66.5174 0C63.1998 0 61.0283 1.76252 61.0283 5.61892V18.1963C61.0283 18.2668 61.0283 18.3373 61.0639 18.4078C61.0924 18.4712 61.128 18.5347 61.1778 18.584C61.2277 18.6334 61.2917 18.6757 61.3558 18.6968C61.4199 18.725 61.4911 18.7321 61.5623 18.7321H63.9473C64.0185 18.7321 64.0897 18.7321 64.1538 18.6968C64.2179 18.6686 64.2819 18.6334 64.3318 18.584C64.3816 18.5347 64.4243 18.4712 64.4457 18.4078C64.4742 18.3443 64.4813 18.2668 64.4813 18.1963V8.29796H67.8844C68.2332 8.29796 68.4184 8.08646 68.4184 7.76215V5.91503C68.4184 5.56957 68.2332 5.35102 67.8844 5.35102H64.4813V5.05492C64.4813 3.58145 65.122 2.83414 66.5958 2.83414C67.1297 2.83414 67.7064 2.96809 67.9057 2.96809C68.2261 2.96809 68.3614 2.77774 68.4112 2.46048L68.6818 1.07161C68.7103 0.958813 68.7316 0.838961 68.7387 0.72616C68.7387 0.430056 68.575 0.267904 68.2048 0.190353Z" fill="#101820"/>
<path d="M1.82259 15.3057C0.726188 15.3057 0 16.0037 0 17.1529C0 18.302 0.726188 19 1.9009 19C2.99731 19 3.72349 18.2738 3.72349 17.1529C3.72349 16.0319 2.99731 15.3057 1.82259 15.3057Z" fill="#101820"/>
<path d="M72.099 0C71.0026 0 70.2764 0.697959 70.2764 1.84712C70.2764 2.99629 71.0026 3.69425 72.1773 3.69425C73.2737 3.69425 73.9999 2.97514 73.9999 1.84712C73.9999 0.719109 73.2808 0 72.099 0Z" fill="#101820"/>
</g>
<defs>
<clipPath id="clip0_418_253">
<rect width="74" height="19" fill="white"/>
</clipPath>
</defs>
</svg>
