<svg width="99" height="35" viewBox="0 0 99 35" fill="none" xmlns="http://www.w3.org/2000/svg">
<g clip-path="url(#clip0_440_155)">
<path d="M27.2758 9.08049C26.2615 9.08049 25.2472 9.08049 24.2328 9.08049C23.2185 9.08049 22.2676 9.08049 21.2849 9.08049C21.2295 9.08049 21.1661 9.08049 21.1106 9.08049C20.6351 9.11936 20.4291 9.30595 20.3736 9.74131C20.3419 10.029 20.3419 10.3166 20.3736 10.5965C20.4053 10.923 20.5559 11.0863 20.8808 11.1718C21.0076 11.2029 21.1264 11.2262 21.2612 11.2262C23.266 11.2262 25.2709 11.2262 27.2758 11.2262C27.3788 11.2262 27.3947 11.1951 27.3947 11.1018C27.3947 10.4643 27.3947 9.82682 27.3947 9.18933C27.3947 9.09604 27.3709 9.06494 27.2758 9.06494V9.08049Z" fill="#101820"/>
<path d="M42.7999 0H0V17.2279H42.7999C44.884 17.2279 46.5719 15.572 46.5719 13.5273V3.70058C46.5719 1.65593 44.884 0 42.7999 0ZM41.8965 12.7732C40.9931 12.7732 40.0897 12.7732 39.1863 12.7732C39.0913 12.7732 39.0358 12.7421 38.9724 12.6799C38.4731 12.1746 37.9739 11.6693 37.4747 11.1639C37.0626 10.7441 36.6426 10.3243 36.2305 9.90449C36.1592 9.82674 36.1196 9.83452 36.0483 9.90449C35.1211 10.8296 34.186 11.7548 33.2589 12.6877C33.1955 12.7499 33.1321 12.7732 33.0449 12.7732C29.0668 12.7732 25.0967 12.7732 21.1186 12.7732C20.5084 12.7732 19.8983 12.7343 19.3119 12.54C18.8126 12.3689 18.3847 12.1046 18.1707 11.5993C18.0519 11.3272 18.0043 11.0395 17.9964 10.7363C17.9885 10.2699 17.9647 9.80342 18.0281 9.33696C18.1311 8.58285 18.567 8.11639 19.2881 7.89094C19.7873 7.73545 20.3103 7.6888 20.8333 7.6888C22.965 7.6888 25.0967 7.6888 27.2284 7.6888C27.4265 7.6888 27.3948 7.71213 27.3948 7.51777C27.3948 7.36228 27.3869 7.2068 27.3552 7.05131C27.2521 6.55375 27.0382 6.34385 26.531 6.25056C26.3488 6.21946 26.1665 6.20391 25.9763 6.20391C23.3612 6.20391 20.7462 6.20391 18.1311 6.20391C18.0439 6.20391 17.9885 6.22723 17.9409 6.2972C16.4828 8.25633 15.0168 10.2077 13.5587 12.159C13.2893 12.5244 12.9565 12.8276 12.4968 12.9287C12.0531 13.0298 11.6093 13.0298 11.1655 12.9131C10.7535 12.8043 10.4603 12.5322 10.2146 12.2057C8.95462 10.5264 7.70255 8.84718 6.45049 7.16793C5.84824 6.3594 5.24598 5.55864 4.64372 4.75011C4.61202 4.71124 4.58033 4.66459 4.53278 4.6024H4.69127C5.53918 4.6024 6.39502 4.6024 7.24294 4.6024C7.34595 4.6024 7.40143 4.6335 7.46482 4.71124C8.90707 6.70147 10.3493 8.69169 11.7995 10.6897C11.8312 10.7363 11.8708 10.7908 11.9184 10.8452C12.0293 10.6975 12.1323 10.5498 12.2353 10.4098C13.6063 8.50511 14.9693 6.6004 16.3402 4.68792C16.3877 4.62572 16.4353 4.6024 16.5066 4.6024C19.7319 4.6024 22.9571 4.6024 26.1823 4.6024C26.8559 4.6024 27.5136 4.68014 28.1555 4.91337C29.1144 5.27099 29.6215 5.9629 29.7563 6.95024C29.7959 7.22234 29.8038 7.49445 29.8038 7.76655C29.8038 8.87828 29.8038 9.98223 29.8038 11.094C29.8038 11.2028 29.8355 11.2261 29.9385 11.2261C30.5646 11.2261 31.1906 11.2261 31.8087 11.2261C31.88 11.2261 31.9276 11.2106 31.983 11.1639C32.8864 10.3088 33.7898 9.4458 34.6932 8.5984C34.7645 8.52843 34.7487 8.49733 34.6932 8.44291C33.5362 7.36228 32.3793 6.27388 31.2144 5.19325C31.0163 5.00666 30.8102 4.82008 30.6121 4.62572C30.6597 4.59462 30.6993 4.61017 30.7389 4.61017C31.6027 4.61017 32.4664 4.61017 33.3302 4.61017C33.4253 4.61017 33.4887 4.6335 33.5521 4.70346C34.4238 5.56641 35.3034 6.42159 36.1751 7.27677C36.2464 7.34673 36.2781 7.35451 36.3573 7.27677C37.2607 6.40604 38.1641 5.54309 39.0675 4.67237C39.1071 4.6335 39.1388 4.61017 39.2022 4.61017C40.1214 4.61017 41.0327 4.61017 41.952 4.61017C41.9599 4.61017 41.9757 4.61017 42.0074 4.61795C41.8331 4.78121 41.6667 4.93669 41.4924 5.09218C40.5414 5.97068 39.5905 6.84918 38.6396 7.7199C38.3464 7.98423 38.0611 8.25633 37.7679 8.52066C37.6966 8.58285 37.7124 8.61395 37.7679 8.66837C38.4811 9.35251 39.2022 10.0289 39.9154 10.713C40.6048 11.3738 41.2942 12.0269 41.9837 12.6877C42.0074 12.711 42.0233 12.7343 42.0629 12.7732H41.9203H41.8965Z" fill="#101820"/>
<path d="M53.7515 12.8587V5.79966H51.176V4.72681H57.5552V5.79966H54.9956V12.8587H53.7515Z" fill="#101820"/>
<path d="M65.3845 12.8587L63.4113 9.72566H61.8582V12.8587H60.614V4.71899H64.1087C65.6857 4.71899 66.7713 5.72188 66.7713 7.22233C66.7713 8.72277 65.7649 9.46911 64.711 9.60127L66.8347 12.8587H65.3924H65.3845ZM63.9423 5.79962H61.8502V8.6528H63.9423C64.8377 8.6528 65.4875 8.0775 65.4875 7.22233C65.4875 6.36715 64.8377 5.79185 63.9423 5.79185V5.79962Z" fill="#101820"/>
<path d="M70.0601 12.8587V4.71899H71.3042V12.8509H70.0601V12.8587Z" fill="#101820"/>
<path d="M80.8373 12.8587L80.1637 11.1795H76.0985L75.4249 12.8587H74.054L77.3505 4.72681H78.9037L82.2003 12.8587H80.8294H80.8373ZM78.1271 5.78411L76.463 10.0911H79.8071L78.1271 5.78411Z" fill="#101820"/>
<path d="M84.9658 12.8587V4.71899H86.21V11.7781H89.9741V12.8509H84.9658V12.8587Z" fill="#101820"/>
<path d="M93.3024 10.7753C93.8651 11.3817 94.7605 11.9181 95.9096 11.9181C97.2488 11.9181 97.7243 11.2495 97.7243 10.6587C97.7243 9.80352 96.7812 9.56252 95.7194 9.29042C94.3881 8.94835 92.8507 8.56741 92.8507 6.91148C92.8507 5.56652 94.0552 4.59473 95.7828 4.59473C97.0665 4.59473 98.0729 4.99899 98.802 5.72978L98.0809 6.6316C97.4469 5.97078 96.5752 5.68313 95.6798 5.68313C94.7843 5.68313 94.1266 6.14959 94.1266 6.82596C94.1266 7.55674 95.022 7.78997 96.0522 8.04653C97.4073 8.39637 98.9842 8.81618 98.9842 10.5499C98.9842 11.8171 98.0888 12.9988 95.8541 12.9988C94.3722 12.9988 93.2945 12.4779 92.5813 11.7082L93.2866 10.7675L93.3024 10.7753Z" fill="#101820"/>
<path d="M34.6931 32.6443V24.9321H39.5191V25.8029H35.7391V28.3062H38.9248V29.1769H35.7391V31.7813H39.6776V32.652H34.6931V32.6443ZM41.2466 27.2878L41.2704 28.0341C41.2704 28.2595 41.2387 28.4228 41.2229 28.4384H41.2466C41.5398 27.6998 42.3243 27.1556 43.2436 27.1556C44.044 27.1556 44.7096 27.591 44.8839 28.3762H44.8919C45.2326 27.7153 45.9537 27.1556 46.7937 27.1556C48.1488 27.1556 48.7035 27.9253 48.7035 29.278V32.6365H47.6892V29.4646C47.6892 28.6949 47.4911 28.073 46.6669 28.073C45.502 28.073 45.0187 29.1458 45.0187 30.1487V32.6365H44.0043V29.4568C44.0043 28.7416 43.8617 28.073 42.9979 28.073C41.8489 28.073 41.3179 29.1225 41.3179 30.1487V32.6365H40.3036V27.28H41.2546L41.2466 27.2878ZM50.6371 27.2878L50.6609 28.0341C50.6609 28.2595 50.6292 28.4228 50.6133 28.4384H50.6371C50.9303 27.6998 51.7148 27.1556 52.634 27.1556C53.4344 27.1556 54.1001 27.591 54.2744 28.3762H54.2823C54.6231 27.7153 55.3442 27.1556 56.1842 27.1556C57.5393 27.1556 58.094 27.9253 58.094 29.278V32.6365H57.0797V29.4646C57.0797 28.6949 56.8815 28.073 56.0574 28.073C54.8925 28.073 54.4091 29.1458 54.4091 30.1487V32.6365H53.3948V29.4568C53.3948 28.7416 53.2522 28.073 52.3884 28.073C51.2393 28.073 50.7084 29.1225 50.7084 30.1487V32.6365H49.6941V27.28H50.645L50.6371 27.2878ZM63.6569 29.6589C63.6569 29.8766 63.6332 30.0787 63.6332 30.1798H59.5759C59.6075 31.2371 60.3287 31.9057 61.4777 31.9057C62.2226 31.9057 62.9913 31.688 63.4509 31.4004V32.31C63.023 32.5432 62.2939 32.7687 61.4064 32.7687C59.6789 32.7687 58.514 31.6258 58.514 29.9621C58.514 28.2984 59.6789 27.1556 61.1845 27.1556C62.7852 27.1556 63.649 28.3295 63.649 29.6511L63.6569 29.6589ZM61.1845 27.9952C60.2494 27.9952 59.6789 28.7027 59.5917 29.4723H62.6585C62.6664 28.7027 62.1592 27.9952 61.1845 27.9952ZM66.0739 30.3508C65.0992 30.0399 64.4256 29.6356 64.4256 28.6716C64.4256 27.7853 65.2418 27.1634 66.3829 27.1634C66.9693 27.1634 67.5478 27.3111 67.9203 27.4821V28.3839C67.5241 28.1818 66.9852 28.0108 66.4939 28.0108C65.8679 28.0108 65.3845 28.2284 65.3845 28.7105C65.3845 29.138 65.7648 29.3402 66.5097 29.5812C67.6667 29.9543 68.2373 30.3742 68.2373 31.276C68.2373 32.2478 67.429 32.7842 66.2482 32.7842C65.535 32.7842 64.909 32.6365 64.4732 32.4344V31.5248C65.0041 31.7813 65.7094 31.9601 66.2165 31.9601C66.7871 31.9601 67.2943 31.7658 67.2943 31.2604C67.2943 30.8017 66.8901 30.6152 66.0818 30.3586L66.0739 30.3508ZM72.9919 32.792C70.5037 32.792 68.7682 31.0505 68.7682 28.7882C68.7682 26.5259 70.5274 24.7844 72.9602 24.7844C74.1251 24.7844 74.981 25.1032 75.4247 25.3053V26.8291C74.9096 26.5958 74.1251 26.2926 73.0712 26.2926C71.4467 26.2926 70.464 27.4199 70.464 28.7882C70.464 30.1565 71.4467 31.2915 72.9999 31.2915C73.3802 31.2915 73.8002 31.2293 74.0696 31.1438V29.0914H75.6704V32.2089C74.973 32.5587 73.9587 32.7997 72.9999 32.7997L72.9919 32.792ZM76.6292 27.2878H78.1111L78.1428 27.8086C78.1428 27.9719 78.1428 28.0963 78.1507 28.1585C78.4915 27.5832 79.0541 27.1323 79.7673 27.1323C79.9417 27.1323 80.0922 27.1556 80.116 27.1634V28.726C80.116 28.726 79.9654 28.6638 79.7594 28.6638C78.9273 28.6638 78.2538 29.379 78.2538 30.3586V32.6365H76.6292V27.28V27.2878ZM86.1861 29.9699C86.1861 31.5947 84.9499 32.7997 83.2699 32.7997C81.5899 32.7997 80.3696 31.6025 80.3696 29.9699C80.3696 28.3373 81.5899 27.14 83.2699 27.14C84.9499 27.14 86.1861 28.3373 86.1861 29.9699ZM84.6488 29.9699C84.6488 29.0836 84.0465 28.4928 83.2699 28.4928C82.4933 28.4928 81.9069 29.0836 81.9069 29.9699C81.9069 30.8562 82.4933 31.447 83.2699 31.447C84.0465 31.447 84.6488 30.8562 84.6488 29.9699ZM90.6793 32.6443L90.6317 32.0301C90.6238 31.8357 90.6555 31.7113 90.6793 31.6569H90.6555C90.4257 32.1467 89.7046 32.792 88.8012 32.792C87.565 32.792 86.8993 32.0534 86.8993 30.6385V27.2878H88.5397V30.3742C88.5397 30.9106 88.6902 31.3382 89.2846 31.3382C90.0295 31.3382 90.5366 30.7629 90.5366 29.9543V27.2878H92.1611V32.6443H90.6793ZM93.1675 27.2878H94.6494L94.6811 27.7387C94.689 27.9563 94.6494 28.1041 94.6573 28.1041H94.6811C94.9347 27.5832 95.6558 27.14 96.4483 27.14C97.8588 27.14 98.992 28.2129 98.992 29.9699C98.992 31.7269 97.8588 32.7997 96.4958 32.7997C95.6954 32.7997 95.0694 32.411 94.7841 31.9757H94.7604C94.7604 31.9757 94.7921 32.1234 94.7921 32.4266V35.0077H93.1675V27.2955V27.2878ZM97.4626 29.9699C97.4626 29.0914 96.9158 28.4928 96.163 28.4928C95.5053 28.4928 94.8554 28.9826 94.8554 29.9699C94.8554 30.9572 95.5132 31.447 96.163 31.447C96.9158 31.447 97.4626 30.8562 97.4626 29.9699Z" fill="#101820"/>
<path d="M0 27.288H0.935084L0.958857 27.8477C0.958857 28.0809 0.927159 28.2442 0.927159 28.2442H0.950933C1.23621 27.6845 1.99696 27.1636 2.8845 27.1636C4.32674 27.1636 5.42032 28.3064 5.42032 29.9701C5.42032 31.6338 4.32674 32.7766 2.90827 32.7766C2.02073 32.7766 1.29961 32.2713 1.0064 31.7271H0.98263C0.98263 31.7271 1.01433 31.8904 1.01433 32.1702V35.0079H0V27.2957V27.288ZM4.42976 29.9623C4.42976 28.8506 3.75618 28.0265 2.73393 28.0265C1.91771 28.0265 1.02225 28.6251 1.02225 29.9623C1.02225 31.2995 1.91771 31.8981 2.73393 31.8981C3.74826 31.8981 4.42976 31.0974 4.42976 29.9623Z" fill="#101820"/>
<path d="M6.45059 27.5523C6.75965 27.389 7.47285 27.1558 8.36831 27.1558C9.90565 27.1558 10.6585 27.8865 10.6585 29.2237V32.6444H9.72339V32.0147C9.69961 31.7582 9.74716 31.5871 9.74716 31.5871H9.72339C9.65999 31.7348 9.05773 32.7766 7.82152 32.7766C6.81512 32.7766 6.09399 32.1857 6.09399 31.1984C6.09399 29.8923 7.36983 29.2393 9.65207 29.5503V29.2859C9.65207 28.353 9.08151 28.0343 8.21774 28.0343C7.46492 28.0343 6.76757 28.2908 6.43474 28.4852V27.56L6.45059 27.5523ZM9.64414 30.2422C7.86114 29.9623 7.10832 30.4365 7.10832 31.1673C7.10832 31.6415 7.457 31.9681 8.00378 31.9681C8.93094 31.9681 9.64414 31.0818 9.64414 30.2422Z" fill="#101820"/>
<path d="M11.5616 27.2879H12.5126V28.0343C12.5363 28.2364 12.5046 28.3997 12.5126 28.4308H12.5205C12.8375 27.6689 13.416 27.1558 14.2005 27.1558C14.351 27.1558 14.4858 27.1791 14.5254 27.1869V28.1509C14.4778 28.1431 14.3827 28.1198 14.2401 28.1198C13.1782 28.1198 12.568 29.2626 12.568 30.3044V32.6367H11.5537V27.2802L11.5616 27.2879Z" fill="#101820"/>
<path d="M16.1739 27.2878V25.6785H17.1644V27.2878H18.8127V28.1041H17.1644V30.8795C17.1644 31.6414 17.5131 31.8979 17.9727 31.8979C18.3135 31.8979 18.6939 31.8046 19.0029 31.6647V32.5354C18.7652 32.6676 18.3135 32.7842 17.7826 32.7842C16.998 32.7842 16.166 32.3877 16.166 31.1905V28.1196H15.2705V27.3033H16.1739V27.2878Z" fill="#101820"/>
<path d="M27.6245 29.9623C27.6245 31.5794 26.4359 32.7688 24.8114 32.7688C23.1868 32.7688 22.0061 31.5794 22.0061 29.9623C22.0061 28.3452 23.1948 27.1558 24.8114 27.1558C26.4279 27.1558 27.6245 28.3452 27.6245 29.9623ZM26.6419 29.9623C26.6419 28.8272 25.8653 28.0265 24.8114 28.0265C23.7574 28.0265 22.9887 28.8272 22.9887 29.9623C22.9887 31.0973 23.7653 31.8981 24.8114 31.8981C25.8574 31.8981 26.6419 31.0973 26.6419 29.9623Z" fill="#101820"/>
<path d="M28.7896 27.2879V26.6892C28.7896 25.5542 29.5345 24.8079 30.7628 24.8079C31.0797 24.8079 31.3412 24.8545 31.4284 24.8701V25.7408C31.3412 25.7175 31.1194 25.6786 30.8578 25.6786C30.1605 25.6786 29.7326 26.0673 29.7326 26.7825V27.2956H31.1827V28.1119H29.7643V32.6522H28.7499V28.1119H27.9417V27.2956H28.7816L28.7896 27.2879Z" fill="#101820"/>
</g>
<defs>
<clipPath id="clip0_440_155">
<rect width="99" height="35" fill="white"/>
</clipPath>
</defs>
</svg>
