<svg width="911" height="152" viewBox="0 0 911 152" fill="none" xmlns="http://www.w3.org/2000/svg">
<g clip-path="url(#clip0_488_287)">
<path d="M160.79 110.29C160.79 134.09 166.35 150.28 185.92 150.28C191.36 150.28 196.19 147.26 197.88 145.57C199.33 144.12 197.64 142.43 197.64 141.1C197.64 139.65 198.36 139.05 199.33 139.05C200.54 139.05 201.26 140.5 201.26 141.95C201.26 145.33 194.49 151.49 185.31 151.49C162.48 151.49 151.73 130.35 151.73 110.9C151.73 79.25 176.74 39.14 187.13 27.91C168.16 39.02 144.24 63.55 128.42 83.96C128.9 87.58 129.14 91.21 129.14 94.47C129.14 112.59 120.2 124.91 110.54 124.91C106.79 124.91 106.07 120.56 106.07 117.18C106.07 111.62 111.63 101.11 120.32 89.03V85.77C120.32 70.43 114.52 48.56 117.54 36.36C97.85 61.25 80.21 144.36 33.7 144.36C13.04 144.36 0 129.14 0 109.21C0 86.86 13.05 75.38 27.54 70.92C26.94 42.41 53.27 23.93 79.85 23.93C98.09 23.93 103.77 29.13 118.87 29.61C122.49 25.14 126.12 22.48 129.86 22.48C133 22.48 134.45 23.45 134.45 25.38C134.45 28.04 129.74 30.33 124.06 30.94C122.97 34.2 122.37 38.67 122.37 44.71C122.37 54.38 125.99 68.27 127.93 81.07C148.23 55.34 179.27 25.38 197.27 22C197.87 22 198.6 22.12 198.6 22.97C198.6 23.45 198.36 23.94 197.63 23.94C187.36 23.94 160.78 71.05 160.78 110.32L160.79 110.29ZM1.69 108.96C1.69 124.67 10.99 143.03 33.7 143.03C76.95 143.03 97.36 58.59 117.78 31.04C102.44 30.44 96.88 25.72 79.85 25.72C66.2 25.72 35.39 35.99 33.46 69.33C36.84 68.73 40.22 68.48 43.49 68.48C45.18 68.48 47.11 68.6 49.05 68.84C49.05 53.38 60.89 39.24 74.78 39.24C83.72 39.24 91.45 46 91.45 57.24C91.45 68.48 81.06 96.99 52.43 96.99C42.89 96.99 28.63 92.52 27.54 72.47C11.11 78.04 1.69 92.29 1.69 108.96ZM33.34 72.72C33.34 84.56 38.66 95.31 51.7 95.31C70.06 95.31 89.51 73.2 89.51 57.5C89.51 45.06 82.02 41.07 74.77 41.07C58.58 41.07 50.61 58.22 50.49 68.98C58.58 70.31 66.8 73.45 66.8 77.44C66.8 78.53 66.2 79.13 65.11 79.13C62.94 79.13 62.81 75.63 61 73.81C60.52 73.33 56.29 71.51 50.49 70.55C50.73 74.05 52.3 82.75 57.13 82.75C58.58 82.75 59.43 83.35 59.43 84.44C59.43 85.29 58.71 86.25 57.5 86.25C54.24 86.25 49.53 78.64 49.04 70.3C47.35 70.06 45.54 69.94 43.6 69.94C39.98 69.94 36.59 70.3 33.33 70.91V72.72H33.34ZM107.76 117.18C107.76 118.03 107.88 120.2 109.09 120.2C113.44 120.2 119.24 114.76 120.2 92.66C112.59 103.53 107.76 112.71 107.76 117.18ZM133 25.01C133 23.68 130.83 23.8 130.1 23.8C128.29 23.8 126.11 25.49 124.66 29.36C129.01 28.76 133 26.94 133 25.01Z" fill="#7595B6"/>
<path d="M214.79 121.65C226.27 121.65 229.17 113.32 230.74 97.97H232.55L229.77 123.34H185.8V121.65C188.7 121.65 191.72 119.72 191.72 116.46V45.66C191.72 42.4 188.7 40.47 185.8 40.47V38.78H227.96L230.74 63.67H228.93C227.84 51.23 226.27 40.48 214.8 40.48H204.29C201.27 40.48 198.37 42.41 198.37 45.67V73.82H208.88C218.3 73.82 218.18 69.71 218.06 62.46H219.87L220.6 90.24H218.79C218.43 79.73 218.19 75.5 208.88 75.5H198.37V116.45C198.37 119.71 201.27 121.64 204.29 121.64H214.8L214.79 121.65Z" fill="#7595B6"/>
<path d="M271.32 121.65C282.8 121.65 285.7 113.32 287.27 97.97H289.08L286.3 123.34H242.33V121.65C245.23 121.65 248.25 119.72 248.25 116.46V45.66C248.25 42.4 245.23 40.47 242.33 40.47V38.78H284.49L287.27 63.67H285.46C284.37 51.23 282.8 40.48 271.33 40.48H260.82C257.8 40.48 254.9 42.41 254.9 45.67V73.82H265.41C274.83 73.82 274.71 69.71 274.59 62.46H276.4L277.13 90.24H275.32C274.96 79.73 274.72 75.5 265.41 75.5H254.9V116.45C254.9 119.71 257.8 121.64 260.82 121.64H271.33L271.32 121.65Z" fill="#7595B6"/>
<path d="M309.25 40.47C297.77 40.47 296.2 51.22 295.12 63.66H293.31L296.09 38.77H346.1L348.88 63.66H347.07C345.98 51.22 344.53 40.47 333.06 40.47H330.4C327.38 40.47 324.48 42.4 324.48 45.66V116.45C324.48 119.71 327.38 121.64 330.4 121.64V123.33H311.92V121.64C314.82 121.64 317.84 119.71 317.84 116.45V45.66C317.84 42.4 314.82 40.47 311.92 40.47H309.26H309.25Z" fill="#7595B6"/>
<path d="M397.43 40.47C385.95 40.47 384.38 51.22 383.3 63.66H381.49L384.27 38.77H434.28L437.06 63.66H435.25C434.16 51.22 432.71 40.47 421.24 40.47H418.58C415.56 40.47 412.66 42.4 412.66 45.66V116.45C412.66 119.71 415.56 121.64 418.58 121.64V123.33H400.1V121.64C403 121.64 406.02 119.71 406.02 116.45V45.66C406.02 42.4 403 40.47 400.1 40.47H397.44H397.43Z" fill="#7595B6"/>
<path d="M441.28 121.65C444.18 121.65 447.08 119.84 447.2 116.7V45.66C447.2 42.4 444.3 40.47 441.28 40.47V38.78H459.76V40.47C456.86 40.47 453.84 42.4 453.84 45.66V86.37L451.91 85.77H488.51L486.46 86.37V45.66C486.46 42.4 483.56 40.47 480.54 40.47V38.78H499.02V40.47C496.12 40.47 493.1 42.4 493.1 45.66V116.45C493.1 119.71 496.12 121.64 499.02 121.64V123.33H480.54V121.64C483.56 121.64 486.46 119.71 486.46 116.45V87.46L488.51 87.94H451.91L453.84 87.34V116.45C453.84 119.71 456.86 121.64 459.76 121.64V123.33H441.28V121.64V121.65Z" fill="#7595B6"/>
<path d="M539.13 121.65C550.61 121.65 553.51 113.32 555.08 97.97H556.89L554.11 123.34H510.14V121.65C513.04 121.65 516.06 119.72 516.06 116.46V45.66C516.06 42.4 513.04 40.47 510.14 40.47V38.78H552.3L555.08 63.67H553.27C552.18 51.23 550.61 40.48 539.14 40.48H528.63C525.61 40.48 522.71 42.41 522.71 45.67V73.82H533.22C542.64 73.82 542.52 69.71 542.4 62.46H544.21L544.93 90.24H543.12C542.76 79.73 542.52 75.5 533.21 75.5H522.7V116.45C522.7 119.71 525.6 121.64 528.62 121.64H539.13V121.65Z" fill="#7595B6"/>
<path d="M722.63 15.83C722.63 16.43 722.51 17.28 720.82 17.28C719.25 17.28 718.77 15.35 717.44 15.35C713.94 15.35 710.8 17.89 707.77 22.12C719.13 25.14 730.12 28.28 748.84 28.28C773 28.28 777.59 14.51 777.59 11.85C777.59 4.24002 770.58 1.58002 766.48 1.58002C759.72 1.58002 755.25 6.17002 754.28 7.26002C753.19 8.23002 753.31 12.82 750.66 12.82C749.69 12.82 749.09 12.34 749.09 11.13C749.09 7.75002 757.55 0.0200195 766.49 0.0200195C771.68 0.0200195 779.17 3.40002 779.17 11.86C779.17 17.54 775.42 36.75 747.4 36.75C727.59 36.75 718.65 30.47 705.72 25.39C693.52 46.89 684.34 97.87 660.42 121.79C651.84 130.37 637.47 134.84 625.87 134.84C601.47 134.84 587.09 118.17 587.09 98.72C587.09 79.27 598.57 63.69 617.65 60.43C617.89 39.89 635.17 16.1 666.09 16.1C684.33 16.1 695.57 18.76 706.08 21.66C709.83 16.47 713.69 13.32 717.68 13.32C719.97 13.32 722.63 14.17 722.63 15.86V15.83ZM661.38 31.53C670.44 31.53 678.05 38.29 678.05 49.53C678.05 62.21 668.39 89.28 639.03 89.28C629.24 89.28 618.01 83.36 617.65 61.98C598.32 65.6 589.02 83.72 589.02 98.7C589.02 113.68 602.07 127.93 616.81 127.93C631.55 127.93 645.08 122.25 657.16 110.17C676.37 90.84 690.26 45.78 703.91 24.64C695.33 21.38 684.7 18.72 668.03 18.72C646.28 18.72 626.11 39.01 621.52 59.91C622.61 59.79 623.69 59.79 624.9 59.79C627.56 59.79 630.22 60.03 632.63 60.51C632.63 40.94 649.66 31.52 661.38 31.52V31.53ZM620.67 68.5C620.67 75.26 625.26 87.47 638.31 87.47C656.67 87.47 676.24 65.36 676.24 49.78C676.24 37.34 668.63 33.35 661.5 33.35C645.07 33.35 634.08 46.76 634.08 60.77C642.54 62.7 648.58 67.29 648.58 72.85C648.58 74.18 647.73 75.14 646.89 75.14C645.92 75.14 644.96 74.54 644.96 73.33C644.96 71.4 646.77 70.19 645.08 68.5C641.94 65.36 638.92 63.31 634.21 62.22C634.45 66.33 636.26 71.28 637.96 72.97C639.05 74.06 640.01 74.3 640.98 74.3C642.43 74.3 643.28 74.9 643.28 76.11C643.28 76.96 642.68 77.8 641.35 77.8C638.21 77.8 633.26 69.34 632.65 61.85C630.48 61.49 627.94 61.37 624.8 61.37C623.59 61.37 622.38 61.37 621.3 61.49C620.82 63.78 620.7 66.2 620.7 68.5H620.67Z" fill="#7595B6"/>
<path d="M796.32 121.65C798.25 121.65 801.27 120.56 800.31 116.58L794.75 96.28H764.67L759.48 115C758.51 118.99 759.48 121.64 763.95 121.64V123.33H710.07V121.64C713.09 121.64 715.99 119.71 715.99 116.45V45.66C715.99 42.4 713.09 40.47 710.07 40.47V38.78H752.35L755.01 63.67H753.2C752.23 51.23 750.66 40.48 739.19 40.48H728.68C725.66 40.48 722.76 42.41 722.76 45.67V73.82H733.27C742.69 73.82 742.57 69.71 742.45 62.46H744.26L744.98 90.24H743.17C742.81 79.73 742.57 75.5 733.26 75.5H722.75V116.45C722.75 119.71 725.65 121.64 728.67 121.64H744.62C751.75 121.64 756.22 117.53 758.27 111.01L776.51 45.29C777.6 41.42 775.42 40.46 773.13 40.46V38.77H785.94L807.56 117.17C808.53 120.43 810.58 121.64 813.48 121.64V123.33H796.33V121.64L796.32 121.65ZM794.14 94.11L780.85 45.91C779.88 42.77 779.28 43.25 778.56 45.79L765.27 94.11H794.14Z" fill="#7595B6"/>
<path d="M851.04 115.73L827.36 47.23L827.84 47.11V116.45C827.84 119.71 830.86 121.64 833.76 121.64V123.33H819.75V121.64C822.65 121.64 825.67 119.71 825.67 116.45V45.66C825.67 42.4 822.65 40.47 819.75 40.47V38.78H831.47L854.3 104.74L876.77 38.78H879.19L852.98 115.73H851.05H851.04ZM878.34 38.78H888.37V40.47C885.47 40.47 882.45 42.4 882.45 45.66V116.45C882.45 119.71 885.47 121.64 888.37 121.64V123.33H869.89V121.64C872.91 121.64 875.81 119.71 875.81 116.45V45.66L878.35 38.77L878.34 38.78Z" fill="#7595B6"/>
<path d="M905.76 113.56C908.9 113.56 910.96 115.61 910.96 118.75C910.96 121.89 908.91 123.95 905.76 123.95C902.61 123.95 900.69 121.78 900.69 118.75C900.69 115.72 902.74 113.56 905.76 113.56ZM901.65 43.01C901.53 40.47 903.1 38.78 905.76 38.78C908.42 38.78 909.99 40.47 909.87 43.01L906.85 107.16C906.85 107.76 906.37 108.25 905.76 108.25C905.15 108.25 904.67 107.77 904.67 107.16L901.65 43.01Z" fill="#7595B6"/>
</g>
<defs>
<clipPath id="clip0_488_287">
<rect width="910.96" height="151.49" fill="white"/>
</clipPath>
</defs>
</svg>
