<?xml version="1.0" encoding="UTF-8"?>
<svg id="Capa_1" xmlns="http://www.w3.org/2000/svg" version="1.1" viewBox="0 0 48 48">
  <!-- Generator: Adobe Illustrator 29.2.1, SVG Export Plug-In . SVG Version: 2.1.0 Build 116)  -->
  <defs>
    <style>
      .st0 {
        fill: #fff;
      }

      .st1 {
        fill: #101820;
      }
    </style>
  </defs>
  <rect class="st1" width="48" height="48"/>
  <g id="Logos_RGB">
    <g>
      <path class="st0" d="M40.1,18.4c0-1,.8-1.8,1.8-1.8s1.8.8,1.8,1.8-.8,1.8-1.8,1.8-1.8-.8-1.8-1.8ZM43.3,18.4c0-.8-.6-1.4-1.4-1.4s-1.4.6-1.4,1.4.6,1.4,1.4,1.4,1.4-.6,1.4-1.4ZM41.9,17.5c.5,0,.8.2.8.5s-.2.5-.4.5h0c.2,0,.2.1.3.3l.3.6h-.5l-.2-.5c0-.2-.1-.2-.3-.2h-.1v.7h-.5v-1.9h.7,0ZM41.7,17.9v.5h.2c.2,0,.3,0,.3-.3s-.1-.2-.3-.2h-.2Z"/>
      <path class="st0" d="M9.1,18.4c0,2.4,0,4.9,0,7.4v5.6h-2.5v-14.8h4.5l3.5,12.6,3.7-12.6h4.4v14.8h-2.6v-5.6c0-2.4,0-4.9,0-7.3l-4,12.9h-3.2l-3.9-12.9Z"/>
      <path class="st0" d="M38.3,26.6c-.3,2.8-2.7,4.9-6.3,4.9s-7.3-3-7.3-7.5,3-7.5,7.3-7.5,5.9,1.9,6.2,4.9h-2.4c-.3-1.6-1.8-2.7-3.8-2.7s-4.7,2-4.7,5.3,1.9,5.3,4.7,5.3,3.5-1,3.9-2.7h2.4Z"/>
    </g>
  </g>
</svg>