<svg width="50" height="21" viewBox="0 0 50 21" fill="none" xmlns="http://www.w3.org/2000/svg">
<g id="V_Reducida_Blanco 1" clip-path="url(#clip0_1_21)">
<g id="Logos_RGB">
<g id="Group">
<path id="Vector" d="M45.1058 3.08244C45.1058 1.69936 46.1646 0.623871 47.5539 0.623871C48.9433 0.623871 50.0021 1.69936 50.0021 3.08244C50.0021 4.46552 48.9433 5.54101 47.5539 5.54101C46.1646 5.54101 45.1058 4.46552 45.1058 3.08244ZM49.4183 3.08244C49.4183 2.03415 48.6253 1.17417 47.5539 1.17417C46.4826 1.17417 45.6896 2.03415 45.6896 3.08244C45.6896 4.13073 46.4826 4.99071 47.5539 4.99071C48.6253 4.99071 49.4183 4.13073 49.4183 3.08244ZM47.5142 1.83328C48.1754 1.83328 48.5457 2.12831 48.5457 2.53214C48.5457 2.90877 48.2423 3.1494 47.9515 3.1766V3.18915C48.1628 3.21635 48.2821 3.33771 48.3888 3.55114L48.732 4.32951H48.0436L47.7799 3.71225C47.6879 3.49674 47.6083 3.44443 47.3698 3.44443H47.1982V4.3316H46.5496V1.83328H47.5163H47.5142ZM47.1961 2.33127V2.96317H47.4472C47.7255 2.96317 47.8971 2.82926 47.8971 2.6263C47.8971 2.41078 47.7506 2.33127 47.4472 2.33127H47.1961Z" fill="#101820"/>
<path id="Vector_2" d="M3.29135 3.05104C3.37504 6.34239 3.40224 9.66303 3.40224 12.9544V20.4577H0V0.540161H6.02611L10.7968 17.4447L15.8457 0.540161H21.8154V20.4577H18.2729V12.9816C18.2729 9.71743 18.2729 6.39888 18.3838 3.10544L12.9436 20.4577H8.5914L3.29135 3.05104Z" fill="#101820"/>
<path id="Vector_3" d="M42.6305 14.0403C42.2183 17.8297 39.0065 20.6293 34.1751 20.6293C28.3269 20.6293 24.2906 16.5659 24.2906 10.4979C24.2906 4.42994 28.2997 0.368591 34.1731 0.368591C38.7847 0.368591 42.1618 2.92132 42.574 6.95756H39.335C38.8684 4.76054 36.8911 3.33352 34.1731 3.33352C30.5218 3.33352 27.8854 5.99715 27.8854 10.5C27.8854 15.0028 30.4946 17.6665 34.1731 17.6665C37.0292 17.6665 38.8412 16.2938 39.3894 14.0424H42.6284L42.6305 14.0403Z" fill="#101820"/>
</g>
</g>
</g>
<defs>
<clipPath id="clip0_1_21">
<rect width="50" height="20.2628" fill="white" transform="translate(0 0.368591)"/>
</clipPath>
</defs>
</svg>
