<svg width="121" height="18" viewBox="0 0 121 18" fill="none" xmlns="http://www.w3.org/2000/svg">
<g clip-path="url(#clip0_440_310)">
<path d="M116.809 2.51655C116.809 1.30707 117.714 0.367188 118.904 0.367188C120.094 0.367188 121 1.30707 121 2.51655C121 3.72604 120.094 4.66592 118.904 4.66592C117.714 4.66592 116.809 3.72604 116.809 2.51655ZM120.501 2.51655C120.501 1.60101 119.821 0.848361 118.904 0.848361C117.988 0.848361 117.307 1.59914 117.307 2.51655C117.307 3.43397 117.988 4.18475 118.904 4.18475C119.821 4.18475 120.501 3.43397 120.501 2.51655ZM118.87 1.42315C119.436 1.42315 119.753 1.68152 119.753 2.03351C119.753 2.36303 119.493 2.57459 119.244 2.59706V2.60829C119.425 2.63263 119.526 2.73748 119.618 2.92471L119.913 3.60621H119.324L119.097 3.06513C119.018 2.8779 118.95 2.83109 118.747 2.83109H118.6V3.60621H118.044V1.42315H118.871H118.87ZM118.598 1.85751V2.40983H118.813C119.051 2.40983 119.198 2.29188 119.198 2.11589C119.198 1.92866 119.073 1.85751 118.813 1.85751H118.598Z" fill="#101820"/>
<path d="M2.818 2.48816C2.88951 5.36584 2.91334 8.26973 2.91334 11.1474V17.7078H0V0.291992H5.15931L9.24423 15.0736L13.5675 0.291992H18.6791V17.7078H15.6448V11.1718C15.6448 8.31841 15.6448 5.41639 15.7401 2.53684L11.0832 17.7078H7.35761L2.818 2.48816Z" fill="#101820"/>
<path d="M28.6861 17.7078C28.4715 17 28.3762 16.268 28.3524 15.1708C27.7308 16.781 26.2989 17.9998 24.2675 17.9998C22.5 17.9998 20.7564 16.927 20.7564 14.5361C20.7564 12.3418 22.1902 11.0238 25.4134 10.4621L28.3029 9.97342V9.41174C28.3029 7.60687 27.443 6.85048 25.9377 6.85048C24.4325 6.85048 23.6202 7.36348 23.5249 9.3874H20.9929C21.0883 6.11842 23.1912 4.63184 26.1761 4.63184C29.6633 4.63184 31.1209 6.36368 31.1209 9.36306V14.0699C31.1209 15.6801 31.2639 16.8259 31.5022 17.704H28.6842L28.6861 17.7078ZM25.461 15.8299C27.0855 15.8299 28.3505 14.9274 28.3505 12.9765V11.709L26.2017 12.0498C24.3866 12.3418 23.5982 13.0496 23.5982 14.1711C23.5982 15.1952 24.1959 15.8299 25.461 15.8299Z" fill="#101820"/>
<path d="M42.2517 17.7079V14.7572C41.6779 16.6108 40.0534 18.0019 38.0476 18.0019C35.2535 18.0019 32.8645 15.5623 32.8645 11.3179C32.8645 7.07343 35.3488 4.63387 37.9761 4.63387C39.9104 4.63387 41.5587 5.95007 42.2041 7.75681V0H45.0697V17.7079H42.2517ZM35.875 11.3179C35.875 14.1469 37.3564 15.684 39.1477 15.684C40.7483 15.684 42.2536 14.5138 42.2536 11.6586V10.9752C42.2536 8.14625 40.7483 6.9742 39.1477 6.9742C37.3564 6.9742 35.875 8.487 35.875 11.316V11.3179Z" fill="#101820"/>
<path d="M65.3458 12.0873C64.9938 15.3993 62.2436 17.8482 58.1055 17.8482C53.0984 17.8482 49.6423 14.2947 49.6423 8.99052C49.6423 3.68638 53.0745 0.132812 58.1055 0.132812C62.0548 0.132812 64.9461 2.36456 65.2981 5.89379H62.5241C62.1244 3.97284 60.4322 2.72591 58.1055 2.72591C54.9795 2.72591 52.7225 5.05501 52.7225 8.99052C52.7225 12.926 54.9557 15.2551 58.1055 15.2551C60.5495 15.2551 62.1024 14.055 62.5718 12.0873H65.3458Z" fill="#101820"/>
<path d="M70.0009 4.98206V8.39147C70.4483 6.0867 71.5759 4.81543 73.1746 4.81543C73.5981 4.81543 73.8567 4.83977 74.1152 4.93526V7.67251H72.8464C71.0827 7.67251 70.0486 8.55997 70.0486 11.1287V17.5618H67.2269V4.98206H70.0009Z" fill="#101820"/>
<path d="M78.3211 0.350098V2.96753H75.4994V0.350098H78.3211ZM78.3211 4.98209V17.5619H75.4994V4.98209H78.3211Z" fill="#101820"/>
<path d="M84.5273 17.7303C82.3638 17.7303 81.1428 16.6256 81.1428 14.3209V7.21561H79.6852V4.98387H81.1428V2.43945H83.9644V4.98387H86.5496V7.21561H83.9644V13.7686C83.9644 14.993 84.4576 15.4255 85.6567 15.4255H86.5496V17.5618C86.0326 17.6573 85.3744 17.7303 84.5273 17.7303Z" fill="#101820"/>
<path d="M91.5787 17.7303C89.4153 17.7303 88.1942 16.6256 88.1942 14.3209V7.21561H85.8566V4.98387H88.1942V2.43945H91.0159V4.98387H93.601V7.21561H91.0159V13.7686C91.0159 14.993 91.5091 15.4255 92.7081 15.4255H93.601V17.5618C93.084 17.6573 92.4258 17.7303 91.5787 17.7303Z" fill="#101820"/>
<path d="M97.1744 11.5834C97.2917 14.272 98.6558 15.6406 100.489 15.6406C102.064 15.6406 103.029 14.609 103.287 13.3845H105.709C105.333 16.0244 103.265 17.8499 100.396 17.8499C96.87 17.8499 94.3307 15.2568 94.3307 11.2726C94.3307 7.2884 96.8938 4.69531 100.326 4.69531C104.064 4.69531 105.874 7.5524 105.685 11.5853H97.1762L97.1744 11.5834ZM97.3155 9.66244H103.051C102.792 7.50184 101.641 6.73421 100.348 6.73421C98.7731 6.73421 97.6914 7.74337 97.3155 9.66244Z" fill="#101820"/>
<path d="M110.408 4.98206V8.39147C110.856 6.0867 111.983 4.81543 113.582 4.81543C114.005 4.81543 114.264 4.83977 114.522 4.93526V7.67251H113.254C111.49 7.67251 110.456 8.55997 110.456 11.1287V17.5618H107.634V4.98206H110.408Z" fill="#101820"/>
</g>
<defs>
<clipPath id="clip0_440_310">
<rect width="121" height="18" fill="white"/>
</clipPath>
</defs>
</svg>
