<svg width="82" height="33" viewBox="0 0 82 33" fill="none" xmlns="http://www.w3.org/2000/svg">
<g clip-path="url(#clip0_440_249)">
<path d="M66.8778 0.034507L13.1613 3.60465C5.39251 4.12098 -0.485928 10.8249 0.0314361 18.5782L0.117313 19.8651C0.634677 27.6184 7.35193 33.4852 15.1207 32.9688L68.8372 29.3987C76.606 28.8824 82.4845 22.1785 81.9671 14.4252L81.8812 13.1382C81.3639 5.3849 74.6466 -0.481827 66.8778 0.034507Z" fill="#2A00FF"/>
<path d="M13.7965 13.7558C16.3949 13.5832 18.2373 15.193 18.4103 17.7727C18.5832 20.3659 16.9702 22.2046 14.3737 22.3772C11.7889 22.5498 9.94655 20.94 9.77358 18.3468C9.60062 15.7671 11.2137 13.9284 13.7985 13.7558H13.7965Z" fill="white"/>
<path d="M28.5046 16.9697C28.695 19.8228 27.1811 21.5898 24.4292 21.7721C21.6617 21.9564 19.9243 20.3407 19.728 17.4236C19.623 15.8545 20.035 14.5899 20.8921 13.7403L21.5937 14.4754C20.9329 15.1446 20.622 16.128 20.7036 17.3596C20.8571 19.6677 22.2214 20.9439 24.365 20.8004C26.5087 20.6569 27.6825 19.2778 27.5329 17.0357C27.4396 15.6489 26.7691 14.7683 24.8956 13.8916L24.7129 14.0856C25.3134 15.451 25.4864 16.4829 25.4028 17.9589L24.2931 18.1374C24.4991 16.3277 24.4214 14.9642 23.749 12.9121L24.2212 12.3593C25.397 12.5805 26.3668 12.6464 27.2899 12.5843C28.0304 12.5359 28.7261 12.4098 29.4958 12.2158L29.4802 13.3369C29.0818 13.4164 28.6931 13.4668 28.3297 13.4921C27.4065 13.5541 26.5398 13.4416 25.5156 13.1585L25.3465 13.3524C27.3813 14.1282 28.3938 15.2338 28.5104 16.9697H28.5046Z" fill="white"/>
<path d="M36.3795 12.2021L42.4391 20.3154L31.4625 21.0447L36.3775 12.2021H36.3795ZM40.5404 19.4251L36.4961 13.9652L33.2408 19.912L40.5404 19.4271V19.4251Z" fill="white"/>
<path d="M43.4517 17.7085L46.122 13.938L49.2704 17.3226L43.4517 17.7105V17.7085Z" fill="white"/>
<path d="M54.436 11.0517C57.0208 10.8791 58.8632 12.4889 59.0362 15.0686C59.2091 17.6618 57.5961 19.5005 55.0113 19.6731C52.4129 19.8457 50.5705 18.2359 50.3975 15.6446C50.2246 13.065 51.8376 11.2263 54.436 11.0536V11.0517ZM54.9588 18.8954C57.0364 18.7576 58.3327 17.2525 58.1908 15.1248C58.0489 13.0126 56.5661 11.6918 54.4866 11.8295C52.3954 11.9691 51.0991 13.4742 51.241 15.5864C51.3829 17.7122 52.8677 19.0331 54.9588 18.8934V18.8954ZM56.9198 15.2489C57.0169 16.7133 56.4125 17.6269 54.8811 17.7277C53.336 17.8305 52.615 17.0062 52.5159 15.5418L53.1922 15.4972C53.2641 16.5601 53.7072 17.1439 54.8364 17.0683C55.9655 16.9926 56.329 16.3564 56.257 15.2936L56.9198 15.2489ZM53.0581 13.6837C53.4604 13.6565 53.6062 13.868 53.6256 14.1802C53.647 14.4906 53.5304 14.7214 53.1281 14.7466C52.7258 14.7737 52.58 14.5623 52.5606 14.2501C52.5392 13.9397 52.6558 13.7109 53.0581 13.6837ZM56.1366 13.4781C56.5388 13.451 56.6846 13.6624 56.704 13.9746C56.7254 14.285 56.6088 14.5158 56.2065 14.541C55.8042 14.5662 55.6585 14.3567 55.639 14.0445C55.6177 13.7341 55.7343 13.5053 56.1366 13.4781Z" fill="white"/>
<path d="M67.9371 12.0178L65.9081 12.3087L60.517 12.6675L60.4529 11.6958L65.844 11.337L67.8807 11.3447L67.8633 11.0848C66.4834 10.5379 65.6458 10.1247 64.6604 9.03275L65.3173 8.12891C66.4562 9.53704 67.4551 10.2527 69.3869 11.2303L69.4355 11.9557C67.6514 13.1679 66.7419 14.0233 65.8149 15.5691L65.0433 14.7487C65.8751 13.5345 66.6505 13.0263 67.9565 12.2757L67.939 12.0158L67.9371 12.0178ZM62.2078 17.854C63.6013 18.4126 64.437 18.8121 65.4242 19.9196L64.7673 20.8235C63.6304 19.4153 62.6295 18.6996 60.6978 17.7221L60.6492 16.9967C62.4216 15.7844 63.3292 14.931 64.2698 13.3832L65.0414 14.2037C64.2096 15.4178 63.4341 15.926 62.1379 16.6495L62.1553 16.9094L64.1726 16.632L69.5638 16.2732L69.6279 17.2449L64.2368 17.6038L62.1884 17.596L62.2059 17.8559L62.2078 17.854Z" fill="white"/>
</g>
<defs>
<clipPath id="clip0_440_249">
<rect width="82" height="33" fill="white"/>
</clipPath>
</defs>
</svg>
