<svg width="59" height="48" viewBox="0 0 59 48" fill="none" xmlns="http://www.w3.org/2000/svg">
<g clip-path="url(#clip0_440_18)">
<path d="M17.3857 9.22183C17.7268 9.14238 18.0751 9.0734 18.4215 9.017L34.2879 6.43185C42.9244 5.02527 51.151 11.0911 52.6294 19.9564C54.0357 28.4009 48.7881 36.4946 40.6825 38.3827C40.3415 38.4622 39.9932 38.5312 39.6467 38.5876L23.7803 41.1727C19.598 41.8553 15.3855 40.824 11.9207 38.2695C8.45595 35.7151 6.15283 31.9421 5.43662 27.6487C4.03025 19.2042 9.27787 11.1105 17.3834 9.22236M17.0075 7.60849C8.11427 9.6801 2.2811 18.5203 3.84556 27.9076C5.4761 37.6902 14.5224 44.3599 24.0525 42.8083L39.9189 40.2232C40.304 40.1602 40.6843 40.0862 41.059 39.9989C49.9523 37.9273 55.7854 29.0871 54.2232 19.6993C52.5927 9.91672 43.5464 3.24701 34.0163 4.79855L18.1476 7.38423C17.762 7.4449 17.3823 7.5212 17.0075 7.60849Z" fill="#2A00FF"/>
<path d="M20.2411 23.2766L18.9811 25.3931L15.7489 30.0326L14.8031 29.3341L18.0353 24.6947L19.5662 22.8067L19.3141 22.6078C18.2261 23.2186 17.3143 23.5598 16.2614 23.7321C15.744 23.8162 15.2023 23.8573 14.596 23.8746L14.3108 22.5386C15.3477 22.5619 16.2519 22.5434 17.1657 22.3937C18.2326 22.2205 19.3039 21.8835 20.598 21.3049L21.2949 21.8183C21.0854 24.5043 21.3922 26.1562 22.1778 28.3406L20.8576 28.4925C20.2982 26.6395 20.1932 25.3562 20.4895 23.4594L20.2383 23.2748L20.2411 23.2766Z" fill="#FF2951"/>
<path d="M22.7029 20.0319L32.376 18.4544L34.032 28.3866L24.3588 29.9642L22.7029 20.0319Z" fill="#FF2951"/>
<path d="M38.9024 17.1502C41.95 16.6542 44.3212 18.4037 44.8402 21.5155C45.3608 24.644 43.6819 27.0549 40.6344 27.5509C37.603 28.0456 35.2291 26.2943 34.7091 23.1682C34.19 20.0563 35.8711 17.6449 38.9024 17.1502ZM40.4326 26.3291C42.7188 25.957 43.9762 24.1134 43.5771 21.7198C43.1818 19.3424 41.3916 17.9947 39.1059 18.3692C36.8197 18.7413 35.5623 20.585 35.9598 22.9619C36.3589 25.3554 38.1486 26.7008 40.4326 26.3291Z" fill="#FF2951"/>
</g>
<defs>
<clipPath id="clip0_440_18">
<rect width="51" height="37" fill="white" transform="translate(0 11.5703) rotate(-13.1127)"/>
</clipPath>
</defs>
</svg>
