<svg width="44" height="45" viewBox="0 0 44 45" fill="none" xmlns="http://www.w3.org/2000/svg">
<g clip-path="url(#clip0_319_313)">
<path d="M26.8812 2.52489e-07L25.2345 15.8709L26.1117 16.4183L39.0598 7.00427L44 15.4309L29.2974 21.9952L29.2974 22.9826L44 29.5469L39.0598 37.9735L26.1117 28.5594L25.2345 29.1069L26.8812 44.9778L17.1137 44.9778L18.7604 29.1069L17.8832 28.5594L4.93506 37.9735L-2.77527e-07 29.5469L14.7026 22.9826L14.7026 21.9952L-1.44939e-07 15.4309L4.94019 7.00427L17.8883 16.4183L18.7655 15.8709L17.1188 1.60793e-07L26.8863 2.52537e-07L26.8812 2.52489e-07Z" fill="#96001C"/>
</g>
<defs>
<clipPath id="clip0_319_313">
<rect width="44" height="44.9778" fill="white"/>
</clipPath>
</defs>
</svg>
