<svg width="40" height="40" viewBox="0 0 40 40" fill="none" xmlns="http://www.w3.org/2000/svg">
<g clip-path="url(#clip0_319_305)">
<path d="M32.7266 10.5351L24.5847 20.0407L4.66414 40L-2.00873e-07 35.4046L20.0018 15.4453L29.489 7.28754L28.3027 6.09887C19.4475 9.26865 13.2828 9.74264 3.79562 8.31698L3.47778 1.02944C15.2564 3.16978 23.5572 3.40678 36.6811 -1.60338e-06L40 3.32531C38.1816 10.3759 37.3907 16.0785 37.3907 21.6219C37.3907 26.4544 37.9451 31.2053 38.9726 36.671L31.6992 36.3525C31.2261 33.0272 30.9082 30.0944 30.9082 27.3246C30.9082 22.1774 31.8581 17.5042 33.913 11.6423L32.7266 10.5351Z" fill="#62809E"/>
</g>
<defs>
<clipPath id="clip0_319_305">
<rect width="40" height="40" fill="white" transform="translate(0 40) rotate(-90)"/>
</clipPath>
</defs>
</svg>
