<svg width="32" height="32" viewBox="0 0 32 32" fill="none" xmlns="http://www.w3.org/2000/svg">
<g clip-path="url(#clip0_440_258)">
<path d="M26.1813 8.42807L19.6677 16.0326L3.73131 32L-1.60699e-07 28.3236L16.0015 12.3562L23.5912 5.83003L22.6421 4.87909C15.558 7.41492 10.6263 7.79411 3.0365 6.65358L2.78222 0.823553C12.2051 2.53583 18.8458 2.72542 29.3449 6.24642e-07L32 2.66025C30.5453 8.30068 29.9126 12.8628 29.9126 17.2975C29.9126 21.1635 30.3561 24.9643 31.178 29.3368L25.3593 29.082C24.9809 26.4218 24.7266 24.0755 24.7266 21.8597C24.7266 17.7419 25.4865 14.0033 27.1304 9.31383L26.1813 8.42807Z" fill="#FF2951"/>
</g>
<defs>
<clipPath id="clip0_440_258">
<rect width="32" height="32" fill="white" transform="translate(0 32) rotate(-90)"/>
</clipPath>
</defs>
</svg>
