<svg width="44" height="44" viewBox="0 0 44 44" fill="none" xmlns="http://www.w3.org/2000/svg">
<g clip-path="url(#clip0_154_75)">
<path d="M32.4114 35.9993L21.9552 27.0431L0 5.13056L5.05499 0L27.0102 22.002L35.9837 32.438L37.2912 31.133C33.8045 21.3922 33.2831 14.6111 34.8513 4.17518L42.8676 3.82556C40.5132 16.782 40.2525 25.913 44 40.3493L40.3422 44C32.5866 41.9998 26.3136 41.1298 20.2159 41.1298C14.9002 41.1298 9.67414 41.7396 3.66191 42.8698L4.01222 34.8691C7.67006 34.3487 10.8961 33.9991 13.943 33.9991C19.6049 33.9991 24.7454 35.0439 31.1935 37.3043L32.4114 35.9993Z" fill="#2A00FF"/>
</g>
<defs>
<clipPath id="clip0_154_75">
<rect width="44" height="44" fill="white"/>
</clipPath>
</defs>
</svg>
