<svg width="37" height="22" viewBox="0 0 37 22" fill="none" xmlns="http://www.w3.org/2000/svg">
<g clip-path="url(#clip0_6_67)">
<path d="M35.5239 6.67791C34.5851 5.36883 33.2446 4.19754 31.5406 3.19056C28.0566 1.13418 23.4221 0 18.5 0C13.5779 0 8.94881 1.13418 5.45937 3.19056C3.75535 4.19754 2.41493 5.36883 1.47609 6.67791C0.49384 8.04529 0 9.49747 0 10.9973C0 12.4972 0.499267 13.9494 1.47609 15.3168C2.41493 16.6259 3.75535 17.7972 5.45937 18.8041C8.94881 20.8605 13.5779 21.9947 18.5 21.9947C23.4221 21.9947 28.0512 20.8605 31.5406 18.8041C33.2446 17.7972 34.5851 16.6259 35.5239 15.3168C36.5062 13.9494 37 12.4972 37 10.9973C37 9.49747 36.5007 8.04529 35.5239 6.67791ZM6.68041 10.9973C6.68041 9.87376 6.8812 8.78198 7.25565 7.74319C8.95424 7.4199 10.8536 7.1761 12.8833 7.0171C12.6445 8.14069 12.5142 9.33847 12.4871 10.5681C11.2552 10.7483 9.75741 10.8755 7.90686 10.9973C9.75741 11.1245 11.2552 11.2464 12.4871 11.4266C12.5142 12.6615 12.6445 13.854 12.8833 14.9776C10.8536 14.8186 8.94881 14.5748 7.25565 14.2515C6.8812 13.2127 6.68041 12.1209 6.68041 10.9973ZM6.75095 14.1508C6.37108 14.0713 5.99663 13.9918 5.63846 13.907C2.34438 13.112 0.455852 12.052 0.455852 10.9973C0.455852 9.94266 2.34438 8.88268 5.63846 8.08769C5.99663 8.00289 6.37108 7.92339 6.75095 7.84389C6.41449 8.85618 6.24083 9.91616 6.24083 10.9973C6.24083 12.0785 6.41449 13.1438 6.75095 14.1508ZM24.0679 10.4939C21.2351 10.0116 19.9652 9.09998 19.2977 6.81041C20.7901 6.82631 22.2554 6.87931 23.6609 6.98C23.9051 8.08769 24.0353 9.26957 24.0679 10.4939ZM19.1892 6.38111C18.9884 5.54372 18.8419 4.54204 18.7225 3.33895V0.450494C20.1063 0.551192 21.4088 1.61118 22.4073 3.47145C22.8903 4.37244 23.2756 5.41653 23.5524 6.54011C22.1468 6.44471 20.6816 6.38641 19.1892 6.37581V6.38111ZM18.2829 3.33365C18.1635 4.54204 18.017 5.54372 17.8162 6.37581C16.3239 6.39171 14.8586 6.44471 13.4531 6.54011C13.7298 5.41123 14.1151 4.37244 14.5981 3.47145C15.6021 1.60588 16.9045 0.551192 18.2829 0.450494V3.33365ZM17.7023 6.81041C17.0402 9.09998 15.7703 10.0116 12.9321 10.4939C12.9647 9.26957 13.1003 8.08769 13.3391 6.98C14.7446 6.87931 16.2045 6.82631 17.7023 6.81041ZM12.9321 11.5008C15.7649 11.9831 17.0348 12.8947 17.7023 15.1843C16.2099 15.1684 14.7446 15.1154 13.3391 15.0147C13.0949 13.907 12.9647 12.7251 12.9321 11.5008ZM17.8162 15.6189C18.017 16.4563 18.1635 17.458 18.2829 18.661V21.5442C16.8991 21.4435 15.5967 20.3835 14.5981 18.5232C14.1151 17.6223 13.7298 16.5782 13.4531 15.4546C14.8586 15.55 16.3239 15.6083 17.8162 15.6189ZM18.7225 18.661C18.8419 17.4527 18.9884 16.451 19.1892 15.6189C20.6816 15.603 22.1468 15.55 23.5524 15.4546C23.2756 16.5835 22.8903 17.6223 22.4073 18.5232C21.4033 20.3888 20.1009 21.4435 18.7225 21.5442V18.661ZM19.2977 15.1843C19.9598 12.8947 21.2297 11.9831 24.0679 11.5008C24.0353 12.7251 23.8997 13.907 23.6609 15.0147C22.2554 15.1154 20.7955 15.1684 19.2977 15.1843ZM24.5075 11.4266C25.7394 11.2464 27.2372 11.1192 29.0877 10.9973C27.2372 10.8702 25.7394 10.7483 24.5075 10.5681C24.4803 9.33317 24.3501 8.14069 24.1113 7.0171C26.141 7.1761 28.0458 7.4199 29.7389 7.74319C30.1134 8.78198 30.3142 9.87376 30.3142 10.9973C30.3142 12.1209 30.1134 13.2127 29.7389 14.2515C28.0403 14.5748 26.141 14.8186 24.1113 14.9776C24.3501 13.854 24.4803 12.6562 24.5075 11.4266ZM30.7592 10.9973C30.7592 9.91086 30.5855 8.85088 30.249 7.84389C30.6289 7.92339 31.0034 8.00289 31.3615 8.08769C34.6556 8.88268 36.5441 9.94266 36.5441 10.9973C36.5441 12.052 34.6556 13.112 31.3615 13.907C31.0034 13.9918 30.6289 14.0713 30.249 14.1508C30.5855 13.1385 30.7592 12.0785 30.7592 10.9973ZM36.4573 9.87906C36.2023 9.60877 35.8767 9.34377 35.4371 9.09468C34.4982 8.55938 33.1632 8.07709 31.4647 7.669C31.0142 7.563 30.5475 7.457 30.0645 7.3616C29.4622 5.81932 28.4908 4.39894 27.1612 3.21176C25.9619 2.14117 24.5618 1.32498 23.0368 0.779089C30.2056 1.87087 35.6596 5.46953 36.4573 9.87906ZM26.8681 3.52975C28.0729 4.61094 28.9737 5.88292 29.5598 7.2715C27.8775 6.96411 26.0107 6.72561 24.0191 6.57191C23.7314 5.35823 23.3244 4.23464 22.8035 3.27006C22.136 2.02457 21.3274 1.11828 20.4428 0.577692C22.8686 0.932787 25.1044 1.94507 26.8736 3.52975H26.8681ZM14.2074 3.27536C13.6864 4.24524 13.2794 5.36353 12.9918 6.57721C11.0001 6.73091 9.13332 6.9641 7.45101 7.2768C8.03711 5.88822 8.93796 4.61624 10.1427 3.53505C11.9119 1.95037 14.1477 0.938087 16.5735 0.582992C15.6889 1.12358 14.8803 2.02987 14.2128 3.27536H14.2074ZM13.9632 0.779089C12.4383 1.32498 11.0327 2.14117 9.83881 3.21176C8.50924 4.39894 7.53784 5.81932 6.93546 7.3616C6.45248 7.457 5.98035 7.5577 5.53535 7.669C3.83676 8.07709 2.50176 8.55938 1.56292 9.09468C1.12335 9.34377 0.792314 9.60877 0.542681 9.87906C1.34042 5.46953 6.79437 1.87087 13.9632 0.779089ZM0.542681 12.1156C0.797741 12.3859 1.12335 12.6509 1.56292 12.9C2.50176 13.4353 3.83676 13.9176 5.53535 14.3257C5.98577 14.4317 6.45248 14.5377 6.93546 14.6331C7.53784 16.1754 8.50924 17.5958 9.83881 18.7829C11.0381 19.8535 12.4383 20.6697 13.9632 21.2156C6.79437 20.1238 1.34042 16.5252 0.542681 12.1156ZM10.1373 18.4649C8.93253 17.3838 8.03168 16.1118 7.44559 14.7232C9.1279 15.0306 10.9947 15.2691 12.9864 15.4228C13.274 16.6365 13.681 17.7548 14.202 18.7246C14.8695 19.9701 15.6781 20.8764 16.5626 21.417C14.1368 21.0619 11.901 20.0496 10.1319 18.4649H10.1373ZM22.798 18.7246C23.319 17.7548 23.726 16.6365 24.0136 15.4228C26.0053 15.2691 27.8721 15.0359 29.5544 14.7232C28.9683 16.1118 28.0675 17.3838 26.8627 18.4649C25.0936 20.0496 22.8577 21.0619 20.4319 21.417C21.3165 20.8764 22.1251 19.9701 22.7926 18.7246H22.798ZM23.0368 21.2156C24.5618 20.6697 25.9673 19.8535 27.1612 18.7829C28.4908 17.5958 29.4622 16.1754 30.0645 14.6331C30.5475 14.5377 31.0197 14.437 31.4647 14.3257C33.1632 13.9176 34.4982 13.4353 35.4371 12.9C35.8767 12.6509 36.2077 12.3859 36.4573 12.1156C35.6596 16.5252 30.2056 20.1238 23.0368 21.2156Z" fill="white"/>
</g>
<defs>
<clipPath id="clip0_6_67">
<rect width="37" height="22" fill="white"/>
</clipPath>
</defs>
</svg>
