<svg width="47" height="47" viewBox="0 0 47 47" fill="none" xmlns="http://www.w3.org/2000/svg">
<g clip-path="url(#clip0_11_474)">
<path d="M0 23.4982C0 10.471 9.90813 0 23.2241 0C37.203 0 47 10.3586 47 23.3894C47 36.4202 37.314 47 23.4427 47C9.57129 47 0 36.6414 0 23.4982ZM23.4462 41.6521C34.1248 41.6521 41.2773 33.9656 41.2773 23.3858C41.2773 12.806 34.0137 5.45668 23.2241 5.45668C13.0974 5.45668 5.7227 13.0308 5.7227 23.4982C5.7227 33.9656 13.0974 41.6521 23.4462 41.6521ZM14.4196 11.3593H25.5354C30.3801 11.3593 33.1286 14.0315 33.1286 17.4831C33.1286 20.7136 30.8173 22.8274 26.1947 22.8274C31.5878 22.8274 33.0175 26.3915 33.0175 28.9512V35.4122H27.6245V30.6227C27.6245 28.6177 26.4133 27.3922 23.9909 27.3922H19.8091V35.4122H14.4161V11.3593H14.4196ZM23.887 22.7187C26.3094 22.7187 27.5206 21.0472 27.5206 19.3758C27.5206 17.5955 26.3094 15.9241 23.887 15.9241H19.8127V22.7187H23.887Z" fill="#44678A"/>
</g>
<defs>
<clipPath id="clip0_11_474">
<rect width="47" height="47" fill="white"/>
</clipPath>
</defs>
</svg>
