<svg width="111" height="45" viewBox="0 0 111 45" fill="none" xmlns="http://www.w3.org/2000/svg">
<g clip-path="url(#clip0_134_315)">
<path d="M90.5297 0.0470661L17.8158 4.91544C7.29955 5.61953 -0.657853 14.7612 0.0424815 25.3339L0.15873 27.0888C0.859064 37.6615 9.95193 45.6616 20.4682 44.9575L93.1821 40.0891C103.698 39.3851 111.656 30.2434 110.955 19.6707L110.839 17.9158C110.139 7.34306 101.046 -0.657025 90.5297 0.0470661Z" fill="#2A00FF"/>
<path d="M18.6758 18.7575C22.1932 18.5221 24.6871 20.7173 24.9213 24.235C25.1554 27.7712 22.9719 30.2786 19.4572 30.514C15.9583 30.7494 13.4643 28.5541 13.2301 25.0179C12.996 21.5002 15.1795 18.9929 18.6785 18.7575H18.6758Z" fill="white"/>
<path d="M38.5855 23.1401C38.8433 27.0307 36.794 29.4402 33.0688 29.6888C29.3226 29.9401 26.9707 27.7369 26.705 23.759C26.5629 21.6193 27.1206 19.8948 28.2808 18.7363L29.2305 19.7388C28.336 20.6512 27.9151 21.9922 28.0256 23.6717C28.2334 26.8191 30.0802 28.5594 32.982 28.3637C35.8837 28.168 37.4727 26.2875 37.2701 23.23C37.1438 21.3389 36.2362 20.1381 33.7002 18.9426L33.4529 19.2071C34.2658 21.0691 34.4999 22.4762 34.3868 24.489L32.8846 24.7323C33.1635 22.2646 33.0583 20.4053 32.148 17.607L32.7873 16.8532C34.3789 17.1547 35.6917 17.2446 36.9413 17.16C37.9436 17.0939 38.8854 16.922 39.9272 16.6575L39.9062 18.1862C39.3668 18.2947 38.8407 18.3634 38.3487 18.3978C37.0991 18.4824 35.9258 18.329 34.5394 17.9429L34.3105 18.2074C37.0649 19.2653 38.4356 20.7729 38.5934 23.1401H38.5855Z" fill="white"/>
<path d="M49.2453 16.6389L57.4481 27.7025L42.5895 28.6969L49.2427 16.6389H49.2453ZM54.8778 26.4885L49.4032 19.0431L44.9966 27.1523L54.8778 26.4911V26.4885Z" fill="white"/>
<path d="M58.8187 24.1478L62.4334 19.0061L66.6952 23.6214L58.8187 24.1504V24.1478Z" fill="white"/>
<path d="M73.6878 15.0706C77.1868 14.8352 79.6807 17.0304 79.9149 20.5481C80.149 24.0843 77.9655 26.5917 74.4666 26.8271C70.9492 27.0625 68.4552 24.8672 68.2211 21.3336C67.987 17.816 70.1705 15.3086 73.6878 15.0732V15.0706ZM74.3955 25.7665C77.2078 25.5787 78.9625 23.5263 78.7705 20.6248C78.5784 17.7445 76.5712 15.9434 73.7562 16.1312C70.9255 16.3216 69.1708 18.374 69.3629 21.2543C69.5549 24.1531 71.5648 25.9543 74.3955 25.7638V25.7665ZM77.05 20.7941C77.1815 22.791 76.3633 24.0367 74.2903 24.1743C72.1988 24.3144 71.2228 23.1904 71.0886 21.1935L72.0042 21.1326C72.1015 22.582 72.7013 23.3781 74.2298 23.275C75.7583 23.1718 76.2502 22.3043 76.1529 20.8549L77.05 20.7941ZM71.8226 18.6597C72.3672 18.6226 72.5645 18.9109 72.5908 19.3368C72.6198 19.7599 72.4619 20.0747 71.9173 20.1091C71.3728 20.1461 71.1755 19.8578 71.1492 19.432C71.1202 19.0088 71.2781 18.6967 71.8226 18.6597ZM75.9898 18.3793C76.5343 18.3423 76.7316 18.6306 76.7579 19.0564C76.7869 19.4796 76.629 19.7943 76.0845 19.8287C75.5399 19.8631 75.3426 19.5774 75.3163 19.1516C75.2874 18.7284 75.4452 18.4163 75.9898 18.3793Z" fill="white"/>
<path d="M91.9637 16.3877L89.2172 16.7844L81.9195 17.2737L81.8326 15.9487L89.1304 15.4593L91.8874 15.4699L91.8638 15.1155C89.9959 14.3697 88.8621 13.8063 87.5283 12.3172L88.4175 11.0847C89.9591 13.0049 91.3113 13.9809 93.9263 15.3139L93.9921 16.3031C91.577 17.9561 90.3458 19.1225 89.0909 21.2305L88.0465 20.1117C89.1725 18.456 90.2222 17.763 91.99 16.7395L91.9664 16.3851L91.9637 16.3877ZM84.2082 24.3461C86.0945 25.1079 87.2257 25.6527 88.5622 27.1629L87.673 28.3955C86.134 26.4753 84.7791 25.4993 82.1641 24.1663L82.0984 23.1771C84.4976 21.5241 85.7262 20.3603 86.9995 18.2497L88.0439 19.3685C86.9179 21.0242 85.8682 21.7171 84.1135 22.7037L84.1372 23.0581L86.8679 22.6799L94.1657 22.1906L94.2525 23.5157L86.9547 24.005L84.1819 23.9944L84.2056 24.3488L84.2082 24.3461Z" fill="white"/>
</g>
<defs>
<clipPath id="clip0_134_315">
<rect width="111" height="45" fill="white"/>
</clipPath>
</defs>
</svg>
