<svg width="44" height="43" viewBox="0 0 44 43" fill="none" xmlns="http://www.w3.org/2000/svg">
<g clip-path="url(#clip0_319_321)">
<path d="M22.0012 0C36.0397 0 44.0024 7.77471 44.0024 21.5012C44.0024 35.2277 36.0397 43.0024 22.0012 43.0024C7.96272 43.0024 0 35.2253 0 21.5012C0 7.77707 7.96272 0 22.0012 0ZM22.0012 38.6415C33.1499 38.6415 39.2826 32.5146 39.2826 21.5012C39.2826 10.4878 33.1476 4.35848 22.0012 4.35848C10.8548 4.35848 4.66052 10.4263 4.66052 21.5012C4.66052 32.5761 10.7955 38.6415 22.0012 38.6415ZM27.4867 33.6344L26.4247 26.2124C26.1876 24.6807 25.7751 24.4463 23.8882 24.4463H17.4592V33.6344H12.4454V9.01288H23.7696C29.5491 8.9537 32.2634 10.663 32.2634 15.5518C32.2634 20.0878 29.7268 21.6787 23.9474 21.6787V22.5618C28.1362 22.5618 30.3171 23.2697 31.2606 26.5083L33.4439 33.6367H27.4867V33.6344ZM17.4592 19.7327H22.9447C26.3654 19.7327 27.1903 18.8496 27.1903 16.7284C27.1903 14.6072 26.3654 13.7241 22.9447 13.7241H17.5185L17.4592 19.7327Z" fill="#130075"/>
</g>
<defs>
<clipPath id="clip0_319_321">
<rect width="44" height="43" fill="white"/>
</clipPath>
</defs>
</svg>
