<svg width="81" height="80" viewBox="0 0 81 80" fill="none" xmlns="http://www.w3.org/2000/svg">
<path d="M52 37.768C53.3333 38.5378 53.3333 40.4623 52 41.2321L36.25 50.3253C34.9167 51.0951 33.25 50.1329 33.25 48.5933L33.25 30.4067C33.25 28.8671 34.9167 27.9049 36.25 28.6747L52 37.768Z" fill="#101820"/>
<g clip-path="url(#clip0_714_46)">
<path d="M8.26575 15.8665L9.61889 14.2496C10.3007 13.4359 11.3392 13.3212 12.1259 13.9679C12.9126 14.6147 12.9965 15.6996 12.3357 16.4924L11.5175 17.4729L13.1539 18.8291L12.6189 19.4654L8.27624 15.8665H8.26575ZM11.7063 16.0542C12.0944 15.5953 12.042 14.9902 11.5909 14.6147C11.1504 14.2496 10.5629 14.3122 10.1748 14.7816L9.39861 15.71L10.9406 16.9827L11.7168 16.0542H11.7063Z" fill="black"/>
<path d="M11.8636 11.7981L12.4825 11.2348L15.7972 14.792L17.6958 13.0395L18.2203 13.6028L15.7028 15.9186L11.8636 11.7981Z" fill="black"/>
<path d="M16.5105 7.86544L17.8112 6.95789L22.542 10.5151L21.8392 11.0158L20.7902 10.223L18.5979 11.7564L18.9965 12.9978L18.2937 13.4881L16.5 7.86544H16.5105ZM20.1399 9.71183L17.2343 7.51076L18.3462 10.9741L20.1399 9.71183Z" fill="black"/>
<path d="M23.0559 7.78198L22.7308 7.94889L19.6364 5.70609L20.4336 5.29926L23.3706 7.46903L23.2447 3.84927L24.0734 3.42157L24.1154 7.23954L23.8112 7.39601L24.8392 9.36759L24.0944 9.75356L23.0664 7.78198H23.0559Z" fill="black"/>
<path d="M28.5105 6.22764L29.1923 5.78952C29.4965 6.33196 30.0629 6.54059 30.7762 6.34239C31.5105 6.13376 31.8357 5.63304 31.6993 5.15319C31.5629 4.6942 31.1643 4.52729 30.6399 4.54816L29.7797 4.57945C29.014 4.62118 28.2483 4.40211 27.9755 3.4737C27.7448 2.66003 28.2378 1.78378 29.3811 1.4604C30.3881 1.17875 31.2273 1.48126 31.6259 2.23234L30.9546 2.66003C30.7133 2.23234 30.2098 2.01327 29.5909 2.19061C28.8881 2.38881 28.6573 2.85824 28.7727 3.25464C28.8986 3.71363 29.3182 3.79708 29.7587 3.77622L30.6189 3.74492C31.5105 3.71363 32.2552 4.02658 32.5175 4.91326C32.7587 5.75822 32.2552 6.71793 30.986 7.07261C29.9266 7.37512 28.993 7.0726 28.5105 6.21721V6.22764Z" fill="black"/>
<path d="M37.1328 3.33811L34.4266 3.68235L34.7412 6.13378L33.9021 6.23809L33.1993 0.657184L34.0384 0.552868L34.3321 2.89998L37.0384 2.56617L36.7447 0.208625L37.5839 0.104309L38.2867 5.68522L37.4475 5.78954L37.1433 3.33811H37.1328Z" fill="black"/>
<path d="M39.2622 2.78522C39.3357 1.13703 40.6573 -0.073038 42.3252 0.0104149C44.0035 0.0834361 45.1993 1.42911 45.1259 3.05644C45.0524 4.70464 43.7308 5.91471 42.0524 5.83125C40.3846 5.75823 39.1888 4.44385 39.2622 2.78522ZM42.0839 5.03845C43.2378 5.09061 44.1923 4.25608 44.2552 3.00429C44.3077 1.77336 43.4371 0.834512 42.2832 0.782354C41.1294 0.730196 40.1643 1.57516 40.1119 2.81652C40.0594 4.06831 40.9301 4.98629 42.0839 5.03845Z" fill="black"/>
<path d="M46.6364 0.354675L47.5175 0.573739L47.1818 6.15465L49.4686 1.05359L51.021 1.43956L50.6434 7.01004L52.9825 1.91942L53.8532 2.13848L51.3672 7.32299L49.8252 6.94745L50.2238 1.37697L47.9266 6.47803L46.3846 6.10249L46.6259 0.365107L46.6364 0.354675Z" fill="black"/>
<path d="M55.3951 2.8374L57.4615 3.76582C58.4895 4.22481 58.7832 5.0802 58.458 5.78955C58.1748 6.40501 57.4825 6.81185 56.5175 6.35285C57.3881 6.78055 57.6398 7.47947 57.3042 8.22011L56.6853 9.58665L55.9091 9.24241L56.4545 8.04277C56.6643 7.58378 56.5175 7.17695 55.9615 6.92659L54.7133 6.36329L53.8322 8.314L53.0769 7.96975L55.4056 2.84783L55.3951 2.8374ZM56.2028 6.19638C56.7377 6.43631 57.3147 6.24854 57.5559 5.71653C57.7762 5.22624 57.6294 4.69423 56.979 4.40214L55.8356 3.88056L55.028 5.66437L56.2028 6.19638Z" fill="black"/>
<path d="M60.6608 5.39313L63.5349 7.1978L63.1258 7.84456L60.9545 6.47801L60.0839 7.85499L62.0244 9.07548L61.6258 9.71181L59.6853 8.49132L58.7517 9.96217L60.9965 11.3704L60.5874 12.0068L57.6398 10.1604L60.6503 5.40356L60.6608 5.39313Z" fill="black"/>
<path d="M64.9406 8.20964L67.5629 10.3586L67.0804 10.9427L65.0979 9.3154L64.0594 10.5672L65.8322 12.0172L65.3496 12.5909L63.5769 11.1409L62.465 12.4866L64.521 14.1661L64.0385 14.7503L61.3427 12.5388L64.9406 8.18878V8.20964Z" fill="black"/>
<path d="M68.8217 11.5687L69.3986 12.1737L65.8636 15.5118L67.6468 17.3791L67.0804 17.9111L64.7203 15.4388L68.8217 11.5687Z" fill="black"/>
<path d="M70.6993 18.5056C71.3392 18.078 72.1783 18.224 72.6294 18.8812C73.0699 19.5384 72.8916 20.3729 72.2518 20.8006C71.6119 21.2283 70.7727 21.0823 70.3217 20.4251C69.8811 19.7679 70.0595 18.9333 70.6993 18.5056Z" fill="black"/>
<path d="M77.7483 24.5455L78.493 26.5171C78.8707 27.4977 78.4616 28.4574 77.507 28.8225C76.5525 29.1772 75.5665 28.7286 75.1993 27.7585L74.7483 26.5588L72.7658 27.2995L72.472 26.5275L77.7588 24.5455H77.7483ZM75.8916 27.4142C76.1014 27.9775 76.6574 28.2279 77.2133 28.0193C77.7483 27.8211 77.979 27.2786 77.7693 26.7153L77.3392 25.5783L75.4616 26.2772L75.8916 27.4142Z" fill="black"/>
<path d="M79.521 29.6466L79.7098 30.4603L74.9685 31.566L75.5559 34.08L74.8007 34.2574L74.014 30.9401L79.5105 29.657L79.521 29.6466Z" fill="black"/>
<path d="M80.6643 35.6448L80.8112 37.22L75.3566 39.5358L75.2727 38.6804L76.479 38.1693L76.2273 35.5196L74.9476 35.2484L74.8636 34.4034L80.6643 35.6552V35.6448ZM77.2448 37.8563L80.6119 36.4376L77.035 35.6761L77.2448 37.8459V37.8563Z" fill="black"/>
<path d="M77.4965 41.3092V40.9441L81 39.3689L80.9685 40.2556L77.6119 41.7264L80.8427 43.3955L80.8112 44.3135L77.4546 42.4671V42.1228L75.2413 42.0394L75.2727 41.2049L77.4965 41.2883V41.3092Z" fill="black"/>
<path d="M76.1539 46.8379L76.1958 47.6411C75.5664 47.6411 75.1049 48.0167 74.9266 48.7364C74.7483 49.4771 75.021 50.0091 75.5035 50.1238C75.9755 50.2386 76.3112 49.9778 76.5525 49.5084L76.9511 48.7469C77.2972 48.0688 77.8636 47.5055 78.8077 47.735C79.6364 47.9332 80.1504 48.799 79.8671 49.9465C79.6154 50.9479 78.9336 51.5321 78.0839 51.5008L78.042 50.7184C78.535 50.7184 78.9755 50.3951 79.1329 49.7692C79.3112 49.0598 79.007 48.6321 78.6084 48.5278C78.1469 48.4131 77.8636 48.726 77.6643 49.1224L77.2553 49.8839C76.8462 50.6663 76.1958 51.167 75.2937 50.9479C74.4336 50.7393 73.8462 49.8318 74.1608 48.5591C74.4231 47.4951 75.1469 46.8379 76.1434 46.8379H76.1539Z" fill="black"/>
<path d="M74.444 55.6943L75.4825 53.1803L73.1853 52.2415L73.5 51.4695L78.7342 53.608L78.4196 54.38L76.2168 53.4828L75.1783 55.9969L77.3811 56.894L77.0664 57.6659L71.8322 55.5274L72.1468 54.7555L74.444 55.6943Z" fill="black"/>
<path d="M73.8776 57.8015C75.2832 58.6778 75.6923 60.4199 74.8007 61.8281C73.9091 63.2364 72.1363 63.6119 70.7517 62.7461C69.3461 61.8699 68.9475 60.1278 69.8391 58.7091C70.7308 57.3008 72.4615 56.9148 73.8776 57.8015ZM70.5105 59.1368C69.8916 60.1069 70.1538 61.3483 71.2133 62.0159C72.2622 62.6731 73.5105 62.381 74.1293 61.4004C74.7482 60.4199 74.4755 59.1785 73.4266 58.5213C72.3566 57.8537 71.1294 58.1562 70.5105 59.1368Z" fill="black"/>
<path d="M72.3357 65.3749L71.7168 66.0216L67.007 62.9756L70.3322 67.4716L69.2308 68.6191L64.5525 65.5418L67.8357 70.0691L67.2168 70.7159L63.9231 66.0112L65.014 64.8742L69.6818 67.9619L66.3672 63.4659L67.4581 62.3289L72.3462 65.3749H72.3357Z" fill="black"/>
<path d="M65.8426 71.7173L64.007 73.0421C63.0944 73.6993 62.2028 73.5324 61.7412 72.8961C61.3426 72.3536 61.3217 71.5504 62.2028 70.9349C61.3951 71.4774 60.6608 71.3418 60.1783 70.6846L59.2972 69.4745L59.979 68.9738L60.7552 70.0378C61.0594 70.4446 61.479 70.5281 61.9825 70.163L63.0944 69.3597L61.8252 67.6281L62.4965 67.1378L65.8217 71.686L65.8426 71.7173ZM62.5175 70.7576C62.0454 71.1018 61.9196 71.6964 62.2657 72.1659C62.5804 72.604 63.1259 72.7396 63.7028 72.3223L64.7203 71.5817L63.5559 69.9961L62.507 70.7576H62.5175Z" fill="black"/>
<path d="M61.0175 75.0137L58.028 76.6201L57.6608 75.9525L59.9161 74.7425L59.1398 73.3133L57.1259 74.3982L56.7692 73.741L58.7832 72.6561L57.9545 71.1331L55.6154 72.3849L55.2587 71.7173L58.3322 70.0691L61.007 75.0137H61.0175Z" fill="black"/>
<path d="M56.4441 77.3295L53.2657 78.5396L52.993 77.8302L55.3951 76.9122L54.8077 75.3996L52.6678 76.2133L52.3951 75.5144L54.535 74.6903L53.9056 73.0734L51.4301 74.0227L51.1573 73.3133L54.4091 72.072L56.4336 77.3191L56.4441 77.3295Z" fill="black"/>
<path d="M51.5769 79.0403L50.7588 79.2385L49.5944 74.5234L47.0769 75.1388L46.8881 74.3878L50.2238 73.5741L51.5664 79.0298L51.5769 79.0403Z" fill="black"/>
<path d="M42.514 77.3921C42.5245 78.1536 41.9476 78.7795 41.1504 78.8003C40.3532 78.8108 39.7448 78.2057 39.7343 77.4442C39.7238 76.6827 40.3007 76.0464 41.0979 76.036C41.8951 76.0255 42.5035 76.6306 42.514 77.3921Z" fill="black"/>
<path d="M33.5664 80L31.5 79.5514C30.4615 79.3324 29.8741 78.4665 30.0944 77.4755C30.3147 76.4845 31.2273 75.9004 32.2448 76.1299L33.5035 76.4011L33.9545 74.3356L34.7622 74.513L33.5664 80.0104V80ZM32.1503 76.8914C31.5629 76.7662 31.049 77.0896 30.9231 77.6633C30.7972 78.2162 31.1329 78.7065 31.7203 78.8421L32.9161 79.1029L33.3357 77.1522L32.1399 76.8914H32.1503Z" fill="black"/>
<path d="M28.3112 78.7377L27.514 78.4561L29.1504 73.8766L26.7063 73.0108L26.9685 72.2806L30.2098 73.4281L28.3112 78.7273V78.7377Z" fill="black"/>
<path d="M22.6049 76.4324L21.1888 75.7022L22.1853 69.8813L22.9511 70.2778L22.7308 71.5608L25.1119 72.7813L26.035 71.8529L26.7902 72.2493L22.5944 76.422L22.6049 76.4324ZM22.5944 72.3745L21.9651 75.9525L24.5455 73.3759L22.5944 72.3745Z" fill="black"/>
<path d="M19.542 70.7159L19.8357 70.9245L19.2693 74.6903L18.535 74.1792L19.1119 70.5803L15.9441 72.3745L15.1783 71.8425L18.5665 70.0482L18.8497 70.2464L20.1294 68.4313L20.8217 68.9112L19.542 70.7263V70.7159Z" fill="black"/>
<path d="M15.6294 66.6058L14.9266 66.2094C15.2727 65.6878 15.1993 65.0932 14.6853 64.5612C14.1608 64.0083 13.5629 63.9562 13.1958 64.29C12.8496 64.6238 12.8811 65.0515 13.1538 65.5001L13.5839 66.2407C13.972 66.8875 14.1399 67.6803 13.4371 68.3375C12.8182 68.9216 11.8112 68.8903 10.993 68.0245C10.2797 67.2734 10.1538 66.3868 10.6364 65.6878L11.3182 66.0842C11.0454 66.4911 11.0874 67.0439 11.528 67.5134C12.0315 68.0454 12.5559 68.0245 12.8601 67.7429C13.2063 67.4195 13.1014 67.0127 12.8601 66.6267L12.4301 65.8756C11.9895 65.1141 11.9161 64.3004 12.5874 63.6641C13.2273 63.0591 14.3182 63.0591 15.2203 64.0084C15.986 64.8116 16.1434 65.7609 15.5979 66.5954L15.6294 66.6058Z" fill="black"/>
<path d="M9.05242 60.3468L10.6154 62.5792L12.6503 61.1709L13.1328 61.8594L8.49648 65.0723L8.01396 64.3838L9.96501 63.0277L8.40207 60.7954L6.45102 62.1515L5.96851 61.463L10.6049 58.2501L11.0874 58.9385L9.05242 60.3468Z" fill="black"/>
<path d="M7.57341 58.7508C6.07341 59.4497 4.3846 58.8447 3.6818 57.3425C2.96851 55.8299 3.60837 54.1505 5.09788 53.462C6.59788 52.7631 8.2867 53.3681 8.99998 54.8911C9.70278 56.3933 9.09439 58.0519 7.5839 58.7508H7.57341ZM8.27621 55.2145C7.79369 54.1713 6.59788 53.7123 5.46502 54.2443C4.34264 54.7659 3.91257 55.976 4.40558 57.0087C4.89858 58.0414 6.09439 58.5004 7.21677 57.9789C8.36012 57.4468 8.76921 56.2472 8.27621 55.2145Z" fill="black"/>
<path d="M1.98253 53.3472L1.77274 52.471L6.90211 50.1865L1.30071 50.5307L0.92309 48.9868L6.06295 46.744L0.451062 47.0257L0.241272 46.1599L6.0105 45.9617L6.37764 47.4951L1.22729 49.717L6.82868 49.3832L7.19582 50.9167L1.96155 53.3472H1.98253Z" fill="black"/>
<path d="M0.167816 44.4803L0.0419415 42.2271C-0.0209956 41.1109 0.608375 40.4537 1.3846 40.412C2.06642 40.3703 2.74824 40.798 2.7797 41.862C2.75872 40.9023 3.27271 40.3494 4.0804 40.3077L5.5804 40.2242L5.62236 41.0692L4.30068 41.1422C3.79719 41.1735 3.49299 41.4865 3.52446 42.0915L3.59789 43.458L5.74823 43.3433L5.79019 44.1674L0.146837 44.4803H0.167816ZM2.7797 42.2167C2.74824 41.6325 2.30768 41.2152 1.72026 41.2465C1.17481 41.2778 0.776207 41.6534 0.807676 42.3627L0.881102 43.6145L2.85313 43.5102L2.7797 42.2271V42.2167Z" fill="black"/>
<path d="M0 38.6595L0.272727 35.2901L1.03846 35.3527L0.839161 37.898L2.46503 38.0232L2.64336 35.7491L3.38811 35.8117L3.20979 38.0858L4.95105 38.2214L5.16084 35.5822L5.91608 35.6448L5.64336 39.1081L0.0104895 38.6595H0Z" fill="black"/>
<path d="M0.524475 33.6002L1.21678 30.2934L1.97203 30.4499L1.44755 32.9535L3.04196 33.2873L3.51399 31.0549L4.24825 31.2114L3.77622 33.4437L5.48601 33.7984L6.03147 31.2114L6.77622 31.3679L6.06294 34.7686L0.524475 33.6211V33.6002Z" fill="black"/>
<path d="M1.70978 28.6139L1.98251 27.8211L6.59789 29.3963L7.43705 26.9553L8.17132 27.2056L7.05943 30.429L1.72027 28.6035L1.70978 28.6139Z" fill="black"/>
<path d="M7.02795 23.7527C6.35662 23.3876 6.09438 22.574 6.47201 21.875C6.86012 21.1761 7.68879 20.9571 8.36012 21.3222C9.03145 21.6873 9.29368 22.5009 8.91606 23.1999C8.52795 23.8988 7.69928 24.1178 7.02795 23.7527Z" fill="black"/>
</g>
<defs>
<clipPath id="clip0_714_46">
<rect width="81" height="80" fill="white"/>
</clipPath>
</defs>
</svg>
