<svg width="109" height="29" viewBox="0 0 109 29" fill="none" xmlns="http://www.w3.org/2000/svg">
<g clip-path="url(#clip0_60_388)">
<path d="M5.47489 21.8387C5.32236 22.4298 5.24208 22.5312 4.66409 22.5312H0.770658C0.264914 22.5312 0.0321108 22.4636 0 22.2356C0 22.0667 0.120415 21.8049 0.152526 21.6782L7.75475 0.498253C7.90728 0.0675597 7.94742 0 8.59766 0H12.6115C13.1895 0 13.2617 0.135119 13.4223 0.523588L20.9924 21.7373C21.0245 21.8725 21.1449 22.1342 21.1449 22.2694C21.1449 22.472 20.7596 22.5312 20.3743 22.5312H16.0554C15.6701 22.5312 15.5898 22.4298 15.3971 21.8387L13.7033 16.5099H7.06437L5.48291 21.8387H5.47489ZM10.2995 4.18026H10.2193C9.9142 5.55679 7.63434 13.5542 7.63434 13.5542H12.7239C12.7239 13.5542 10.5885 5.58212 10.2915 4.18026H10.2995Z" fill="#878A8E"/>
<path d="M30.3046 21.8467C30.3447 22.0241 30.3768 22.0241 30.3768 22.1254C30.3768 22.6152 28.3378 23.105 26.4834 23.105C21.739 23.105 21.739 19.5919 21.739 16.3913V1.73929C21.739 1.2157 22.0039 1.2157 22.4695 1.11436L25.7127 0.523215C25.8251 0.523215 26.1783 0.421875 26.2506 0.421875C26.5637 0.421875 26.6359 0.565439 26.6359 1.15659V17.0078C26.6359 18.1225 26.6359 19.0937 27.7116 19.0937C28.4823 19.0937 28.988 18.7812 29.2208 18.7812C29.3733 18.7812 29.4938 18.8488 29.5259 18.9923L30.2965 21.8467H30.3046Z" fill="#878A8E"/>
<path d="M40.2428 21.8467C40.283 22.0241 40.3231 22.0241 40.3231 22.1254C40.3231 22.6152 38.2841 23.105 36.4297 23.105C31.6853 23.105 31.6853 19.5919 31.6853 16.3913V1.73929C31.6853 1.2157 31.9582 1.2157 32.4158 1.11436L35.651 0.523215C35.7714 0.523215 36.1166 0.421875 36.1888 0.421875C36.5019 0.421875 36.5742 0.565439 36.5742 1.15659V17.0078C36.5742 18.1225 36.5742 19.0937 37.6579 19.0937C38.4286 19.0937 38.9263 18.7812 39.1591 18.7812C39.3116 18.7812 39.424 18.8488 39.4641 18.9923L40.2348 21.8467H40.2428Z" fill="#878A8E"/>
<path d="M100.402 22.9615C100.25 22.9953 100.057 23.0967 99.8965 23.0967C99.5513 23.0967 98.9733 21.8806 98.7806 21.0107C98.01 21.7032 96.6613 23.0967 93.7714 23.0967C90.2231 23.0967 87.9834 21.0107 87.9834 17.7425C87.9834 11.8649 95.0076 11.8649 98.0582 11.8649V10.7839C98.0582 9.22158 97.7451 8.20818 95.3207 8.20818C93.1613 8.20818 91.0419 9.25536 90.5362 9.25536C90.3435 9.25536 90.191 9.04424 90.1509 8.90912L89.3802 6.78943C89.308 6.66276 89.2678 6.51919 89.2678 6.37563C89.2678 5.57336 93.089 4.7373 96.0593 4.7373C100.876 4.7373 102.698 6.72187 102.698 10.3363V17.0501C102.698 20.428 103.702 20.8756 103.702 21.5766C103.702 21.7201 103.549 21.8215 103.356 21.889L100.418 22.97L100.402 22.9615ZM98.0501 14.7108C97.0868 14.7108 92.6074 14.4321 92.6074 17.4976C92.6074 18.8488 93.6911 19.8622 95.1521 19.8622C96.6132 19.8622 97.5765 18.9586 98.0501 18.5364V14.7108Z" fill="#878A8E"/>
<path d="M50.9999 7.91203C52.1559 7.91203 52.774 8.71431 52.774 9.61792C52.774 12.8186 47.3072 13.832 45.6454 13.832C45.9585 11.9825 47.3714 7.91203 50.9999 7.91203ZM41.0696 13.8911C34.1337 13.6799 25.4959 11.9487 29.5579 5.46299C26.6118 9.01832 26.5957 14.5582 40.8208 15.7321C40.8047 16.0445 40.7807 16.3654 40.7807 16.6779C40.7807 20.5457 42.8598 23.1467 47.4918 23.1467C54.9014 23.1467 59.8223 19.5576 65.9876 12.5145L65.827 12.3541C59.4611 18.3669 52.5492 21.0608 48.6719 20.4444C45.0915 19.8785 45.4046 16.9904 45.4046 15.9432C47.6042 15.9432 57.398 15.9432 57.398 9.36457C57.398 6.57773 55.3188 4.77051 51.6903 4.77051C46.5766 4.77051 42.1935 8.42718 41.0616 13.8826" fill="#878A8E"/>
<path d="M73.5819 15.7586C73.5819 18.0556 73.7745 20.7496 73.7745 22.7004C73.7745 26.4922 71.6954 29.0003 66.3329 29.0003C63.3225 29.0003 58.3453 27.8856 58.3453 27.1509C58.3453 26.906 58.3854 26.7708 58.4978 26.4584L59.2364 24.3387C59.3167 24.0938 59.4692 23.9925 59.6619 23.9925C60.1275 23.9925 62.4796 25.3521 65.9154 25.3521C68.6127 25.3521 69.0783 24.3387 69.0783 22.3879C69.0783 21.1718 68.9659 21.2225 68.9659 20.9776C68.388 21.3238 66.9189 22.295 64.2938 22.295C59.9749 22.295 57.6951 19.0268 57.6951 13.8078C57.6951 8.20037 60.4004 4.72949 64.9842 4.72949C67.7217 4.72949 68.8455 5.802 69.576 6.36781C69.6965 6.05535 70.3868 4.72949 70.9327 4.72949C71.0612 4.72949 71.1896 4.75483 71.3181 4.79705L74.3284 5.802C74.481 5.86956 74.6736 5.97935 74.6736 6.11447C74.6736 6.56205 73.5979 7.82035 73.5979 10.565V15.7502L73.5819 15.7586ZM68.9579 9.42489C68.4602 9.07865 67.6494 8.37772 65.9074 8.37772C63.5954 8.37772 62.5839 10.3201 62.5839 13.6643C62.5839 16.8311 63.3546 18.8157 65.6746 18.8157C67.6414 18.8157 68.5726 17.9459 68.9579 17.6334V9.42489Z" fill="#878A8E"/>
<path d="M81.9306 22.0248C81.9306 22.4048 81.8584 22.5061 81.3928 22.5061H77.5716C77.114 22.5061 77.0337 22.4048 77.0337 22.0248V11.5192C77.0337 7.69367 76.0303 7.0603 76.0303 6.26648C76.0303 6.13136 76.1828 6.02157 76.3755 5.95401L79.3056 4.87306C79.4581 4.83928 79.6508 4.72949 79.8033 4.72949C80.2689 4.72949 81.0396 6.30026 81.2322 7.47411C81.9627 6.67183 83.3917 4.72949 86.0167 4.72949C87.1326 4.72949 88.2565 5.07574 88.2565 5.53176C88.2565 5.64999 88.2324 5.76822 88.1762 5.87801L86.98 8.79996C86.9399 8.90975 86.8275 9.11243 86.675 9.11243C86.4422 9.11243 85.7438 8.7324 84.8607 8.7324C83.6646 8.7324 82.4364 9.9147 81.9306 10.4045V22.0248Z" fill="#878A8E"/>
<path d="M107.073 1.77344C108.149 1.77344 109 2.60104 109 3.65666C109 4.71228 108.141 5.54834 107.057 5.54834C105.973 5.54834 105.106 4.71228 105.106 3.65666C105.106 2.60104 105.973 1.77344 107.057 1.77344H107.065H107.073ZM107.049 2.15346C106.23 2.15346 105.596 2.82906 105.596 3.65666C105.596 4.48427 106.23 5.15987 107.073 5.15987C107.892 5.16831 108.518 4.49272 108.518 3.67355C108.518 2.85439 107.892 2.16191 107.065 2.16191H107.049V2.15346ZM106.76 4.62783H106.319V2.75305C106.559 2.71927 106.8 2.70238 107.049 2.69394C107.41 2.69394 107.571 2.75305 107.699 2.84595C107.764 2.88817 107.812 2.95573 107.852 3.02329C107.884 3.09085 107.9 3.16686 107.9 3.25131C107.9 3.47932 107.723 3.63133 107.507 3.69889V3.72422C107.691 3.78334 107.788 3.9269 107.844 4.18025C107.9 4.46738 107.948 4.56872 107.98 4.63628H107.515C107.459 4.56872 107.426 4.40827 107.362 4.18025C107.33 3.98602 107.21 3.89312 106.969 3.89312H106.76V4.63628V4.62783ZM106.776 3.57221H106.985C107.226 3.57221 107.426 3.49621 107.426 3.30198C107.426 3.13308 107.298 3.01485 107.025 3.01485C106.945 3.01485 106.865 3.01485 106.784 3.04018V3.58066L106.776 3.57221Z" fill="#878A8E"/>
</g>
<defs>
<clipPath id="clip0_60_388">
<rect width="109" height="29" fill="white"/>
</clipPath>
</defs>
</svg>
