<svg width="70" height="26" viewBox="0 0 70 26" fill="none" xmlns="http://www.w3.org/2000/svg">
<g clip-path="url(#clip0_56_103)">
<path d="M43.6362 22.7079H36.2319C36.0155 22.7079 35.8054 22.6645 35.608 22.5841C35.4106 22.5036 35.2324 22.386 35.0859 22.2375C34.9395 22.089 34.8186 21.9095 34.7422 21.7176C34.6658 21.5258 34.6276 21.3153 34.6339 21.1111V4.85259C34.6339 4.64835 34.6721 4.44411 34.7485 4.25844C34.8249 4.07277 34.9459 3.89948 35.0923 3.75713C35.2387 3.61478 35.417 3.49719 35.6144 3.42293C35.8117 3.34866 36.0155 3.31152 36.2256 3.31152H43.146C46.9468 3.31152 49.226 5.45911 49.226 8.25654C49.226 11.054 47.4498 12.1061 46.8258 12.3103C47.7808 12.5455 50.3911 13.5915 50.3911 17.1563C50.3911 20.1889 47.8763 22.7079 43.6235 22.7079H43.6362ZM43.0186 6.16465H37.8554V11.054H43.0186C45.0687 11.054 46.03 9.95232 46.03 8.60931C46.03 7.2663 45.126 6.16465 43.0186 6.16465ZM43.7508 13.8638H37.8554V19.8238H43.7508C46.1128 19.8238 47.1951 18.3322 47.1951 16.8531C47.1951 15.3739 46.1255 13.8823 43.7508 13.8823V13.87V13.8638ZM59.5971 22.6955H54.714C54.4975 22.6955 54.2874 22.6645 54.0837 22.5841C53.8863 22.5036 53.7017 22.386 53.5553 22.2375C53.4025 22.089 53.2879 21.9095 53.2051 21.7176C53.1287 21.5258 53.0905 21.3153 53.0969 21.1049V4.85259C53.0969 4.64835 53.1414 4.44411 53.2178 4.25844C53.3006 4.06658 53.4216 3.89948 53.568 3.75713C53.7208 3.61478 53.899 3.50338 54.0964 3.42293C54.2938 3.34866 54.5039 3.31152 54.714 3.31771H59.6289C66.2883 3.31771 70 7.63145 70 13.0097C70 18.3879 66.2501 22.7079 59.6289 22.7079L59.5971 22.6955ZM59.4316 6.16465H56.3374V19.8238H59.4316C64.1492 19.8238 66.7722 17.113 66.7722 12.9787C66.7722 8.84449 64.1746 6.15846 59.4316 6.15846V6.16465Z" fill="#878A8E"/>
<path d="M7.6844 12.3161L0.133697 14.8227C0.0445657 14.2161 0 13.6096 0 12.9969C0 11.1588 0.401091 9.33921 1.17781 7.66199L7.71623 12.1552C7.75443 12.1861 7.77353 12.2109 7.77353 12.2357C7.77353 12.2604 7.73533 12.3037 7.69077 12.3161V12.3037L7.6844 12.3161ZM13.3251 0C10.7913 0 8.30832 0.711735 6.17553 2.04237L11.6635 7.69293C11.7017 7.73006 11.7271 7.74863 11.7653 7.74863C11.8035 7.74863 11.829 7.74863 11.8417 7.66817C11.8863 7.30921 13.3251 0 13.3251 0ZM9.11051 9.37015C9.11051 9.37015 9.11051 9.32683 9.11051 9.30826L6.0864 2.09188C3.96635 3.4349 2.27285 5.33492 1.20964 7.56915L8.97044 9.43823H9.03411C9.03411 9.43823 9.05321 9.43823 9.05957 9.43823C9.06594 9.43823 9.07867 9.43204 9.08504 9.42585C9.0914 9.42585 9.09777 9.41347 9.10414 9.4011C9.10414 9.39491 9.10414 9.38253 9.10414 9.37634L9.11051 9.37015ZM19.0614 12.3161L26.6248 14.8289C26.7076 14.2223 26.7522 13.6158 26.7522 13.0031C26.7522 11.165 26.3574 9.3454 25.5807 7.66817L19.0359 12.1614C18.9977 12.1923 18.9786 12.2171 18.9786 12.2418C18.9786 12.2666 19.0232 12.2975 19.0614 12.3099V12.3161ZM14.904 7.66817C14.904 7.73006 14.955 7.74863 14.9868 7.74863C15.0186 7.74863 15.0441 7.74863 15.0823 7.69293L20.5766 2.04237C18.4438 0.711735 15.9609 0 13.427 0C13.427 0 14.8404 7.30302 14.904 7.66817ZM17.7053 9.44442H17.769L25.5298 7.57534C24.4666 5.34111 22.7794 3.44109 20.653 2.09807C20.653 2.09807 17.6608 9.2835 17.6417 9.31445C17.6417 9.33302 17.6417 9.35777 17.6417 9.37634C17.6417 9.39491 17.6417 9.40728 17.6608 9.41966C17.6735 9.43204 17.6862 9.43823 17.7053 9.43823V9.44442Z" fill="#878A8E"/>
<path d="M13.3761 26C16.5721 26 19.6598 24.8798 22.0791 22.8498C24.4984 20.826 26.0964 18.0224 26.5802 14.9527L21.5952 15.6334C21.5952 15.6334 21.5379 15.6458 21.5125 15.6644C21.487 15.683 21.4743 15.7077 21.4679 15.7387C20.9713 17.1374 20.0991 18.3814 18.9468 19.3407C17.7944 20.2999 16.3938 20.9498 14.8977 21.2159C15.6171 20.8755 16.1964 20.3123 16.5402 19.6068C16.884 18.9074 16.9731 18.109 16.7949 17.354C16.6166 16.5989 16.1773 15.9181 15.5534 15.4354C14.9295 14.9527 14.1528 14.6865 13.3506 14.6865C12.5484 14.6865 11.7781 14.9527 11.1478 15.4354C10.5238 15.9181 10.0846 16.5927 9.9063 17.354C9.72803 18.109 9.81716 18.9074 10.161 19.6068C10.5047 20.3061 11.0841 20.8755 11.8035 21.2159C10.3138 20.9436 8.92585 20.2938 7.77987 19.3345C6.6339 18.3752 5.76805 17.1312 5.27783 15.7448C5.27783 15.7139 5.25873 15.6891 5.23326 15.6706C5.2078 15.652 5.18233 15.6396 5.1505 15.6396L0.152771 14.9527C0.636627 18.0224 2.22826 20.826 4.65391 22.856C7.07956 24.8798 10.1673 26 13.3633 26.0062" fill="#878A8E"/>
</g>
<defs>
<clipPath id="clip0_56_103">
<rect width="70" height="26" fill="white"/>
</clipPath>
</defs>
</svg>
