<svg width="94" height="21" viewBox="0 0 94 21" fill="none" xmlns="http://www.w3.org/2000/svg">
<g clip-path="url(#clip0_56_139)">
<path d="M91.862 0.000389157C92.2805 0.000389157 92.6913 0.128209 93.0489 0.36881C93.3989 0.609412 93.6728 0.962795 93.8326 1.36881C93.9924 1.77483 94.038 2.22595 93.9543 2.66204C93.8706 3.09813 93.6728 3.49663 93.3761 3.8049C93.0794 4.12069 92.699 4.33122 92.2881 4.41392C91.8773 4.49663 91.4512 4.45904 91.0556 4.2861C90.6675 4.11317 90.3328 3.82746 90.1045 3.45904C89.8687 3.09061 89.7469 2.66204 89.7469 2.21843C89.7469 1.9252 89.7926 1.63197 89.8991 1.36129C90.0056 1.09061 90.1578 0.842494 90.3556 0.631968C90.5534 0.421442 90.7893 0.263547 91.048 0.150765C91.3066 0.0379831 91.5805 -0.0146484 91.862 -0.0146484V0.000389157ZM91.862 0.338735C91.5045 0.323697 91.1469 0.413923 90.8425 0.609412C90.5382 0.8049 90.2947 1.09061 90.1426 1.43648C89.9904 1.78234 89.9448 2.15828 90.0056 2.53422C90.0665 2.90264 90.2263 3.24851 90.4773 3.52671C90.7284 3.79738 91.0404 3.98535 91.3979 4.06806C91.7479 4.15077 92.1131 4.11317 92.4479 3.97783C92.7826 3.84249 93.0641 3.59437 93.2696 3.2861C93.4674 2.97783 93.5815 2.60941 93.5815 2.22595C93.5815 1.98535 93.5511 1.74475 93.4674 1.51919C93.3837 1.29362 93.262 1.0831 93.1022 0.910164C92.9424 0.737231 92.7522 0.594374 92.5392 0.49663C92.3261 0.398885 92.0979 0.346254 91.8697 0.338735H91.862ZM91.4664 3.51167H91.086V1.03798C91.3066 1.00039 91.5349 0.977833 91.7555 0.977833C92.0142 0.955276 92.2729 1.02295 92.4935 1.1658C92.5696 1.22595 92.6229 1.30114 92.6609 1.39137C92.699 1.48159 92.7142 1.57934 92.7066 1.67708C92.7066 1.81994 92.6609 1.95528 92.5772 2.06054C92.4935 2.17332 92.3794 2.24851 92.2425 2.27858V2.30114C92.4479 2.33874 92.5924 2.54174 92.6381 2.90264C92.6609 3.11317 92.7066 3.3237 92.7903 3.51919H92.3946C92.3109 3.31618 92.2501 3.10565 92.2349 2.88761C92.2349 2.81994 92.2196 2.75979 92.1892 2.69964C92.1588 2.63949 92.1207 2.58686 92.0751 2.54926C92.0294 2.51167 91.9686 2.48159 91.9153 2.45904C91.8544 2.444 91.7936 2.43648 91.7327 2.45152H91.4664V3.51167ZM91.4664 2.13573H91.7403C92.0599 2.13573 92.3185 2.01543 92.3185 1.70716C92.3185 1.48911 92.1664 1.27107 91.7403 1.27107C91.649 1.27107 91.5577 1.27107 91.4664 1.29362V2.13573Z" fill="#878A8E"/>
<path d="M10.6059 9.60944C11.1765 9.13576 11.633 8.53425 11.945 7.85004C12.2645 7.16583 12.4243 6.41395 12.4243 5.65455C12.4319 2.15079 10.0962 0.286133 5.67576 0.286133C3.85739 0.286133 2.04662 0.451546 0.251072 0.774855L0 0.835005V20.5042L5.63011 20.5944C10.7733 20.5944 13.3829 18.5343 13.3829 14.4741C13.3829 12.226 12.3938 10.5718 10.6135 9.5944V9.60944H10.6059ZM3.52262 3.632C4.1465 3.55681 4.77038 3.5117 5.40186 3.50418C7.81368 3.50418 8.89405 4.28613 8.89405 6.03049C8.88644 6.56433 8.74189 7.08313 8.4832 7.53425C8.22452 7.9929 7.85933 8.36884 7.42566 8.632L6.06378 8.52673H3.51501V3.62448L3.52262 3.632ZM5.4399 17.4064L3.53023 17.3613V11.6621H5.91922C8.46799 11.6621 9.68531 12.5869 9.68531 14.4891C9.67009 16.5718 8.44516 17.414 5.41708 17.414L5.4399 17.3989V17.4064ZM15.5208 4.49666H18.8913V0.398915H15.5208V4.49666ZM15.5208 20.5117H18.8913V6.4741H15.5208V20.5117ZM29.307 13.1433C28.6907 12.7147 28.0364 12.3613 27.3517 12.0681L26.3626 11.6019C25.0844 11.0004 24.917 10.5343 24.917 10.1959C24.917 9.41395 25.5257 8.94779 26.5376 8.94779C27.306 8.92523 28.0745 9.06809 28.7896 9.3538L29.17 9.5117L29.5124 6.79741L29.2842 6.69967C28.2799 6.2335 27.1919 6.00794 26.0963 6.03049C23.4867 6.03049 21.5922 7.835 21.5922 10.3312C21.5694 10.9854 21.7064 11.6395 21.9879 12.226C22.2694 12.8124 22.6878 13.3162 23.2052 13.6846C23.8214 14.0906 24.4681 14.4365 25.1453 14.7072C25.6474 14.9177 26.1344 15.1734 26.6061 15.4591C27.2452 15.9027 27.306 16.1959 27.306 16.4365C27.306 17.8726 25.6398 18.038 24.917 18.038C23.8138 18.0681 22.7183 17.8124 21.7292 17.2937L21.3335 17.0831L20.9607 20.0606L21.1966 20.1583C22.4215 20.6997 23.7378 20.9628 25.0616 20.9328C27.7093 20.9328 30.7982 19.6921 30.7982 16.2034C30.8058 15.6019 30.6689 15.0079 30.4026 14.4741C30.1363 13.9403 29.7483 13.4891 29.269 13.1583H29.2918L29.307 13.1433ZM52.4361 17.835C51.835 17.835 51.2492 17.6997 51.2492 16.0531V0.36884L47.8787 0.925231V16.1884C47.8787 20.3237 50.321 20.9478 51.7818 20.9478C52.4589 20.9478 53.1361 20.8576 53.7904 20.6621L54.0871 20.5718L53.3491 17.7974L52.4437 17.8425L52.4361 17.835ZM59.6563 15.7673L56.4304 6.4741H52.6948L58.0282 20.647H60.9878L66.4505 6.4741H62.8442C62.8442 6.4741 60.1356 14.3388 59.6335 15.7824L59.6563 15.7673ZM88.2101 6.02297C86.1939 6.05305 84.1853 6.31621 82.23 6.81245L81.9866 6.88012V20.5192H85.357V9.62448C86.2015 9.46658 87.0537 9.38388 87.9058 9.37636C89.7774 9.37636 90.4545 10.3538 90.4545 13.1057V20.5117H93.825V12.0606C93.7794 8.12072 91.8392 6.03801 88.1797 6.03801L88.2025 6.02297H88.2101Z" fill="#878A8E"/>
<path d="M39.1216 5.94727C37.7065 5.94727 36.3218 6.39087 35.1425 7.22546C33.9632 8.05253 33.0503 9.23298 32.5101 10.6089C31.9699 11.9849 31.8329 13.4961 32.1068 14.9623C32.3883 16.421 33.0655 17.7593 34.0698 18.8119C35.0741 19.8646 36.3522 20.5788 37.7369 20.8646C39.1216 21.1503 40.5672 20.9999 41.8758 20.436C43.1845 19.8646 44.3029 18.9022 45.0865 17.6616C45.8702 16.421 46.2886 14.9698 46.2886 13.4811C46.2886 12.4886 46.0984 11.5112 45.7408 10.6014C45.3832 9.68411 44.8507 8.85704 44.1811 8.15779C43.5116 7.45854 42.7204 6.90215 41.853 6.52621C40.9857 6.15027 40.0499 5.95478 39.1064 5.95478L39.1216 5.94727ZM39.1216 17.7668C38.3152 17.7668 37.5239 17.5112 36.8544 17.045C36.1849 16.5713 35.6599 15.9022 35.348 15.1202C35.036 14.3382 34.9599 13.4736 35.1197 12.639C35.2795 11.8044 35.6675 11.0375 36.2381 10.4435C36.8087 9.842 37.5391 9.43599 38.3304 9.27057C39.1216 9.10516 39.9433 9.18787 40.6889 9.51118C41.4346 9.83448 42.0737 10.3834 42.5225 11.0901C42.9714 11.7969 43.2149 12.624 43.2149 13.4736C43.2149 14.6164 42.7812 15.7067 42.0128 16.5112C41.2444 17.3157 40.202 17.7668 39.1216 17.7668Z" fill="#878A8E"/>
<path d="M73.237 5.94727C71.8219 5.94727 70.4372 6.39087 69.2579 7.22546C68.0786 8.05253 67.1656 9.23298 66.6254 10.6089C66.0852 11.9849 65.9483 13.4961 66.2222 14.9623C66.5037 16.421 67.1808 17.7593 68.1851 18.8119C69.1894 19.8646 70.4676 20.5788 71.8523 20.8646C73.2446 21.1503 74.6826 20.9999 75.9912 20.436C77.2998 19.8646 78.4182 18.9022 79.2019 17.6616C79.9855 16.421 80.404 14.9698 80.404 13.4811C80.404 12.4886 80.2138 11.5112 79.8562 10.6014C79.4986 9.68411 78.966 8.85704 78.2965 8.15779C77.627 7.45854 76.8357 6.90215 75.9684 6.52621C75.101 6.15027 74.1652 5.95478 73.2218 5.95478L73.237 5.94727ZM73.237 17.7668C72.4305 17.7668 71.6393 17.5112 70.9697 17.045C70.3002 16.5788 69.7753 15.9022 69.4633 15.1202C69.1514 14.3382 69.0753 13.4736 69.2351 12.639C69.3948 11.8044 69.7829 11.0375 70.3535 10.4435C70.9241 9.842 71.6545 9.43599 72.4457 9.27057C73.237 9.10516 74.0587 9.18787 74.8043 9.51118C75.5499 9.83448 76.189 10.3834 76.6379 11.0901C77.0868 11.7969 77.3302 12.624 77.3302 13.4736C77.3302 14.6164 76.8966 15.7067 76.1281 16.5112C75.3597 17.3157 74.3174 17.7668 73.237 17.7668Z" fill="#878A8E"/>
</g>
<defs>
<clipPath id="clip0_56_139">
<rect width="94" height="21" fill="white"/>
</clipPath>
</defs>
</svg>
