<svg width="118" height="38" viewBox="0 0 118 38" fill="none" xmlns="http://www.w3.org/2000/svg">
<g clip-path="url(#clip0_60_401)">
<path d="M98.2866 11.4048C98.2866 11.4048 98.4885 11.4048 98.6378 11.4048C101.86 11.4506 103.511 13.4308 103.02 16.777C102.598 19.7107 102.115 22.6352 101.615 25.5505C101.536 26.0089 101.342 26.6048 101.009 26.8156C100.561 27.109 99.8935 27.2557 99.3842 27.1457C99.1032 27.0815 98.7432 26.3206 98.7959 25.9264C99.1032 23.4419 99.5159 20.9666 99.8759 18.4822C99.9637 17.868 100.034 17.2537 100.034 16.6395C100.034 15.0535 99.1735 14.2467 97.6631 14.3567C96.0298 14.4759 94.941 15.2919 94.5458 16.9695C94.1243 18.7664 93.8609 20.6091 93.5448 22.4335C93.3692 23.4602 93.2199 24.4962 93.0443 25.523C92.9916 25.8072 92.9126 26.0914 92.7808 26.3481C92.3945 27.1365 91.613 27.494 90.8139 27.2373C89.9885 26.9806 90.0763 26.2381 90.1641 25.6147C90.5153 23.1302 90.9105 20.6549 91.3144 18.1797C91.4373 17.4096 91.5339 16.6212 91.771 15.8878C92.5437 13.4858 94.098 11.1297 98.2866 11.4048Z" fill="#878A8E"/>
<path d="M20.9516 27.4393C20.7057 27.4393 20.4511 27.4302 20.2052 27.4393C17.1143 27.6227 15.8147 25.0374 16.0781 22.6446C16.4293 19.5093 17.0001 16.4014 17.4918 13.2844C17.5357 13.0002 17.6411 12.716 17.7641 12.4593C18.1504 11.6526 18.9934 11.2675 19.731 11.6068C20.4423 11.9276 20.4423 12.606 20.3369 13.2844C19.9505 15.8239 19.5554 18.3633 19.1602 20.9028C19.1427 21.0036 19.1251 21.0953 19.1163 21.1961C18.8617 23.0113 19.2393 23.9556 20.3984 24.3681C21.7067 24.8265 23.5157 24.1848 24.1479 22.9105C24.5255 22.1404 24.7801 21.2786 24.9382 20.4169C25.3333 18.2075 25.6319 15.9797 25.9919 13.7612C26.0622 13.3486 26.1675 12.9269 26.3256 12.5419C26.6856 11.6893 27.5637 11.2767 28.3452 11.5976C29.1355 11.9185 29.1004 12.6519 29.0038 13.3394C28.7667 14.953 28.4945 16.5573 28.2311 18.1616C28.0379 19.3168 27.8447 20.4719 27.6428 21.627C26.8964 25.7525 24.9382 27.4577 20.9604 27.4485L20.9516 27.4393Z" fill="#878A8E"/>
<path d="M33.2364 27.2184C32.2968 27.2184 31.3661 27.2184 30.4265 27.2184C29.8557 27.2184 29.2323 27.2734 29.1181 26.4666C29.0039 25.6874 29.1005 24.9265 29.8557 24.5231C30.1982 24.3397 30.6284 24.2756 31.0236 24.2664C32.5252 24.2389 34.0267 24.2572 35.5195 24.2572C35.7039 24.2572 35.8971 24.2572 36.0815 24.2389C36.8542 24.1289 37.7411 24.1014 37.9343 23.0838C38.1187 22.1028 37.3986 21.5986 36.6874 21.2411C35.5371 20.6543 34.3253 20.2051 33.1925 19.5909C30.9358 18.3716 30.2596 16.5197 31.1816 14.2461C31.7349 12.8801 32.7359 11.9542 34.1321 11.835C36.2132 11.6517 38.3031 11.6608 40.393 11.6242C41.0779 11.615 41.4994 12.0184 41.4994 12.7885C41.4994 13.7327 40.9199 14.4845 40.0593 14.5212C38.6543 14.5762 37.2494 14.5487 35.8444 14.567C35.4405 14.567 35.0278 14.5578 34.6326 14.6403C33.6228 14.8695 33.3067 15.8963 34.0706 16.6206C34.5624 17.0881 35.2122 17.3998 35.8181 17.7207C36.8191 18.2524 37.8816 18.6558 38.8475 19.2517C40.5071 20.2785 41.0955 21.6994 40.7706 23.533C40.4193 25.5132 39.4622 26.6133 37.5304 26.9434C36.1254 27.1817 34.6765 27.2 33.254 27.3101C33.254 27.2734 33.254 27.2459 33.254 27.2092L33.2364 27.2184Z" fill="#878A8E"/>
<path d="M51.4834 11.5968C52.2298 11.5968 52.985 11.5968 53.7314 11.5968C54.4251 11.5968 55.0661 11.6976 55.2154 12.5869C55.3471 13.3753 54.8729 14.3379 54.1704 14.5671C53.7314 14.7138 53.2484 14.7321 52.7918 14.7413C51.6327 14.7688 50.456 14.6221 49.3321 14.8055C48.4891 14.9522 47.5495 15.328 46.9436 15.9239C45.5386 17.3174 45.3981 19.1601 45.9865 21.0028C46.5748 22.8547 48.0412 23.634 49.7711 23.9182C50.5965 24.0557 51.4483 24.0465 52.2913 24.1382C52.8708 24.2023 53.5294 24.1657 53.6436 25.0274C53.7577 25.935 53.3626 26.7235 52.5371 26.9251C50.6756 27.4019 48.814 27.3102 47.0051 26.6501C44.2917 25.6783 42.8692 23.6248 42.6058 20.682C42.2721 16.8499 44.0722 13.3478 47.0665 12.0919C47.7515 11.8077 48.5066 11.6793 49.2442 11.5968C49.9819 11.5143 50.7458 11.5785 51.4922 11.5785L51.4834 11.5968Z" fill="#878A8E"/>
<path d="M60.0009 4.44565C61.1073 4.14312 62.2049 3.79474 63.3289 3.56555C64.4529 3.34553 65.6032 3.24468 66.7623 3.20801C63.9875 3.47388 61.3531 4.24396 59.0174 5.83913C57.6651 6.76507 56.3831 7.81935 55.1713 8.93781C54.5917 9.4787 54.0561 9.79957 53.2833 9.75373C52.5457 9.70789 51.8081 9.74456 50.7544 9.74456C51.8345 8.5436 52.7038 7.48932 53.6609 6.55421C56.8221 3.46471 60.4311 1.18196 64.7339 0.329364C68.4482 -0.413218 71.9695 0.0359983 75.0077 2.63045C77.0537 4.37231 78.1689 6.71006 78.766 9.35035C78.7923 9.4787 78.7923 9.60705 78.7923 9.74456C78.7923 9.83624 78.7572 9.92792 78.7484 10.0196C77.4576 10.1113 77.1327 9.84541 76.7464 8.5986C75.719 5.28907 74.0681 2.5021 70.5996 1.54866C66.8852 0.531053 63.4957 1.62201 60.317 3.62973C60.1326 3.74891 60.0184 3.9781 59.8691 4.16145L60.0009 4.46398V4.44565Z" fill="#878A8E"/>
<path d="M52.1244 33.2883C52.6688 33.5358 53.2045 33.7833 53.7489 34.0308C56.8135 35.4335 59.8518 35.0301 62.8373 33.7833C64.1018 33.2516 65.3136 32.564 66.6132 31.9223C66.78 32.6373 66.9644 33.3708 67.0961 34.1133C67.1225 34.2417 66.9556 34.4801 66.8239 34.5626C62.5651 37.2945 58.0604 38.9264 53.0289 37.4412C48.9193 36.2219 45.7933 32.2156 45.5825 28.2002C46.6889 28.5119 47.7866 28.8053 48.8754 29.1261C49.0159 29.1628 49.1476 29.2911 49.2442 29.4103C50.2189 30.7121 51.1848 32.0139 52.1508 33.3249C50.7458 32.6098 49.8589 31.363 49.0247 30.0521C48.8403 29.7587 48.6032 29.4928 48.2959 29.0895C48.0412 32.069 50.9478 35.5252 54.2494 36.4328C57.0067 37.1937 61.5377 36.4053 62.17 34.9293C61.7836 34.9568 61.4675 34.9843 61.1514 34.9934C59.5093 35.0209 57.8497 35.186 56.2252 35.0301C54.75 34.8834 53.2923 34.3975 52.1332 33.2974L52.1244 33.2883Z" fill="#878A8E"/>
<path d="M83.6924 25.669C84.0085 23.6613 84.3422 21.5069 84.6759 19.3617C84.9744 17.4639 85.2554 15.5662 85.5979 13.6777C85.6857 13.1826 85.8613 12.6601 86.1335 12.2475C86.5814 11.5416 87.7141 11.2574 88.4078 11.6333C89.1454 12.0367 89.1893 12.7609 89.084 13.5035C88.8557 15.0437 88.601 16.5838 88.3551 18.124C87.9688 20.5351 87.5824 22.937 87.1785 25.339C86.9677 26.5949 86.353 27.2734 85.3608 27.3925C84.3158 27.5209 83.6836 26.9158 83.7012 25.669H83.6924Z" fill="#878A8E"/>
<path d="M71.9522 9.9279C70.0379 10.9088 69.9062 12.7882 69.5901 14.6309C68.4924 11.9631 66.8416 10.0654 64.0492 9.54286C61.3271 9.02947 59.1142 10.1663 57.0507 11.9173C56.638 11.3672 56.7609 10.9272 57.2263 10.5146C60.2646 7.87435 63.6014 6.11415 67.6933 6.92091C69.4144 7.26011 70.9072 8.14938 71.9522 9.93707V9.9279Z" fill="#878A8E"/>
<path d="M65.1555 29.4098C60.844 32.4259 55.4524 32.2701 53.5732 29.5931C54.3284 28.7405 55.0046 27.9704 55.7158 27.1729C56.7432 28.3463 58.5697 29.1072 60.7123 29.0706C60.8088 29.0706 60.8967 29.0706 60.9932 29.0614C62.4421 28.878 63.9086 28.2455 65.1555 29.4098Z" fill="#878A8E"/>
<path d="M88.6449 5.30767C89.681 5.30767 90.2255 5.90357 90.2079 7.03119C90.1903 8.5897 89.242 9.72649 87.9512 9.74483C86.9589 9.76316 86.3442 9.11226 86.3354 8.03047C86.3179 6.44446 87.2926 5.2985 88.6536 5.30767H88.6449Z" fill="#878A8E"/>
<path d="M53.8455 16.6674C53.6435 18.5743 53.4416 20.4262 53.222 22.4064C53.345 22.3422 53.2923 22.4064 53.2396 22.3881C51.1848 22.0672 51.1673 22.0672 51.6063 19.922C51.7644 19.161 52.0541 18.4276 52.2561 17.6851C52.5108 16.7408 53.0991 16.5024 53.8455 16.6674Z" fill="#878A8E"/>
<path d="M48.4099 21.1686C47.523 20.6827 47.1718 19.2525 47.6284 18.0149C48.006 16.979 48.7436 16.5664 49.7359 16.8598C49.2968 18.2899 48.8578 19.7293 48.4099 21.1686Z" fill="#878A8E"/>
<path d="M73.2516 5.35352C74.3054 6.63699 75.3591 7.92046 76.404 9.21311C76.3074 9.33229 76.2108 9.46063 76.1143 9.57981C75.886 9.42396 75.5786 9.33228 75.4381 9.11226C74.6566 7.9113 73.919 6.68283 73.1638 5.46353C73.1902 5.42686 73.2165 5.39019 73.2429 5.35352H73.2516Z" fill="#878A8E"/>
<path d="M13.4701 13.88C14.5239 12.1015 15.042 10.1946 14.1112 8.21437C13.2418 6.37166 11.4768 6.01412 9.73819 5.88578C8.14882 5.7666 6.55066 5.84911 4.95251 5.84911C3.7495 5.84911 3.17873 6.29832 2.9153 7.54513C2.68699 8.62691 2.55528 9.72703 2.37965 10.818C1.58936 15.686 0.807842 20.5357 0.0438894 25.3946C-0.158075 26.6506 0.272197 27.1914 1.48398 27.2098C3.48607 27.2373 5.48815 27.2281 7.49024 27.2098C8.05222 27.2098 8.61421 27.1731 9.16742 27.0631C14.0409 26.0455 15.8937 18.4822 12.3637 15.2643C12.7677 14.7693 13.1804 14.3659 13.4701 13.8708V13.88ZM11.0554 20.9391C10.8622 22.6259 9.77331 23.8086 8.09613 23.9369C6.76141 24.0469 5.40912 24.0011 4.06562 24.0103C3.85487 24.0103 3.64413 23.9461 3.33679 23.8911C3.68803 21.5808 4.03049 19.3989 4.35539 17.2079C4.4432 16.6486 4.67151 16.3186 5.28619 16.4011C6.48919 16.5661 7.73611 16.5386 8.88643 16.887C10.5812 17.4004 11.2749 18.8855 11.0466 20.9299L11.0554 20.9391ZM9.95772 13.3758C9.0357 13.7241 8.02588 13.8066 7.05996 14.0083C5.67255 13.9044 5.06373 13.1527 5.2335 11.7531C5.29497 11.2672 5.38278 10.7905 5.45303 10.3046C5.68134 8.77359 5.68134 8.76443 7.19168 8.79193C7.91173 8.8011 8.63178 8.79193 9.34304 8.87444C10.59 9.03029 11.2837 9.63536 11.4505 10.6071C11.6349 11.7072 11.0554 12.9632 9.95772 13.3758Z" fill="#878A8E"/>
<path d="M78.1515 11.9634C76.5621 11.5233 74.8235 11.5967 73.1551 11.6058C72.2067 11.6058 71.7237 12.3576 71.5657 13.3568C70.7842 18.4357 69.9587 23.5146 69.1685 28.6027C68.9665 29.9228 68.7557 31.243 68.6679 32.5723C68.6416 32.9757 68.9314 33.6907 69.1948 33.7549C69.669 33.8741 70.3627 33.7732 70.7227 33.4615C71.1091 33.1407 71.2935 32.4806 71.4252 31.9305C71.6359 31.078 71.715 30.1979 71.8555 29.3361C72.0955 27.9182 72.918 27.2275 74.3229 27.2642C75.0693 27.2 75.8333 27.2275 76.5533 27.0625C80.3116 26.2099 82.6913 23.0104 82.7089 18.8391C82.7264 15.3187 81.2073 12.816 78.1251 11.9634H78.1515ZM79.6004 20.471C79.5565 20.6818 79.5038 20.8927 79.4423 21.1127C79.2755 21.6719 79.0208 22.1578 78.6871 22.5704C78.4149 22.9096 78.0725 23.1938 77.6861 23.4321C77.6071 23.4871 77.5368 23.5421 77.449 23.5971C77.2646 23.698 77.0802 23.7897 76.887 23.863C76.6938 23.9363 76.5094 24.0005 76.3162 24.0555C75.9299 24.1564 75.5435 24.2205 75.1484 24.248C74.7532 24.2755 74.3493 24.2847 73.9366 24.2664C73.5239 24.2572 73.1112 24.2297 72.6897 24.2022C72.8741 22.9921 73.0497 21.8369 73.2165 20.691C73.278 20.2601 73.3482 19.8292 73.4097 19.4075C73.6292 18.0232 73.9015 16.6572 74.0683 15.2637C74.1122 14.897 74.2088 14.6862 74.3756 14.567C74.402 14.5486 74.4371 14.5303 74.4634 14.5211C74.5776 14.4661 74.7269 14.4386 74.8937 14.4478C74.964 14.4478 75.043 14.4478 75.122 14.457C78.3622 14.7687 80.2063 17.3173 79.574 20.4801L79.6004 20.471Z" fill="#878A8E"/>
<path d="M117.666 15.1179C116.551 11.2217 112.459 9.98405 109.079 12.4777C105.961 14.7787 104.644 18.0424 104.969 21.9754C105.188 24.5881 106.787 26.66 108.929 27.1093C110.615 27.4668 112.292 27.3109 113.908 26.1283C114.119 27.1001 114.637 27.3843 115.401 27.3018C116.191 27.2193 116.621 26.7242 116.859 25.9908C116.938 25.7433 117.008 25.4957 117.052 25.2391C117.368 23.2497 117.789 21.2695 117.947 19.2617C118.062 17.8957 118.044 16.4198 117.666 15.1179ZM115.216 18.1249C115.199 20.206 114.514 22.0212 113.012 23.4055C110.914 25.3399 108.587 24.5606 107.875 21.7553C107.252 19.3167 108.578 15.8789 110.633 14.5679C112.679 13.2661 114.892 14.4579 115.208 17.0432C115.252 17.3915 115.208 17.7582 115.208 18.1158L115.216 18.1249Z" fill="#878A8E"/>
<path d="M52.1243 33.288C53.2834 34.3882 54.7411 34.874 56.2163 35.0207C57.8408 35.1766 59.5004 35.0207 61.1425 34.9841C61.4586 34.9841 61.7835 34.9474 62.1611 34.9199C61.5289 36.3959 56.9978 37.1751 54.2406 36.4234C50.9477 35.5158 48.0411 32.0596 48.287 29.0801C48.5943 29.4835 48.8314 29.7493 49.0158 30.0427C49.8588 31.3445 50.7369 32.6005 52.1419 33.3155L52.1156 33.288H52.1243Z" fill="#878A8E"/>
<path d="M76.2284 16.749C76.4128 16.7949 76.5709 16.804 76.7026 16.8682C77.6334 17.3358 78.169 18.4909 77.9671 19.5635C77.6158 21.3695 76.9485 22.1579 75.7367 22.2955C75.0605 22.3688 74.7971 22.1488 74.9639 21.4245C75.1571 20.6361 75.2976 19.8385 75.4996 19.0593C75.7015 18.3167 75.9562 17.5924 76.2284 16.749Z" fill="#878A8E"/>
<path d="M65.5507 12.0459C63.4872 10.7258 61.3973 11.12 59.4391 12.3943C56.3921 14.3745 54.6007 18.6283 55.2242 22.3137C55.7774 25.5866 57.8058 27.3651 60.9933 27.1634C62.0207 27.0992 63.0218 26.6408 64.1194 26.3291C64.6199 27.2917 65.5244 27.6218 66.2795 26.98C66.6308 26.6775 66.9381 26.1549 67.0171 25.6874C67.4562 23.1846 67.9743 20.6818 68.1762 18.1607C68.3782 15.713 67.7109 13.4302 65.5507 12.0551V12.0459ZM62.6705 23.863C60.6333 25.3024 58.3766 24.2206 57.9726 21.672C57.639 19.5634 58.1219 17.6565 59.3162 15.9513C60.4138 14.3837 62.0119 13.6777 63.3379 14.1178C64.6902 14.567 65.498 16.0613 65.4892 18.5733C65.34 20.4252 64.6111 22.4879 62.6793 23.8539L62.6705 23.863Z" fill="#878A8E"/>
</g>
<defs>
<clipPath id="clip0_60_401">
<rect width="118" height="38" fill="white"/>
</clipPath>
</defs>
</svg>
