<svg width="102" height="42" viewBox="0 0 102 42" fill="none" xmlns="http://www.w3.org/2000/svg">
<g clip-path="url(#clip0_60_381)">
<path d="M42.721 27.5852C38.9638 27.5852 36.606 29.3416 36.606 32.3284L36.5908 37.2108C36.5756 40.4993 39.2604 41.9772 42.8199 41.9772C46.3793 41.9772 48.1286 40.6928 48.6382 39.1298L47.0334 38.2864C46.4326 39.3387 45.3982 40.1047 42.8275 40.1047C40.599 40.1047 38.4238 39.6327 38.4238 37.2418V35.5472H48.836V32.3284C48.8512 29.2411 46.3489 27.5852 42.721 27.5852ZM47.0106 33.6747H38.4314V32.3284C38.4314 30.4481 39.8689 29.4577 42.7058 29.4577C45.5427 29.4577 47.0182 30.4791 47.0106 32.3284V33.6825V33.6747ZM51.4523 41.7838H53.3385V23.167H51.4523V41.7838ZM27.4183 24.4979H26.673C22.642 24.5288 19.9343 26.6335 19.9343 29.7363V36.7388C19.9343 39.8494 22.6191 41.9463 26.6197 41.985H27.3651C31.4417 41.985 34.1722 39.8803 34.1722 36.7388V32.8545H27.7073V34.5646H32.2327V36.3984C32.2327 38.7971 30.415 40.2285 27.3651 40.2285H26.6197C23.6763 40.1976 21.851 38.7352 21.851 36.3984V30.0767C21.851 27.7167 23.6307 26.293 26.6197 26.2466H27.4107C30.3846 26.2466 32.3088 27.4691 32.3088 29.3571V29.6666H34.1798V29.0089C34.1798 26.3472 31.3961 24.4901 27.4183 24.4901V24.4979ZM56.1907 41.7838H58.0845V27.7786H56.1907V41.7838ZM58.1606 25.5347C58.1606 25.6663 58.1377 25.7978 58.0845 25.9216C58.0313 26.0454 57.9552 26.1537 57.8639 26.2466C57.7727 26.3394 57.6586 26.4168 57.5293 26.4632C57.4076 26.5174 57.2707 26.5406 57.1414 26.5406C57.0045 26.5406 56.8752 26.5174 56.7535 26.4632C56.6318 26.4091 56.5177 26.3394 56.4189 26.2466C56.3276 26.1537 56.2515 26.0377 56.1983 25.9216C56.1451 25.7978 56.1222 25.6663 56.1222 25.5347C56.1222 25.2639 56.2287 25.0086 56.4189 24.8151C56.609 24.6217 56.8676 24.5211 57.1414 24.5211C57.4152 24.5211 57.6738 24.6294 57.8639 24.8151C58.0541 25.0086 58.1606 25.2639 58.1606 25.5347ZM94.3028 27.7013C90.7738 27.7013 88.0357 29.0631 88.0281 32.2974V41.7761H89.9144V32.282C89.9144 29.8446 92.7132 29.5738 94.3104 29.5738V27.7013H94.3028ZM102 39.9422C99.6801 39.9422 97.657 39.4238 97.6646 37.2108V29.6511H101.338V27.7786H97.6722V25.5115H95.7783V37.1954C95.7555 40.5458 98.3262 41.8225 102 41.8225V39.9422ZM79.6771 27.5852C76.11 27.5852 74.7106 28.8542 73.8739 30.2934L75.5015 31.1213C76.11 30.1077 77.3269 29.45 79.6695 29.45C82.2326 29.45 83.8678 30.2392 83.8678 32.2046V33.6747H77.943C75.4787 33.6747 73.4708 34.9282 73.4708 37.4739C73.4708 40.4297 75.5928 42.0004 79.5782 42.0004C83.1909 42.0004 85.678 40.7315 85.6932 37.234L85.7084 32.2046C85.7236 28.7691 82.7194 27.5852 79.6771 27.5852ZM83.8754 37.2418C83.8754 39.8571 81.4948 40.1357 79.5934 40.1357C77.4638 40.1357 75.3038 39.6792 75.3114 37.4894C75.3114 36.0811 76.4979 35.5472 77.9506 35.5472H83.8754V37.2418ZM66.6333 29.45C68.7477 29.45 70.0939 29.8755 70.6871 31.2219L72.3528 30.394C71.577 28.947 70.2688 27.5852 66.6409 27.5852C63.013 27.5852 60.5792 29.094 60.5792 32.3052L60.564 37.234C60.564 40.5767 63.2336 41.9772 66.6029 41.9772C69.3638 41.9772 71.288 41.157 72.2767 39.2226L70.6795 38.3328C69.9114 39.7024 68.7325 40.1047 66.6105 40.1047C64.1995 40.1047 62.4045 39.2845 62.4045 37.2418L62.4198 32.2897C62.435 30.0922 64.2451 29.4577 66.6485 29.4577L66.6333 29.45Z" fill="#878A8E"/>
<path d="M100.319 25.6815H100.524V25.0625H100.745L101.11 25.6738H101.331L100.95 25.0471C100.996 25.0471 101.049 25.0393 101.095 25.0161C101.141 24.9929 101.179 24.9697 101.217 24.931C101.247 24.8923 101.277 24.8536 101.293 24.8072C101.308 24.7608 101.315 24.7143 101.308 24.6602C101.308 24.3894 101.156 24.2578 100.836 24.2578H100.319V25.6815ZM100.524 24.4435H100.806C100.943 24.4435 101.095 24.4745 101.095 24.6602C101.095 24.8846 100.935 24.8923 100.745 24.8923H100.524V24.4435Z" fill="#878A8E"/>
<path d="M100.76 23.7391C100.593 23.7391 100.433 23.7623 100.281 23.8242C100.129 23.8861 99.9922 23.9712 99.8705 24.0873C99.7564 24.2034 99.6575 24.3349 99.5967 24.4897C99.5358 24.6367 99.4978 24.7992 99.4978 24.9617C99.4978 25.1241 99.5282 25.2944 99.5891 25.4414C99.6499 25.5961 99.7412 25.7354 99.8629 25.8515C99.977 25.9676 100.121 26.0604 100.274 26.1223C100.426 26.1842 100.593 26.2152 100.76 26.2152C100.928 26.2152 101.087 26.1842 101.24 26.1146C101.392 26.0527 101.529 25.9598 101.643 25.8438C101.757 25.7277 101.848 25.5884 101.909 25.4337C101.97 25.2789 102 25.1164 102 24.9539C102 24.6289 101.871 24.3194 101.635 24.0873C101.407 23.8552 101.087 23.7236 100.76 23.7236V23.7391ZM100.76 26.0604C100.616 26.0604 100.471 26.0372 100.334 25.983C100.198 25.9289 100.076 25.8515 99.977 25.7432C99.8705 25.6426 99.7944 25.5188 99.7412 25.3872C99.6879 25.2557 99.6575 25.1087 99.6575 24.9694C99.6575 24.8301 99.6879 24.6831 99.7412 24.5516C99.7944 24.42 99.8781 24.304 99.9846 24.2034C100.091 24.1028 100.213 24.0254 100.342 23.9712C100.479 23.9171 100.616 23.8939 100.76 23.8939C101.049 23.8939 101.323 24.0099 101.529 24.2111C101.734 24.4123 101.848 24.6908 101.848 24.9771C101.848 25.1164 101.825 25.2634 101.772 25.395C101.719 25.5265 101.635 25.6503 101.536 25.7509C101.437 25.8515 101.316 25.9366 101.179 25.9908C101.049 26.0449 100.905 26.0759 100.76 26.0759V26.0604Z" fill="#878A8E"/>
<path d="M10.61 32.7608C12.4506 31.0972 12.1312 27.7159 11.4999 25.4023C11.2489 29.3253 7.3472 30.4859 5.63591 28.095C4.08435 25.9362 6.26719 23.5066 8.25988 21.8043C13.9642 16.945 12.2681 11.0412 8.29791 9.67937C6.44212 9.04488 5.33929 8.81275 4.43421 8.49551C3.53674 8.17053 1.96997 7.38903 1.20179 6.06589C0.380378 4.62668 0.152207 2.39824 2.28941 0.943558C2.17532 0.889394 1.7418 1.16021 1.52884 1.33818C-0.441037 2.94761 -0.555123 6.24385 1.45278 7.88424C3.07279 9.20737 6.43451 9.83413 8.19143 10.5383C12.481 12.2483 12.7472 17.5408 7.73509 20.9067C5.75761 22.2376 3.54435 23.9708 2.50997 26.1606C0.981228 29.4104 3.05758 33.1786 5.87169 33.8673C7.73509 34.3238 9.28665 33.9447 10.61 32.7531" fill="#878A8E"/>
<path d="M39.0247 10.0973C39.656 14.4613 36.6517 18.8795 32.2328 19.1658C27.464 19.4753 22.4519 14.6315 18.7023 15.0571C14.9527 15.4749 12.5873 18.1522 12.7698 21.1776C12.9371 24.025 15.2112 27.8706 14.4659 30.7955C13.6749 33.8983 10.0926 36.1732 6.88301 35.1518C6.82977 35.1363 6.82217 35.0589 6.86019 35.0667C7.70443 35.1982 8.56387 35.1363 9.38528 34.8887C10.1991 34.6411 10.9521 34.2155 11.5833 33.6429C13.6217 31.7859 12.8839 28.2653 12.4276 26.3773C12.0929 24.9922 11.8267 24.025 11.6594 22.8412C11.4388 21.2782 11.454 20.28 12.0701 18.7325C13.249 15.8309 18.0025 12.8519 22.4747 14.4768C24.9846 15.3898 26.7719 16.8832 29.3959 16.682C33.1379 16.3725 35.4424 11.2966 31.9058 8.30985C30.8257 7.40455 28.1333 6.50698 25.9581 8.13189C28.3995 5.44692 31.6396 3.53572 35.0773 4.98266C36.2258 5.43918 38.5988 7.06409 39.0323 10.0895" fill="#878A8E"/>
<path d="M9.00509 1.65558C10.0927 3.15668 10.2676 5.9345 10.724 7.82249C10.9674 8.94445 11.5758 9.95035 12.4505 10.6932C14.6333 12.5038 17.0291 12.5192 19.0826 11.6062C22.6117 10.0432 24.8401 4.58041 29.1145 2.72337C30.05 2.32102 31.0616 2.12758 32.0732 2.14305C33.0847 2.15853 34.0887 2.40613 35.009 2.84718C35.2067 2.94003 35.3284 3.05609 35.3284 3.13347C31.8602 1.74843 28.8103 3.81438 26.1711 6.4684C24.9999 7.64453 24.4523 8.37187 23.2582 9.5093C22.2466 10.4765 20.8624 11.4979 19.3945 12.0163C17.3714 12.7282 14.9603 13.3549 12.0093 10.8324C10.4197 9.47061 9.33974 7.72964 8.48029 5.63273C7.61325 3.53583 5.35435 3.95366 4.67745 5.37739C4.12984 6.5303 5.10337 7.68321 5.8183 8.22485C4.57097 7.72964 3.02701 7.07194 2.22841 5.77201C1.36136 4.36376 0.973472 2.22816 3.07264 0.727059C4.7459 -0.371688 7.57522 -0.348475 9.0279 1.65558" fill="#878A8E"/>
</g>
<defs>
<clipPath id="clip0_60_381">
<rect width="102" height="42" fill="white"/>
</clipPath>
</defs>
</svg>
