<svg width="109" height="32" viewBox="0 0 109 32" fill="none" xmlns="http://www.w3.org/2000/svg">
<g clip-path="url(#clip0_60_397)">
<path d="M2.94214 30.1275H2.26502L2.46565 28.6484H1.74673L1.5461 30.1275H0.86062L1.06125 28.6484H0.208576L0.292172 27.9559H1.16156L1.25352 27.2635H0.384127L0.467722 26.571H1.33711L1.52938 25.2202H2.21486L2.03096 26.571H2.74152L2.93378 25.2202H3.62763L3.43536 26.571H4.35491L4.26295 27.2635H3.32668L3.23473 27.9559H4.15428L4.07068 28.6484H3.14277L2.92543 30.1275H2.94214ZM2.65792 27.2635H1.94736L1.84705 27.9559H2.56597L2.65792 27.2635ZM5.1407 30.5122V24.7671H6.6705L8.1167 28.8878L9.53782 24.7585H11.076V30.5036H10.031L10.0645 25.9041L8.49288 30.5036H7.74888L6.16893 25.9041L6.20236 30.5036H5.16578L5.1407 30.5122ZM12.8649 28.7168C12.9234 29.3409 13.4584 29.8111 14.077 29.7684C14.495 29.794 14.8796 29.5718 15.0802 29.1956H16.1001C15.9245 29.6316 15.6319 29.9992 15.2557 30.2643C14.9046 30.5122 14.4867 30.6404 14.0603 30.6319C12.8398 30.6319 11.845 29.6231 11.8367 28.3749C11.8367 27.1267 12.8231 26.1093 14.0436 26.1007C14.6288 26.0922 15.1889 26.323 15.5985 26.7505C16.0917 27.2635 16.3174 27.9901 16.2171 28.6997H12.8649V28.7168ZM15.239 27.9474C15.1387 27.366 14.6288 26.9557 14.052 26.9813C13.4752 26.9471 12.9736 27.366 12.8733 27.9474H15.2307H15.239ZM22.5035 28.5886C22.1356 29.8197 21.0155 30.6404 19.7532 30.6233C18.1398 30.6746 16.8023 29.3751 16.7521 27.7337C16.7019 26.0836 17.9726 24.7158 19.5776 24.6645C19.6361 24.6645 19.6947 24.6645 19.7532 24.6645C21.0155 24.6559 22.1356 25.4937 22.5118 26.7248H21.308C21.0238 26.0922 20.4136 25.6818 19.7365 25.6818C18.6414 25.6818 17.9392 26.6223 17.9392 27.6396C17.9392 28.657 18.6748 29.6145 19.7448 29.6145C20.4136 29.606 21.0155 29.2127 21.308 28.5971H22.5035V28.5886ZM23.0552 28.3663C23.0468 27.1096 24.0416 26.0751 25.2705 26.0666C26.4993 26.058 27.5108 27.0754 27.5192 28.3321C27.5275 29.5889 26.5328 30.6233 25.3039 30.6319C25.3039 30.6319 25.2955 30.6319 25.2872 30.6319C24.0918 30.6661 23.097 29.7085 23.0552 28.486C23.0552 28.4433 23.0552 28.4005 23.0552 28.3663ZM24.05 28.3834C24.0834 29.0845 24.6602 29.6231 25.3373 29.5889C26.0228 29.5547 26.5495 28.9648 26.516 28.2723C26.4826 27.5969 25.9476 27.0668 25.2872 27.0668C24.6101 27.0668 24.05 27.6225 24.05 28.3236C24.05 28.3407 24.05 28.3663 24.05 28.3834ZM28.3384 26.2461H29.2747V26.7932C29.5338 26.3658 29.9936 26.1093 30.4785 26.1178C30.863 26.1007 31.2392 26.2632 31.4983 26.5539C31.5986 26.6735 31.6822 26.8018 31.7491 26.9386C31.8327 26.7932 31.933 26.6565 32.05 26.5368C32.6687 25.9725 33.6049 25.9725 34.2235 26.5368C34.5997 26.9386 34.6749 27.2891 34.6749 28.1782V30.5122H33.6718V28.2124C33.6885 27.9388 33.63 27.6653 33.5046 27.4173C33.3792 27.178 33.1201 27.0326 32.8526 27.0583C32.56 27.0412 32.2841 27.1865 32.1336 27.443C32.025 27.6653 31.9748 27.9132 31.9915 28.1526V30.4865H31.0051V28.1526C31.0135 27.9132 30.9717 27.6653 30.8797 27.4515C30.746 27.1951 30.4701 27.0412 30.1859 27.0583C29.8933 27.0412 29.6174 27.1951 29.4753 27.4515C29.3666 27.6824 29.3081 27.9303 29.3165 28.1868V30.4951H28.3217V26.2375H28.3384V26.2461ZM35.6781 26.2461H36.6227V26.8702C36.9571 26.3829 37.5088 26.1007 38.094 26.1178C39.5486 26.1178 40.1672 27.3831 40.1672 28.4176C40.1672 29.6316 39.3228 30.649 38.1024 30.649C37.5423 30.6832 37.0073 30.4181 36.6812 29.9479V31.9998H35.6864V26.2461H35.6781ZM39.1557 28.3749C39.1724 27.6653 38.6206 27.0754 37.9268 27.0668C37.9101 27.0668 37.8934 27.0668 37.885 27.0668C37.5423 27.0668 37.2162 27.2036 36.9822 27.4515C36.7481 27.708 36.6227 28.0414 36.6227 28.392C36.6144 29.1015 37.1661 29.6829 37.8599 29.7C37.8683 29.7 37.8766 29.7 37.8934 29.7C38.5872 29.7 39.1557 29.1443 39.164 28.4347C39.164 28.4176 39.164 28.4091 39.164 28.392L39.1557 28.3749ZM40.9613 26.2461H41.9059V26.7932C42.1149 26.3401 42.5747 26.0666 43.0596 26.1007V27.1267H43.0178C42.3239 27.1267 41.9645 27.4601 41.9645 28.1953V30.4951H40.9697V26.2461H40.9613ZM43.2435 28.3663C43.2351 27.1096 44.2299 26.0751 45.4587 26.0666C46.6876 26.058 47.6991 27.0754 47.7075 28.3321C47.7158 29.5889 46.721 30.6233 45.4922 30.6319C45.4922 30.6319 45.4838 30.6319 45.4755 30.6319C44.2801 30.6661 43.2853 29.7085 43.2435 28.486C43.2435 28.4433 43.2435 28.4005 43.2435 28.3663ZM44.2383 28.3834C44.2633 29.0845 44.8401 29.6231 45.5173 29.5974C46.2027 29.5718 46.7294 28.9819 46.7043 28.2894C46.6792 27.614 46.1359 27.0754 45.4755 27.0754C44.7983 27.0754 44.2383 27.6311 44.2383 28.3321C44.2383 28.3492 44.2383 28.3749 44.2383 28.392V28.3834ZM48.51 26.2461H49.4546V26.7932C49.7137 26.3658 50.1735 26.1093 50.6667 26.1264C51.0513 26.1093 51.4275 26.2717 51.6866 26.5624C51.7869 26.6821 51.8705 26.8103 51.9374 26.9471C52.021 26.8018 52.1213 26.665 52.2383 26.5453C52.8569 25.9811 53.7932 25.9811 54.4118 26.5453C54.788 26.9471 54.8632 27.2976 54.8632 28.1868V30.5207H53.8684V28.2124C53.8852 27.9388 53.8266 27.6653 53.7012 27.4173C53.5759 27.1694 53.3083 27.0326 53.0408 27.0583C52.7483 27.0412 52.4724 27.1865 52.3219 27.443C52.2132 27.6653 52.1631 27.9132 52.1798 28.1526V30.4865H51.185V28.1526C51.1934 27.9132 51.1516 27.6653 51.0596 27.4515C50.9259 27.1951 50.6584 27.0412 50.3741 27.0583C50.0816 27.0412 49.8057 27.1951 49.6636 27.4515C49.5549 27.6824 49.4964 27.9303 49.5048 28.1868V30.4951H48.51V26.2375V26.2461ZM56.602 28.7168C56.6605 29.3409 57.1955 29.8111 57.8141 29.7684C58.2321 29.794 58.6167 29.5718 58.8173 29.1956H59.8371C59.6616 29.6316 59.369 29.9992 58.9928 30.2643C58.6417 30.5122 58.2238 30.6404 57.7974 30.6319C56.5769 30.6319 55.5821 29.6231 55.5738 28.3749C55.5654 27.1267 56.5602 26.1093 57.7807 26.1007C58.3659 26.0922 58.926 26.323 59.3356 26.7505C59.8288 27.2635 60.0545 27.9901 59.9542 28.6997H56.5936L56.602 28.7168ZM58.9761 27.9474C58.8758 27.366 58.3659 26.9557 57.7891 26.9813C57.2122 26.9471 56.7107 27.366 56.6104 27.9474H58.9678H58.9761ZM61.0326 27.0326H60.3471V26.2461H61.0326V24.7671H62.019V26.2461H62.7295V27.0326H62.019V30.5122H61.0326V27.0412V27.0326ZM62.9469 28.3663C62.9385 27.1096 63.9333 26.0751 65.1622 26.0666C66.391 26.058 67.4025 27.0754 67.4109 28.3321C67.4192 29.5889 66.4245 30.6233 65.1956 30.6319C65.1956 30.6319 65.1872 30.6319 65.1789 30.6319C63.9835 30.6661 62.9887 29.7085 62.9469 28.486C62.9469 28.4433 62.9469 28.4005 62.9469 28.3663ZM63.9417 28.3834C63.9668 29.0845 64.5436 29.6231 65.2207 29.5974C65.9062 29.5718 66.4328 28.9819 66.4077 28.2894C66.3827 27.614 65.8393 27.0754 65.1789 27.0754C64.5018 27.0754 63.9417 27.6311 63.9417 28.3321C63.9417 28.3492 63.9417 28.3749 63.9417 28.392V28.3834ZM69.0159 30.5122H67.7871L70.0609 24.7671H71.0556L73.2793 30.5122H72.0421L71.6408 29.3837H69.4255L69.0159 30.5122ZM70.5123 26.1435L69.7098 28.4689H71.3148L70.5123 26.1435ZM78.9638 28.5886C78.5959 29.8197 77.4758 30.6404 76.2135 30.6233C74.6001 30.6746 73.2626 29.3751 73.2124 27.7337C73.1622 26.0836 74.4329 24.7158 76.0379 24.6645C76.0964 24.6645 76.155 24.6645 76.2135 24.6645C77.4758 24.6559 78.5959 25.4937 78.9721 26.7248H77.7767C77.4925 26.0922 76.8822 25.6818 76.2051 25.6818C75.11 25.6818 74.4078 26.6223 74.4078 27.6396C74.4078 28.657 75.1435 29.6145 76.2135 29.6145C76.8822 29.606 77.4841 29.2127 77.7767 28.5971H78.9638V28.5886ZM83.5782 30.5122H82.642V29.9479C82.3828 30.4267 81.8729 30.7003 81.3462 30.649C79.9836 30.649 79.7245 29.5803 79.7245 28.828V26.2461H80.7276V28.5629C80.7276 29.1956 80.9366 29.6915 81.6388 29.6829C82.341 29.6744 82.5918 29.2041 82.5918 28.5886V26.2461H83.5866V30.5122H83.5782ZM84.6065 24.7671H85.6012V25.6733H84.6065V24.7671ZM84.6065 26.2546H85.6012V30.5207H84.6065V26.2546ZM90.8845 30.5122H89.9315V29.8966C89.6305 30.401 89.0788 30.6917 88.502 30.6404C87.223 30.6404 86.3954 29.6145 86.3954 28.3749C86.3954 27.007 87.3567 26.1178 88.4936 26.1178C89.0454 26.0922 89.572 26.3487 89.8897 26.8018V24.7671H90.8845V30.5122ZM87.3985 28.3749C87.3735 29.0759 87.9168 29.6658 88.6023 29.6829C88.6274 29.6829 88.6525 29.6829 88.6775 29.6829C89.0203 29.6829 89.3547 29.5461 89.6055 29.2982C90.0819 28.7681 90.0736 27.9559 89.5887 27.4344C89.3463 27.1951 89.0203 27.0583 88.6859 27.0668C88.0004 27.0497 87.4236 27.5969 87.4069 28.2979C87.4069 28.3236 87.4069 28.3407 87.4069 28.3663L87.3985 28.3749ZM96.2178 30.5122H95.2231V29.8966C94.9221 30.3839 94.3955 30.6746 93.827 30.6404C92.4895 30.6404 91.7121 29.5803 91.7121 28.3749C91.6535 27.1865 92.5564 26.1777 93.7183 26.1178C93.7518 26.1178 93.7936 26.1178 93.827 26.1178C94.3955 26.0922 94.9305 26.3743 95.2314 26.8702V26.2375H96.2262V30.5036L96.2178 30.5122ZM92.6901 28.4005C92.6818 29.1101 93.2335 29.6915 93.9273 29.7C93.9357 29.7 93.9524 29.7 93.9608 29.7C94.4289 29.7171 94.8636 29.4521 95.0726 29.0161C95.1646 28.828 95.2231 28.6228 95.2314 28.4176C95.2398 28.2124 95.198 28.0072 95.1144 27.8192C94.9138 27.3489 94.454 27.0497 93.9524 27.0668C93.2586 27.0668 92.6985 27.6311 92.6901 28.3407C92.6901 28.3578 92.6901 28.3749 92.6901 28.392V28.4005ZM97.2293 26.2461H98.174V26.7932C98.383 26.3401 98.8427 26.0666 99.3276 26.1007V27.1267H99.2858C98.5919 27.1267 98.2325 27.4601 98.2325 28.1953V30.4951H97.2377V26.2461H97.2293ZM100.364 27.0326H99.6787V26.2461H100.364V24.7671H101.359V26.2461H102.07V27.0326H101.359V30.5122H100.364V27.0412V27.0326ZM103.248 28.7168C103.307 29.3409 103.842 29.8111 104.46 29.7684C104.878 29.794 105.263 29.5718 105.463 29.1956H106.483C106.308 29.6316 106.015 29.9992 105.639 30.2643C105.288 30.5122 104.87 30.6404 104.444 30.6319C103.223 30.6319 102.228 29.6231 102.22 28.3749C102.212 27.1267 103.206 26.1093 104.427 26.1007C105.012 26.0922 105.572 26.323 105.982 26.7505C106.475 27.2635 106.701 27.9901 106.6 28.6997H103.248V28.7168ZM105.622 27.9474C105.522 27.366 105.012 26.9557 104.435 26.9813C103.858 26.9471 103.357 27.366 103.257 27.9474H105.614H105.622ZM27.1848 12.9861V13.6359C27.1764 13.9864 27.2099 14.3284 27.2851 14.6703C27.3436 14.9097 27.469 15.1235 27.6529 15.2773C27.8619 15.4398 28.1043 15.5424 28.3635 15.5766C28.7313 15.6364 29.0991 15.6621 29.467 15.6535H41.3041V18.5859H29.467C27.2851 18.5859 25.7386 18.1585 24.8023 17.3121C23.8744 16.4571 23.4063 15.1064 23.4063 13.2426V10.0024C23.3896 9.1304 23.4899 8.26692 23.6989 7.42054C23.8661 6.7708 24.2172 6.1809 24.7104 5.73633C25.2705 5.27467 25.9225 4.95835 26.6247 4.81301C27.6195 4.60783 28.631 4.51379 29.6425 4.53943H36.28C37.1076 4.51379 37.9268 4.60783 38.7293 4.81301C39.2978 4.95835 39.8244 5.23193 40.2758 5.59955C40.6437 5.92442 40.9279 6.34333 41.0783 6.81355C41.2372 7.3094 41.3124 7.83091 41.3041 8.35242V12.969H27.1848V12.9861ZM37.5255 8.68584C37.5255 8.21563 37.4085 7.90785 37.1828 7.75397C36.8066 7.56588 36.397 7.48894 35.979 7.52314H29.6927C29.2914 7.52314 28.8985 7.54023 28.4972 7.59153C28.2214 7.61718 27.9539 7.71977 27.7282 7.89076C27.5192 8.06174 27.3771 8.30112 27.3102 8.56615C27.2182 8.95942 27.1764 9.35268 27.1848 9.7545V10.5068H37.5255V8.69439V8.68584ZM58.8089 18.5945V10.7633C58.8173 10.276 58.7755 9.79725 58.6668 9.32704C58.5916 8.99361 58.4244 8.68584 58.182 8.44646C57.9145 8.20708 57.5884 8.05319 57.2457 7.99335C56.7525 7.89931 56.2425 7.85656 55.741 7.86511H51.6281C51.1265 7.86511 50.6333 7.89931 50.1484 7.99335C49.7973 8.05319 49.4713 8.21563 49.1955 8.44646C48.9447 8.68584 48.7775 8.98506 48.7022 9.32704C48.6019 9.79725 48.5518 10.2846 48.5601 10.7633V18.5945H44.7816V10.6351C44.7649 9.67756 44.8652 8.71149 45.0993 7.77962C45.2748 7.06147 45.6427 6.41173 46.1693 5.89877C46.7461 5.38581 47.4483 5.02674 48.2007 4.86431C49.2373 4.62493 50.3073 4.51379 51.3689 4.53943H55.9583C57.0283 4.51379 58.1067 4.62493 59.1517 4.86431C59.904 5.02674 60.5979 5.38581 61.1747 5.89877C61.7013 6.41173 62.0691 7.06147 62.2447 7.77962C62.4704 8.71149 62.5791 9.66901 62.5624 10.6351V18.5945H58.8089ZM65.9062 18.5945V3.7871C65.9062 2.36791 66.2656 1.38474 66.9929 0.829041C67.7202 0.273337 68.8236 -0.000240725 70.3116 0.00830857H74.692V2.74408H70.8885C70.412 2.74408 70.0943 2.82957 69.9271 2.99201C69.7599 3.15445 69.6763 3.46222 69.6763 3.90679V4.53088H74.667V7.66847H69.6763V18.5859H65.8978L65.9062 18.5945ZM80.1926 18.5945C79.365 18.6116 78.5374 18.5175 77.7349 18.3209C77.1748 18.1927 76.6565 17.9362 76.1968 17.5857C75.8289 17.2864 75.5447 16.8761 75.3942 16.4144C75.2354 15.9185 75.1602 15.397 75.1685 14.8755V13.5589C75.1685 13.0289 75.2354 12.4988 75.3859 11.9944C75.528 11.5413 75.7871 11.1395 76.1382 10.8232C76.5646 10.4726 77.0578 10.2247 77.5928 10.0965C78.3535 9.91694 79.1393 9.83145 79.9251 9.84854H90.0819V9.54077C90.0819 8.64309 89.9064 8.04464 89.5469 7.73687C89.1875 7.42909 88.5939 7.28376 87.7496 7.28376H78.0191V4.54798H87.758C88.7026 4.53088 89.6389 4.63348 90.5584 4.85576C91.2523 5.02674 91.896 5.34307 92.4477 5.80473C92.9409 6.23219 93.3087 6.7879 93.5177 7.412C93.7601 8.15578 93.8772 8.94232 93.8605 9.72885V13.1315C93.8772 13.995 93.7769 14.8584 93.5679 15.6963C93.4007 16.346 93.0496 16.9359 92.5564 17.3805C92.0046 17.8507 91.3359 18.167 90.6337 18.2952C89.6389 18.4919 88.619 18.5859 87.6075 18.5688H80.201L80.1926 18.5945ZM90.0819 12.2338H80.3264C79.9585 12.2167 79.5907 12.3193 79.2898 12.533C79.039 12.7297 78.9136 13.1058 78.9136 13.6615V14.619C78.9136 15.1235 79.0474 15.4654 79.3232 15.6535C79.666 15.8587 80.0672 15.9527 80.4685 15.9271H87.5657C87.9503 15.9271 88.3348 15.9014 88.711 15.8245C89.0036 15.7732 89.2711 15.645 89.4968 15.4483C89.7141 15.2431 89.873 14.9781 89.9566 14.6789C90.0652 14.2685 90.1237 13.8411 90.107 13.405V12.2252L90.0819 12.2338ZM96.6024 18.5945V10.447C96.5857 9.53222 96.7027 8.62599 96.9618 7.75397C97.1708 7.05292 97.5637 6.42028 98.0904 5.92442C98.6588 5.42001 99.3443 5.06094 100.08 4.87286C101.05 4.63348 102.044 4.51379 103.048 4.53943H105.505V7.67702H103.148C102.705 7.67702 102.262 7.71122 101.827 7.80526C101.509 7.87366 101.217 8.02754 100.974 8.24128C100.74 8.48066 100.582 8.77133 100.506 9.09621C100.406 9.54077 100.356 10.0024 100.364 10.4641V18.5945H96.594H96.6024ZM3.97037 4.90705C4.0456 4.57363 4.20443 4.27441 4.4385 4.02648C4.69765 3.7871 5.00695 3.62466 5.34969 3.55626C5.81783 3.45367 6.30268 3.40238 6.77917 3.41093H20.0458V-0.000240725H6.59526C5.5336 -0.0173393 4.46358 0.0938015 3.427 0.324632C2.67464 0.495618 1.9808 0.846139 1.40399 1.36765C0.877339 1.8806 0.50952 2.53035 0.333969 3.24849C0.0999025 4.17181 -0.00877152 5.12079 -0.000411983 6.06976V12.5245C-0.0171311 13.482 0.0831834 14.4395 0.31725 15.3628C0.492801 16.0724 0.86062 16.7222 1.38727 17.2266C1.96408 17.7395 2.66628 18.0986 3.41028 18.261C4.45522 18.5004 5.51688 18.6116 6.5869 18.5945H13.3999C14.4783 18.6201 15.5567 18.509 16.61 18.2696C17.3623 18.0986 18.0645 17.7395 18.6497 17.2266C19.168 16.7222 19.5442 16.0724 19.7197 15.3628C19.9538 14.4395 20.0625 13.482 20.0458 12.5245V7.21536H8.60991V10.6693H16.1837V12.2252C16.192 12.7382 16.1419 13.2426 16.0332 13.747C15.9078 14.4652 15.3393 15.0123 14.6371 15.1149C14.1857 15.2004 13.7259 15.2431 13.2662 15.2346H6.75409C6.2776 15.2346 5.80111 15.2004 5.34133 15.1064C5.00695 15.0465 4.68929 14.9012 4.43014 14.6789C4.18772 14.4481 4.02052 14.1403 3.94529 13.8069C3.84497 13.3367 3.79482 12.8493 3.80318 12.3706V6.25784C3.79482 5.80473 3.83661 5.35162 3.94529 4.90705" fill="#878A8E"/>
<path d="M105.472 11.6191H105.765C105.865 11.6191 105.974 11.6191 106.074 11.6448C106.216 11.6619 106.367 11.6961 106.5 11.7388C106.785 11.8158 107.052 11.9355 107.303 12.0894C107.57 12.2518 107.813 12.4399 108.03 12.6707C108.172 12.8246 108.306 12.987 108.423 13.1666C108.59 13.423 108.724 13.6966 108.816 13.9873C108.891 14.2181 108.95 14.449 108.975 14.6883C108.975 14.7995 109 14.9106 109 15.0132C109 15.1158 109 15.2611 109 15.3808C108.992 15.5433 108.967 15.7057 108.925 15.8681C108.858 16.1588 108.758 16.4409 108.624 16.706C108.49 16.971 108.323 17.2104 108.131 17.4327C107.813 17.7917 107.428 18.0739 106.994 18.2705C106.718 18.3987 106.425 18.4928 106.116 18.5441C105.974 18.5697 105.832 18.5783 105.69 18.5783C105.514 18.5783 105.33 18.5783 105.155 18.5526C104.987 18.527 104.829 18.4928 104.67 18.45C104.11 18.2876 103.591 17.9798 103.182 17.5523C103.09 17.4498 102.998 17.3472 102.914 17.236C102.689 16.9368 102.505 16.6119 102.379 16.2529C102.312 16.0648 102.262 15.8767 102.237 15.6801C102.22 15.5604 102.204 15.4492 102.195 15.3295V14.9192C102.195 14.8679 102.195 14.808 102.195 14.7567C102.212 14.6285 102.229 14.4832 102.254 14.3635C102.304 14.107 102.388 13.8591 102.488 13.6197C102.63 13.3204 102.806 13.0469 103.023 12.7989C103.173 12.6194 103.349 12.457 103.533 12.3202C103.675 12.209 103.825 12.1065 103.976 12.021C104.151 11.9184 104.335 11.8414 104.528 11.7816C104.695 11.7217 104.862 11.679 105.038 11.6533C105.146 11.6362 105.255 11.6277 105.364 11.6191C105.397 11.6191 105.43 11.6191 105.464 11.6191M102.722 15.0987C102.722 16.7231 104.009 18.0482 105.598 18.0482C107.186 18.0482 108.482 16.7316 108.482 15.1073C108.482 13.4829 107.194 12.1577 105.606 12.1577C104.018 12.1577 102.722 13.4743 102.722 15.0987Z" fill="#878A8E"/>
<path d="M106.258 15.4832C106.509 15.8936 106.768 16.3039 107.019 16.7057H106.517C106.517 16.7057 106.492 16.7057 106.484 16.6886L105.807 15.5943L105.773 15.5345C105.773 15.5345 105.765 15.5174 105.748 15.5174H105.079V16.6972H104.544V13.4912H105.924C106.091 13.4912 106.258 13.5169 106.417 13.5682C106.526 13.6024 106.626 13.6536 106.718 13.7135C106.776 13.7562 106.827 13.8075 106.877 13.8674C106.952 13.9529 107.01 14.0555 107.036 14.1666C107.061 14.2692 107.077 14.3803 107.086 14.4829C107.086 14.577 107.086 14.6625 107.061 14.7565C107.044 14.8249 107.027 14.9018 107.002 14.9702C106.96 15.0728 106.893 15.1669 106.81 15.2438C106.684 15.355 106.526 15.4319 106.367 15.4661C106.333 15.4746 106.292 15.4917 106.258 15.5003M105.071 15.0899H105.874C105.924 15.0899 105.982 15.0814 106.032 15.0643C106.091 15.0643 106.149 15.0301 106.216 15.0044C106.266 14.9959 106.308 14.9702 106.35 14.9446C106.434 14.8847 106.501 14.7907 106.542 14.6967C106.576 14.5855 106.584 14.4744 106.559 14.3547C106.551 14.2692 106.509 14.1923 106.442 14.141C106.384 14.0982 106.325 14.0555 106.267 14.0213C106.225 13.9871 106.183 13.9614 106.133 13.9443H106.041C105.982 13.9358 105.915 13.9272 105.857 13.9187H105.079V15.0728L105.071 15.0899Z" fill="#878A8E"/>
</g>
<defs>
<clipPath id="clip0_60_397">
<rect width="109" height="32" fill="white"/>
</clipPath>
</defs>
</svg>
