<svg width="99" height="34" viewBox="0 0 99 34" fill="none" xmlns="http://www.w3.org/2000/svg">
<g clip-path="url(#clip0_56_90)">
<path d="M44.1694 14.6858H36.7022V8.10547H31.9667V25.964H36.7022V18.8084H44.1694V25.964H48.8877V8.10547H44.1694V14.6858Z" fill="#878A8E"/>
<path d="M59.4976 7.63567C54.2997 7.63567 50.8059 11.3398 50.8059 16.9005C50.8059 22.4611 54.274 26.3657 59.6518 26.3657C63.9591 26.3657 66.9134 24.335 68.0266 20.4652H62.9144C62.452 21.8946 61.373 22.5831 59.7545 22.5831C57.314 22.5831 55.8497 21.0927 55.7212 18.4954H68.0266V17.345C68.0266 11.3311 64.7212 7.62695 59.4634 7.62695H59.4976V7.63567ZM55.687 14.9394C56.0809 12.5339 57.3739 11.2701 59.4634 11.2701C59.9429 11.244 60.4139 11.3224 60.8592 11.5054C61.3045 11.6885 61.707 11.9499 62.0495 12.2899C62.392 12.6298 62.6575 13.0481 62.8373 13.5013C63.0171 13.9546 63.1028 14.4426 63.0942 14.9394H55.687Z" fill="#878A8E"/>
<path d="M76.0932 7.9571C74.4234 8.29701 70.1332 9.63051 70.1332 16.3939V25.9638H74.9201V18.0848C74.9201 15.165 75.3054 13.7879 76.4957 12.9076C77.3606 12.2539 78.4139 11.9315 79.4843 11.975C79.921 11.975 80.3578 12.0186 80.7859 12.1145V8.03554C79.2531 7.63462 77.6518 7.60847 76.1104 7.9571H76.0932Z" fill="#878A8E"/>
<path d="M90.2312 7.63477C84.862 7.63477 81.411 11.3128 81.411 17.0216C81.411 22.7304 84.8792 26.3387 90.2312 26.3387C95.5833 26.3387 99 22.6607 99 17.0216C99 11.3825 95.5319 7.63477 90.2312 7.63477ZM90.2312 22.6781C87.705 22.6781 86.2407 20.5253 86.2407 17.039C86.2407 13.5527 87.6794 11.4 90.2312 11.4C92.7831 11.4 94.1874 13.4394 94.1874 17.0042C94.1874 20.5689 92.7403 22.6607 90.2312 22.6607V22.6781Z" fill="#878A8E"/>
<path d="M20.6032 29.023V17.832L13.1018 23.4014L20.6032 29.023Z" fill="#878A8E"/>
<path d="M0 28.3695L7.50143 33.9999V10.6941L0 4.97656V28.3695Z" fill="#878A8E"/>
<path d="M13.1018 0V16.2984L20.6032 10.9295V5.71751L13.1018 0Z" fill="#878A8E"/>
</g>
<defs>
<clipPath id="clip0_56_90">
<rect width="99" height="34" fill="white"/>
</clipPath>
</defs>
</svg>
