<svg width="102" height="46" viewBox="0 0 102 46" fill="none" xmlns="http://www.w3.org/2000/svg">
<g clip-path="url(#clip0_60_441)">
<path d="M17.2439 45.821C16.4388 45.8569 15.6407 45.7277 14.8915 45.4262C14.1424 45.1247 13.4633 44.6724 12.8962 44.0838C12.3291 43.4952 11.888 42.7988 11.601 42.0236C11.3139 41.2483 11.1809 40.4299 11.2229 39.5972C11.2229 36.0295 13.3933 33.3447 16.9709 33.3447C18.1471 33.3806 19.3023 33.6606 20.3665 34.1559L19.6593 35.9649C18.8052 35.5485 17.881 35.3188 16.9359 35.2901C14.6605 35.2901 13.5263 37.257 13.5263 39.4034C13.5263 41.9877 14.8355 43.9043 17.524 43.9043C18.3291 43.8972 19.1272 43.6962 19.8484 43.3301L20.3945 45.0385C19.4143 45.541 18.3361 45.8066 17.2439 45.821Z" fill="#878A8E"/>
<path d="M24.9942 45.8205C22.3828 45.8205 20.6675 43.8033 20.6675 41.1975C20.6675 38.5917 22.3618 36.5674 24.9942 36.5674C27.6266 36.5674 29.3209 38.5343 29.3209 41.1975C29.3209 43.8608 27.6406 45.8205 24.9942 45.8205ZM24.9942 38.4338C23.4609 38.4338 22.9639 39.891 22.9639 41.2334C22.9639 42.5758 23.4609 44.0187 24.9942 44.0187C26.5275 44.0187 27.0315 42.583 27.0315 41.2334C27.0315 39.8839 26.5275 38.4338 24.9942 38.4338Z" fill="#878A8E"/>
<path d="M36.0701 45.655V40.0916C36.0841 39.8619 36.0491 39.6322 35.9651 39.424C35.8811 39.2087 35.7551 39.022 35.587 38.8641C35.426 38.7062 35.23 38.5913 35.0129 38.5267C34.8029 38.4549 34.5789 38.4406 34.3548 38.4693C33.7597 38.4908 33.1716 38.62 32.6185 38.8498C32.6255 38.9718 32.6255 39.101 32.6185 39.223V45.6478H30.5462V38.7205C30.5252 38.3042 30.4832 37.8878 30.4202 37.4787C31.6734 36.969 32.9966 36.6675 34.3408 36.5957C36.4412 36.5957 38.0934 37.3064 38.0934 39.7543V45.6478H36.0631L36.0701 45.655Z" fill="#878A8E"/>
<path d="M42.9031 45.9715C41.3348 45.9715 40.2496 45.2321 40.2496 43.5164V38.6279L39.2625 38.5776V36.8978L40.2496 36.8404V34.4141H42.315V36.8404H44.7234V38.6853H42.315V43.3872C42.315 43.94 42.588 44.1553 43.1061 44.1553C43.6312 44.1266 44.1493 44.0046 44.6393 43.7964L45.2064 45.5192C44.4713 45.8136 43.6872 45.9787 42.9031 46.0074" fill="#878A8E"/>
<path d="M50.8985 38.6214C50.5274 38.5137 50.1423 38.4491 49.7573 38.4419C49.2322 38.4419 48.7141 38.5209 48.21 38.6788C48.21 38.7362 48.21 38.7936 48.21 38.8511V45.6563H46.1377V38.9085C46.1097 38.4563 46.0607 38.0112 45.9836 37.5661C47.2158 36.9847 48.5461 36.6545 49.9043 36.5898C50.4364 36.5898 50.9685 36.6545 51.4866 36.7837L50.9055 38.6214H50.8985Z" fill="#878A8E"/>
<path d="M55.7782 45.8205C53.1668 45.8205 51.4585 43.8033 51.4585 41.1975C51.4585 38.5917 53.1388 36.5674 55.7782 36.5674C58.4177 36.5674 60.1049 38.5343 60.1049 41.1975C60.1049 43.8608 58.3967 45.8205 55.7782 45.8205ZM55.7782 38.4338C54.245 38.4338 53.7479 39.891 53.7479 41.2334C53.7479 42.5758 54.245 44.0187 55.7782 44.0187C57.3115 44.0187 57.8086 42.583 57.8086 41.2406C57.8086 39.8982 57.2765 38.4338 55.7782 38.4338Z" fill="#878A8E"/>
<path d="M63.3957 32.6553H61.3303V45.6556H63.3957V32.6553Z" fill="#878A8E"/>
<path d="M67.4142 45.8206C66.4411 45.799 65.4819 45.6052 64.5718 45.2391L65.1669 43.5737C65.818 43.8824 66.5181 44.0618 67.2392 44.1049C67.8903 44.1049 68.5484 43.9111 68.5484 43.1286C68.5484 41.5493 64.7888 42.0375 64.7888 39.1015C64.7888 37.2781 66.6231 36.5459 67.9813 36.5459C68.8355 36.5459 69.6826 36.7254 70.4668 37.0771L69.8787 38.7282C69.2696 38.4913 68.6325 38.3549 67.9813 38.319C67.4563 38.319 66.9102 38.4769 66.9102 39.1158C66.9102 40.6089 70.8308 39.927 70.8308 43.143C70.8308 45.1099 68.9685 45.8277 67.4002 45.8277" fill="#878A8E"/>
<path d="M2.26138 30.8175C1.7713 30.9897 1.03617 31.1979 0.378063 31.3774L0 29.4607C0.441074 29.3889 0.882147 29.2812 1.30922 29.1449C2.49942 28.7141 2.61844 27.8025 2.61844 26.4027V17.3721H4.76079V26.0653C4.76079 28.4557 4.41774 30.0422 2.29638 30.8175" fill="#878A8E"/>
<path d="M10.3338 29.5822C7.72237 29.5822 6.00708 27.6009 6.00708 24.9593C6.00708 22.3176 7.69436 20.3291 10.3338 20.3291C12.9732 20.3291 14.6325 22.3104 14.6325 24.9593C14.6325 27.6081 12.9452 29.5822 10.3058 29.5822H10.3338ZM10.3058 22.1955C8.77954 22.1955 8.27546 23.6456 8.27546 24.9951C8.27546 26.3447 8.77954 27.7661 10.3058 27.7661C11.8321 27.7661 12.3361 26.3375 12.3361 24.9951C12.3361 23.6528 11.8391 22.1955 10.3058 22.1955Z" fill="#878A8E"/>
<path d="M21.4935 29.3886V23.7894C21.5145 23.5812 21.4935 23.373 21.4235 23.1792C21.3604 22.9854 21.2554 22.8059 21.1224 22.6552C20.9894 22.5044 20.8214 22.3824 20.6323 22.3034C20.4503 22.2245 20.2473 22.1814 20.0442 22.1886C19.3441 22.2388 18.672 22.4685 18.0839 22.8634V29.4174H16.0186V16.3955H18.0839V20.9252C18.889 20.5591 19.7572 20.3581 20.6393 20.3437C22.5997 20.3437 23.5798 21.5138 23.5798 23.4807V29.3958H21.4865L21.4935 29.3886Z" fill="#878A8E"/>
<path d="M30.7982 29.3887V23.8254C30.8122 23.5957 30.7772 23.366 30.6932 23.1578C30.6092 22.9424 30.4831 22.7558 30.3221 22.5979C30.1611 22.4399 29.9651 22.3251 29.755 22.2533C29.545 22.1815 29.321 22.16 29.0969 22.1887C28.4948 22.2174 27.9067 22.3466 27.3536 22.5763C27.3746 22.6984 27.3886 22.8276 27.3956 22.9496V29.3744H25.3233V22.4471C25.3023 22.0308 25.2603 21.6144 25.1973 21.2052C26.4505 20.6884 27.7737 20.3941 29.1179 20.3223C31.2183 20.3223 32.8705 21.0258 32.8705 23.4736V29.3672H30.7912L30.7982 29.3887Z" fill="#878A8E"/>
<path d="M36.9033 29.5823C35.9301 29.5607 34.9709 29.3669 34.0608 29.0008L34.6629 27.3354C35.314 27.6441 36.0141 27.8235 36.7352 27.8666C37.3863 27.8666 38.0445 27.6728 38.0445 26.8903C38.0445 25.311 34.2848 25.792 34.2848 22.8632C34.2848 21.0398 36.1121 20.3148 37.4774 20.3076C38.3315 20.3076 39.1716 20.4871 39.9558 20.8388L39.3747 22.4899C38.7726 22.2458 38.1285 22.1094 37.4774 22.0807C36.9523 22.0807 36.4062 22.2386 36.4062 22.8775C36.4062 24.3635 40.3268 23.6887 40.3268 26.9047C40.3268 28.8716 38.4645 29.5895 36.8963 29.5895" fill="#878A8E"/>
<path d="M45.5776 29.5822C42.9662 29.5822 41.2439 27.6009 41.2439 24.9593C41.2439 22.3176 42.9382 20.3363 45.5776 20.3291C48.2171 20.3291 49.9043 22.3104 49.9043 24.9593C49.9043 27.6081 48.2101 29.5822 45.5776 29.5822ZM45.5776 22.1955C44.0444 22.1955 43.5473 23.6456 43.5473 24.9951C43.5473 26.3447 44.0444 27.7661 45.5776 27.7661C47.1109 27.7661 47.608 26.3375 47.608 24.9951C47.608 23.6528 47.1039 22.1883 45.5776 22.1955Z" fill="#878A8E"/>
<path d="M56.7305 29.3884V23.825C56.7445 23.5953 56.7095 23.3656 56.6255 23.1574C56.5415 22.9421 56.4154 22.7554 56.2544 22.5975C56.0934 22.4396 55.8973 22.3247 55.6873 22.2529C55.4773 22.1812 55.2532 22.1596 55.0292 22.1955C54.4341 22.2242 53.846 22.3534 53.2929 22.5832C53.2929 22.5832 53.3279 22.8344 53.3279 22.9564V29.3812H51.2696V22.4539C51.2486 22.0376 51.2066 21.6212 51.1436 21.2121C52.3968 20.6952 53.72 20.4009 55.0642 20.3291C57.1576 20.3291 58.8168 21.0398 58.8168 23.4877V29.3812H56.7305V29.3884Z" fill="#878A8E"/>
<path d="M97.4352 4.94627C97.2111 4.70937 96.9871 4.47966 96.7421 4.27148C94.4037 5.36262 92.2893 6.91318 90.539 8.84421C90.7491 10.2799 90.8891 11.73 90.9591 13.18C91.1761 18.327 90.441 22.627 88.9988 26.1229C90.126 28.0898 91.6592 29.784 93.4935 31.0833C94.0396 30.7818 94.5647 30.4516 95.0758 30.0855C92.1633 26.6398 90.6861 22.1532 90.9661 17.5948C91.1271 15.1398 91.7852 12.7493 92.9054 10.5742C94.0186 8.39914 95.5659 6.48965 97.4492 4.96062" fill="#878A8E"/>
<path d="M93.7035 2.02422C93.4165 1.85912 93.1294 1.70119 92.8284 1.55762C91.6312 2.12472 90.49 2.7995 89.4048 3.57478C89.6218 4.32853 89.8179 5.08945 89.9859 5.87191C91.1551 4.52953 92.3943 3.25175 93.7035 2.05294" fill="#878A8E"/>
<path d="M89.0408 32.6984C89.7059 32.562 90.357 32.3825 91.0011 32.16C89.8949 30.8965 88.8798 29.5542 87.9766 28.1328C87.5285 28.9512 87.0244 29.7336 86.4644 30.4802C87.2555 31.277 88.1096 32.0092 89.0128 32.6768" fill="#878A8E"/>
<path d="M101.566 12.6992C99.9346 14.0847 98.8214 16.0157 98.4154 18.1549C98.0513 20.4664 98.5484 22.8425 99.8156 24.7879C101.244 22.2682 102 19.3968 102 16.4823C102 15.2117 101.853 13.9411 101.566 12.6992Z" fill="#878A8E"/>
<path d="M96.63 17.8605C96.9381 14.5727 98.1773 11.4572 100.194 8.88731C100.033 8.57146 99.8646 8.26278 99.6895 7.9541C95.7129 10.1938 93.1574 13.7256 92.7654 18.0256C92.4293 21.8517 94.1726 25.6922 97.0361 28.4273C97.4772 27.9965 97.8972 27.5299 98.2893 27.049C96.8541 24.2278 96.28 21.019 96.637 17.8533" fill="#878A8E"/>
<path d="M74.7515 4.58691C71.888 7.42243 70.1517 11.2558 69.8787 15.3332C72.5531 12.6915 74.2264 8.4705 74.7515 4.58691Z" fill="#878A8E"/>
<path d="M77.923 2.16797C77.678 2.31872 77.433 2.46947 77.1949 2.63457C75.6617 10.0787 73.1272 15.0032 70.0117 18.7863C70.1237 19.6118 70.2918 20.4301 70.5228 21.2341C77.0969 17.0778 78.4761 7.80311 77.944 2.17515" fill="#878A8E"/>
<path d="M91.0011 13.1725C90.8331 8.70745 89.9229 4.30701 88.3126 0.157825C88.0046 0.107575 87.6895 0.0788614 87.3815 0.0429688C88.8167 12.5767 87.4235 24.6581 80.2893 31.9874C81.5915 32.4899 82.9568 32.8201 84.336 32.9565C88.7187 28.994 91.4002 22.4256 91.0081 13.194" fill="#878A8E"/>
<path d="M84.7352 0C84.4342 0 84.1261 0.0502497 83.8251 0.0933208C84.1121 8.25531 82.7749 21.7868 74.9336 28.5634C75.6617 29.2669 76.4529 29.8914 77.3 30.4441C87.4517 23.3446 87.4027 9.4613 84.7352 0Z" fill="#878A8E"/>
<path d="M81.1786 0.681641C80.9125 0.767783 80.6465 0.853925 80.3805 0.954425C79.9184 9.34612 77.727 18.2906 71.594 24.0119C71.9931 24.8158 72.4551 25.5839 72.9802 26.3018C81.2976 21.1404 82.9919 8.90823 81.1786 0.681641Z" fill="#878A8E"/>
</g>
<defs>
<clipPath id="clip0_60_441">
<rect width="102" height="46" fill="white"/>
</clipPath>
</defs>
</svg>
