<svg width="131" height="21" viewBox="0 0 131 21" fill="none" xmlns="http://www.w3.org/2000/svg">
<g clip-path="url(#clip0_56_127)">
<path d="M128.658 1.80526H129.063C129.476 1.80526 129.605 1.68553 129.605 1.43684C129.605 1.225 129.502 1.10526 129.114 1.10526H128.658V1.80526ZM128.658 3.06711H128.322V0.819737H129.166C129.691 0.819737 129.95 1.02237 129.95 1.45526C129.95 1.86053 129.7 2.03553 129.373 2.07237L130.001 3.05789H129.631L129.046 2.08158H128.658V3.05789V3.06711ZM129.063 0.313158C128.176 0.313158 127.487 1.01316 127.487 1.93421C127.487 2.85526 128.176 3.56447 129.063 3.56447C129.95 3.56447 130.63 2.88289 130.63 1.93421C130.63 0.985526 129.941 0.313158 129.063 0.313158ZM129.063 0C130.105 0 131 0.819737 131 1.93421C131 3.04868 130.105 3.87763 129.063 3.87763C128.021 3.87763 127.117 3.05789 127.117 1.93421C127.117 0.810526 128.012 0 129.063 0Z" fill="#878A8E"/>
<path d="M27.5087 2.38477C27.5087 2.38477 25.3649 14.4413 25.3304 14.6163C23.8409 16.1729 22.4547 17.0019 21.3096 17.0019C20.8877 17.0019 20.5777 16.8821 20.3453 16.6334C20.0095 16.2834 19.8545 15.6295 19.9062 14.7637C19.9406 14.0821 20.087 12.94 20.2936 11.7795L21.9726 2.38477H18.7783L17.2285 11.0795C16.9444 12.7006 16.6774 14.3677 16.6172 15.6295C16.5225 17.49 16.9099 18.8992 17.7623 19.8019C18.4597 20.5479 19.4585 20.9256 20.7241 20.9256C22.0587 20.9256 23.6084 20.1427 25.3132 18.6321C25.3907 19.2953 25.5887 20.9992 25.5887 20.9992L28.2406 20.2163L28.275 16.1084L30.7288 2.38477H27.5087Z" fill="#878A8E"/>
<path d="M14.0084 2.38477C14.0084 2.38477 8.98876 11.9545 8.31719 13.2256C8.10194 11.8163 6.66408 2.38477 6.66408 2.38477H3.84864L0 20.6124H3.00486C3.00486 20.6124 4.5977 13.0598 5.06264 10.84C5.36398 12.9124 6.18193 18.4019 6.18193 18.4019H8.72186C8.72186 18.4019 11.5976 12.9124 12.6566 10.8861C12.295 13.244 11.1499 20.6216 11.1499 20.6216H14.0428L16.841 2.39398H14.017L14.0084 2.38477Z" fill="#878A8E"/>
<path d="M42.2317 3.22358C40.9574 2.41306 39.8123 2.07227 38.383 2.07227C36.4028 2.07227 34.4655 3.13148 32.9416 5.02884C31.7964 6.4749 30.3844 9.03542 30.195 12.9591C30.0486 15.842 30.6513 18.0802 31.917 19.4341C32.8296 20.4012 34.0781 20.9078 35.5418 20.9078C37.0054 20.9078 38.6413 20.4841 39.8209 19.7565L39.9759 19.6552L39.3301 16.2841L39.0202 16.4131C37.9095 16.892 36.9796 17.1131 36.1014 17.1131C35.3868 17.1131 34.8013 16.8736 34.3622 16.4038C33.6734 15.667 33.3548 14.3591 33.4409 12.6091C33.5356 10.7578 34.1469 8.98937 35.1285 7.76437C36.2219 6.41042 37.5479 5.93148 38.4089 5.93148C39.399 5.93148 40.0361 6.09727 40.9316 6.58542L41.2071 6.73279L42.4211 3.31569L42.2403 3.19595L42.2317 3.22358Z" fill="#878A8E"/>
<path d="M47.2254 16.9939C46.3817 16.9939 45.7187 16.736 45.2452 16.2294C44.565 15.511 44.2722 14.2768 44.367 12.582C44.5908 8.52019 46.2784 5.9965 48.758 5.9965C49.5846 5.9965 50.2561 6.2544 50.7211 6.77019C51.3927 7.49782 51.6854 8.73203 51.5821 10.436C51.4099 13.5952 50.17 16.9847 47.2082 16.9847M53.0802 3.69387C52.0987 2.64387 50.7469 2.08203 49.1799 2.08203C44.057 2.08203 41.4568 7.4794 41.1468 12.8307C40.9833 15.6768 41.5946 17.9241 42.9033 19.3241C43.8762 20.3649 45.2279 20.9268 46.8208 20.9268C51.2463 20.9268 54.4578 16.6162 54.828 10.2057C54.9916 7.3044 54.4061 5.11229 53.0888 3.70308" fill="#878A8E"/>
<path d="M65.6421 3.42677C64.342 2.57019 62.7836 2.08203 61.3802 2.08203C58.2289 2.08203 56.3347 4.05308 56.1625 7.48861C56.0764 9.23861 56.5414 10.5926 57.6348 11.7347C58.0998 12.2228 58.6164 12.6373 59.0813 12.9965L59.882 13.6597C60.4675 14.1847 60.7172 14.6728 60.6914 15.2347C60.6225 16.5978 59.486 17.0768 58.4528 17.0768C57.1441 17.0768 56.197 16.8097 55.0691 16.1004L54.785 15.9255L53.4935 19.4531L53.6657 19.5728C54.8969 20.4755 56.4811 20.9268 58.3667 20.9268C62.0345 20.9268 63.8254 18.0439 63.9631 15.1886C64.0751 12.9228 63.1624 11.6518 62.4564 10.8873C62.0259 10.4176 61.5524 10.0491 61.0874 9.68071L60.4331 9.15571C59.6582 8.49256 59.3654 7.96756 59.3913 7.33203C59.4601 6.06098 60.4933 5.87677 61.1133 5.87677C62.1981 5.87677 63.2571 6.14387 64.342 6.70572L64.6175 6.84387L65.8229 3.55572L65.6421 3.43598V3.42677Z" fill="#878A8E"/>
<path d="M71.2213 16.9939C70.3775 16.9939 69.7145 16.736 69.241 16.2294C68.5694 15.511 68.2681 14.2768 68.3628 12.582C68.5866 8.52019 70.2656 5.9965 72.7624 5.9965C73.5976 5.9965 74.252 6.2544 74.7255 6.77019C75.4057 7.49782 75.6898 8.73203 75.5865 10.436C75.4143 13.5952 74.1745 16.9847 71.2213 16.9847M77.076 3.69387C76.0945 2.64387 74.7427 2.08203 73.1671 2.08203C68.0442 2.08203 65.444 7.4794 65.1427 12.8307C64.9791 15.6768 65.5818 17.9241 66.8905 19.3241C67.8634 20.3649 69.2151 20.9268 70.808 20.9268C75.2335 20.9268 78.4536 16.6162 78.8152 10.2057C78.9788 7.3044 78.4019 5.11229 77.076 3.70308" fill="#878A8E"/>
<path d="M82.0181 16.9282L84.6269 2.38477H81.4241L78.1609 20.6124H88.2603L88.9061 16.9282H82.0181Z" fill="#878A8E"/>
<path d="M98.9022 2.38477C98.9022 2.38477 93.7621 13.2716 92.9786 14.9203C92.8753 13.1242 92.2295 2.38477 92.2295 2.38477H89.0008L90.2751 20.7229H93.2197L102.441 2.38477H98.8936H98.9022Z" fill="#878A8E"/>
<path d="M105.256 7.7929L105.695 12.785H103.061L105.256 7.7929ZM107.607 2.33105H104.731L96.0093 20.6139H99.4877C99.4877 20.6139 101.261 16.6258 101.399 16.3311H106.117C106.16 16.7732 106.531 20.6139 106.531 20.6139H109.811L107.615 2.33105H107.607Z" fill="#878A8E"/>
<path d="M123.354 2.38477C123.354 2.38477 121.615 12.194 121.322 13.8427C120.728 12.2677 116.992 2.38477 116.992 2.38477H113.866L110.603 20.6124H113.763C113.763 20.6124 115.494 10.7756 115.786 9.12687C116.38 10.7019 120.117 20.6124 120.117 20.6124H123.234L126.488 2.38477H123.329H123.354Z" fill="#878A8E"/>
</g>
<defs>
<clipPath id="clip0_56_127">
<rect width="131" height="21" fill="white"/>
</clipPath>
</defs>
</svg>
