<svg width="152" height="22" viewBox="0 0 152 22" fill="none" xmlns="http://www.w3.org/2000/svg">
<g clip-path="url(#clip0_56_98)">
<path d="M127.307 6.16069L127.671 9.94668H126.963L125.848 7.35572H122.143V20.2745L124.368 20.769V21.5313H117.343V20.769L119.569 20.2745V7.35057H115.863L114.748 9.94153H114.04L114.405 6.15553H127.296L127.307 6.16069ZM96.0818 20.7638V21.5262H89.2288V20.7638L91.4542 20.2899L89.9313 16.2773H83.9791L82.4133 20.3311L84.4242 20.7638V21.5262H79.2013V20.7638L81.1049 20.2487L81.1693 20.0633L86.6066 6.15553L88.4674 5.70224L94.1621 20.2436L96.0658 20.7587L96.0818 20.7638ZM89.4862 15.0874L86.982 8.525L84.4564 15.0874H89.4916H89.4862ZM141.506 21.0317C142.771 21.6086 144.546 22.0001 146.091 22.0001C149.539 22.0001 152 20.1921 152 17.6166C152 15.5819 151.013 14.3663 148.209 12.9446L146.327 11.9968C144.509 11.0696 143.758 10.2918 143.758 9.05556C143.758 7.55146 145.045 6.69124 146.841 6.69124C147.549 6.69124 148.3 6.83547 149.045 7.14453L150.354 9.83851H151.04L150.654 6.25855C149.753 5.94949 148.021 5.68164 146.906 5.68164C143.629 5.68164 141.597 7.26815 141.597 9.83851C141.597 11.5641 142.841 13.027 145.388 14.3044L146.997 15.108C148.815 16.0146 149.587 16.9572 149.587 18.2553C149.587 20.0015 148 21.0111 145.989 21.0111C145.024 21.0111 144.107 20.7226 142.97 20.0427L141.726 17.3075H141.061L141.511 21.0317M137.827 21.5262V20.7638L135.581 20.2693V7.41238L137.827 6.91789V6.15553H130.803V6.91789L133.05 7.41238V20.2693L130.803 20.7638V21.5262H137.827ZM113.643 20.7844V21.5262H109.445L104.688 14.4693H102.828V20.2693L104.989 20.7638V21.5262H98.4144V20.7638L100.275 20.2693V7.41238L98.4144 6.91789V6.15553C98.7791 6.15553 101.605 6.07312 104.41 6.07312C108.973 6.07312 110.812 7.86052 110.812 10.2094C110.812 13.0888 107.643 13.8718 107.085 14.016L111.348 20.2281L113.638 20.7844H113.643ZM108.227 10.3742C108.227 7.70084 106.26 7.24755 102.833 7.24755V13.3567H103.863C106.538 13.3567 108.233 12.3471 108.233 10.3742H108.227ZM73.2599 21.794L78.8474 7.43299L80.6009 6.91789V6.15553H75.8016V6.91789L77.5551 7.35057L73.2277 18.6004L68.9217 7.38663L70.8683 6.91273V6.15038H64.3799V6.91273L66.1548 7.42784L71.8067 21.7889H73.2438L73.2599 21.794ZM63.4844 13.4391C63.4844 18.8889 59.5431 21.9949 55.1942 21.9949C50.8454 21.9949 46.9256 18.8064 46.9256 13.8512C46.9256 8.89588 50.8454 5.68679 55.1728 5.68679C60.4815 5.68679 63.4844 9.63762 63.4844 13.4442V13.4391ZM60.7013 14.2426C60.7013 10.2506 58.24 6.60882 54.8564 6.60882C51.2583 6.60882 49.6764 9.73549 49.6764 13.2948C49.6764 16.8542 51.7087 21.0935 55.5642 21.0935C59.1838 21.0935 60.7013 17.7608 60.7013 14.2426ZM44.4053 6.91789V6.15553H39.4559V6.91789L41.4024 7.35057V17.1839L32.5814 6.15553H28.4041V6.91789C28.5757 6.93849 28.7902 6.9797 28.8975 7.0003C29.3479 7.10332 30.0557 7.37117 30.4204 7.65963V20.2693L28.6669 20.7638V21.5262H33.5949V20.7638L31.6483 20.3311V8.95769L42.0137 21.7734H42.743C42.7001 21.485 42.6572 19.7182 42.6572 18.9146V7.41238L44.4106 6.91789H44.4053Z" fill="#878A8E"/>
<path d="M14.0064 9.83847L13.9474 9.97755C14.8965 10.3793 17.0253 11.971 17.0253 15.1698C17.0253 18.1831 14.3817 21.2222 10.2259 21.2222C5.0513 21.2222 3.27101 18.317 3.27101 15.6488C3.27101 12.2285 5.75912 9.95179 5.75912 6.83542C5.75912 4.66685 4.05391 2.52917 1.7642 2.1377L1.6784 2.27677C2.63289 3.25032 2.94927 4.19295 2.94927 5.1974C2.94927 8.56102 0 10.9511 0 14.8144C0 18.3737 2.58999 21.9949 10.0811 21.9949C16.7572 21.9949 20.2803 18.8528 20.2803 15.5097C20.2803 12.6458 18.1407 10.2196 14.0064 9.83847Z" fill="#878A8E"/>
<path d="M10.1669 17.2096L12.0491 0H8.11316L9.99533 17.2096H10.1669Z" fill="#878A8E"/>
</g>
<defs>
<clipPath id="clip0_56_98">
<rect width="152" height="22" fill="white"/>
</clipPath>
</defs>
</svg>
