<svg width="96" height="40" viewBox="0 0 96 40" fill="none" xmlns="http://www.w3.org/2000/svg">
<g clip-path="url(#clip0_60_371)">
<path d="M71.9019 22.6377C62.8355 27.2764 37.6717 35.7564 2.21289 26.1789C32.7943 39.9927 72.2201 34.2492 90.4787 22.6377H71.9019Z" fill="#878A8E"/>
<mask id="mask0_60_371" style="mask-type:luminance" maskUnits="userSpaceOnUse" x="2" y="22" width="89" height="13">
<path d="M71.9019 22.6377C62.8355 27.2764 37.6717 35.7564 2.21289 26.1789C32.7943 39.9927 72.2201 34.2492 90.4787 22.6377H71.9019Z" fill="white"/>
</mask>
<g mask="url(#mask0_60_371)">
<path d="M90.4787 22.6377H2.21289V39.9927H90.4787V22.6377Z" fill="#878A8E"/>
</g>
<path d="M25.1564 15.3937C25.1564 13.4328 26.052 12.8548 27.6062 12.5988V17.3253C27.3842 17.4497 27.0955 17.5155 26.7699 17.5155C26.0816 17.5155 25.1564 17.296 25.1564 15.3864M39.9513 6.1089C39.633 6.26987 39.5442 6.47473 39.5442 6.73813V19.9446H42.9339V8.38437C43.1856 8.26731 43.4372 8.20878 43.8887 8.20878C44.7472 8.20878 45.2357 8.80142 45.2357 9.84038V19.9373H48.618V8.73557C48.8918 8.37706 49.2397 8.20146 49.669 8.20146C50.7791 8.20146 50.8975 9.37944 50.8975 9.88428V19.93H54.2873V9.50382C54.2873 7.01616 52.77 5.17237 50.4165 5.17237C49.0177 5.17237 47.9001 5.61137 47.0786 6.46742C46.3384 5.61137 45.2579 5.17237 43.8591 5.17237C42.0458 5.17237 40.5582 5.77965 39.9439 6.08695M84.025 6.1089C83.7067 6.26987 83.6179 6.47473 83.6179 6.73813V19.9446H87.0076V8.39169C87.2889 8.26731 87.5627 8.18682 88.0142 8.18682C88.8579 8.18682 89.2872 8.77215 89.2872 9.92818V19.952H92.6769V9.90623C92.6769 6.82593 91.0782 5.19432 88.0882 5.19432C86.1121 5.19432 84.6393 5.80161 84.0176 6.1089M36.0287 5.18701C35.222 5.18701 34.1636 5.36992 32.7722 5.96989C32.565 6.05769 32.4243 6.26987 32.4243 6.504V19.9593H35.814V8.30389C36.3543 7.96001 37.05 8.21609 37.4275 8.41364L37.7013 8.55997L38.1306 6.1967C38.212 5.73576 37.9604 5.56747 37.7457 5.47967C37.5311 5.38456 36.8058 5.19432 36.0213 5.19432M11.605 2.23109V19.952H14.9873V8.42096C15.2907 8.22341 15.5942 8.13561 16.0012 8.13561C16.3121 8.13561 17.2742 8.13561 17.2742 9.89892V19.952H20.6639V9.81843C20.6639 8.50876 20.3753 7.39663 19.8276 6.60643C19.1837 5.66991 18.2068 5.19432 16.9412 5.19432C16.2677 5.19432 15.6238 5.35529 14.9947 5.68454V1.81404C14.9947 1.49943 14.7356 1.24335 14.4248 1.24335C14.0103 1.24335 11.6124 1.51406 11.6124 2.23841M4.49988 2.56034C6.64621 2.56034 6.97186 5.00409 6.97186 6.46742C6.97186 7.93074 6.63141 9.04287 6.01712 9.60625C5.51384 10.0672 4.81813 10.2794 3.88559 10.2501C3.78938 10.2501 3.58214 10.2282 3.42672 10.2062V2.7652C3.74497 2.63351 4.10762 2.56034 4.50729 2.56034M72.7161 12.6866C72.7161 17.3326 74.5441 20.2154 77.475 20.2154C80.4058 20.2154 82.2413 17.3326 82.2413 12.6866C82.2413 8.04049 80.4058 5.17969 77.4602 5.17969C74.5145 5.17969 72.7161 8.05513 72.7161 12.6866ZM76.128 12.6353C76.128 9.5843 76.5572 8.16488 77.475 8.16488C78.3927 8.16488 78.8294 9.5843 78.8294 12.6353C78.8294 15.6864 78.4149 16.996 77.475 16.996C76.535 16.996 76.128 15.6059 76.128 12.6353ZM3.17508 19.9739C3.2713 19.8788 3.32311 19.8276 3.41932 19.7325V12.789C3.82638 12.8329 3.89299 12.8402 3.90779 12.8402H3.90039H3.9152C5.8913 12.9865 7.47514 12.5329 8.61491 11.4866C9.75468 10.4403 10.3912 8.66972 10.3912 6.49668C10.3912 4.07488 9.63627 0.00683594 4.55169 0.00683594C3.90779 0.00683594 3.2787 0.065369 2.66441 0.167802C2.66441 0.167802 0 0.701916 0 1.49943V19.7251C0.0962146 19.8203 0.148023 19.8715 0.244237 19.9666H3.16768L3.17508 19.9739ZM22.9435 6.11622C22.7437 6.20402 22.603 6.37962 22.603 6.60643C22.603 6.65765 22.603 6.70887 22.6252 6.75277L23.2839 9.13799L23.543 8.9697C23.9352 8.72094 24.9566 8.14293 26.0446 8.14293C27.1325 8.14293 27.5988 8.61851 27.5988 9.79648V10.2501C24.927 10.6233 21.9443 11.5964 21.9443 15.54C21.9443 18.5984 23.5578 20.208 26.607 20.208C28.3019 20.208 29.7599 19.8203 30.7073 19.1179L30.7961 19.0447V10.5208C30.7961 6.07964 28.5091 5.15042 26.5848 5.15042C25.1638 5.15042 24.0685 5.61137 23.2765 5.95525L22.9287 6.1089L22.9435 6.11622ZM58.7649 15.3937C58.7649 13.4328 59.6605 12.8548 61.2221 12.5988V17.3253C61.0001 17.4497 60.7114 17.5155 60.3784 17.5155C59.6901 17.5155 58.7649 17.296 58.7649 15.3864M56.5594 6.11622C56.3596 6.20402 56.2189 6.37962 56.2189 6.60643C56.2189 6.65765 56.2189 6.70887 56.2411 6.75277L56.8998 9.13799L57.1663 8.9697C57.5586 8.72094 58.5799 8.14293 59.6679 8.14293C60.7558 8.14293 61.2221 8.61851 61.2221 9.79648V10.2501C58.5429 10.6233 55.5676 11.5964 55.5676 15.54C55.5676 18.5984 57.1811 20.208 60.2304 20.208C61.9252 20.208 63.3832 19.8203 64.338 19.1179L64.4268 19.0447V10.5208C64.4268 6.07964 62.1325 5.15042 60.2156 5.15042C58.7945 5.15042 57.6992 5.61137 56.9073 5.95525L56.5594 6.1089V6.11622ZM72.8271 18.9203C72.3904 18.2326 72.05 17.6033 71.8057 16.6961C71.5837 16.8424 71.3024 16.996 70.9472 16.996C70.5919 16.996 70.0294 16.718 70.0294 15.6864V8.74289H71.5837V5.42114H70.022V2.13597C70.022 1.82136 69.763 1.56528 69.4448 1.56528C69.0303 1.56528 66.6323 1.84331 66.6323 2.56034V5.42114H65.5222V8.74289H66.6323V15.9717C66.6323 18.5984 67.9867 20.1861 70.0072 20.2227C71.5985 20.2519 72.7309 19.7178 73.1527 19.3959C73.0269 19.2349 72.9381 19.0959 72.8271 18.9203Z" fill="#878A8E"/>
<path d="M96 2.06281C96 2.96276 95.2747 3.65784 94.3496 3.65784C93.4244 3.65784 92.6843 2.95544 92.6843 2.06281C92.6843 1.17018 93.4244 0.482422 94.3496 0.482422C95.2747 0.482422 95.9926 1.18482 95.9926 2.06281M93.0988 2.06281C93.0988 2.76521 93.6391 3.32127 94.357 3.32127C95.0527 3.33591 95.5856 2.76521 95.5856 2.07013C95.5856 1.37505 95.0527 0.797037 94.3348 0.797037C93.6169 0.797037 93.0914 1.37505 93.0914 2.06281M94.0979 2.88228H93.7205V1.30188C93.8685 1.28725 94.0757 1.25067 94.3422 1.25067C94.6456 1.25067 94.7862 1.30188 94.8973 1.38237C94.9861 1.44822 95.0601 1.55797 95.0601 1.71893C95.0601 1.90916 94.9121 2.04086 94.7196 2.0994V2.11403C94.8751 2.16525 94.9639 2.28963 95.0083 2.50913C95.0601 2.74326 95.1045 2.82374 95.1341 2.88228H94.7418C94.69 2.82374 94.6604 2.69936 94.616 2.50913C94.579 2.34085 94.4828 2.26036 94.283 2.26036H94.1053V2.88959L94.0979 2.88228ZM94.1053 2.00428H94.283C94.4902 2.00428 94.653 1.93843 94.653 1.77015C94.653 1.63113 94.542 1.53602 94.3052 1.53602C94.2164 1.53602 94.1497 1.55065 94.1053 1.55797V2.0116V2.00428Z" fill="#878A8E"/>
</g>
<defs>
<clipPath id="clip0_60_371">
<rect width="96" height="40" fill="white"/>
</clipPath>
</defs>
</svg>
