<svg width="92" height="28" viewBox="0 0 92 28" fill="none" xmlns="http://www.w3.org/2000/svg">
<g clip-path="url(#clip0_56_144)">
<path d="M84.0769 9.58905C86.1736 9.58905 87.019 11.1563 87.019 12.2334H81.1338C81.1338 11.1435 81.9894 9.58905 84.076 9.58905M86.5443 17.0696C86.1524 17.8868 85.2554 18.4402 84.0971 18.4402C81.9094 18.4402 81.0446 16.7642 81.0216 15.2721H91.8895C91.9199 15.0616 91.9999 14.4647 91.9999 13.9993C91.9999 8.72834 88.6235 5.75195 84.0594 5.75195C79.2487 5.75195 75.8843 8.72834 75.8843 13.9993C75.8843 19.2702 79.2487 22.2466 84.0879 22.2466C88.9271 22.2466 91.0818 19.4323 91.6788 17.0686H86.5452L86.5443 17.0696Z" fill="#878A8E"/>
<path d="M8.35728 17.5104C6.40596 17.5104 5.01952 16.0073 5.01952 14.0132C5.01952 12.0191 6.32132 10.516 8.35728 10.516C10.3932 10.516 11.6941 12.1208 11.6941 14.0132C11.6941 15.9056 10.3758 17.5104 8.35728 17.5104ZM9.81732 5.91114C7.67648 5.91114 5.83924 6.926 4.89164 8.11774L4.88888 6.22143H0V27.9989H5.03976V20.2012C6.22196 21.5678 7.86784 22.0876 9.53304 22.0876C14.5259 22.0876 16.8415 18.0351 16.8415 13.9984C16.8415 9.01797 13.8672 5.91016 9.81732 5.91016" fill="#878A8E"/>
<path d="M23.5612 0H18.5012V21.7775H23.5612V0Z" fill="#878A8E"/>
<path d="M35.7714 6.22168V14.3109C35.7714 15.5372 35.6141 16.1331 35.1468 16.727C34.695 17.3011 33.9857 17.5719 33.2 17.5719C32.4144 17.5719 31.705 17.3011 31.2524 16.727C30.785 16.1331 30.6286 15.5372 30.6286 14.3109V6.22168H25.587V14.7912C25.587 17.2003 25.9311 18.7725 27.0075 20.1095C28.1465 21.5226 29.8862 22.0849 31.5891 22.0849C33.5837 22.0849 34.9655 21.2795 35.9205 20.0947L35.9242 21.7776H40.813V6.22168H35.7714Z" fill="#878A8E"/>
<path d="M57.2479 6.22266H53.8034L50.0066 10.373L46.2107 6.22266H42.7653V9.92239L46.6302 13.9996L42.7662 18.0778V21.7776H46.2107L50.0066 17.6272L53.8034 21.7776H57.2479V18.0778L53.3839 13.9996L57.2479 9.92239V6.22266Z" fill="#878A8E"/>
<path d="M66.5583 9.58905C68.655 9.58905 69.5005 11.1563 69.5005 12.2334H63.6152C63.6152 11.1435 64.4708 9.58905 66.5574 9.58905M69.0258 17.0696C68.6338 17.8868 67.7368 18.4402 66.5786 18.4402C64.3908 18.4402 63.526 16.7642 63.503 15.2721H74.371C74.4013 15.0616 74.4814 14.4647 74.4814 13.9993C74.4814 8.72834 71.105 5.75195 66.5408 5.75195C61.7302 5.75195 58.3657 8.72834 58.3657 13.9993C58.3657 19.2702 61.7302 22.2466 66.5694 22.2466C71.4086 22.2466 73.5632 19.4323 74.1603 17.0686H69.0267L69.0258 17.0696Z" fill="#878A8E"/>
</g>
<defs>
<clipPath id="clip0_56_144">
<rect width="92" height="28" fill="white"/>
</clipPath>
</defs>
</svg>
