<svg width="97" height="22" viewBox="0 0 97 22" fill="none" xmlns="http://www.w3.org/2000/svg">
<path d="M0 0H8.73565C13.133 0 16.2737 2.34232 16.2737 6.79463C16.2737 9.70721 14.846 11.7623 12.5902 12.7909L17.4438 21.271H12.4762L8.16538 13.5618H4.42485V21.271H0V0ZM8.76522 9.70721C10.6218 9.70721 11.8489 8.53711 11.8489 6.79463C11.8489 5.02469 10.6218 3.85458 8.76522 3.85458H4.42485V9.70721H8.76522Z" fill="#878A8E"/>
<path d="M33.2887 14.3334H22.3248C22.5825 16.304 23.9807 17.5607 26.0928 17.5607C27.6051 17.5607 28.7203 16.9038 29.318 15.8477L32.7438 17.4762C31.8018 19.7594 29.2314 21.2737 26.0337 21.2737C21.0935 21.2737 17.8683 17.6198 17.8683 13.1084C17.8683 8.4554 21.2941 5 25.7485 5C30.1164 5 33.4852 8.3688 33.4852 12.6796C33.4894 13.3048 33.4324 13.9046 33.2887 14.3334ZM28.9505 11.1927C28.7794 9.53679 27.5227 8.42372 25.7528 8.42372C24.0673 8.42372 22.8402 9.39528 22.4114 11.1927H28.9505Z" fill="#878A8E"/>
<path d="M58.2136 11.2505V21.2724H53.9303V12.165C53.9303 10.2515 52.9017 9.1954 51.3894 9.1954C49.8772 9.1954 48.8486 10.2515 48.8486 12.165V21.2724H44.5653V12.165C44.5653 10.2515 43.5367 9.1954 42.0244 9.1954C40.5121 9.1954 39.4835 10.2515 39.4835 12.165V21.2724H35.2002V5.68298H39.1963V7.56697C39.9376 6.08217 41.395 5.34082 43.279 5.34082C45.277 5.34082 46.9329 6.16876 47.9319 7.73805C48.8169 6.31027 50.5594 5.34082 52.6715 5.34082C55.9284 5.34082 58.2136 7.65357 58.2136 11.2505Z" fill="#878A8E"/>
<path d="M73.9109 7.10038L71.7249 10.7902C72.8232 12.4271 72.65 14.6659 71.2032 16.1127C69.5579 17.758 66.8903 17.758 65.245 16.1127C63.5996 14.4674 63.5996 11.7998 65.245 10.1545C65.4731 9.92637 65.7223 9.73417 65.9842 9.56943L65.9821 9.57576C66.6242 9.18502 67.3803 8.95903 68.1871 8.95903C68.5398 8.95903 68.882 9.00338 69.2094 9.08364L73.8602 0.628906H69.9254L67.9991 5.00095C63.4814 5.11078 59.8887 8.49859 59.8887 13.1325C59.8887 17.8425 63.5996 21.2705 68.2251 21.2705C72.8506 21.2705 76.5616 17.8446 76.5616 13.1325C76.5616 10.6677 75.5436 8.55562 73.9109 7.10038Z" fill="#878A8E"/>
<path d="M79.3644 13.7969H80.9379V21.6116H79.3644V13.7969Z" fill="#878A8E"/>
<path d="M86.8728 17.8351V21.6116H85.4048V21.0878C84.974 21.5398 84.4502 21.7383 83.7891 21.7383C82.488 21.7383 81.6707 21.0033 81.6707 20.0486C81.6707 19.1996 82.3423 18.6441 83.5061 18.4012L85.2992 18.0231V17.8351C85.2992 17.4043 84.9423 17.1213 84.4185 17.1213C83.863 17.1213 83.4005 17.4465 83.2336 17.9598L81.8798 17.3092C82.2156 16.3651 83.2019 15.7568 84.4185 15.7568C85.878 15.7589 86.8728 16.608 86.8728 17.8351ZM85.2992 19.4298V19.1573L83.7891 19.4931C83.4638 19.5671 83.297 19.7656 83.297 20.0275C83.297 20.3739 83.58 20.583 84.032 20.583C84.7438 20.583 85.2992 20.0697 85.2992 19.4298Z" fill="#878A8E"/>
<path d="M93.8386 18.7478C93.8386 20.4164 92.5903 21.7364 90.9218 21.7364C90.2185 21.7364 89.589 21.5062 89.1814 21.0648V21.6097H87.7135V13.7949H89.287V16.3653C89.6756 15.9767 90.2522 15.7571 90.9345 15.7571C92.5587 15.7592 93.8386 17.0708 93.8386 18.7478ZM92.2123 18.7478C92.2123 17.8354 91.5934 17.1743 90.7338 17.1743C89.8847 17.1743 89.287 17.8248 89.287 18.7478C89.287 19.6813 89.8847 20.3213 90.7338 20.3213C91.5934 20.3213 92.2123 19.6708 92.2123 18.7478Z" fill="#878A8E"/>
<path d="M94.7299 20.0381H96.3034V21.6116H94.7299V20.0381Z" fill="#878A8E"/>
</svg>
