<svg width="88" height="23" viewBox="0 0 88 23" fill="none" xmlns="http://www.w3.org/2000/svg">
<g clip-path="url(#clip0_56_108)">
<path d="M31.2495 7.35691C29.1499 6.54615 27.1772 6.16211 24.9759 6.16211C20.167 6.16211 16.7974 9.43076 16.7974 14.5855C16.7974 19.7402 19.7267 23.0089 24.9167 23.0089C27.0925 23.0259 29.2515 22.5821 31.2495 21.7116C31.7575 21.4812 32.0454 21.1313 32.0454 20.4144V8.65413C32.0454 7.91165 31.7575 7.5532 31.2495 7.35691ZM27.9053 17.948C27.9053 18.4345 27.6513 18.6564 27.1095 18.8185C26.4068 19.0233 25.6786 19.1172 24.9421 19.1087C22.9017 19.1087 20.9967 17.8797 20.9967 14.577C20.9967 11.2742 22.9101 10.0452 24.9421 10.0452C25.6702 10.0367 26.4068 10.1306 27.1095 10.3354C27.6513 10.4975 27.9053 10.728 27.9053 11.2059V17.9395V17.948Z" fill="#878A8E"/>
<path d="M4.44487 11.5642C4.44487 10.5742 5.43544 9.94267 7.12026 9.94267C8.80508 9.94267 10.3036 10.4974 11.9292 11.402C12.0731 11.4874 12.2424 11.5386 12.4033 11.5301C12.5472 11.5301 12.6912 11.4788 12.8182 11.402C12.9452 11.3252 13.0383 11.2143 13.106 11.0777L14.0966 8.93562C14.1813 8.76493 14.2236 8.57718 14.2236 8.38942C14.2236 8.25287 14.1897 8.12486 14.122 8.01391C14.0543 7.90297 13.9611 7.80909 13.8426 7.74081C11.8699 6.57161 9.51626 6.02541 7.25572 6.02541C2.98018 6.01688 0.237061 8.35528 0.237061 11.8544C0.237061 18.7245 10.4899 16.0618 10.4899 20.8239C10.4899 21.2336 10.4306 21.6347 10.3036 22.0187C10.2867 22.0785 10.2698 22.1467 10.2698 22.2065C10.2698 22.4625 10.4306 22.6588 10.7439 22.6588H13.6055C14.0797 22.6588 14.2744 22.4967 14.4353 22.0102C14.6215 21.4555 14.6892 20.713 14.6892 20.1668C14.6892 12.8187 4.43641 14.5939 4.43641 11.5557L4.44487 11.5642Z" fill="#878A8E"/>
<path d="M43.1195 6.15332C40.9352 6.17039 38.7762 6.56297 36.7189 7.32252C36.2702 7.48467 35.923 7.87725 35.923 8.61974V22.0272C35.923 22.1125 35.923 22.1978 35.9654 22.2832C35.9992 22.36 36.0416 22.4368 36.1008 22.4965C36.1601 22.5563 36.2363 22.6075 36.3125 22.6331C36.3887 22.6672 36.4734 22.6758 36.558 22.6758H39.4197C39.5043 22.6758 39.589 22.6758 39.6652 22.6331C39.7414 22.5904 39.8176 22.5563 39.8769 22.4965C39.9361 22.4368 39.9869 22.36 40.0123 22.2832C40.0462 22.2064 40.0546 22.1125 40.0462 22.0272V11.1459C40.0462 10.6594 40.3002 10.429 40.8082 10.301C41.5786 10.1132 42.3744 10.0194 43.1618 10.045C44.8805 10.045 46.2521 10.8557 46.2521 12.8016V22.0357C46.2521 22.121 46.2521 22.2064 46.2944 22.2917C46.3283 22.3685 46.3706 22.4453 46.4299 22.5051C46.4891 22.5648 46.5653 22.616 46.6415 22.6416C46.7177 22.6758 46.8024 22.6843 46.8871 22.6843H49.7572C49.8418 22.6843 49.9265 22.6843 50.0027 22.6416C50.0789 22.6075 50.1551 22.5648 50.2144 22.5051C50.2736 22.4453 50.3244 22.3685 50.3498 22.2917C50.3837 22.2149 50.3921 22.121 50.3921 22.0357V12.2554C50.3921 8.30397 47.9962 6.16185 43.0941 6.16185L43.1195 6.15332Z" fill="#878A8E"/>
<path d="M61.3646 6.15332C56.5896 6.15332 53.4655 9.68653 53.4655 14.5767C53.4655 19.4669 56.5896 23.0001 61.5848 23.0001C66.5799 23.0001 69.4839 19.4669 69.4839 14.5767C69.4839 9.68653 66.3598 6.15332 61.3646 6.15332ZM61.5932 19.1084C59.2396 19.1084 57.6733 17.5552 57.6733 14.5767C57.6733 11.5982 59.2311 10.045 61.3646 10.045C63.7183 10.045 65.2761 11.5982 65.2761 14.5767C65.2761 17.5552 63.7183 19.1084 61.5848 19.1084H61.5932Z" fill="#878A8E"/>
<path d="M87.2211 6.47754H84.3595C84.0039 6.47754 83.7245 6.76771 83.7245 7.12615V22.0271C83.7245 22.3855 84.0123 22.6757 84.3595 22.6757H87.2211C87.5767 22.6757 87.8561 22.3855 87.8561 22.0271V7.12615C87.8561 6.76771 87.5682 6.47754 87.2211 6.47754Z" fill="#878A8E"/>
<path d="M81.1083 0.230427C80.4479 0.0768089 79.7791 0 79.1018 0C75.1564 0 72.5742 2.13358 72.5742 6.80185V22.0271C72.5742 22.1124 72.5742 22.1978 72.6165 22.2831C72.6504 22.3599 72.6927 22.4367 72.752 22.4965C72.8112 22.5562 72.8874 22.6074 72.9636 22.633C73.0398 22.6672 73.1245 22.6757 73.2091 22.6757H76.0454C76.1301 22.6757 76.2147 22.6757 76.2909 22.633C76.3671 22.5989 76.4433 22.5562 76.5026 22.4965C76.5618 22.4367 76.6126 22.3599 76.638 22.2831C76.6719 22.2063 76.6804 22.1124 76.6804 22.0271V10.0449H80.7273C81.1422 10.0449 81.3623 9.78887 81.3623 9.39629V7.1603C81.3623 6.74211 81.1422 6.47755 80.7273 6.47755H76.6804V6.11911C76.6804 4.33544 77.4424 3.4308 79.1949 3.4308C79.8299 3.4308 80.5157 3.59295 80.7527 3.59295C81.1337 3.59295 81.2946 3.36252 81.3538 2.97848L81.6756 1.29722C81.7094 1.16067 81.7348 1.01558 81.7433 0.879035C81.7433 0.520594 81.5486 0.324304 81.1083 0.230427Z" fill="#878A8E"/>
<path d="M2.1674 18.5283C0.863575 18.5283 0 19.3732 0 20.7643C0 22.1554 0.863575 23.0003 2.26054 23.0003C3.56436 23.0003 4.42794 22.1213 4.42794 20.7643C4.42794 19.4074 3.56436 18.5283 2.1674 18.5283Z" fill="#878A8E"/>
<path d="M85.7395 0C84.4357 0 83.5721 0.844898 83.5721 2.23599C83.5721 3.62709 84.4357 4.47198 85.8326 4.47198C87.1364 4.47198 88 3.60148 88 2.23599C88 0.870501 87.1449 0 85.7395 0Z" fill="#878A8E"/>
</g>
<defs>
<clipPath id="clip0_56_108">
<rect width="88" height="23" fill="white"/>
</clipPath>
</defs>
</svg>
