<svg width="111" height="40" viewBox="0 0 111 40" fill="none" xmlns="http://www.w3.org/2000/svg">
<g clip-path="url(#clip0_60_421)">
<path d="M30.5821 10.3771C29.4448 10.3771 28.3076 10.3771 27.1703 10.3771C26.033 10.3771 24.9668 10.3771 23.8651 10.3771C23.8029 10.3771 23.7318 10.3771 23.6696 10.3771C23.1365 10.4216 22.9055 10.6348 22.8433 11.1324C22.8078 11.4611 22.8078 11.7899 22.8433 12.1097C22.8788 12.4829 23.0477 12.6695 23.4119 12.7672C23.5541 12.8027 23.6874 12.8294 23.8384 12.8294C26.0863 12.8294 28.3342 12.8294 30.5821 12.8294C30.6976 12.8294 30.7154 12.7938 30.7154 12.6872C30.7154 11.9587 30.7154 11.2301 30.7154 10.5015C30.7154 10.3949 30.6887 10.3594 30.5821 10.3594V10.3771Z" fill="#878A8E"/>
<path d="M47.9878 0H0V19.689H47.9878C50.3245 19.689 52.217 17.7965 52.217 15.4598V4.22923C52.217 1.89249 50.3245 0 47.9878 0ZM46.9749 14.598C45.962 14.598 44.9491 14.598 43.9362 14.598C43.8296 14.598 43.7674 14.5624 43.6963 14.4913C43.1366 13.9138 42.5768 13.3363 42.0171 12.7588C41.555 12.279 41.0841 11.7992 40.6221 11.3194C40.5421 11.2306 40.4977 11.2394 40.4178 11.3194C39.3782 12.3767 38.3298 13.434 37.2902 14.5002C37.2192 14.5713 37.1481 14.598 37.0504 14.598C32.5901 14.598 28.1387 14.598 23.6785 14.598C22.9943 14.598 22.3102 14.5535 21.6527 14.3314C21.0929 14.1359 20.6131 13.8339 20.3733 13.2563C20.24 12.9454 20.1867 12.6166 20.1778 12.2701C20.1689 11.737 20.1422 11.2039 20.2133 10.6708C20.3288 9.80897 20.8175 9.27588 21.626 9.01821C22.1858 8.84051 22.7722 8.78721 23.3586 8.78721C25.7487 8.78721 28.1387 8.78721 30.5288 8.78721C30.7509 8.78721 30.7154 8.81386 30.7154 8.59174C30.7154 8.41404 30.7065 8.23634 30.6709 8.05864C30.5554 7.49 30.3155 7.25011 29.7469 7.14349C29.5425 7.10795 29.3382 7.09018 29.125 7.09018C26.1929 7.09018 23.2609 7.09018 20.3288 7.09018C20.2311 7.09018 20.1689 7.11684 20.1156 7.1968C18.4807 9.43581 16.837 11.6659 15.2022 13.896C14.9001 14.3136 14.5269 14.6601 14.0116 14.7757C13.514 14.8912 13.0165 14.8912 12.5189 14.7579C12.0569 14.6335 11.7282 14.3225 11.4527 13.9494C10.04 12.0302 8.6362 10.1111 7.23237 8.19191C6.55711 7.26788 5.88185 6.35273 5.2066 5.4287C5.17106 5.38427 5.13552 5.33096 5.08221 5.25988H5.25991C6.2106 5.25988 7.17018 5.25988 8.12087 5.25988C8.23637 5.25988 8.29857 5.29542 8.36965 5.38427C9.98671 7.65882 11.6038 9.93336 13.2297 12.2168C13.2653 12.2701 13.3097 12.3323 13.363 12.3945C13.4874 12.2257 13.6029 12.0569 13.7184 11.8969C15.2555 9.72012 16.7837 7.54331 18.3208 5.35762C18.3741 5.28654 18.4274 5.25988 18.5074 5.25988C22.1236 5.25988 25.7398 5.25988 29.356 5.25988C30.1112 5.25988 30.8486 5.34873 31.5683 5.61528C32.6434 6.02399 33.212 6.81475 33.3631 7.94314C33.4075 8.25411 33.4164 8.56508 33.4164 8.87605C33.4164 10.1466 33.4164 11.4083 33.4164 12.6788C33.4164 12.8032 33.4519 12.8299 33.5674 12.8299C34.2694 12.8299 34.9713 12.8299 35.6643 12.8299C35.7443 12.8299 35.7976 12.8121 35.8598 12.7588C36.8727 11.7814 37.8855 10.7952 38.8984 9.82674C38.9784 9.74678 38.9606 9.71124 38.8984 9.64904C37.6012 8.41404 36.304 7.17015 34.9979 5.93514C34.7758 5.7219 34.5448 5.50866 34.3227 5.28654C34.376 5.251 34.4204 5.26877 34.4648 5.26877C35.4333 5.26877 36.4017 5.26877 37.3702 5.26877C37.4768 5.26877 37.5479 5.29542 37.619 5.37539C38.5963 6.36162 39.5826 7.33896 40.5599 8.3163C40.6399 8.39627 40.6754 8.40515 40.7643 8.3163C41.7772 7.32119 42.79 6.33496 43.8029 5.33985C43.8474 5.29542 43.8829 5.26877 43.954 5.26877C44.9846 5.26877 46.0064 5.26877 47.0371 5.26877C47.0459 5.26877 47.0637 5.26877 47.0993 5.27765C46.9038 5.46424 46.7172 5.64194 46.5217 5.81964C45.4555 6.82363 44.3893 7.82763 43.3231 8.82275C42.9944 9.12483 42.6745 9.43581 42.3458 9.73789C42.2658 9.80897 42.2836 9.84451 42.3458 9.90671C43.1454 10.6886 43.954 11.4616 44.7536 12.2434C45.5266 12.9987 46.2996 13.745 47.0726 14.5002C47.0993 14.5269 47.117 14.5535 47.1615 14.598H47.0015H46.9749Z" fill="#878A8E"/>
<path d="M60.2668 14.696V6.62847H57.3792V5.40234H64.5316V6.62847H61.6617V14.696H60.2668Z" fill="#878A8E"/>
<path d="M73.3099 14.6961L71.0976 11.1155H69.3561V14.6961H67.9612V5.39355H71.8795C73.6476 5.39355 74.8648 6.53971 74.8648 8.25451C74.8648 9.9693 73.7364 10.8223 72.5547 10.9733L74.9359 14.6961H73.3188H73.3099ZM71.6929 6.62856H69.3472V9.88933H71.6929C72.6969 9.88933 73.4254 9.23185 73.4254 8.25451C73.4254 7.27716 72.6969 6.61968 71.6929 6.61968V6.62856Z" fill="#878A8E"/>
<path d="M78.552 14.6961V5.39355H79.9469V14.6872H78.552V14.6961Z" fill="#878A8E"/>
<path d="M90.6356 14.696L89.8804 12.7768H85.3224L84.5671 14.696H83.03L86.7262 5.40234H88.4676L92.1638 14.696H90.6267H90.6356ZM87.5969 6.6107L85.7311 11.533H89.4805L87.5969 6.6107Z" fill="#878A8E"/>
<path d="M95.2646 14.6961V5.39355H96.6596V13.4611H100.88V14.6872H95.2646V14.6961Z" fill="#878A8E"/>
<path d="M104.612 12.3145C105.243 13.0075 106.247 13.6206 107.535 13.6206C109.036 13.6206 109.57 12.8565 109.57 12.1812C109.57 11.2039 108.512 10.9285 107.322 10.6175C105.829 10.2265 104.105 9.79118 104.105 7.89869C104.105 6.36159 105.456 5.25098 107.393 5.25098C108.832 5.25098 109.961 5.71299 110.778 6.54818L109.969 7.57883C109.259 6.82361 108.281 6.49487 107.277 6.49487C106.273 6.49487 105.536 7.02796 105.536 7.80095C105.536 8.63614 106.54 8.90269 107.695 9.19589C109.214 9.59571 110.982 10.0755 110.982 12.0568C110.982 13.5051 109.978 14.8556 107.473 14.8556C105.811 14.8556 104.603 14.2603 103.803 13.3807L104.594 12.3056L104.612 12.3145Z" fill="#878A8E"/>
<path d="M38.8984 37.3079V28.494H44.3094V29.4891H40.0713V32.3501H43.643V33.3452H40.0713V36.3216H44.4871V37.3168H38.8984V37.3079ZM46.2463 31.1861L46.273 32.0391C46.273 32.2968 46.2374 32.4833 46.2197 32.5011H46.2463C46.5751 31.6571 47.4547 31.0351 48.4853 31.0351C49.3827 31.0351 50.129 31.5327 50.3245 32.43H50.3334C50.7155 31.6748 51.524 31.0351 52.4658 31.0351C53.9851 31.0351 54.6071 31.9147 54.6071 33.4607V37.299H53.4698V33.6739C53.4698 32.7943 53.2477 32.0835 52.3236 32.0835C51.0175 32.0835 50.4756 33.3096 50.4756 34.4558V37.299H49.3383V33.665C49.3383 32.8476 49.1784 32.0835 48.2099 32.0835C46.9216 32.0835 46.3263 33.283 46.3263 34.4558V37.299H45.189V31.1773H46.2552L46.2463 31.1861ZM56.775 31.1861L56.8017 32.0391C56.8017 32.2968 56.7661 32.4833 56.7484 32.5011H56.775C57.1038 31.6571 57.9834 31.0351 59.014 31.0351C59.9114 31.0351 60.6577 31.5327 60.8532 32.43H60.8621C61.2442 31.6748 62.0527 31.0351 62.9945 31.0351C64.5138 31.0351 65.1358 31.9147 65.1358 33.4607V37.299H63.9985V33.6739C63.9985 32.7943 63.7764 32.0835 62.8523 32.0835C61.5462 32.0835 61.0043 33.3096 61.0043 34.4558V37.299H59.867V33.665C59.867 32.8476 59.7071 32.0835 58.7386 32.0835C57.4503 32.0835 56.855 33.283 56.855 34.4558V37.299H55.7177V31.1773H56.7839L56.775 31.1861ZM71.373 33.8961C71.373 34.1448 71.3464 34.3758 71.3464 34.4913H66.7973C66.8328 35.6997 67.6413 36.4638 68.9297 36.4638C69.7648 36.4638 70.6267 36.215 71.142 35.8863V36.9258C70.6622 37.1924 69.8448 37.45 68.8497 37.45C66.9128 37.45 65.6067 36.1439 65.6067 34.2426C65.6067 32.3412 66.9128 31.0351 68.6009 31.0351C70.3957 31.0351 71.3641 32.3767 71.3641 33.8872L71.373 33.8961ZM68.6009 31.9947C67.5525 31.9947 66.9128 32.8032 66.815 33.6828H70.2535C70.2624 32.8032 69.6938 31.9947 68.6009 31.9947ZM74.0829 34.6868C72.9901 34.3314 72.2349 33.8694 72.2349 32.7677C72.2349 31.7548 73.15 31.044 74.4295 31.044C75.0869 31.044 75.7355 31.2128 76.1531 31.4083V32.4389C75.7089 32.2079 75.1047 32.0124 74.5539 32.0124C73.8519 32.0124 73.31 32.2612 73.31 32.8121C73.31 33.3008 73.7364 33.5318 74.5716 33.8072C75.8688 34.2337 76.5085 34.7135 76.5085 35.7441C76.5085 36.8547 75.6023 37.4678 74.2784 37.4678C73.4788 37.4678 72.7769 37.299 72.2882 37.068V36.0284C72.8835 36.3216 73.6742 36.526 74.2429 36.526C74.8826 36.526 75.4512 36.3039 75.4512 35.7264C75.4512 35.2021 74.9981 34.9889 74.0918 34.6957L74.0829 34.6868ZM81.8395 37.4767C79.0496 37.4767 77.1038 35.4865 77.1038 32.9009C77.1038 30.3154 79.0763 28.3252 81.804 28.3252C83.1101 28.3252 84.0697 28.6895 84.5672 28.9205V30.6619C83.9897 30.3954 83.1101 30.0489 81.9284 30.0489C80.107 30.0489 79.0052 31.3372 79.0052 32.9009C79.0052 34.4647 80.107 35.7619 81.8484 35.7619C82.2749 35.7619 82.7458 35.6908 83.0479 35.5931V33.2475H84.8427V36.8103C84.0608 37.2101 82.9235 37.4856 81.8484 37.4856L81.8395 37.4767ZM85.9177 31.1861H87.5792L87.6148 31.7814C87.6148 31.968 87.6148 32.1102 87.6237 32.1813C88.0057 31.5238 88.6365 31.0084 89.4362 31.0084C89.6317 31.0084 89.8005 31.0351 89.8271 31.044V32.8299C89.8271 32.8299 89.6583 32.7588 89.4273 32.7588C88.4944 32.7588 87.7392 33.5762 87.7392 34.6957V37.299H85.9177V31.1773V31.1861ZM96.633 34.2515C96.633 36.1084 95.247 37.4856 93.3633 37.4856C91.4797 37.4856 90.1114 36.1173 90.1114 34.2515C90.1114 32.3856 91.4797 31.0173 93.3633 31.0173C95.247 31.0173 96.633 32.3856 96.633 34.2515ZM94.9093 34.2515C94.9093 33.2386 94.2341 32.5633 93.3633 32.5633C92.4926 32.5633 91.8351 33.2386 91.8351 34.2515C91.8351 35.2643 92.4926 35.9396 93.3633 35.9396C94.2341 35.9396 94.9093 35.2643 94.9093 34.2515ZM101.671 37.3079L101.617 36.606C101.609 36.3838 101.644 36.2417 101.671 36.1795H101.644C101.386 36.7392 100.578 37.4767 99.5651 37.4767C98.179 37.4767 97.4327 36.6326 97.4327 35.0156V31.1861H99.2719V34.7135C99.2719 35.3265 99.4407 35.8152 100.107 35.8152C100.942 35.8152 101.511 35.1577 101.511 34.2337V31.1861H103.332V37.3079H101.671ZM104.461 31.1861H106.122L106.158 31.7015C106.167 31.9503 106.122 32.1191 106.131 32.1191H106.158C106.442 31.5238 107.251 31.0173 108.139 31.0173C109.721 31.0173 110.991 32.2435 110.991 34.2515C110.991 36.2594 109.721 37.4856 108.192 37.4856C107.295 37.4856 106.593 37.0413 106.273 36.5438H106.247C106.247 36.5438 106.282 36.7126 106.282 37.0591V40.0089H104.461V31.195V31.1861ZM109.276 34.2515C109.276 33.2475 108.663 32.5633 107.819 32.5633C107.082 32.5633 106.353 33.1231 106.353 34.2515C106.353 35.3798 107.091 35.9396 107.819 35.9396C108.663 35.9396 109.276 35.2643 109.276 34.2515Z" fill="#878A8E"/>
<path d="M0 31.1861H1.04843L1.07508 31.8258C1.07508 32.0924 1.03954 32.279 1.03954 32.279H1.0662C1.38606 31.6392 2.23901 31.0439 3.23413 31.0439C4.8512 31.0439 6.07732 32.35 6.07732 34.2514C6.07732 36.1528 4.8512 37.4589 3.26079 37.4589C2.26567 37.4589 1.45714 36.8814 1.12839 36.2594H1.10174C1.10174 36.2594 1.13728 36.446 1.13728 36.7658V40.0088H0V31.195V31.1861ZM4.9667 34.2425C4.9667 32.972 4.21148 32.0302 3.06532 32.0302C2.15016 32.0302 1.14616 32.7143 1.14616 34.2425C1.14616 35.7707 2.15016 36.4549 3.06532 36.4549C4.20259 36.4549 4.9667 35.5397 4.9667 34.2425Z" fill="#878A8E"/>
<path d="M7.23234 31.4883C7.57886 31.3017 8.37851 31.0352 9.38251 31.0352C11.1062 31.0352 11.9503 31.8703 11.9503 33.3986V37.3079H10.9018V36.5882C10.8752 36.295 10.9285 36.0996 10.9285 36.0996H10.9018C10.8308 36.2684 10.1555 37.459 8.76944 37.459C7.64105 37.459 6.83252 36.7837 6.83252 35.6553C6.83252 34.1627 8.263 33.4163 10.8219 33.7717V33.4696C10.8219 32.4034 10.1822 32.0392 9.21369 32.0392C8.36962 32.0392 7.58774 32.3324 7.21457 32.5545V31.4972L7.23234 31.4883ZM10.813 34.5625C8.81387 34.2426 7.9698 34.7846 7.9698 35.6198C7.9698 36.1618 8.36074 36.5349 8.9738 36.5349C10.0133 36.5349 10.813 35.5221 10.813 34.5625Z" fill="#878A8E"/>
<path d="M12.9632 31.1862H14.0294V32.0392C14.0561 32.2702 14.0205 32.4567 14.0294 32.4923H14.0383C14.3937 31.6216 15.0423 31.0352 15.9219 31.0352C16.0907 31.0352 16.2418 31.0618 16.2862 31.0707V32.1724C16.2329 32.1635 16.1263 32.1369 15.9664 32.1369C14.7758 32.1369 14.0916 33.443 14.0916 34.6336V37.299H12.9543V31.1773L12.9632 31.1862Z" fill="#878A8E"/>
<path d="M18.1342 31.1859V29.3467H19.2448V31.1859H21.0929V32.1188H19.2448V35.2907C19.2448 36.1614 19.6358 36.4546 20.1511 36.4546C20.5332 36.4546 20.9596 36.348 21.3062 36.1881V37.1832C21.0396 37.3342 20.5332 37.4675 19.9379 37.4675C19.0583 37.4675 18.1253 37.0144 18.1253 35.6461V32.1366H17.1213V31.2036H18.1342V31.1859Z" fill="#878A8E"/>
<path d="M30.973 34.2426C30.973 36.0907 29.6403 37.4501 27.8189 37.4501C25.9974 37.4501 24.6736 36.0907 24.6736 34.2426C24.6736 32.3946 26.0063 31.0352 27.8189 31.0352C29.6314 31.0352 30.973 32.3946 30.973 34.2426ZM29.8713 34.2426C29.8713 32.9454 29.0006 32.0303 27.8189 32.0303C26.6372 32.0303 25.7753 32.9454 25.7753 34.2426C25.7753 35.5398 26.646 36.455 27.8189 36.455C28.9917 36.455 29.8713 35.5398 29.8713 34.2426Z" fill="#878A8E"/>
<path d="M32.2791 31.1859V30.5017C32.2791 29.2045 33.1143 28.3516 34.4914 28.3516C34.8468 28.3516 35.14 28.4049 35.2378 28.4226V29.4178C35.14 29.3911 34.8912 29.3467 34.598 29.3467C33.8162 29.3467 33.3364 29.7909 33.3364 30.6083V31.1947H34.9623V32.1277H33.3719V37.3165H32.2346V32.1277H31.3284V31.1947H32.2702L32.2791 31.1859Z" fill="#878A8E"/>
</g>
<defs>
<clipPath id="clip0_60_421">
<rect width="111" height="40" fill="white"/>
</clipPath>
</defs>
</svg>
