<svg width="64" height="64" viewBox="0 0 64 64" fill="none" xmlns="http://www.w3.org/2000/svg">
<rect width="64" height="64" rx="10" fill="#FF2951"/>
<g clip-path="url(#clip0_270_44)">
<path d="M41.4852 30.9753L31.0002 37.2673L20.5152 30.9753C20.2877 30.8388 20.0154 30.7983 19.7581 30.8626C19.5008 30.9269 19.2796 31.0909 19.1432 31.3183C19.0067 31.5457 18.9662 31.818 19.0305 32.0753C19.0948 32.3326 19.2587 32.5538 19.4862 32.6903L30.4862 39.2903C30.6417 39.3837 30.8197 39.4331 31.0012 39.4331C31.1826 39.4331 31.3606 39.3837 31.5162 39.2903L42.5162 32.6903C42.7436 32.5538 42.9075 32.3326 42.9718 32.0753C43.0361 31.818 42.9956 31.5457 42.8592 31.3183C42.7227 31.0909 42.5015 30.9269 42.2442 30.8626C41.9869 30.7983 41.7146 30.8388 41.4872 30.9753H41.4852Z" fill="white"/>
<path d="M41.4852 35.5429L31.0002 41.8339L20.5152 35.5429C20.4026 35.4753 20.2778 35.4306 20.1479 35.4113C20.018 35.392 19.8856 35.3984 19.7582 35.4303C19.6308 35.4621 19.5109 35.5187 19.4054 35.5969C19.2999 35.6751 19.2108 35.7733 19.1432 35.8859C19.0756 35.9985 19.0309 36.1233 19.0116 36.2532C18.9923 36.3831 18.9987 36.5155 19.0306 36.6429C19.0949 36.9002 19.2588 37.1215 19.4862 37.2579L30.4862 43.8579C30.6417 43.9514 30.8198 44.0007 31.0012 44.0007C31.1827 44.0007 31.3607 43.9514 31.5162 43.8579L42.5162 37.2579C42.7436 37.1215 42.9075 36.9002 42.9719 36.6429C43.0362 36.3856 42.9957 36.1133 42.8592 35.8859C42.7228 35.6585 42.5016 35.4946 42.2442 35.4303C41.9869 35.3659 41.7146 35.4064 41.4872 35.5429H41.4852Z" fill="white"/>
<path d="M30.9999 34.7733C30.4605 34.773 29.9313 34.6261 29.4689 34.3483L19.4849 28.3573C19.3371 28.2684 19.2147 28.1428 19.1298 27.9926C19.0449 27.8424 19.0002 27.6728 19.0002 27.5003C19.0002 27.3278 19.0449 27.1582 19.1298 27.008C19.2147 26.8578 19.3371 26.7322 19.4849 26.6433L29.4689 20.6523C29.9313 20.3745 30.4605 20.2278 30.9999 20.2278C31.5393 20.2278 32.0685 20.3745 32.5309 20.6523L42.5149 26.6433C42.6628 26.7322 42.7851 26.8578 42.87 27.008C42.955 27.1582 42.9996 27.3278 42.9996 27.5003C42.9996 27.6728 42.955 27.8424 42.87 27.9926C42.7851 28.1428 42.6628 28.2684 42.5149 28.3573L32.5309 34.3483C32.0685 34.6261 31.5393 34.773 30.9999 34.7733ZM21.9439 27.5003L30.4999 32.6333C30.651 32.7237 30.8238 32.7714 30.9999 32.7714C31.176 32.7714 31.3488 32.7237 31.4999 32.6333L40.0559 27.5003L31.4999 22.3673C31.3488 22.2769 31.176 22.2292 30.9999 22.2292C30.8238 22.2292 30.651 22.2769 30.4999 22.3673L21.9439 27.5003Z" fill="white"/>
</g>
<defs>
<clipPath id="clip0_270_44">
<rect width="24" height="24" fill="white" transform="translate(19 20)"/>
</clipPath>
</defs>
</svg>
