<svg width="64" height="64" viewBox="0 0 64 64" fill="none" xmlns="http://www.w3.org/2000/svg">
<rect width="64" height="64" rx="10" fill="#2A00FF"/>
<g clip-path="url(#clip0_272_47)">
<path d="M43.1469 29.471L42.3599 28.4C41.8146 27.6579 41.1027 27.0542 40.2815 26.6374C39.4603 26.2205 38.5528 26.0022 37.6319 26H26.3829C25.4809 26.0024 24.5915 26.2118 23.7833 26.6121C22.975 27.0124 22.2694 27.593 21.7209 28.309L20.8999 29.383C20.2334 30.2623 19.92 31.3592 20.0214 32.4579C20.1228 33.5566 20.6317 34.5776 21.4479 35.32L29.4379 43.027C30.1397 43.6528 31.0476 43.9979 31.9879 43.996C32.9481 43.9941 33.8739 43.638 34.5879 42.996L42.5239 35.363C43.3448 34.6361 43.864 33.6283 43.9793 32.5379C44.0945 31.4476 43.7976 30.3535 43.1469 29.471ZM40.7469 29.578L41.5339 30.652C41.613 30.7619 41.6826 30.8783 41.7419 31H36.9509C36.8785 30.5211 36.7538 30.0516 36.5789 29.6L35.9389 28H37.6319C38.2384 28.0011 38.8361 28.1445 39.3771 28.4186C39.9181 28.6926 40.3872 29.0897 40.7469 29.578ZM31.9899 40.088L29.2209 33.818C29.1208 33.5528 29.0451 33.279 28.9949 33H34.9469C34.905 33.2199 34.8461 33.4362 34.7709 33.647L31.9899 40.088ZM29.0999 31C29.1417 30.8207 29.1942 30.6441 29.2569 30.471L30.2409 28H33.7849L34.7219 30.343C34.8042 30.5569 34.871 30.7765 34.9219 31H29.0999ZM23.3109 29.521C23.6725 29.0493 24.1374 28.667 24.67 28.4033C25.2026 28.1396 25.7886 28.0016 26.3829 28H28.0829L27.3999 29.729C27.2351 30.1392 27.1122 30.5651 27.0329 31H22.2449C22.3135 30.8587 22.3963 30.7246 22.4919 30.6L23.3109 29.521ZM22.8109 33.854C22.55 33.6174 22.3451 33.3257 22.2109 33H26.9829C27.0492 33.5388 27.1791 34.0678 27.3699 34.576L30.1969 40.976L22.8109 33.854ZM33.7709 41.014L36.6249 34.4C36.7906 33.9474 36.9059 33.4779 36.9689 33H41.7999C41.6584 33.3433 41.4421 33.6507 41.1669 33.9L33.7709 41.014Z" fill="white"/>
<path d="M31.9999 24C32.2651 24 32.5195 23.8946 32.707 23.7071C32.8946 23.5196 32.9999 23.2652 32.9999 23V21C32.9999 20.7348 32.8946 20.4804 32.707 20.2929C32.5195 20.1054 32.2651 20 31.9999 20C31.7347 20 31.4804 20.1054 31.2928 20.2929C31.1053 20.4804 30.9999 20.7348 30.9999 21V23C30.9999 23.2652 31.1053 23.5196 31.2928 23.7071C31.4804 23.8946 31.7347 24 31.9999 24Z" fill="white"/>
<path d="M36.5529 23.8999C36.671 23.9593 36.7996 23.9947 36.9314 24.004C37.0633 24.0133 37.1956 23.9965 37.3209 23.9543C37.4461 23.9122 37.5618 23.8457 37.6612 23.7586C37.7606 23.6715 37.8417 23.5656 37.8999 23.4469L38.8999 21.4469C39.0185 21.2096 39.0379 20.9348 38.9538 20.6831C38.8698 20.4315 38.6893 20.2235 38.4519 20.1049C38.2145 19.9864 37.9398 19.967 37.6881 20.051C37.4364 20.135 37.2285 20.3156 37.1099 20.5529L36.1099 22.5529C36.0502 22.6704 36.0143 22.7985 36.0042 22.9299C35.9942 23.0613 36.0102 23.1933 36.0514 23.3185C36.0925 23.4437 36.158 23.5595 36.2441 23.6593C36.3302 23.7591 36.4351 23.8408 36.5529 23.8999Z" fill="white"/>
<path d="M26.105 23.4469C26.2236 23.685 26.4318 23.8661 26.684 23.9506C26.9361 24.0351 27.2115 24.016 27.4495 23.8974C27.6875 23.7789 27.8687 23.5706 27.9532 23.3185C28.0377 23.0663 28.0186 22.791 27.9 22.5529L26.9 20.5529C26.8413 20.4354 26.76 20.3306 26.6608 20.2445C26.5616 20.1583 26.4464 20.0926 26.3218 20.051C26.0701 19.967 25.7954 19.9864 25.558 20.1049C25.3206 20.2235 25.1401 20.4315 25.0561 20.6831C24.9721 20.9348 24.9915 21.2096 25.11 21.4469L26.105 23.4469Z" fill="white"/>
</g>
<defs>
<clipPath id="clip0_272_47">
<rect width="24" height="24" fill="white" transform="translate(20 20)"/>
</clipPath>
</defs>
</svg>
