<svg width="40" height="19" viewBox="0 0 40 19" fill="none" xmlns="http://www.w3.org/2000/svg">
<g clip-path="url(#clip0_17_181)">
<path d="M33.9893 2.67749C30.5818 1.10735 26.1637 0.178425 21.4225 0.0234182C21.1257 0.0100364 20.8278 0 20.5288 0C20.4852 0 20.4417 0.00223031 20.3982 0.00223031C20.2652 0.00111515 20.1335 0 20.0006 0C14.7254 0 9.75738 0.951227 6.01071 2.67749C2.13457 4.46508 0 6.88719 0 9.5C0 12.1128 2.13457 14.5349 6.01071 16.3225C9.75624 18.0499 14.7243 19 20.0006 19C20.1335 19 20.2664 19 20.3982 18.9978C20.4417 18.9978 20.4852 19 20.5288 19C20.829 19 21.1257 18.99 21.4225 18.9766C26.1637 18.8216 30.5829 17.8927 33.9893 16.3225C37.8654 14.536 40 12.1128 40 9.5C40 6.88719 37.8654 4.46508 33.9893 2.67749ZM24.838 9.5C24.838 14.0063 22.9211 17.8213 20.6296 17.9317C20.5792 17.9317 20.5276 17.9339 20.4772 17.9339C18.1639 17.877 16.2195 14.0387 16.2195 9.5C16.2195 4.96132 18.1628 1.12296 20.4761 1.06609C20.5276 1.06609 20.578 1.06832 20.6285 1.06832C22.92 1.1776 24.8369 4.99255 24.8369 9.5H24.838ZM15.1253 9.5C15.1253 13.0529 16.1806 16.0917 17.7824 17.722C12.3537 16.86 8.29309 13.5012 8.29309 9.5C8.29309 5.49883 12.3548 2.13887 17.7835 1.27797C16.1817 2.90832 15.1265 5.94712 15.1265 9.5H15.1253ZM25.9311 9.5C25.9311 5.94712 24.8758 2.90832 23.274 1.27797C28.7027 2.13998 32.7633 5.49883 32.7633 9.5C32.7633 13.5012 28.7027 16.8611 23.274 17.722C24.8758 16.0917 25.9311 13.0529 25.9311 9.5ZM6.47819 15.3613C3.00536 13.7599 1.09307 11.679 1.09307 9.5C1.09307 7.32099 3.00536 5.24011 6.47819 3.63875C8.35496 2.77339 10.5571 2.11099 12.9598 1.67496C12.3285 1.98609 11.7281 2.33513 11.1713 2.72655C8.61161 4.52307 7.20117 6.92845 7.20117 9.5C7.20117 12.0715 8.61161 14.4769 11.1713 16.2734C11.7293 16.6649 12.3285 17.0139 12.9598 17.325C10.5571 16.889 8.35496 16.2266 6.47819 15.3613ZM33.5218 15.3613C32.1125 16.0114 30.5187 16.5455 28.7955 16.957C29.1725 16.744 29.538 16.5166 29.8851 16.2734C32.4448 14.4769 33.8552 12.0715 33.8552 9.5C33.8552 6.92845 32.4448 4.52307 29.8851 2.72655C29.538 2.48233 29.1725 2.25596 28.7955 2.04296C30.5187 2.45445 32.1125 2.98861 33.5218 3.63875C36.9946 5.24011 38.9069 7.32099 38.9069 9.5C38.9069 11.679 36.9946 13.7599 33.5218 15.3613Z" fill="#86A6C5"/>
</g>
<defs>
<clipPath id="clip0_17_181">
<rect width="40" height="19" fill="white"/>
</clipPath>
</defs>
</svg>
