<svg width="64" height="64" viewBox="0 0 64 64" fill="none" xmlns="http://www.w3.org/2000/svg">
<rect width="64" height="64" rx="10" fill="#FF2951"/>
<path d="M32.0001 28.0005C31.209 28.0005 30.4356 28.2351 29.7778 28.6746C29.12 29.1141 28.6074 29.7388 28.3046 30.4698C28.0019 31.2007 27.9226 32.0049 28.077 32.7808C28.2313 33.5568 28.6123 34.2695 29.1717 34.8289C29.7311 35.3883 30.4438 35.7693 31.2198 35.9236C31.9957 36.078 32.8 35.9988 33.5309 35.696C34.2618 35.3933 34.8865 34.8806 35.326 34.2228C35.7655 33.565 36.0001 32.7916 36.0001 32.0005C36.0001 30.9396 35.5787 29.9222 34.8286 29.1721C34.0784 28.4219 33.061 28.0005 32.0001 28.0005ZM32.0001 34.0005C31.6046 34.0005 31.2179 33.8832 30.889 33.6634C30.5601 33.4437 30.3037 33.1313 30.1524 32.7659C30.001 32.4004 29.9614 31.9983 30.0386 31.6103C30.1157 31.2223 30.3062 30.866 30.5859 30.5863C30.8656 30.3066 31.222 30.1161 31.6099 30.0389C31.9979 29.9617 32.4 30.0014 32.7655 30.1527C33.1309 30.3041 33.4433 30.5604 33.6631 30.8893C33.8828 31.2182 34.0001 31.6049 34.0001 32.0005C34.0001 32.5309 33.7894 33.0396 33.4143 33.4147C33.0393 33.7898 32.5306 34.0005 32.0001 34.0005Z" fill="white"/>
<path d="M41.294 33.9L40.85 33.644C41.0499 32.5564 41.0499 31.4416 40.85 30.354L41.294 30.098C41.6355 29.901 41.9348 29.6387 42.1748 29.3261C42.4149 29.0134 42.591 28.6565 42.6932 28.2758C42.7953 27.8951 42.8215 27.498 42.7702 27.1072C42.7188 26.7163 42.591 26.3394 42.394 25.998C42.1971 25.6566 41.9348 25.3573 41.6221 25.1172C41.3095 24.8771 40.9526 24.701 40.5719 24.5989C40.1911 24.4967 39.794 24.4706 39.4032 24.5219C39.0124 24.5732 38.6355 24.701 38.294 24.898L37.849 25.155C37.0086 24.4369 36.0427 23.8802 35 23.513V23C35 22.2044 34.684 21.4413 34.1214 20.8787C33.5588 20.3161 32.7957 20 32 20C31.2044 20 30.4413 20.3161 29.8787 20.8787C29.3161 21.4413 29 22.2044 29 23V23.513C27.9574 23.8816 26.9919 24.4396 26.152 25.159L25.705 24.9C25.0155 24.5022 24.1961 24.3946 23.4272 24.6009C22.6583 24.8072 22.0029 25.3104 21.605 26C21.2072 26.6896 21.0996 27.5089 21.3059 28.2778C21.5122 29.0467 22.0155 29.7022 22.705 30.1L23.149 30.356C22.9492 31.4436 22.9492 32.5584 23.149 33.646L22.705 33.902C22.0155 34.2998 21.5122 34.9553 21.3059 35.7242C21.0996 36.4931 21.2072 37.3124 21.605 38.002C22.0029 38.6916 22.6583 39.1948 23.4272 39.4011C24.1961 39.6074 25.0155 39.4998 25.705 39.102L26.15 38.845C26.9908 39.5632 27.957 40.1199 29 40.487V41C29 41.7956 29.3161 42.5587 29.8787 43.1213C30.4413 43.6839 31.2044 44 32 44C32.7957 44 33.5588 43.6839 34.1214 43.1213C34.684 42.5587 35 41.7956 35 41V40.487C36.0427 40.1184 37.0082 39.5604 37.848 38.841L38.295 39.099C38.9846 39.4968 39.804 39.6044 40.5729 39.3981C41.3418 39.1918 41.9972 38.6886 42.395 37.999C42.7929 37.3094 42.9005 36.4901 42.6942 35.7212C42.4879 34.9523 41.9846 34.2968 41.295 33.899L41.294 33.9ZM38.746 30.124C39.0847 31.3511 39.0847 32.6469 38.746 33.874C38.6869 34.0876 38.7004 34.3147 38.7844 34.5198C38.8684 34.7249 39.0181 34.8963 39.21 35.007L40.294 35.633C40.5239 35.7656 40.6916 35.9841 40.7603 36.2403C40.829 36.4966 40.7932 36.7697 40.6605 36.9995C40.5279 37.2293 40.3095 37.397 40.0532 37.4658C39.7969 37.5345 39.5239 37.4986 39.294 37.366L38.208 36.738C38.0159 36.6267 37.7923 36.5826 37.5723 36.6124C37.3523 36.6423 37.1485 36.7445 36.993 36.903C36.103 37.8117 34.9816 38.46 33.75 38.778C33.5351 38.8333 33.3446 38.9585 33.2086 39.1339C33.0727 39.3094 32.9989 39.525 32.999 39.747V41C32.999 41.2652 32.8937 41.5196 32.7062 41.7071C32.5186 41.8946 32.2643 42 31.999 42C31.7338 42 31.4795 41.8946 31.2919 41.7071C31.1044 41.5196 30.999 41.2652 30.999 41V39.748C30.9992 39.526 30.9254 39.3104 30.7894 39.1349C30.6535 38.9595 30.463 38.8343 30.248 38.779C29.0164 38.4597 27.8954 37.81 27.006 36.9C26.8506 36.7415 26.6468 36.6393 26.4268 36.6094C26.2068 36.5796 25.9831 36.6237 25.791 36.735L24.707 37.362C24.5933 37.4287 24.4674 37.4722 24.3368 37.4901C24.2061 37.508 24.0732 37.4998 23.9457 37.4661C23.8182 37.4324 23.6986 37.3738 23.5939 37.2937C23.4891 37.2136 23.4012 37.1135 23.3353 36.9993C23.2693 36.8851 23.2266 36.759 23.2096 36.6282C23.1926 36.4974 23.2017 36.3646 23.2362 36.2373C23.2708 36.11 23.3302 35.9909 23.411 35.8866C23.4918 35.7824 23.5924 35.6952 23.707 35.63L24.791 35.004C24.983 34.8933 25.1327 34.7219 25.2167 34.5168C25.3007 34.3117 25.3142 34.0846 25.255 33.871C24.9164 32.6439 24.9164 31.3481 25.255 30.121C25.3131 29.9079 25.299 29.6815 25.2149 29.4773C25.1307 29.273 24.9814 29.1024 24.79 28.992L23.706 28.366C23.4762 28.2334 23.3085 28.0149 23.2398 27.7587C23.171 27.5024 23.2069 27.2293 23.3395 26.9995C23.4722 26.7697 23.6906 26.602 23.9469 26.5332C24.2032 26.4645 24.4762 26.5004 24.706 26.633L25.792 27.261C25.9836 27.3725 26.2068 27.4172 26.4266 27.3881C26.6463 27.3589 26.8502 27.2576 27.006 27.1C27.8961 26.1913 29.0175 25.543 30.249 25.225C30.4647 25.1696 30.6556 25.0438 30.7917 24.8675C30.9277 24.6913 31.001 24.4746 31 24.252V23C31 22.7348 31.1054 22.4804 31.2929 22.2929C31.4805 22.1054 31.7348 22 32 22C32.2653 22 32.5196 22.1054 32.7071 22.2929C32.8947 22.4804 33 22.7348 33 23V24.252C32.9999 24.474 33.0737 24.6896 33.2096 24.8651C33.3456 25.0405 33.5361 25.1657 33.751 25.221C34.9831 25.5402 36.1044 26.1899 36.994 27.1C37.1495 27.2585 37.3533 27.3607 37.5733 27.3906C37.7933 27.4204 38.0169 27.3763 38.209 27.265L39.293 26.638C39.4068 26.5713 39.5327 26.5278 39.6633 26.5099C39.794 26.492 39.9269 26.5002 40.0544 26.5339C40.1819 26.5676 40.3015 26.6262 40.4062 26.7063C40.511 26.7864 40.5989 26.8865 40.6648 27.0007C40.7307 27.1149 40.7734 27.241 40.7904 27.3718C40.8074 27.5026 40.7984 27.6354 40.7639 27.7627C40.7293 27.89 40.6699 28.0091 40.5891 28.1134C40.5083 28.2176 40.4077 28.3048 40.293 28.37L39.209 28.996C39.0181 29.1067 38.8691 29.2775 38.7854 29.4817C38.7016 29.6859 38.6878 29.9121 38.746 30.125V30.124Z" fill="white"/>
</svg>
