<svg width="64" height="64" viewBox="0 0 64 64" fill="none" xmlns="http://www.w3.org/2000/svg">
<rect width="64" height="64" rx="10" fill="#2A00FF"/>
<g clip-path="url(#clip0_270_45)">
<path d="M33 21V23C33 23.2652 32.8946 23.5196 32.7071 23.7071C32.5196 23.8946 32.2652 24 32 24C31.7348 24 31.4804 23.8946 31.2929 23.7071C31.1054 23.5196 31 23.2652 31 23V21C31 20.7348 31.1054 20.4804 31.2929 20.2929C31.4804 20.1054 31.7348 20 32 20C32.2652 20 32.5196 20.1054 32.7071 20.2929C32.8946 20.4804 33 20.7348 33 21ZM32 40C31.7348 40 31.4804 40.1054 31.2929 40.2929C31.1054 40.4804 31 40.7348 31 41V43C31 43.2652 31.1054 43.5196 31.2929 43.7071C31.4804 43.8946 31.7348 44 32 44C32.2652 44 32.5196 43.8946 32.7071 43.7071C32.8946 43.5196 33 43.2652 33 43V41C33 40.7348 32.8946 40.4804 32.7071 40.2929C32.5196 40.1054 32.2652 40 32 40ZM24 32C24 31.7348 23.8946 31.4804 23.7071 31.2929C23.5196 31.1054 23.2652 31 23 31H21C20.7348 31 20.4804 31.1054 20.2929 31.2929C20.1054 31.4804 20 31.7348 20 32C20 32.2652 20.1054 32.5196 20.2929 32.7071C20.4804 32.8946 20.7348 33 21 33H23C23.2652 33 23.5196 32.8946 23.7071 32.7071C23.8946 32.5196 24 32.2652 24 32ZM43 31H41C40.7348 31 40.4804 31.1054 40.2929 31.2929C40.1054 31.4804 40 31.7348 40 32C40 32.2652 40.1054 32.5196 40.2929 32.7071C40.4804 32.8946 40.7348 33 41 33H43C43.2652 33 43.5196 32.8946 43.7071 32.7071C43.8946 32.5196 44 32.2652 44 32C44 31.7348 43.8946 31.4804 43.7071 31.2929C43.5196 31.1054 43.2652 31 43 31ZM38.018 21.618C37.9044 21.5521 37.7788 21.5092 37.6486 21.4919C37.5184 21.4745 37.386 21.483 37.2591 21.5168C37.1321 21.5506 37.0131 21.6091 36.9088 21.6889C36.8044 21.7687 36.7168 21.8683 36.651 21.982L35.651 23.713C35.5183 23.9426 35.4822 24.2154 35.5507 24.4716C35.6191 24.7277 35.7865 24.9462 36.016 25.079C36.1677 25.1677 36.3403 25.2143 36.516 25.214C36.6915 25.214 36.864 25.1678 37.016 25.08C37.168 24.9923 37.2942 24.866 37.382 24.714L38.382 22.983C38.5145 22.7537 38.5505 22.4811 38.4823 22.2252C38.414 21.9693 38.2471 21.7509 38.018 21.618ZM27.987 38.921C27.7576 38.7882 27.4848 38.752 27.2287 38.8202C26.9725 38.8885 26.7539 39.0557 26.621 39.285L25.621 41.016C25.4882 41.2454 25.452 41.5182 25.5202 41.7743C25.5885 42.0305 25.7557 42.2491 25.985 42.382C26.1367 42.4706 26.3093 42.5172 26.485 42.517C26.6607 42.5172 26.8333 42.471 26.9856 42.3833C27.1378 42.2955 27.2641 42.1692 27.352 42.017L28.352 40.286C28.4844 40.0565 28.5203 39.7839 28.4518 39.528C28.3834 39.2721 28.2162 39.0538 27.987 38.921ZM24.715 26.621L22.984 25.621C22.7551 25.4978 22.4871 25.4686 22.237 25.5396C21.9869 25.6106 21.7743 25.7762 21.6442 26.0014C21.5142 26.2265 21.4769 26.4934 21.5403 26.7456C21.6038 26.9977 21.7629 27.2152 21.984 27.352L23.715 28.352C23.9439 28.4752 24.2119 28.5044 24.462 28.4334C24.7121 28.3624 24.9247 28.1968 25.0548 27.9716C25.1848 27.7465 25.2221 27.4796 25.1587 27.2274C25.0952 26.9753 24.9361 26.7578 24.715 26.621ZM42.015 36.651L40.284 35.651C40.0551 35.5278 39.7871 35.4986 39.537 35.5696C39.2869 35.6406 39.0743 35.8062 38.9442 36.0314C38.8142 36.2565 38.7769 36.5234 38.8403 36.7756C38.9038 37.0277 39.0629 37.2452 39.284 37.382L41.015 38.382C41.1667 38.4707 41.3393 38.5173 41.515 38.517C41.7351 38.517 41.9491 38.4443 42.1237 38.3103C42.2984 38.1763 42.4239 37.9884 42.4809 37.7758C42.5379 37.5632 42.5231 37.3377 42.4388 37.1343C42.3546 36.931 42.2056 36.7611 42.015 36.651ZM27.349 21.982C27.2122 21.7609 26.9947 21.6018 26.7426 21.5383C26.4904 21.4749 26.2235 21.5122 25.9984 21.6422C25.7732 21.7723 25.6076 21.9849 25.5366 22.235C25.4656 22.4851 25.4948 22.7531 25.618 22.982L26.618 24.713C26.7058 24.865 26.832 24.9913 26.984 25.079C27.136 25.1668 27.3085 25.213 27.484 25.213C27.6597 25.2133 27.8323 25.1667 27.984 25.078C28.2135 24.9452 28.3809 24.7267 28.4493 24.4706C28.5178 24.2144 28.4817 23.9416 28.349 23.712L27.349 21.982ZM37.379 39.282C37.2422 39.0609 37.0247 38.9018 36.7726 38.8383C36.5204 38.7749 36.2535 38.8122 36.0284 38.9422C35.8032 39.0723 35.6376 39.2849 35.5666 39.535C35.4956 39.7851 35.5248 40.0531 35.648 40.282L36.648 42.013C36.7848 42.2341 37.0023 42.3932 37.2544 42.4567C37.5066 42.5201 37.7735 42.4828 37.9986 42.3528C38.2238 42.2227 38.3894 42.0101 38.4604 41.76C38.5314 41.5099 38.5022 41.2419 38.379 41.013L37.379 39.282ZM39.787 28.482C39.9625 28.482 40.135 28.4358 40.287 28.348L42.018 27.348C42.2391 27.2112 42.3982 26.9937 42.4617 26.7416C42.5251 26.4894 42.4878 26.2225 42.3578 25.9974C42.2277 25.7722 42.0151 25.6066 41.765 25.5356C41.5149 25.4646 41.2469 25.4938 41.018 25.617L39.287 26.617C39.0969 26.7273 38.9484 26.8972 38.8645 27.1003C38.7806 27.3035 38.766 27.5286 38.8229 27.741C38.8798 27.9533 39.0051 28.1409 39.1794 28.2749C39.3536 28.4088 39.5672 28.4816 39.787 28.482ZM23.713 35.648L21.982 36.648C21.7914 36.7581 21.6424 36.928 21.5582 37.1313C21.4739 37.3347 21.4591 37.5602 21.5161 37.7728C21.5731 37.9854 21.6986 38.1733 21.8733 38.3073C22.0479 38.4413 22.2619 38.514 22.482 38.514C22.6577 38.5143 22.8303 38.4677 22.982 38.379L24.713 37.379C24.9341 37.2422 25.0932 37.0247 25.1567 36.7726C25.2201 36.5204 25.1828 36.2535 25.0528 36.0284C24.9227 35.8032 24.7101 35.6376 24.46 35.5666C24.2099 35.4956 23.9419 35.5248 23.713 35.648Z" fill="white"/>
</g>
<defs>
<clipPath id="clip0_270_45">
<rect width="24" height="24" fill="white" transform="translate(20 20)"/>
</clipPath>
</defs>
</svg>
